<svg width="144" height="144" viewBox="0 0 144 144" fill="none" xmlns="http://www.w3.org/2000/svg">
<path d="M13.8465 48.1365C12.438 37.008 19.998 21.753 28.899 14.7555C31.536 12.6855 40.419 15.075 42.723 13.842C48.168 10.926 57.078 7.09199 62.424 10.1925C65.736 12.114 63.873 16.713 67.158 18.6885C73.4715 22.491 89.928 16.29 96.3495 19.9035C102.037 23.103 105.372 48.951 110.772 52.6095C113.782 54.648 128.097 47.3985 130.005 51.8535C133.641 60.336 108.9 74.367 106.33 81.6885C104.323 87.4035 112.437 93.2715 107.59 96.9075C100.323 102.361 102.973 110.619 100.777 112.203C93.8295 117.211 96.5205 120.177 91.791 127.323C86.5395 135.256 78.264 135.198 72.0045 134.986C65.952 134.784 58.797 117.643 57.771 111.672C56.7225 105.583 63.171 97.3755 62.316 91.377C61.461 85.3785 55.8495 87.4305 52.623 81.3825C49.392 75.3255 52.4295 67.149 48.7935 62.3025C46.4175 59.1345 28.4535 64.2285 25.425 61.6185C21.0195 57.8295 14.562 53.7795 13.8465 48.1365ZM125.311 87.237C126.193 85.8015 128.232 85.896 128.812 87.48C131.958 96.0345 130.59 115.69 124.663 119.767C120.739 122.467 109.485 122.238 111.226 117.504C113.382 111.645 115.659 110.911 116.365 107.721C116.919 105.214 114.075 98.7435 115.866 97.038C119.259 93.8295 121.752 93.024 125.311 87.237Z" fill="#044D45"/>
</svg>
