<svg width="164" height="164" viewBox="0 0 164 164" fill="none" xmlns="http://www.w3.org/2000/svg">
<g clip-path="url(#clip0_725_126)">
<path d="M93.7292 14.6979L103.436 24.4049L93.7292 34.112M70.2708 14.6979L60.5637 24.4049L70.2708 34.112M83.0516 13.4038L80.9484 35.4064" stroke="#044D45" stroke-width="15" stroke-miterlimit="10" stroke-linecap="round" stroke-linejoin="round"/>
<path d="M123.256 30.0101V39.9366C123.256 43.5113 120.357 46.4069 116.783 46.4069H47.2173C43.6426 46.4069 40.7437 43.5113 40.7437 39.9366V8.87266C40.7437 5.30117 43.6426 2.40234 47.2173 2.40234H116.783C120.357 2.40234 123.256 5.30117 123.256 8.87266V18.7991M87.6055 161.598H98.179C99.9663 161.598 101.414 160.15 101.414 158.362V145.419C101.414 143.631 99.9663 142.184 98.179 142.184H65.821C64.0337 142.184 62.5859 143.631 62.5859 145.419V158.362C62.5859 160.15 64.0337 161.598 65.821 161.598H76.3945M91.7071 82H72.2929C66.9319 82 62.5859 77.654 62.5859 72.2929C62.5859 66.9319 66.9319 62.5859 72.2929 62.5859H91.7071C97.0681 62.5859 101.414 66.9319 101.414 72.2929C101.414 77.654 97.0681 82 91.7071 82Z" stroke="#044D45" stroke-width="15" stroke-miterlimit="10" stroke-linecap="round" stroke-linejoin="round"/>
<path d="M82 120.181C87.3611 120.181 91.7071 115.835 91.7071 110.474C91.7071 105.113 87.3611 100.767 82 100.767C76.6389 100.767 72.2929 105.113 72.2929 110.474C72.2929 115.835 76.6389 120.181 82 120.181Z" stroke="#044D45" stroke-width="15" stroke-miterlimit="10" stroke-linecap="round" stroke-linejoin="round"/>
<path d="M141.536 82C146.898 82 151.244 77.654 151.244 72.2929C151.244 66.9319 146.898 62.5859 141.536 62.5859C136.175 62.5859 131.829 66.9319 131.829 72.2929C131.829 77.654 136.175 82 141.536 82Z" stroke="#044D45" stroke-width="15" stroke-miterlimit="10" stroke-linecap="round" stroke-linejoin="round"/>
<path d="M20.1829 62.8581C20.9132 62.6788 21.6788 62.5859 22.4635 62.5859C27.8255 62.5859 32.169 66.9325 32.169 72.2945C32.169 77.6534 27.8255 82 22.4635 82M22.4635 82C17.1015 82 12.7581 77.6534 12.7581 72.2945C12.7581 71.7788 12.7997 71.2727 12.8766 70.7795M22.4635 82L22.4637 100.767M82 62.5859V46.4075M82 100.767V82M82 120.181V142.184M91.7071 110.474H141.536V82M22.4637 100.767C21.7912 100.767 21.1463 101.034 20.6707 101.51L13.4993 108.681C13.0238 109.157 12.7567 109.802 12.7567 110.474C12.7567 111.146 13.0238 111.791 13.4993 112.267L20.6707 119.438C21.1463 119.914 21.7912 120.181 22.4637 120.181C23.1361 120.181 23.7811 119.914 24.2566 119.438L31.4281 112.267C31.9035 111.791 32.1706 111.146 32.1706 110.474C32.1706 109.802 31.9035 109.157 31.4281 108.681L24.2566 101.51C23.7811 101.034 23.1361 100.767 22.4637 100.767ZM32.1706 72.2929H62.5859" stroke="#044D45" stroke-width="15" stroke-miterlimit="10" stroke-linecap="round" stroke-linejoin="round"/>
<path d="M62.5859 151.891H22.4635L22.4632 120.181" stroke="#044D45" stroke-width="15" stroke-miterlimit="10" stroke-linecap="round" stroke-linejoin="round"/>
</g>
<defs>
<clipPath id="clip0_725_126">
<rect width="164" height="164" fill="white"/>
</clipPath>
</defs>
</svg>
