<svg width="512" height="512" viewBox="0 0 512 512" fill="none" xmlns="http://www.w3.org/2000/svg">
<path d="M367.968 341.321V170.679C367.968 155.978 356.006 144.016 341.305 144.016H170.695C155.994 144.016 144.032 155.978 144.032 170.679V341.321C144.032 356.022 155.994 367.984 170.695 367.984H341.306C356.006 367.984 367.968 356.022 367.968 341.321ZM154.697 341.321V170.679C154.697 161.857 161.873 154.681 170.695 154.681H341.306C350.128 154.681 357.304 161.857 357.304 170.679V341.321C357.304 350.143 350.128 357.319 341.306 357.319H170.695C161.873 357.319 154.697 350.143 154.697 341.321Z" fill="#044D45"/>
<path d="M237.747 199.604C216.656 199.604 199.502 216.76 199.502 237.846V307.065C199.502 310.01 201.887 312.398 204.835 312.398C207.783 312.398 210.168 310.01 210.168 307.065V266.84H265.327V307.066C265.327 307.766 265.465 308.46 265.733 309.107C266.001 309.754 266.393 310.342 266.889 310.837C267.384 311.333 267.972 311.725 268.619 311.993C269.266 312.261 269.96 312.399 270.66 312.399C271.36 312.399 272.054 312.261 272.701 311.993C273.348 311.725 273.936 311.333 274.431 310.837C274.927 310.342 275.319 309.754 275.587 309.107C275.855 308.46 275.993 307.766 275.993 307.066V237.847C275.992 216.761 258.838 199.604 237.747 199.604ZM265.327 256.174H210.168V237.846C210.168 222.64 222.541 210.269 237.747 210.269C252.953 210.269 265.326 222.64 265.326 237.846V256.174H265.327ZM307.165 199.604C306.465 199.604 305.771 199.742 305.124 200.01C304.477 200.278 303.889 200.67 303.394 201.166C302.898 201.661 302.506 202.249 302.238 202.896C301.97 203.543 301.832 204.237 301.832 204.937V307.066C301.832 310.011 304.217 312.399 307.165 312.399C310.113 312.399 312.498 310.011 312.498 307.066V204.937C312.498 203.523 311.936 202.166 310.936 201.166C309.936 200.166 308.579 199.604 307.165 199.604ZM361.719 131.88C362.419 131.88 363.113 131.742 363.76 131.474C364.407 131.206 364.995 130.814 365.49 130.318C365.986 129.823 366.378 129.235 366.646 128.588C366.914 127.941 367.052 127.247 367.052 126.547V96.882L388.273 75.661C389.273 74.661 389.835 73.305 389.835 71.891V39.755H391.402C398.547 39.755 404.364 33.943 404.364 26.799V12.993C404.364 5.84799 398.547 0.0369873 391.402 0.0369873H377.597C370.452 0.0369873 364.641 5.84899 364.641 12.993V26.798C364.641 33.943 370.453 39.754 377.597 39.754H379.17V69.682L357.949 90.903C356.949 91.903 356.387 93.259 356.387 94.673V126.546C356.387 127.246 356.524 127.94 356.792 128.587C357.06 129.234 357.453 129.822 357.948 130.318C358.443 130.813 359.031 131.206 359.678 131.474C360.325 131.742 361.019 131.88 361.719 131.88ZM375.306 26.799V12.993C375.307 12.3855 375.548 11.8031 375.978 11.3736C376.407 10.9441 376.99 10.7025 377.597 10.702H391.402C392.01 10.7022 392.593 10.9435 393.024 11.3729C393.454 11.8023 393.697 12.3849 393.699 12.993V26.798C393.697 27.4061 393.455 27.9889 393.024 28.4183C392.594 28.8478 392.01 29.089 391.402 29.089H377.597C376.99 29.0887 376.407 28.8474 375.978 28.418C375.548 27.9887 375.307 27.4063 375.306 26.799ZM286.829 131.88C287.529 131.88 288.223 131.742 288.87 131.474C289.517 131.206 290.105 130.814 290.6 130.318C291.096 129.823 291.488 129.235 291.756 128.588C292.024 127.941 292.162 127.247 292.162 126.547V96.434L308.003 75.067C308.682 74.1467 309.049 73.0335 309.05 71.89V39.755H310.618C317.763 39.755 323.574 33.943 323.574 26.799V12.993C323.574 5.84799 317.762 0.0369873 310.618 0.0369873H296.813C289.668 0.0369873 283.857 5.84899 283.857 12.993V26.798C283.857 33.943 289.669 39.754 296.813 39.754H298.386V70.13L282.545 91.497C281.866 92.4173 281.499 93.5305 281.498 94.674V126.547C281.497 127.247 281.635 127.941 281.903 128.588C282.17 129.235 282.563 129.823 283.058 130.318C283.553 130.814 284.141 131.207 284.788 131.475C285.435 131.742 286.129 131.88 286.829 131.88ZM294.521 26.799V12.993C294.522 12.3855 294.763 11.8031 295.193 11.3736C295.622 10.9441 296.205 10.7025 296.812 10.702H310.617C311.224 10.7025 311.807 10.9441 312.236 11.3736C312.666 11.8031 312.907 12.3855 312.908 12.993V26.798C312.907 27.4054 312.666 27.9879 312.236 28.4174C311.807 28.8469 311.224 29.0885 310.617 29.089H296.812C296.205 29.089 295.622 28.8478 295.192 28.4183C294.763 27.9889 294.521 27.4064 294.521 26.799ZM267.431 126.547V95.403C267.431 92.458 265.046 90.07 262.098 90.07C259.15 90.07 256.765 92.458 256.765 95.403V126.547C256.765 129.492 259.15 131.88 262.098 131.88C265.046 131.88 267.431 129.492 267.431 126.547ZM219.224 131.643C219.924 131.643 220.618 131.505 221.265 131.237C221.912 130.969 222.5 130.577 222.995 130.081C223.491 129.586 223.883 128.998 224.151 128.351C224.419 127.704 224.557 127.01 224.557 126.31V96.028L244.015 73.042L244.335 73.362C249.082 78.099 256.802 78.104 261.551 73.359L270.31 64.6C275.062 59.854 275.069 52.159 270.305 47.384L261.541 38.63C256.792 33.881 249.074 33.881 244.325 38.63L235.566 47.387C230.822 52.131 230.822 59.854 235.571 64.603L236.444 65.476L215.152 90.631C214.339 91.5947 213.892 92.815 213.892 94.076V126.311C213.892 127.011 214.029 127.705 214.297 128.352C214.565 128.999 214.958 129.587 215.453 130.082C215.948 130.577 216.536 130.97 217.183 131.238C217.83 131.506 218.524 131.643 219.224 131.643ZM243.106 54.927L251.865 46.17C252.149 45.8873 252.533 45.7289 252.933 45.7295C253.333 45.73 253.717 45.8896 254 46.173L262.764 54.927C263.354 55.521 263.356 56.474 262.769 57.057V57.06L254.01 65.817C253.726 66.0993 253.343 66.2578 252.942 66.2578C252.542 66.2578 252.159 66.0993 251.875 65.817C250.377 64.32 242.575 56.526 243.111 57.06C242.828 56.7776 242.668 56.3944 242.667 55.9945C242.667 55.5946 242.824 55.2107 243.106 54.927ZM120.598 39.755H122.165V71.891C122.165 73.305 122.727 74.661 123.727 75.661L144.948 96.882V126.547C144.948 129.492 147.333 131.88 150.281 131.88C153.229 131.88 155.614 129.492 155.614 126.547V94.674C155.614 93.26 155.052 91.904 154.052 90.904L132.83 69.683V39.755H134.403C141.548 39.755 147.359 33.943 147.359 26.799V12.993C147.359 5.84799 141.547 0.0369873 134.403 0.0369873H120.598C113.453 0.0369873 107.642 5.84899 107.642 12.993V26.798C107.641 33.943 113.453 39.755 120.598 39.755ZM118.306 12.993C118.307 12.3855 118.548 11.8031 118.978 11.3736C119.407 10.9441 119.99 10.7025 120.597 10.702H134.402C135.009 10.7025 135.592 10.9441 136.021 11.3736C136.451 11.8031 136.692 12.3855 136.693 12.993V26.798C136.692 27.4054 136.451 27.9879 136.021 28.4174C135.592 28.8469 135.009 29.0885 134.402 29.089H120.597C119.99 29.0885 119.407 28.8469 118.978 28.4174C118.548 27.9879 118.307 27.4054 118.306 26.798V12.993ZM177.85 77.932H179.417V126.547C179.417 127.247 179.555 127.941 179.823 128.588C180.091 129.235 180.483 129.823 180.979 130.318C181.474 130.814 182.062 131.206 182.709 131.474C183.356 131.742 184.05 131.88 184.75 131.88C185.45 131.88 186.144 131.742 186.791 131.474C187.438 131.206 188.026 130.814 188.521 130.318C189.017 129.823 189.409 129.235 189.677 128.588C189.945 127.941 190.083 127.247 190.083 126.547V77.932H191.656C198.801 77.932 204.612 72.118 204.612 64.973V51.17C204.612 44.025 198.8 38.211 191.656 38.211H177.85C170.705 38.211 164.894 44.025 164.894 51.17V64.973C164.893 72.118 170.705 77.932 177.85 77.932ZM175.558 51.17C175.558 50.5621 175.799 49.9791 176.229 49.5489C176.658 49.1188 177.241 48.8768 177.849 48.876H191.654C192.262 48.8765 192.845 49.1185 193.274 49.5487C193.704 49.9788 193.945 50.562 193.945 51.17V64.973C193.945 65.5809 193.704 66.1639 193.274 66.594C192.845 67.0241 192.262 67.2662 191.654 67.267H177.85C177.242 67.2662 176.659 67.0241 176.23 66.594C175.8 66.1639 175.559 65.5809 175.559 64.973V51.17H175.558ZM320.236 66.082V75.362C320.236 80.89 324.563 85.384 330 85.749V126.548C330 129.493 332.385 131.881 335.333 131.881C338.281 131.881 340.666 129.493 340.666 126.548V85.749C346.103 85.384 350.43 80.89 350.43 75.362V66.082C350.43 60.317 345.738 55.625 339.973 55.625H330.693C324.928 55.625 320.236 60.317 320.236 66.082ZM339.769 66.29L339.972 75.153L330.9 75.361L330.692 66.289L339.769 66.29ZM150.281 380.12C149.581 380.12 148.887 380.258 148.24 380.526C147.593 380.794 147.005 381.186 146.51 381.682C146.014 382.177 145.622 382.765 145.354 383.412C145.086 384.059 144.948 384.753 144.948 385.453V415.118L123.727 436.339C122.727 437.339 122.165 438.695 122.165 440.109V472.245H120.598C113.453 472.245 107.636 478.057 107.636 485.201V499.006C107.636 506.151 113.453 511.962 120.598 511.962H134.403C141.548 511.962 147.359 506.15 147.359 499.006V485.201C147.359 478.056 141.547 472.245 134.403 472.245H132.83V442.317L154.051 421.096C155.051 420.096 155.613 418.74 155.613 417.326V385.453C155.613 384.753 155.476 384.059 155.208 383.412C154.94 382.765 154.547 382.177 154.052 381.682C153.557 381.187 152.969 380.794 152.322 380.526C151.675 380.258 150.981 380.12 150.281 380.12ZM136.694 485.201V499.006C136.693 499.613 136.452 500.196 136.022 500.625C135.593 501.055 135.01 501.296 134.403 501.297H120.598C119.99 501.297 119.407 501.055 118.976 500.626C118.546 500.197 118.303 499.614 118.301 499.006V485.201C118.303 484.593 118.545 484.01 118.976 483.581C119.406 483.151 119.99 482.91 120.598 482.91H134.403C135.01 482.911 135.593 483.152 136.022 483.582C136.452 484.011 136.693 484.594 136.694 485.201ZM225.171 380.12C224.471 380.12 223.777 380.258 223.13 380.526C222.483 380.794 221.895 381.186 221.4 381.682C220.904 382.177 220.512 382.765 220.244 383.412C219.976 384.059 219.838 384.753 219.838 385.453V415.566L203.997 436.933C203.318 437.853 202.951 438.966 202.95 440.11V472.246H201.383C194.238 472.246 188.427 478.058 188.427 485.202V499.007C188.427 506.152 194.239 511.963 201.383 511.963H215.188C222.333 511.963 228.144 506.151 228.144 499.007V485.202C228.144 478.057 222.332 472.246 215.188 472.246H213.615V441.87L229.456 420.503C230.135 419.583 230.502 418.47 230.503 417.326V385.453C230.503 384.753 230.366 384.059 230.098 383.412C229.83 382.765 229.437 382.177 228.942 381.681C228.447 381.186 227.859 380.793 227.212 380.525C226.565 380.257 225.871 380.12 225.171 380.12ZM217.479 485.201V499.006C217.478 499.613 217.237 500.196 216.807 500.625C216.378 501.055 215.795 501.296 215.188 501.297H201.383C200.776 501.296 200.193 501.055 199.764 500.625C199.334 500.196 199.093 499.613 199.092 499.006V485.201C199.093 484.594 199.334 484.011 199.764 483.582C200.193 483.152 200.776 482.911 201.383 482.91H215.188C215.795 482.911 216.378 483.152 216.807 483.582C217.237 484.011 217.478 484.594 217.479 485.201ZM244.569 385.453V416.597C244.569 419.542 246.954 421.93 249.902 421.93C252.85 421.93 255.235 419.542 255.235 416.597V385.453C255.235 382.508 252.85 380.12 249.902 380.12C246.954 380.12 244.569 382.508 244.569 385.453ZM292.776 380.357C292.076 380.357 291.382 380.495 290.735 380.763C290.088 381.031 289.5 381.423 289.005 381.919C288.509 382.414 288.117 383.002 287.849 383.649C287.581 384.296 287.443 384.99 287.443 385.69V415.972L267.982 438.961L267.664 438.644C262.915 433.895 255.197 433.895 250.448 438.644L241.689 447.401C236.945 452.145 236.945 459.868 241.694 464.617L250.458 473.371C255.201 478.114 262.925 478.12 267.674 473.371L276.433 464.614C281.177 459.87 281.177 452.147 276.428 447.398L275.554 446.526L296.847 421.371C297.66 420.407 298.107 419.187 298.107 417.926V385.69C298.107 384.99 297.97 384.296 297.702 383.649C297.434 383.002 297.042 382.414 296.547 381.919C296.052 381.424 295.464 381.031 294.817 380.763C294.17 380.495 293.476 380.357 292.776 380.357ZM268.894 457.073L260.135 465.83C259.995 465.97 259.828 466.082 259.645 466.157C259.462 466.233 259.265 466.272 259.067 466.272C258.869 466.272 258.672 466.232 258.489 466.156C258.306 466.079 258.14 465.968 258 465.827L249.236 457.073C248.953 456.791 248.793 456.407 248.792 456.008C248.792 455.608 248.949 455.224 249.231 454.94L257.99 446.183C258.13 446.043 258.297 445.931 258.48 445.856C258.663 445.78 258.86 445.741 259.058 445.741C259.256 445.741 259.453 445.781 259.636 445.857C259.819 445.934 259.985 446.045 260.125 446.186L268.889 454.94C269.172 455.222 269.332 455.606 269.333 456.005C269.333 456.405 269.176 456.789 268.894 457.073ZM391.402 472.245H389.835V440.109C389.835 438.695 389.273 437.339 388.273 436.339L367.052 415.118V385.453C367.052 382.508 364.667 380.12 361.719 380.12C358.771 380.12 356.386 382.508 356.386 385.453V417.326C356.386 418.74 356.948 420.096 357.948 421.096L379.169 442.317V472.245H377.596C370.451 472.245 364.64 478.057 364.64 485.201V499.006C364.64 506.151 370.452 511.962 377.596 511.962H391.401C398.546 511.962 404.357 506.15 404.357 499.006V485.201C404.359 478.057 398.547 472.245 391.402 472.245ZM393.694 499.007C393.693 499.614 393.452 500.197 393.022 500.626C392.593 501.056 392.01 501.297 391.403 501.298H377.598C376.991 501.297 376.408 501.056 375.979 500.626C375.549 500.197 375.308 499.614 375.307 499.007V485.202C375.308 484.595 375.549 484.012 375.979 483.583C376.408 483.153 376.991 482.912 377.598 482.911H391.403C392.01 482.912 392.593 483.153 393.022 483.583C393.452 484.012 393.693 484.595 393.694 485.202V499.007ZM334.15 434.068H332.582V385.453C332.582 382.508 330.197 380.12 327.249 380.12C324.301 380.12 321.916 382.508 321.916 385.453V434.068H320.343C313.198 434.068 307.387 439.882 307.387 447.027V460.83C307.387 467.975 313.199 473.789 320.343 473.789H334.148C341.293 473.789 347.104 467.975 347.104 460.83V447.027C347.107 439.882 341.295 434.068 334.15 434.068ZM336.442 460.83C336.442 461.438 336.201 462.021 335.771 462.451C335.342 462.881 334.759 463.123 334.151 463.124H320.346C319.738 463.123 319.155 462.881 318.726 462.451C318.296 462.021 318.055 461.438 318.055 460.83V447.027C318.055 446.419 318.296 445.836 318.726 445.406C319.155 444.976 319.738 444.734 320.346 444.733H334.151C334.759 444.734 335.342 444.976 335.771 445.406C336.201 445.836 336.442 446.419 336.442 447.027V460.83ZM191.764 445.918V436.638C191.764 431.11 187.437 426.616 182 426.251V385.453C182 382.508 179.615 380.12 176.667 380.12C173.719 380.12 171.334 382.508 171.334 385.453V426.251C165.897 426.616 161.57 431.11 161.57 436.638V445.918C161.57 451.683 166.262 456.375 172.027 456.375H181.307C187.072 456.375 191.764 451.683 191.764 445.918ZM172.231 445.71L172.028 436.847L181.1 436.639L181.308 445.711H172.231V445.71ZM385.455 340.665H426.253C426.618 346.102 431.112 350.429 436.64 350.429H445.915C451.68 350.429 456.372 345.737 456.372 339.972V330.695C456.372 324.93 451.68 320.238 445.915 320.238H436.64C431.113 320.238 426.619 324.564 426.253 330H385.454C384.754 330 384.06 330.138 383.413 330.406C382.766 330.674 382.179 331.067 381.684 331.562C381.188 332.057 380.796 332.645 380.528 333.292C380.26 333.939 380.122 334.633 380.122 335.333C380.122 336.033 380.26 336.727 380.528 337.374C380.796 338.021 381.189 338.608 381.684 339.104C382.179 339.599 382.767 339.991 383.414 340.259C384.061 340.527 384.755 340.665 385.455 340.665ZM445.707 330.695V339.769L436.849 339.972L436.641 330.903L445.707 330.695ZM385.455 256.766C382.507 256.766 380.122 259.154 380.122 262.099C380.122 265.044 382.507 267.432 385.455 267.432H416.596C419.543 267.432 421.929 265.044 421.929 262.099C421.929 259.154 419.544 256.766 416.596 256.766H385.455ZM499.007 107.639H485.202C478.057 107.639 472.246 113.451 472.246 120.595V122.165H440.11C438.694 122.165 437.34 122.727 436.34 123.727L415.119 144.948H385.457C382.509 144.948 380.124 147.336 380.124 150.281C380.124 153.226 382.509 155.614 385.457 155.614H417.327C418.743 155.614 420.097 155.052 421.097 154.052L442.318 132.831H472.246V134.401C472.246 141.546 478.058 147.357 485.202 147.357H499.007C506.152 147.357 511.963 141.545 511.963 134.401V120.596C511.963 113.45 506.152 107.639 499.007 107.639ZM501.298 134.4C501.297 135.007 501.056 135.59 500.626 136.019C500.197 136.449 499.614 136.69 499.007 136.691H485.202C484.595 136.69 484.012 136.449 483.583 136.019C483.153 135.59 482.912 135.007 482.911 134.4V120.595C482.912 119.988 483.153 119.405 483.583 118.976C484.012 118.546 484.595 118.305 485.202 118.304H499.007C499.614 118.305 500.197 118.546 500.626 118.976C501.056 119.405 501.297 119.988 501.298 120.595V134.4ZM460.83 164.893H447.025C439.88 164.893 434.069 170.705 434.069 177.849V179.419H385.456C382.508 179.419 380.123 181.807 380.123 184.752C380.123 187.697 382.508 190.085 385.456 190.085H434.069V191.655C434.069 198.8 439.881 204.611 447.025 204.611H460.83C467.975 204.611 473.786 198.799 473.786 191.655V177.85C473.786 170.705 467.975 164.893 460.83 164.893ZM463.121 191.655C463.12 192.262 462.879 192.845 462.449 193.274C462.02 193.704 461.437 193.945 460.83 193.946H447.025C446.418 193.945 445.835 193.704 445.406 193.274C444.976 192.845 444.735 192.262 444.734 191.655V177.85C444.735 177.243 444.976 176.66 445.406 176.231C445.835 175.801 446.418 175.56 447.025 175.559H460.83C461.437 175.56 462.02 175.801 462.449 176.231C462.879 176.66 463.12 177.243 463.121 177.85V191.655ZM499.007 283.855H485.202C478.057 283.855 472.246 289.667 472.246 296.811V298.381H441.87L420.503 282.545C419.584 281.864 418.47 281.496 417.326 281.496H385.456C382.508 281.496 380.123 283.884 380.123 286.829C380.123 289.774 382.508 292.162 385.456 292.162H415.566L436.933 307.998C437.852 308.679 438.966 309.047 440.11 309.047H472.246V310.617C472.246 317.762 478.058 323.573 485.202 323.573H499.007C506.152 323.573 511.963 317.761 511.963 310.617V296.812C511.963 289.667 506.152 283.855 499.007 283.855ZM501.298 310.617C501.297 311.224 501.056 311.807 500.626 312.236C500.197 312.666 499.614 312.907 499.007 312.908H485.202C484.595 312.907 484.012 312.666 483.583 312.236C483.153 311.807 482.912 311.224 482.911 310.617V296.812C482.912 296.205 483.153 295.622 483.583 295.193C484.012 294.763 484.595 294.522 485.202 294.521H499.007C499.614 294.522 500.197 294.763 500.626 295.193C501.056 295.622 501.297 296.205 501.298 296.812V310.617ZM499.007 364.643H485.202C478.057 364.643 472.246 370.455 472.246 377.599V379.169H442.318L421.097 357.948C420.097 356.948 418.743 356.386 417.327 356.386H385.457C382.509 356.386 380.124 358.774 380.124 361.719C380.124 364.664 382.509 367.052 385.457 367.052H415.119L436.34 388.273C437.34 389.273 438.694 389.835 440.11 389.835H472.246V391.405C472.246 398.55 478.058 404.361 485.202 404.361H499.007C506.152 404.361 511.963 398.549 511.963 391.405V377.6C511.963 370.455 506.152 364.643 499.007 364.643ZM501.298 391.405C501.297 392.012 501.056 392.595 500.626 393.024C500.197 393.454 499.614 393.695 499.007 393.696H485.202C484.595 393.695 484.012 393.454 483.583 393.024C483.153 392.595 482.912 392.012 482.911 391.405V377.6C482.912 376.993 483.153 376.41 483.583 375.981C484.012 375.551 484.595 375.31 485.202 375.309H499.007C499.614 375.31 500.197 375.551 500.626 375.981C501.056 376.41 501.297 376.993 501.298 377.6V391.405ZM464.611 270.305L473.37 261.541C478.119 256.794 478.119 249.071 473.37 244.325L464.611 235.568C459.872 230.821 452.149 230.824 447.4 235.571L446.527 236.444L421.372 215.152C420.408 214.337 419.187 213.89 417.925 213.889H385.69C382.742 213.889 380.357 216.277 380.357 219.222C380.357 222.167 382.742 224.555 385.69 224.555H415.972L438.962 244.017L438.64 244.339C433.891 249.083 433.87 256.783 438.64 261.553L447.399 270.312V270.315C452.159 275.062 459.882 275.044 464.611 270.305ZM446.181 254.008C446.04 253.868 445.929 253.702 445.853 253.519C445.777 253.336 445.737 253.14 445.737 252.941C445.737 252.743 445.777 252.547 445.853 252.364C445.929 252.181 446.04 252.015 446.181 251.875L454.94 243.111C455.223 242.829 455.605 242.671 456.004 242.67C456.403 242.67 456.787 242.827 457.07 243.108L465.829 251.865C466.111 252.149 466.27 252.532 466.27 252.932C466.27 253.333 466.111 253.716 465.829 254L457.07 262.767C456.787 263.047 456.404 263.205 456.006 263.206C455.607 263.206 455.224 263.05 454.94 262.77L446.181 254.008ZM131.877 361.719C131.877 361.019 131.739 360.325 131.471 359.678C131.203 359.031 130.811 358.443 130.315 357.948C129.82 357.452 129.232 357.06 128.585 356.792C127.938 356.524 127.244 356.386 126.544 356.386H94.674C93.258 356.386 91.904 356.948 90.904 357.948L69.683 379.17H39.755V377.6C39.755 370.455 33.943 364.641 26.799 364.641H12.993C5.84799 364.641 0.0369873 370.455 0.0369873 377.6V391.405C0.0369873 398.55 5.84899 404.361 12.993 404.361H26.798C33.943 404.361 39.754 398.549 39.754 391.405V389.835H71.89C73.306 389.835 74.66 389.273 75.66 388.273L96.881 367.052H126.543C127.243 367.052 127.937 366.915 128.584 366.647C129.232 366.379 129.82 365.986 130.315 365.491C130.81 364.995 131.203 364.407 131.471 363.76C131.739 363.113 131.877 362.419 131.877 361.719ZM29.09 391.405C29.0895 392.012 28.8479 392.595 28.4184 393.024C27.9889 393.454 27.4064 393.695 26.799 393.696H12.993C12.3855 393.695 11.8031 393.454 11.3736 393.024C10.9441 392.595 10.7025 392.012 10.702 391.405V377.6C10.702 376.992 10.9433 376.409 11.3728 375.979C11.8024 375.549 12.3851 375.307 12.993 375.306H26.798C27.4059 375.307 27.9886 375.549 28.4181 375.979C28.8477 376.409 29.089 376.992 29.089 377.6L29.09 391.405ZM126.545 171.335H85.746C85.381 165.898 80.887 161.571 75.359 161.571H66.084C60.319 161.571 55.627 166.263 55.627 172.028V181.305C55.627 187.07 60.319 191.762 66.084 191.762H75.359C80.886 191.762 85.38 187.436 85.746 182H126.545C127.959 182 129.316 181.438 130.316 180.438C131.316 179.438 131.877 178.082 131.877 176.667C131.877 175.253 131.316 173.897 130.316 172.897C129.316 171.897 127.959 171.335 126.545 171.335ZM66.293 181.305V172.231L75.151 172.028L75.359 181.097L66.293 181.305ZM126.545 244.569H95.403C92.456 244.569 90.07 246.957 90.07 249.902C90.07 252.847 92.455 255.235 95.403 255.235H126.544C129.491 255.235 131.877 252.847 131.877 249.902C131.877 246.957 129.492 244.569 126.545 244.569ZM51.17 347.107H64.975C72.12 347.107 77.931 341.295 77.931 334.151V332.581H126.544C129.491 332.581 131.877 330.193 131.877 327.248C131.877 324.303 129.492 321.915 126.544 321.915H77.932V320.345C77.932 313.2 72.12 307.389 64.976 307.389H51.17C44.025 307.389 38.214 313.201 38.214 320.345V334.15C38.214 341.295 44.025 347.107 51.17 347.107ZM48.879 320.345C48.8795 319.738 49.1211 319.155 49.5506 318.726C49.9801 318.296 50.5625 318.055 51.17 318.054H64.975C65.5824 318.055 66.1649 318.296 66.5944 318.726C67.0239 319.155 67.2655 319.738 67.266 320.345V334.15C67.2655 334.757 67.0239 335.34 66.5944 335.769C66.1649 336.199 65.5824 336.44 64.975 336.441H51.17C50.5625 336.44 49.9801 336.199 49.5506 335.769C49.1211 335.34 48.8795 334.757 48.879 334.15V320.345ZM12.993 228.145H26.798C33.943 228.145 39.754 222.333 39.754 215.189V213.619H70.13L91.497 229.455C92.416 230.136 93.5299 230.504 94.674 230.504H126.544C129.491 230.504 131.877 228.116 131.877 225.171C131.877 222.226 129.492 219.838 126.544 219.838H96.434L75.067 204.002C74.148 203.321 73.0341 202.953 71.89 202.953H39.755V201.383C39.755 194.238 33.943 188.427 26.799 188.427H12.993C5.84799 188.427 0.0369873 194.239 0.0369873 201.383V215.188C0.0369873 222.333 5.84799 228.145 12.993 228.145ZM10.702 201.383C10.7025 200.776 10.9441 200.193 11.3736 199.764C11.8031 199.334 12.3855 199.093 12.993 199.092H26.798C27.4054 199.093 27.9879 199.334 28.4174 199.764C28.8469 200.193 29.0885 200.776 29.089 201.383V215.188C29.0885 215.795 28.8469 216.378 28.4174 216.807C27.9879 217.237 27.4054 217.478 26.798 217.479H12.993C12.3855 217.478 11.8031 217.237 11.3736 216.807C10.9441 216.378 10.7025 215.795 10.702 215.188V201.383ZM12.993 147.357H26.798C33.943 147.357 39.754 141.545 39.754 134.401V132.831H69.682L90.903 154.052C91.903 155.052 93.257 155.614 94.673 155.614H126.543C129.49 155.614 131.876 153.226 131.876 150.281C131.876 147.336 129.491 144.948 126.543 144.948H96.882L75.661 123.727C74.661 122.727 73.307 122.165 71.891 122.165H39.755V120.595C39.755 113.45 33.943 107.639 26.799 107.639H12.993C5.84799 107.639 0.0369873 113.451 0.0369873 120.595V134.4C0.0369873 141.545 5.84799 147.357 12.993 147.357ZM10.702 120.595C10.7025 119.988 10.9441 119.405 11.3736 118.976C11.8031 118.546 12.3855 118.305 12.993 118.304H26.798C27.4054 118.305 27.9879 118.546 28.4174 118.976C28.8469 119.405 29.0885 119.988 29.089 120.595V134.4C29.0885 135.007 28.8469 135.59 28.4174 136.019C27.9879 136.449 27.4054 136.69 26.798 136.691H12.993C12.3855 136.69 11.8031 136.449 11.3736 136.019C10.9441 135.59 10.7025 135.007 10.702 134.4V120.595ZM47.389 241.695L38.63 250.459C33.881 255.206 33.881 262.929 38.63 267.675L47.389 276.432C52.096 281.144 59.824 281.205 64.6 276.429L65.473 275.556L90.628 296.848C91.5917 297.663 92.8129 298.11 94.075 298.111H126.31C129.257 298.111 131.643 295.723 131.643 292.778C131.643 289.833 129.258 287.445 126.31 287.445H96.028L73.038 267.983L73.36 267.661C78.109 262.917 78.13 255.217 73.36 250.447L64.6 241.69V241.687C59.851 236.945 52.128 236.948 47.389 241.695ZM65.819 257.992C65.9595 258.132 66.0711 258.298 66.1472 258.481C66.2233 258.664 66.2625 258.86 66.2625 259.059C66.2625 259.257 66.2233 259.453 66.1472 259.636C66.0711 259.819 65.9595 259.985 65.819 260.125L57.06 268.889C56.7773 269.171 56.3947 269.329 55.9956 269.33C55.5965 269.33 55.2135 269.173 54.93 268.892L46.171 260.135C45.8887 259.851 45.7302 259.468 45.7302 259.068C45.7302 258.667 45.8887 258.284 46.171 258L54.93 249.233C55.2128 248.952 55.5954 248.793 55.9944 248.793C56.3933 248.792 56.7764 248.949 57.06 249.23L65.819 257.992Z" fill="#044D45"/>
</svg>
