<svg width="512" height="512" viewBox="0 0 512 512" fill="none" xmlns="http://www.w3.org/2000/svg">
<path d="M208.517 188.055H141.129C139.007 188.055 136.972 188.898 135.472 190.398C133.972 191.898 133.129 193.933 133.129 196.055V411.147C133.129 413.269 133.972 415.304 135.472 416.804C136.972 418.304 139.007 419.147 141.129 419.147H208.517C210.639 419.147 212.674 418.304 214.174 416.804C215.674 415.304 216.517 413.269 216.517 411.147V196.055C216.517 193.933 215.674 191.898 214.174 190.398C212.674 188.898 210.639 188.055 208.517 188.055ZM200.517 403.146H149.129V204.055H200.517V403.146ZM83.388 271.489H16C13.8783 271.489 11.8434 272.332 10.3431 273.832C8.84285 275.332 8 277.367 8 279.489V411.146C8 413.268 8.84285 415.303 10.3431 416.803C11.8434 418.303 13.8783 419.146 16 419.146H83.388C85.5097 419.146 87.5446 418.303 89.0449 416.803C90.5451 415.303 91.388 413.268 91.388 411.146V279.489C91.388 277.367 90.5451 275.332 89.0449 273.832C87.5446 272.332 85.5097 271.489 83.388 271.489ZM75.388 403.146H24V287.489H75.388V403.146ZM43.381 214.586C42.0775 212.912 41.4924 210.789 41.7543 208.683C42.0163 206.578 43.104 204.663 44.778 203.359L169.908 105.926C170.939 105.124 172.151 104.586 173.437 104.36C174.724 104.134 176.046 104.226 177.289 104.628L297.738 143.666L400.437 40.089L385.689 43.266C383.62 43.6988 381.464 43.2954 379.692 42.1438C377.92 40.9923 376.675 39.1862 376.23 37.1201C375.785 35.0539 376.176 32.8956 377.317 31.1165C378.458 29.3375 380.257 28.0823 382.32 27.625L423.395 18.777C424.677 18.5013 426.007 18.545 427.269 18.9041C428.53 19.2633 429.683 19.9269 430.628 20.8366C431.573 21.7463 432.279 22.8741 432.685 24.121C433.092 25.3679 433.185 26.6955 432.958 27.987L426.357 65.425C425.988 67.5141 424.805 69.3711 423.067 70.5879C421.329 71.8047 419.179 72.2817 417.09 71.914C416.055 71.7315 415.067 71.3471 414.181 70.7826C413.295 70.2181 412.529 69.4846 411.926 68.6239C411.323 67.7633 410.896 66.7924 410.669 65.7668C410.442 64.7411 410.419 63.6806 410.601 62.646L412.764 50.381L305.634 158.426C304.592 159.477 303.278 160.218 301.84 160.567C300.402 160.916 298.895 160.86 297.487 160.404L176.391 121.156L54.608 215.983C53.2058 217.078 51.4773 217.673 49.698 217.671C48.4794 217.673 47.2765 217.396 46.1815 216.861C45.0865 216.327 44.1285 215.548 43.381 214.586ZM466.775 297.207V107.657C466.775 105.535 465.932 103.5 464.432 102C462.932 100.5 460.897 99.657 458.775 99.657H391.386C389.264 99.657 387.229 100.5 385.729 102C384.229 103.5 383.386 105.535 383.386 107.657V268.463C368.869 269.48 354.691 273.323 341.647 279.775V224.141C341.647 222.019 340.804 219.984 339.304 218.484C337.804 216.984 335.769 216.141 333.647 216.141H266.259C264.137 216.141 262.102 216.984 260.602 218.484C259.102 219.984 258.259 222.019 258.259 224.141V411.147C258.259 413.269 259.102 415.304 260.602 416.804C262.102 418.304 264.137 419.147 266.259 419.147H285.504C301.227 462.414 342.754 493.402 391.386 493.402C453.481 493.402 504 442.884 504 380.789C504 347.661 489.619 317.832 466.775 297.207ZM450.775 115.658V285.152C435.653 275.728 418.148 269.787 399.386 268.464V115.658H450.775ZM274.259 403.147V232.141H325.647V289.412C297.277 309.88 278.773 343.212 278.773 380.789C278.773 388.442 279.544 395.919 281.006 403.147H274.259ZM391.386 477.402C338.113 477.402 294.773 434.062 294.773 380.789C294.773 327.516 338.113 284.176 391.386 284.176C444.659 284.176 488 327.516 488 380.789C488 434.062 444.659 477.402 391.386 477.402ZM424.815 398.524C425.663 405.508 423.777 411.897 419.363 417C414.82 422.252 407.627 425.931 399.386 427.373V431.338C399.386 433.46 398.543 435.495 397.043 436.995C395.543 438.495 393.508 439.338 391.386 439.338C389.264 439.338 387.229 438.495 385.729 436.995C384.229 435.495 383.386 433.46 383.386 431.338V427.242C370.698 424.668 360.965 416.117 357.997 404.212C357.484 402.153 357.809 399.975 358.902 398.156C359.995 396.337 361.765 395.027 363.824 394.514C365.883 394.001 368.061 394.326 369.88 395.419C371.699 396.512 373.009 398.282 373.522 400.341C375.745 409.255 384.987 412.205 392.239 412.042C398.504 411.893 404.541 409.679 407.261 406.533C408.702 404.867 409.233 402.935 408.931 400.452C408.413 396.188 405.812 390.964 390.163 388.395C366.444 384.5 360.904 372.102 360.433 362.386C359.783 349.004 369 337.805 383.386 334.469V330.238C383.386 328.116 384.229 326.081 385.729 324.581C387.229 323.081 389.264 322.238 391.386 322.238C393.508 322.238 395.543 323.081 397.043 324.581C398.543 326.081 399.386 328.116 399.386 330.238V334.398C408.73 336.452 417.635 342.36 422.28 353.424C423.101 355.38 423.112 357.583 422.309 359.547C421.507 361.511 419.957 363.076 418.001 363.897C417.032 364.304 415.993 364.516 414.943 364.521C413.892 364.526 412.851 364.325 411.878 363.927C410.905 363.53 410.021 362.945 409.274 362.205C408.528 361.466 407.935 360.587 407.528 359.618C403.762 350.649 394.552 348.339 387.1 350.032C385.242 350.453 375.996 352.992 376.414 361.61C376.525 363.902 376.82 369.989 392.755 372.606C412.331 375.82 423.117 384.54 424.815 398.524ZM391.386 292.906C342.928 292.906 303.503 332.33 303.503 380.789C303.503 429.248 342.927 468.672 391.386 468.672C439.845 468.672 479.269 429.248 479.269 380.789C479.27 332.33 439.845 292.906 391.386 292.906ZM391.386 452.672C351.75 452.672 319.503 420.425 319.503 380.789C319.503 341.153 351.75 308.906 391.386 308.906C431.023 308.906 463.269 341.153 463.269 380.789C463.27 420.426 431.023 452.672 391.386 452.672Z" fill="#044D45"/>
</svg>
