<?xml version='1.0' encoding='utf-8'?>
<!DOCTYPE svg PUBLIC '-//W3C//DTD SVG 1.1//EN' 'http://www.w3.org/Graphics/SVG/1.1/DTD/svg11.dtd'>
<!-- Uploaded to: SVG Repo, www.svgrepo.com, Generator: SVG Repo Mixer Tools -->
<svg fill="#000000" height="800px" width="800px" version="1.1" xmlns="http://www.w3.org/2000/svg" viewBox="0 0 512 512" xmlns:xlink="http://www.w3.org/1999/xlink" enable-background="new 0 0 512 512">
  <g>
    <g>
      <path d="M57,51.8h398v330.5H57V51.8L57,51.8z M36.6,423.1h438.8c11.3,0,20.4-9.1,20.4-20.4V31.4c0-11.3-9.1-20.4-20.4-20.4H36.6    c-11.3,0-20.4,9.1-20.4,20.4v371.3C16.2,414,25.3,423.1,36.6,423.1L36.6,423.1z"/>
      <path d="m480.6,460.2h-449.2c-11.3,0-20.4,9.1-20.4,20.4 0,11.3 9.1,20.4 20.4,20.4h449.2c11.3,0 20.4-9.1 20.4-20.4 5.68434e-14-11.3-9.1-20.4-20.4-20.4z"/>
      <polygon points="142.4,206.1 123.9,174.2 103.2,174.2 132.8,226.1 132.8,259.9 151.9,259.9 151.9,226.1 181.6,174.2 160.9,174.2     142.4,206.1   "/>
      <polygon points="224.5,187.4 207.6,187.4 207.6,209.4 186.1,209.4 186.1,224.5 207.6,224.5 207.6,246.5 224.5,246.5 224.5,224.5     245.9,224.5 245.9,209.4 224.5,209.4 224.5,187.4   "/>
      <polygon points="333.5,174.2 310.5,174.2 294.2,199.6 277.9,174.2 255,174.2 281.8,216 253,259.9 276,259.9 294.2,231.7     312.4,259.9 335.7,259.9 306.8,215.5 333.5,174.2   "/>
      <polygon points="343,239.5 402.7,239.5 402.7,224.5 343,224.5 343,239.5   "/>
      <polygon points="343,209 402.7,209 402.7,194 343,194 343,209   "/>
    </g>
  </g>
</svg>