<svg width="478" height="512" viewBox="0 0 478 512" fill="none" xmlns="http://www.w3.org/2000/svg">
<path d="M25.6667 418.133H153.667V419.422C153.667 426.479 150.168 433.033 144.297 436.949L126.607 448.76C124.443 450.201 122.669 452.157 121.445 454.451C120.221 456.746 119.584 459.309 119.593 461.909H119.533V494.933C119.533 504.346 127.188 512 136.6 512H341.4C350.812 512 358.467 504.346 358.467 494.933V461.909H358.407C358.407 456.713 355.907 451.772 351.384 448.751L333.711 436.949C330.824 435.027 328.457 432.421 326.821 429.363C325.185 426.305 324.33 422.89 324.333 419.422V418.133H452.333C466.447 418.133 477.933 406.648 477.933 392.533V68.2667C477.933 54.1526 466.447 42.6667 452.333 42.6667H367.111C366.669 41.6249 366.199 40.5949 365.703 39.5776C364.314 36.8371 362.087 34.6107 359.347 33.2219C356.606 31.8331 353.494 31.3543 350.462 31.855C290.985 41.0539 260.129 15.855 249.607 4.59098C244.154 -1.24582 233.854 -1.24582 228.41 4.59098C217.897 15.8464 187.066 41.0454 127.563 31.8464C121.214 30.8907 115.087 33.9712 112.314 39.5776C111.818 40.5949 111.348 41.6249 110.906 42.6667H25.6667C11.5525 42.6667 0.0666504 54.1526 0.0666504 68.2667V392.533C0.0666504 406.648 11.5525 418.133 25.6667 418.133ZM136.6 494.933V477.867H341.4V494.933H136.6ZM324.231 451.149L338.686 460.8H139.305L153.769 451.149C158.991 447.667 163.271 442.949 166.229 437.414C169.187 431.878 170.732 425.698 170.725 419.422V418.133H307.258V419.422C307.258 432.196 313.607 444.058 324.231 451.149ZM452.333 401.067H25.6667C23.4035 401.067 21.233 400.168 19.6327 398.567C18.0324 396.967 17.1333 394.797 17.1333 392.533V366.933H460.867V392.533C460.867 394.797 459.968 396.967 458.367 398.567C456.767 400.168 454.597 401.067 452.333 401.067ZM426.733 93.8667V315.733H51.2667V93.8667H102.467C102.552 251.503 221.071 293.692 234.639 298.001C237.496 298.896 240.559 298.89 243.412 297.984C252.653 295.049 285.191 283.102 315.8 252.501C355.395 212.932 375.491 159.556 375.525 93.8667H426.733ZM126.753 48.9899C190.027 58.1974 225.244 32.0086 239 18.1846C252.764 32.0171 288.041 58.1803 351.247 48.9899C353.935 55.1936 358.467 69.2651 358.467 93.696C358.467 109.005 355.105 244.079 239 281.481C122.887 244.036 119.533 109.005 119.533 93.696C119.533 69.2651 124.056 55.1851 126.753 48.9899ZM25.6667 59.7334H105.718C104.685 64.5974 103.823 70.2891 103.243 76.8001H42.7333C40.4701 76.8001 38.2997 77.6991 36.6993 79.2994C35.099 80.8997 34.2 83.0702 34.2 85.3334V324.267C34.2 326.53 35.099 328.7 36.6993 330.301C38.2997 331.901 40.4701 332.8 42.7333 332.8H435.267C437.53 332.8 439.7 331.901 441.301 330.301C442.901 328.7 443.8 326.53 443.8 324.267V85.3334C443.8 83.0702 442.901 80.8997 441.301 79.2994C439.7 77.6991 437.53 76.8001 435.267 76.8001H374.757C374.273 71.0669 373.446 65.3679 372.282 59.7334H452.333C457.044 59.7334 460.867 63.5648 460.867 68.2667V349.867H17.1333V68.2667C17.1333 63.5648 20.9563 59.7334 25.6667 59.7334Z" fill="#044D45"/>
<path d="M213.4 221.867H264.6C278.714 221.867 290.2 210.381 290.2 196.267V153.6C290.2 139.486 278.714 128 264.6 128H221.933V102.4C221.933 92.9878 229.588 85.3334 239 85.3334C248.412 85.3334 256.067 92.9878 256.067 102.4C256.067 104.663 256.966 106.834 258.566 108.434C260.166 110.034 262.337 110.933 264.6 110.933C266.863 110.933 269.034 110.034 270.634 108.434C272.234 106.834 273.133 104.663 273.133 102.4C273.133 83.5755 257.825 68.2667 239 68.2667C220.175 68.2667 204.867 83.5755 204.867 102.4V129.57C199.89 131.324 195.578 134.576 192.522 138.878C189.466 143.181 187.817 148.323 187.8 153.6V196.267C187.8 210.381 199.286 221.867 213.4 221.867ZM204.867 153.6C204.867 148.898 208.69 145.067 213.4 145.067H264.6C269.31 145.067 273.133 148.898 273.133 153.6V196.267C273.133 200.969 269.31 204.8 264.6 204.8H213.4C208.69 204.8 204.867 200.969 204.867 196.267V153.6Z" fill="#044D45"/>
</svg>
