<svg width="145" height="145" viewBox="0 0 145 145" fill="none" xmlns="http://www.w3.org/2000/svg">
<g clip-path="url(#clip0_720_5)">
<path d="M59.7366 74.1539C58.6845 74.1539 57.8179 74.438 57.7562 75.3179C57.6633 76.5102 57.4157 78.3552 54.5999 78.3552C52.4645 78.3552 51.2886 77.3051 51.2886 75.0908V67.1707C51.2884 64.9566 52.4642 63.9062 54.5376 63.9062C57.4772 63.9062 57.6939 65.8365 57.7559 66.7164C57.7867 67.568 58.6225 67.8804 59.7675 67.8804C61.1288 67.8804 61.7788 67.5397 61.7788 66.0636C61.7788 62.7708 58.7154 60.67 54.4141 60.67C50.5149 60.67 47.2657 62.4302 47.2657 67.1707V75.0908C47.2657 79.8316 50.4841 81.5914 54.3829 81.5914C58.7154 81.5914 61.7788 79.4056 61.7788 75.9707C61.7788 74.5229 61.1291 74.1539 59.7366 74.1539ZM72.2375 60.67H66.0175C65.0891 60.67 64.5012 61.2093 64.5012 61.8057V80.2575C64.5012 81.0239 65.4916 81.4215 66.5125 81.4215C67.5026 81.4215 68.5238 81.0239 68.5238 80.2575V73.6716H71.9897C76.0746 73.6716 79.2618 71.8832 79.2618 67.2276V67.0571C79.2618 62.4016 76.1672 60.67 72.2375 60.67ZM75.2388 67.5117C75.2388 69.726 74.001 70.7764 71.9897 70.7764H68.5238V63.9062H71.9897C74.0013 63.9062 75.2388 64.9566 75.2388 67.171V67.5117ZM94.4859 60.67C93.4647 60.67 92.4746 61.0107 92.4746 61.8057V75.091C92.4746 77.3054 91.2058 78.3555 89.0708 78.3555C86.9354 78.3555 85.6667 77.3054 85.6667 75.091V61.8057C85.6667 61.0107 84.6454 60.67 83.6554 60.67C82.6341 60.67 81.6438 61.0107 81.6438 61.8057V75.091C81.6438 79.8318 84.893 81.5917 89.0705 81.5917C93.2171 81.5917 96.4972 79.8316 96.4972 75.091V61.8057C96.4972 61.0107 95.476 60.67 94.4859 60.67Z" fill="#044D45"/>
<path d="M18.9746 20.3C20.2337 20.3 21.2544 19.2793 21.2544 18.0202C21.2544 16.7611 20.2337 15.7404 18.9746 15.7404C17.7155 15.7404 16.6948 16.7611 16.6948 18.0202C16.6948 19.2793 17.7155 20.3 18.9746 20.3Z" fill="#044D45"/>
<path d="M28.6715 20.3C29.9306 20.3 30.9513 19.2793 30.9513 18.0202C30.9513 16.7611 29.9306 15.7404 28.6715 15.7404C27.4124 15.7404 26.3917 16.7611 26.3917 18.0202C26.3917 19.2793 27.4124 20.3 28.6715 20.3Z" fill="#044D45"/>
<path d="M38.3712 20.3C39.6303 20.3 40.651 19.2793 40.651 18.0202C40.651 16.7611 39.6303 15.7404 38.3712 15.7404C37.1121 15.7404 36.0914 16.7611 36.0914 18.0202C36.0914 19.2793 37.1121 20.3 38.3712 20.3Z" fill="#044D45"/>
<path d="M48.0681 20.3C49.3271 20.3 50.3478 19.2793 50.3478 18.0202C50.3478 16.7611 49.3271 15.7404 48.0681 15.7404C46.809 15.7404 45.7883 16.7611 45.7883 18.0202C45.7883 19.2793 46.809 20.3 48.0681 20.3Z" fill="#044D45"/>
<path d="M57.765 20.3C59.024 20.3 60.0447 19.2793 60.0447 18.0202C60.0447 16.7611 59.024 15.7404 57.765 15.7404C56.5059 15.7404 55.4852 16.7611 55.4852 18.0202C55.4852 19.2793 56.5059 20.3 57.765 20.3Z" fill="#044D45"/>
<path d="M67.4618 20.3C68.7209 20.3 69.7416 19.2793 69.7416 18.0202C69.7416 16.7611 68.7209 15.7404 67.4618 15.7404C66.2027 15.7404 65.182 16.7611 65.182 18.0202C65.182 19.2793 66.2027 20.3 67.4618 20.3Z" fill="#044D45"/>
<path d="M77.1587 20.3C78.4178 20.3 79.4385 19.2793 79.4385 18.0202C79.4385 16.7611 78.4178 15.7404 77.1587 15.7404C75.8996 15.7404 74.8789 16.7611 74.8789 18.0202C74.8789 19.2793 75.8996 20.3 77.1587 20.3Z" fill="#044D45"/>
<path d="M86.8556 20.3C88.1146 20.3 89.1353 19.2793 89.1353 18.0202C89.1353 16.7611 88.1146 15.7404 86.8556 15.7404C85.5965 15.7404 84.5758 16.7611 84.5758 18.0202C84.5758 19.2793 85.5965 20.3 86.8556 20.3Z" fill="#044D45"/>
<path d="M96.5553 20.3C97.8144 20.3 98.835 19.2793 98.835 18.0202C98.835 16.7611 97.8144 15.7404 96.5553 15.7404C95.2962 15.7404 94.2755 16.7611 94.2755 18.0202C94.2755 19.2793 95.2962 20.3 96.5553 20.3Z" fill="#044D45"/>
<path d="M106.252 20.3C107.511 20.3 108.532 19.2793 108.532 18.0202C108.532 16.7611 107.511 15.7404 106.252 15.7404C104.993 15.7404 103.972 16.7611 103.972 18.0202C103.972 19.2793 104.993 20.3 106.252 20.3Z" fill="#044D45"/>
<path d="M115.949 20.3C117.208 20.3 118.229 19.2793 118.229 18.0202C118.229 16.7611 117.208 15.7404 115.949 15.7404C114.69 15.7404 113.669 16.7611 113.669 18.0202C113.669 19.2793 114.69 20.3 115.949 20.3Z" fill="#044D45"/>
<path d="M125.646 20.3C126.905 20.3 127.926 19.2793 127.926 18.0202C127.926 16.7611 126.905 15.7404 125.646 15.7404C124.387 15.7404 123.366 16.7611 123.366 18.0202C123.366 19.2793 124.387 20.3 125.646 20.3Z" fill="#044D45"/>
<path d="M18.9746 30.1215C20.2337 30.1215 21.2544 29.1008 21.2544 27.8417C21.2544 26.5826 20.2337 25.5619 18.9746 25.5619C17.7155 25.5619 16.6948 26.5826 16.6948 27.8417C16.6948 29.1008 17.7155 30.1215 18.9746 30.1215Z" fill="#044D45"/>
<path d="M28.6715 30.1215C29.9306 30.1215 30.9513 29.1008 30.9513 27.8417C30.9513 26.5826 29.9306 25.5619 28.6715 25.5619C27.4124 25.5619 26.3917 26.5826 26.3917 27.8417C26.3917 29.1008 27.4124 30.1215 28.6715 30.1215Z" fill="#044D45"/>
<path d="M38.3712 30.1215C39.6303 30.1215 40.651 29.1008 40.651 27.8417C40.651 26.5826 39.6303 25.5619 38.3712 25.5619C37.1121 25.5619 36.0914 26.5826 36.0914 27.8417C36.0914 29.1008 37.1121 30.1215 38.3712 30.1215Z" fill="#044D45"/>
<path d="M48.0681 30.1215C49.3271 30.1215 50.3478 29.1008 50.3478 27.8417C50.3478 26.5826 49.3271 25.5619 48.0681 25.5619C46.809 25.5619 45.7883 26.5826 45.7883 27.8417C45.7883 29.1008 46.809 30.1215 48.0681 30.1215Z" fill="#044D45"/>
<path d="M57.765 30.1215C59.024 30.1215 60.0447 29.1008 60.0447 27.8417C60.0447 26.5826 59.024 25.5619 57.765 25.5619C56.5059 25.5619 55.4852 26.5826 55.4852 27.8417C55.4852 29.1008 56.5059 30.1215 57.765 30.1215Z" fill="#044D45"/>
<path d="M67.4618 30.1215C68.7209 30.1215 69.7416 29.1008 69.7416 27.8417C69.7416 26.5826 68.7209 25.5619 67.4618 25.5619C66.2027 25.5619 65.182 26.5826 65.182 27.8417C65.182 29.1008 66.2027 30.1215 67.4618 30.1215Z" fill="#044D45"/>
<path d="M77.1587 30.1215C78.4178 30.1215 79.4385 29.1008 79.4385 27.8417C79.4385 26.5826 78.4178 25.5619 77.1587 25.5619C75.8996 25.5619 74.8789 26.5826 74.8789 27.8417C74.8789 29.1008 75.8996 30.1215 77.1587 30.1215Z" fill="#044D45"/>
<path d="M86.8556 30.1215C88.1146 30.1215 89.1353 29.1008 89.1353 27.8417C89.1353 26.5826 88.1146 25.5619 86.8556 25.5619C85.5965 25.5619 84.5758 26.5826 84.5758 27.8417C84.5758 29.1008 85.5965 30.1215 86.8556 30.1215Z" fill="#044D45"/>
<path d="M96.5553 30.1215C97.8144 30.1215 98.835 29.1008 98.835 27.8417C98.835 26.5826 97.8144 25.5619 96.5553 25.5619C95.2962 25.5619 94.2755 26.5826 94.2755 27.8417C94.2755 29.1008 95.2962 30.1215 96.5553 30.1215Z" fill="#044D45"/>
<path d="M106.252 30.1215C107.511 30.1215 108.532 29.1008 108.532 27.8417C108.532 26.5826 107.511 25.5619 106.252 25.5619C104.993 25.5619 103.972 26.5826 103.972 27.8417C103.972 29.1008 104.993 30.1215 106.252 30.1215Z" fill="#044D45"/>
<path d="M115.949 30.1215C117.208 30.1215 118.229 29.1008 118.229 27.8417C118.229 26.5826 117.208 25.5619 115.949 25.5619C114.69 25.5619 113.669 26.5826 113.669 27.8417C113.669 29.1008 114.69 30.1215 115.949 30.1215Z" fill="#044D45"/>
<path d="M125.646 30.1215C126.905 30.1215 127.926 29.1008 127.926 27.8417C127.926 26.5826 126.905 25.5619 125.646 25.5619C124.387 25.5619 123.366 26.5826 123.366 27.8417C123.366 29.1008 124.387 30.1215 125.646 30.1215Z" fill="#044D45"/>
<path d="M18.9746 40.0308C20.2337 40.0308 21.2544 39.0101 21.2544 37.751C21.2544 36.4919 20.2337 35.4712 18.9746 35.4712C17.7155 35.4712 16.6948 36.4919 16.6948 37.751C16.6948 39.0101 17.7155 40.0308 18.9746 40.0308Z" fill="#044D45"/>
<path d="M28.6715 40.0308C29.9306 40.0308 30.9513 39.0101 30.9513 37.751C30.9513 36.4919 29.9306 35.4712 28.6715 35.4712C27.4124 35.4712 26.3917 36.4919 26.3917 37.751C26.3917 39.0101 27.4124 40.0308 28.6715 40.0308Z" fill="#044D45"/>
<path d="M115.949 40.0308C117.208 40.0308 118.229 39.0101 118.229 37.751C118.229 36.4919 117.208 35.4712 115.949 35.4712C114.69 35.4712 113.669 36.4919 113.669 37.751C113.669 39.0101 114.69 40.0308 115.949 40.0308Z" fill="#044D45"/>
<path d="M125.646 40.0308C126.905 40.0308 127.926 39.0101 127.926 37.751C127.926 36.4919 126.905 35.4712 125.646 35.4712C124.387 35.4712 123.366 36.4919 123.366 37.751C123.366 39.0101 124.387 40.0308 125.646 40.0308Z" fill="#044D45"/>
<path d="M18.9746 49.8522C20.2337 49.8522 21.2544 48.8315 21.2544 47.5724C21.2544 46.3134 20.2337 45.2927 18.9746 45.2927C17.7155 45.2927 16.6948 46.3134 16.6948 47.5724C16.6948 48.8315 17.7155 49.8522 18.9746 49.8522Z" fill="#044D45"/>
<path d="M28.6715 49.8522C29.9306 49.8522 30.9513 48.8315 30.9513 47.5724C30.9513 46.3134 29.9306 45.2927 28.6715 45.2927C27.4124 45.2927 26.3917 46.3134 26.3917 47.5724C26.3917 48.8315 27.4124 49.8522 28.6715 49.8522Z" fill="#044D45"/>
<path d="M115.949 49.8522C117.208 49.8522 118.229 48.8315 118.229 47.5724C118.229 46.3134 117.208 45.2927 115.949 45.2927C114.69 45.2927 113.669 46.3134 113.669 47.5724C113.669 48.8315 114.69 49.8522 115.949 49.8522Z" fill="#044D45"/>
<path d="M125.646 49.8522C126.905 49.8522 127.926 48.8315 127.926 47.5724C127.926 46.3134 126.905 45.2927 125.646 45.2927C124.387 45.2927 123.366 46.3134 123.366 47.5724C123.366 48.8315 124.387 49.8522 125.646 49.8522Z" fill="#044D45"/>
<path d="M18.9746 59.7615C20.2337 59.7615 21.2544 58.7408 21.2544 57.4818C21.2544 56.2227 20.2337 55.202 18.9746 55.202C17.7155 55.202 16.6948 56.2227 16.6948 57.4818C16.6948 58.7408 17.7155 59.7615 18.9746 59.7615Z" fill="#044D45"/>
<path d="M28.6715 59.7615C29.9306 59.7615 30.9513 58.7408 30.9513 57.4818C30.9513 56.2227 29.9306 55.202 28.6715 55.202C27.4124 55.202 26.3917 56.2227 26.3917 57.4818C26.3917 58.7408 27.4124 59.7615 28.6715 59.7615Z" fill="#044D45"/>
<path d="M115.949 59.7615C117.208 59.7615 118.229 58.7408 118.229 57.4818C118.229 56.2227 117.208 55.202 115.949 55.202C114.69 55.202 113.669 56.2227 113.669 57.4818C113.669 58.7408 114.69 59.7615 115.949 59.7615Z" fill="#044D45"/>
<path d="M125.646 59.7615C126.905 59.7615 127.926 58.7408 127.926 57.4818C127.926 56.2227 126.905 55.202 125.646 55.202C124.387 55.202 123.366 56.2227 123.366 57.4818C123.366 58.7408 124.387 59.7615 125.646 59.7615Z" fill="#044D45"/>
<path d="M18.9746 69.583C20.2337 69.583 21.2544 68.5623 21.2544 67.3032C21.2544 66.0441 20.2337 65.0234 18.9746 65.0234C17.7155 65.0234 16.6948 66.0441 16.6948 67.3032C16.6948 68.5623 17.7155 69.583 18.9746 69.583Z" fill="#044D45"/>
<path d="M28.6715 69.583C29.9306 69.583 30.9513 68.5623 30.9513 67.3032C30.9513 66.0441 29.9306 65.0234 28.6715 65.0234C27.4124 65.0234 26.3917 66.0441 26.3917 67.3032C26.3917 68.5623 27.4124 69.583 28.6715 69.583Z" fill="#044D45"/>
<path d="M115.949 69.583C117.208 69.583 118.229 68.5623 118.229 67.3032C118.229 66.0441 117.208 65.0234 115.949 65.0234C114.69 65.0234 113.669 66.0441 113.669 67.3032C113.669 68.5623 114.69 69.583 115.949 69.583Z" fill="#044D45"/>
<path d="M125.646 69.583C126.905 69.583 127.926 68.5623 127.926 67.3032C127.926 66.0441 126.905 65.0234 125.646 65.0234C124.387 65.0234 123.366 66.0441 123.366 67.3032C123.366 68.5623 124.387 69.583 125.646 69.583Z" fill="#044D45"/>
<path d="M18.9746 79.4923C20.2337 79.4923 21.2544 78.4716 21.2544 77.2125C21.2544 75.9534 20.2337 74.9327 18.9746 74.9327C17.7155 74.9327 16.6948 75.9534 16.6948 77.2125C16.6948 78.4716 17.7155 79.4923 18.9746 79.4923Z" fill="#044D45"/>
<path d="M28.6715 79.4923C29.9306 79.4923 30.9513 78.4716 30.9513 77.2125C30.9513 75.9534 29.9306 74.9327 28.6715 74.9327C27.4124 74.9327 26.3917 75.9534 26.3917 77.2125C26.3917 78.4716 27.4124 79.4923 28.6715 79.4923Z" fill="#044D45"/>
<path d="M115.949 79.4923C117.208 79.4923 118.229 78.4716 118.229 77.2125C118.229 75.9534 117.208 74.9327 115.949 74.9327C114.69 74.9327 113.669 75.9534 113.669 77.2125C113.669 78.4716 114.69 79.4923 115.949 79.4923Z" fill="#044D45"/>
<path d="M125.646 79.4923C126.905 79.4923 127.926 78.4716 127.926 77.2125C127.926 75.9534 126.905 74.9327 125.646 74.9327C124.387 74.9327 123.366 75.9534 123.366 77.2125C123.366 78.4716 124.387 79.4923 125.646 79.4923Z" fill="#044D45"/>
<path d="M18.9746 89.3138C20.2337 89.3138 21.2544 88.2931 21.2544 87.034C21.2544 85.7749 20.2337 84.7542 18.9746 84.7542C17.7155 84.7542 16.6948 85.7749 16.6948 87.034C16.6948 88.2931 17.7155 89.3138 18.9746 89.3138Z" fill="#044D45"/>
<path d="M28.6715 89.3138C29.9306 89.3138 30.9513 88.2931 30.9513 87.034C30.9513 85.7749 29.9306 84.7542 28.6715 84.7542C27.4124 84.7542 26.3917 85.7749 26.3917 87.034C26.3917 88.2931 27.4124 89.3138 28.6715 89.3138Z" fill="#044D45"/>
<path d="M115.949 89.3138C117.208 89.3138 118.229 88.2931 118.229 87.034C118.229 85.7749 117.208 84.7542 115.949 84.7542C114.69 84.7542 113.669 85.7749 113.669 87.034C113.669 88.2931 114.69 89.3138 115.949 89.3138Z" fill="#044D45"/>
<path d="M125.646 89.3138C126.905 89.3138 127.926 88.2931 127.926 87.034C127.926 85.7749 126.905 84.7542 125.646 84.7542C124.387 84.7542 123.366 85.7749 123.366 87.034C123.366 88.2931 124.387 89.3138 125.646 89.3138Z" fill="#044D45"/>
<path d="M18.9746 99.223C20.2337 99.223 21.2544 98.2024 21.2544 96.9433C21.2544 95.6842 20.2337 94.6635 18.9746 94.6635C17.7155 94.6635 16.6948 95.6842 16.6948 96.9433C16.6948 98.2024 17.7155 99.223 18.9746 99.223Z" fill="#044D45"/>
<path d="M28.6715 99.223C29.9306 99.223 30.9513 98.2024 30.9513 96.9433C30.9513 95.6842 29.9306 94.6635 28.6715 94.6635C27.4124 94.6635 26.3917 95.6842 26.3917 96.9433C26.3917 98.2024 27.4124 99.223 28.6715 99.223Z" fill="#044D45"/>
<path d="M115.949 99.223C117.208 99.223 118.229 98.2024 118.229 96.9433C118.229 95.6842 117.208 94.6635 115.949 94.6635C114.69 94.6635 113.669 95.6842 113.669 96.9433C113.669 98.2024 114.69 99.223 115.949 99.223Z" fill="#044D45"/>
<path d="M125.646 99.223C126.905 99.223 127.926 98.2024 127.926 96.9433C127.926 95.6842 126.905 94.6635 125.646 94.6635C124.387 94.6635 123.366 95.6842 123.366 96.9433C123.366 98.2024 124.387 99.223 125.646 99.223Z" fill="#044D45"/>
<path d="M18.9746 109.042C20.2337 109.042 21.2544 108.021 21.2544 106.762C21.2544 105.503 20.2337 104.482 18.9746 104.482C17.7155 104.482 16.6948 105.503 16.6948 106.762C16.6948 108.021 17.7155 109.042 18.9746 109.042Z" fill="#044D45"/>
<path d="M28.6715 109.042C29.9306 109.042 30.9513 108.021 30.9513 106.762C30.9513 105.503 29.9306 104.482 28.6715 104.482C27.4124 104.482 26.3917 105.503 26.3917 106.762C26.3917 108.021 27.4124 109.042 28.6715 109.042Z" fill="#044D45"/>
<path d="M115.949 109.042C117.208 109.042 118.229 108.021 118.229 106.762C118.229 105.503 117.208 104.482 115.949 104.482C114.69 104.482 113.669 105.503 113.669 106.762C113.669 108.021 114.69 109.042 115.949 109.042Z" fill="#044D45"/>
<path d="M125.646 109.042C126.905 109.042 127.926 108.021 127.926 106.762C127.926 105.503 126.905 104.482 125.646 104.482C124.387 104.482 123.366 105.503 123.366 106.762C123.366 108.021 124.387 109.042 125.646 109.042Z" fill="#044D45"/>
<path d="M18.9746 118.954C20.2337 118.954 21.2544 117.933 21.2544 116.674C21.2544 115.415 20.2337 114.394 18.9746 114.394C17.7155 114.394 16.6948 115.415 16.6948 116.674C16.6948 117.933 17.7155 118.954 18.9746 118.954Z" fill="#044D45"/>
<path d="M28.6715 118.954C29.9306 118.954 30.9513 117.933 30.9513 116.674C30.9513 115.415 29.9306 114.394 28.6715 114.394C27.4124 114.394 26.3917 115.415 26.3917 116.674C26.3917 117.933 27.4124 118.954 28.6715 118.954Z" fill="#044D45"/>
<path d="M38.3712 118.954C39.6303 118.954 40.651 117.933 40.651 116.674C40.651 115.415 39.6303 114.394 38.3712 114.394C37.1121 114.394 36.0914 115.415 36.0914 116.674C36.0914 117.933 37.1121 118.954 38.3712 118.954Z" fill="#044D45"/>
<path d="M48.0681 118.954C49.3271 118.954 50.3478 117.933 50.3478 116.674C50.3478 115.415 49.3271 114.394 48.0681 114.394C46.809 114.394 45.7883 115.415 45.7883 116.674C45.7883 117.933 46.809 118.954 48.0681 118.954Z" fill="#044D45"/>
<path d="M57.765 118.954C59.024 118.954 60.0447 117.933 60.0447 116.674C60.0447 115.415 59.024 114.394 57.765 114.394C56.5059 114.394 55.4852 115.415 55.4852 116.674C55.4852 117.933 56.5059 118.954 57.765 118.954Z" fill="#044D45"/>
<path d="M67.4618 118.954C68.7209 118.954 69.7416 117.933 69.7416 116.674C69.7416 115.415 68.7209 114.394 67.4618 114.394C66.2027 114.394 65.182 115.415 65.182 116.674C65.182 117.933 66.2027 118.954 67.4618 118.954Z" fill="#044D45"/>
<path d="M77.1587 118.954C78.4178 118.954 79.4385 117.933 79.4385 116.674C79.4385 115.415 78.4178 114.394 77.1587 114.394C75.8996 114.394 74.8789 115.415 74.8789 116.674C74.8789 117.933 75.8996 118.954 77.1587 118.954Z" fill="#044D45"/>
<path d="M86.8556 118.954C88.1146 118.954 89.1353 117.933 89.1353 116.674C89.1353 115.415 88.1146 114.394 86.8556 114.394C85.5965 114.394 84.5758 115.415 84.5758 116.674C84.5758 117.933 85.5965 118.954 86.8556 118.954Z" fill="#044D45"/>
<path d="M96.5553 118.954C97.8144 118.954 98.835 117.933 98.835 116.674C98.835 115.415 97.8144 114.394 96.5553 114.394C95.2962 114.394 94.2755 115.415 94.2755 116.674C94.2755 117.933 95.2962 118.954 96.5553 118.954Z" fill="#044D45"/>
<path d="M106.252 118.954C107.511 118.954 108.532 117.933 108.532 116.674C108.532 115.415 107.511 114.394 106.252 114.394C104.993 114.394 103.972 115.415 103.972 116.674C103.972 117.933 104.993 118.954 106.252 118.954Z" fill="#044D45"/>
<path d="M115.949 118.954C117.208 118.954 118.229 117.933 118.229 116.674C118.229 115.415 117.208 114.394 115.949 114.394C114.69 114.394 113.669 115.415 113.669 116.674C113.669 117.933 114.69 118.954 115.949 118.954Z" fill="#044D45"/>
<path d="M125.646 118.954C126.905 118.954 127.926 117.933 127.926 116.674C127.926 115.415 126.905 114.394 125.646 114.394C124.387 114.394 123.366 115.415 123.366 116.674C123.366 117.933 124.387 118.954 125.646 118.954Z" fill="#044D45"/>
<path d="M18.9746 128.772C20.2337 128.772 21.2544 127.752 21.2544 126.493C21.2544 125.234 20.2337 124.213 18.9746 124.213C17.7155 124.213 16.6948 125.234 16.6948 126.493C16.6948 127.752 17.7155 128.772 18.9746 128.772Z" fill="#044D45"/>
<path d="M28.6715 128.772C29.9306 128.772 30.9513 127.752 30.9513 126.493C30.9513 125.234 29.9306 124.213 28.6715 124.213C27.4124 124.213 26.3917 125.234 26.3917 126.493C26.3917 127.752 27.4124 128.772 28.6715 128.772Z" fill="#044D45"/>
<path d="M38.3712 128.772C39.6303 128.772 40.651 127.752 40.651 126.493C40.651 125.234 39.6303 124.213 38.3712 124.213C37.1121 124.213 36.0914 125.234 36.0914 126.493C36.0914 127.752 37.1121 128.772 38.3712 128.772Z" fill="#044D45"/>
<path d="M48.0681 128.772C49.3271 128.772 50.3478 127.752 50.3478 126.493C50.3478 125.234 49.3271 124.213 48.0681 124.213C46.809 124.213 45.7883 125.234 45.7883 126.493C45.7883 127.752 46.809 128.772 48.0681 128.772Z" fill="#044D45"/>
<path d="M57.765 128.772C59.024 128.772 60.0447 127.752 60.0447 126.493C60.0447 125.234 59.024 124.213 57.765 124.213C56.5059 124.213 55.4852 125.234 55.4852 126.493C55.4852 127.752 56.5059 128.772 57.765 128.772Z" fill="#044D45"/>
<path d="M67.4618 128.772C68.7209 128.772 69.7416 127.752 69.7416 126.493C69.7416 125.234 68.7209 124.213 67.4618 124.213C66.2027 124.213 65.182 125.234 65.182 126.493C65.182 127.752 66.2027 128.772 67.4618 128.772Z" fill="#044D45"/>
<path d="M77.1587 128.772C78.4178 128.772 79.4385 127.752 79.4385 126.493C79.4385 125.234 78.4178 124.213 77.1587 124.213C75.8996 124.213 74.8789 125.234 74.8789 126.493C74.8789 127.752 75.8996 128.772 77.1587 128.772Z" fill="#044D45"/>
<path d="M86.8556 128.772C88.1146 128.772 89.1353 127.752 89.1353 126.493C89.1353 125.234 88.1146 124.213 86.8556 124.213C85.5965 124.213 84.5758 125.234 84.5758 126.493C84.5758 127.752 85.5965 128.772 86.8556 128.772Z" fill="#044D45"/>
<path d="M96.5553 128.772C97.8144 128.772 98.835 127.752 98.835 126.493C98.835 125.234 97.8144 124.213 96.5553 124.213C95.2962 124.213 94.2755 125.234 94.2755 126.493C94.2755 127.752 95.2962 128.772 96.5553 128.772Z" fill="#044D45"/>
<path d="M106.252 128.772C107.511 128.772 108.532 127.752 108.532 126.493C108.532 125.234 107.511 124.213 106.252 124.213C104.993 124.213 103.972 125.234 103.972 126.493C103.972 127.752 104.993 128.772 106.252 128.772Z" fill="#044D45"/>
<path d="M115.949 128.772C117.208 128.772 118.229 127.752 118.229 126.493C118.229 125.234 117.208 124.213 115.949 124.213C114.69 124.213 113.669 125.234 113.669 126.493C113.669 127.752 114.69 128.772 115.949 128.772Z" fill="#044D45"/>
<path d="M125.646 128.772C126.905 128.772 127.926 127.752 127.926 126.493C127.926 125.234 126.905 124.213 125.646 124.213C124.387 124.213 123.366 125.234 123.366 126.493C123.366 127.752 124.387 128.772 125.646 128.772Z" fill="#044D45"/>
<path d="M105.464 34.6091H39.5363C36.8195 34.6091 34.6094 36.8192 34.6094 39.536V66.8359C34.6094 67.3993 34.8332 67.9395 35.2315 68.3379C35.6299 68.7362 36.1701 68.96 36.7334 68.96C37.2968 68.96 37.837 68.7362 38.2353 68.3379C38.6337 67.9395 38.8575 67.3993 38.8575 66.8359V39.536C38.8577 39.356 38.9293 39.1835 39.0565 39.0563C39.1838 38.929 39.3563 38.8574 39.5363 38.8572H105.464C105.644 38.8574 105.817 38.929 105.944 39.0563C106.071 39.1835 106.143 39.356 106.143 39.536V66.8359C106.143 67.3993 106.367 67.9395 106.765 68.3379C107.163 68.7362 107.704 68.96 108.267 68.96C108.83 68.96 109.37 68.7362 109.769 68.3379C110.167 67.9395 110.391 67.3993 110.391 66.8359V39.536C110.391 36.8192 108.181 34.6091 105.464 34.6091ZM108.267 76.0401C107.704 76.0401 107.163 76.2638 106.765 76.6622C106.367 77.0605 106.143 77.6007 106.143 78.1641V91.1311C106.141 91.6467 105.936 92.1406 105.57 92.5046L92.3783 105.582C92.1993 105.761 91.9869 105.902 91.7533 105.998C91.5196 106.094 91.2693 106.143 91.0167 106.143H39.536C39.356 106.143 39.1835 106.071 39.0563 105.944C38.929 105.817 38.8574 105.644 38.8572 105.464V78.1641C38.8572 77.6007 38.6334 77.0605 38.2351 76.6622C37.8367 76.2638 37.2965 76.0401 36.7332 76.0401C36.1698 76.0401 35.6296 76.2638 35.2312 76.6622C34.8329 77.0605 34.6091 77.6007 34.6091 78.1641V105.464C34.6091 108.181 36.8195 110.391 39.536 110.391H91.0167C91.8243 110.393 92.6244 110.236 93.3712 109.928C94.118 109.621 94.7969 109.169 95.3689 108.599L108.561 95.5213C109.728 94.358 110.386 92.7791 110.391 91.1311V78.1641C110.391 77.6007 110.167 77.0605 109.769 76.6622C109.37 76.2638 108.83 76.0401 108.267 76.0401Z" fill="#044D45"/>
<path d="M142.876 41.5785C143.439 41.5785 143.98 41.3547 144.378 40.9564C144.776 40.558 145 40.0178 145 39.4544C145 38.8911 144.776 38.3509 144.378 37.9525C143.98 37.5542 143.439 37.3304 142.876 37.3304H136.765V25.0558H142.876C143.439 25.0558 143.98 24.832 144.378 24.4337C144.776 24.0354 145 23.4951 145 22.9318C145 22.3685 144.776 21.8282 144.378 21.4299C143.98 21.0316 143.439 20.8078 142.876 20.8078H136.765V16.6297C136.765 12.001 132.999 8.23526 128.37 8.23526H124.192V2.12402C124.192 1.5607 123.968 1.02044 123.57 0.622112C123.172 0.22378 122.632 0 122.068 0C121.505 0 120.965 0.22378 120.566 0.622112C120.168 1.02044 119.944 1.5607 119.944 2.12402V8.23526H107.67V2.12402C107.67 1.5607 107.446 1.02044 107.047 0.622112C106.649 0.22378 106.109 0 105.546 0C104.982 0 104.442 0.22378 104.044 0.622112C103.645 1.02044 103.422 1.5607 103.422 2.12402V8.23526H91.1467V2.12402C91.1467 1.5607 90.9229 1.02044 90.5245 0.622112C90.1262 0.22378 89.586 0 89.0226 0C88.4593 0 87.9191 0.22378 87.5207 0.622112C87.1224 1.02044 86.8986 1.5607 86.8986 2.12402V8.23526H74.624V2.12402C74.624 1.5607 74.4002 1.02044 74.0019 0.622112C73.6036 0.22378 73.0633 0 72.5 0C71.9367 0 71.3964 0.22378 70.9981 0.622112C70.5998 1.02044 70.376 1.5607 70.376 2.12402V8.23526H58.1014V2.12402C58.1014 1.5607 57.8776 1.02044 57.4793 0.622112C57.0809 0.22378 56.5407 0 55.9774 0C55.414 0 54.8738 0.22378 54.4755 0.622112C54.0771 1.02044 53.8533 1.5607 53.8533 2.12402V8.23526H41.5785V2.12402C41.5785 1.5607 41.3547 1.02044 40.9564 0.622112C40.558 0.22378 40.0178 0 39.4544 0C38.8911 0 38.3509 0.22378 37.9525 0.622112C37.5542 1.02044 37.3304 1.5607 37.3304 2.12402V8.23526H25.0558V2.12402C25.0558 1.5607 24.832 1.02044 24.4337 0.622112C24.0354 0.22378 23.4951 0 22.9318 0C22.3685 0 21.8282 0.22378 21.4299 0.622112C21.0316 1.02044 20.8078 1.5607 20.8078 2.12402V8.23526H16.6297C12.001 8.23526 8.23526 12.001 8.23526 16.6297V20.8078H2.12402C1.5607 20.8078 1.02044 21.0316 0.622112 21.4299C0.22378 21.8282 0 22.3685 0 22.9318C0 23.4951 0.22378 24.0354 0.622112 24.4337C1.02044 24.832 1.5607 25.0558 2.12402 25.0558H8.23526V37.3304H2.12402C1.5607 37.3304 1.02044 37.5542 0.622112 37.9525C0.22378 38.3509 0 38.8911 0 39.4544C0 40.0178 0.22378 40.558 0.622112 40.9564C1.02044 41.3547 1.5607 41.5785 2.12402 41.5785H8.23526V53.8533H2.12402C1.5607 53.8533 1.02044 54.0771 0.622112 54.4755C0.22378 54.8738 0 55.414 0 55.9774C0 56.5407 0.22378 57.0809 0.622112 57.4793C1.02044 57.8776 1.5607 58.1014 2.12402 58.1014H8.23526V70.376H2.12402C1.5607 70.376 1.02044 70.5998 0.622112 70.9981C0.22378 71.3964 0 71.9367 0 72.5C0 73.0633 0.22378 73.6036 0.622112 74.0019C1.02044 74.4002 1.5607 74.624 2.12402 74.624H8.23526V86.8986H2.12402C1.5607 86.8986 1.02044 87.1224 0.622112 87.5207C0.22378 87.9191 0 88.4593 0 89.0226C0 89.586 0.22378 90.1262 0.622112 90.5245C1.02044 90.9229 1.5607 91.1467 2.12402 91.1467H8.23526V103.422H2.12402C1.5607 103.422 1.02044 103.645 0.622112 104.044C0.22378 104.442 0 104.982 0 105.546C0 106.109 0.22378 106.649 0.622112 107.047C1.02044 107.446 1.5607 107.67 2.12402 107.67H8.23526V119.944H2.12402C1.5607 119.944 1.02044 120.168 0.622112 120.566C0.22378 120.965 0 121.505 0 122.068C0 122.632 0.22378 123.172 0.622112 123.57C1.02044 123.968 1.5607 124.192 2.12402 124.192H8.23526V128.37C8.23526 132.999 12.001 136.765 16.6297 136.765H20.8078V142.876C20.8078 143.439 21.0316 143.98 21.4299 144.378C21.8282 144.776 22.3685 145 22.9318 145C23.4951 145 24.0354 144.776 24.4337 144.378C24.832 143.98 25.0558 143.439 25.0558 142.876V136.765H37.3304V142.876C37.3304 143.439 37.5542 143.98 37.9525 144.378C38.3509 144.776 38.8911 145 39.4544 145C40.0178 145 40.558 144.776 40.9564 144.378C41.3547 143.98 41.5785 143.439 41.5785 142.876V136.765H53.8533V142.876C53.8533 143.439 54.0771 143.98 54.4755 144.378C54.8738 144.776 55.414 145 55.9774 145C56.5407 145 57.0809 144.776 57.4793 144.378C57.8776 143.98 58.1014 143.439 58.1014 142.876V136.765H70.376V142.876C70.376 143.439 70.5998 143.98 70.9981 144.378C71.3964 144.776 71.9367 145 72.5 145C73.0633 145 73.6036 144.776 74.0019 144.378C74.4002 143.98 74.624 143.439 74.624 142.876V136.765H86.8986V142.876C86.8986 143.439 87.1224 143.98 87.5207 144.378C87.9191 144.776 88.4593 145 89.0226 145C89.586 145 90.1262 144.776 90.5245 144.378C90.9229 143.98 91.1467 143.439 91.1467 142.876V136.765H103.422V142.876C103.422 143.439 103.645 143.98 104.044 144.378C104.442 144.776 104.982 145 105.546 145C106.109 145 106.649 144.776 107.047 144.378C107.446 143.98 107.67 143.439 107.67 142.876V136.765H119.944V142.876C119.944 143.439 120.168 143.98 120.566 144.378C120.965 144.776 121.505 145 122.068 145C122.632 145 123.172 144.776 123.57 144.378C123.968 143.98 124.192 143.439 124.192 142.876V136.765H128.37C132.999 136.765 136.765 132.999 136.765 128.37V124.192H142.876C143.439 124.192 143.98 123.968 144.378 123.57C144.776 123.172 145 122.632 145 122.068C145 121.505 144.776 120.965 144.378 120.566C143.98 120.168 143.439 119.944 142.876 119.944H136.765V107.67H142.876C143.439 107.67 143.98 107.446 144.378 107.047C144.776 106.649 145 106.109 145 105.546C145 104.982 144.776 104.442 144.378 104.044C143.98 103.645 143.439 103.422 142.876 103.422H136.765V91.1467H142.876C143.439 91.1467 143.98 90.9229 144.378 90.5245C144.776 90.1262 145 89.586 145 89.0226C145 88.4593 144.776 87.9191 144.378 87.5207C143.98 87.1224 143.439 86.8986 142.876 86.8986H136.765V74.624H142.876C143.439 74.624 143.98 74.4002 144.378 74.0019C144.776 73.6036 145 73.0633 145 72.5C145 71.9367 144.776 71.3964 144.378 70.9981C143.98 70.5998 143.439 70.376 142.876 70.376H136.765V58.1014H142.876C143.439 58.1014 143.98 57.8776 144.378 57.4793C144.776 57.0809 145 56.5407 145 55.9774C145 55.414 144.776 54.8738 144.378 54.4755C143.98 54.0771 143.439 53.8533 142.876 53.8533H136.765V41.5785H142.876ZM132.517 22.929V128.371C132.517 130.658 130.657 132.518 128.37 132.518H16.6297C14.3434 132.518 12.4833 130.658 12.4833 128.371V16.6297C12.4833 14.3434 14.3434 12.4833 16.6297 12.4833H128.37C130.657 12.4833 132.517 14.3434 132.517 16.6297V22.929Z" fill="#044D45"/>
</g>
<defs>
<clipPath id="clip0_720_5">
<rect width="145" height="145" fill="white"/>
</clipPath>
</defs>
</svg>
