<svg width="480" height="480" viewBox="0 0 480 480" fill="none" xmlns="http://www.w3.org/2000/svg">
<path d="M40 48C44.4183 48 48 44.4183 48 40C48 35.5817 44.4183 32 40 32C35.5817 32 32 35.5817 32 40C32 44.4183 35.5817 48 40 48Z" fill="#044D45"/>
<path d="M72 48C76.4183 48 80 44.4183 80 40C80 35.5817 76.4183 32 72 32C67.5817 32 64 35.5817 64 40C64 44.4183 67.5817 48 72 48Z" fill="#044D45"/>
<path d="M104 48C108.418 48 112 44.4183 112 40C112 35.5817 108.418 32 104 32C99.5817 32 96 35.5817 96 40C96 44.4183 99.5817 48 104 48Z" fill="#044D45"/>
<path d="M88 128C92.4183 128 96 124.418 96 120C96 115.582 92.4183 112 88 112C83.5817 112 80 115.582 80 120C80 124.418 83.5817 128 88 128Z" fill="#044D45"/>
<path d="M88 160C92.4183 160 96 156.418 96 152C96 147.582 92.4183 144 88 144C83.5817 144 80 147.582 80 152C80 156.418 83.5817 160 88 160Z" fill="#044D45"/>
<path d="M88 192C92.4183 192 96 188.418 96 184C96 179.582 92.4183 176 88 176C83.5817 176 80 179.582 80 184C80 188.418 83.5817 192 88 192Z" fill="#044D45"/>
<path d="M88 224C92.4183 224 96 220.418 96 216C96 211.582 92.4183 208 88 208C83.5817 208 80 211.582 80 216C80 220.418 83.5817 224 88 224Z" fill="#044D45"/>
<path d="M88 256C92.4183 256 96 252.418 96 248C96 243.582 92.4183 240 88 240C83.5817 240 80 243.582 80 248C80 252.418 83.5817 256 88 256Z" fill="#044D45"/>
<path d="M120 128H136C138.122 128 140.157 127.157 141.657 125.657C143.157 124.157 144 122.122 144 120C144 117.878 143.157 115.843 141.657 114.343C140.157 112.843 138.122 112 136 112H120C117.878 112 115.843 112.843 114.343 114.343C112.843 115.843 112 117.878 112 120C112 122.122 112.843 124.157 114.343 125.657C115.843 127.157 117.878 128 120 128ZM120 160H200C202.122 160 204.157 159.157 205.657 157.657C207.157 156.157 208 154.122 208 152C208 149.878 207.157 147.843 205.657 146.343C204.157 144.843 202.122 144 200 144H120C117.878 144 115.843 144.843 114.343 146.343C112.843 147.843 112 149.878 112 152C112 154.122 112.843 156.157 114.343 157.657C115.843 159.157 117.878 160 120 160ZM296 144H232C229.878 144 227.843 144.843 226.343 146.343C224.843 147.843 224 149.878 224 152C224 154.122 224.843 156.157 226.343 157.657C227.843 159.157 229.878 160 232 160H296C298.122 160 300.157 159.157 301.657 157.657C303.157 156.157 304 154.122 304 152C304 149.878 303.157 147.843 301.657 146.343C300.157 144.843 298.122 144 296 144ZM168 128H296C298.122 128 300.157 127.157 301.657 125.657C303.157 124.157 304 122.122 304 120C304 117.878 303.157 115.843 301.657 114.343C300.157 112.843 298.122 112 296 112H168C165.878 112 163.843 112.843 162.343 114.343C160.843 115.843 160 117.878 160 120C160 122.122 160.843 124.157 162.343 125.657C163.843 127.157 165.878 128 168 128Z" fill="#044D45"/>
<path d="M24 304H144V320H56C53.8783 320 51.8434 320.843 50.3431 322.343C48.8429 323.843 48 325.878 48 328V376C48 378.122 48.8429 380.157 50.3431 381.657C51.8434 383.157 53.8783 384 56 384H144V456C144.007 462.363 146.538 468.463 151.038 472.962C155.537 477.462 161.637 479.993 168 480H456C462.363 479.993 468.463 477.462 472.962 472.962C477.462 468.463 479.993 462.363 480 456V200C479.993 193.637 477.462 187.537 472.962 183.038C468.463 178.538 462.363 176.007 456 176H336V24C335.993 17.6371 333.462 11.5369 328.962 7.03762C324.463 2.53835 318.363 0.00741045 312 0H24C17.6371 0.00741045 11.5369 2.53835 7.03762 7.03762C2.53835 11.5369 0.00741045 17.6371 0 24V280C0.00741045 286.363 2.53835 292.463 7.03762 296.962C11.5369 301.462 17.6371 303.993 24 304ZM64 288V80H320V176H120C117.878 176 115.843 176.843 114.343 178.343C112.843 179.843 112 181.878 112 184C112 186.122 112.843 188.157 114.343 189.657C115.843 191.157 117.878 192 120 192H145.376C144.464 194.569 143.999 197.274 144 200V208H120C117.878 208 115.843 208.843 114.343 210.343C112.843 211.843 112 213.878 112 216C112 218.122 112.843 220.157 114.343 221.657C115.843 223.157 117.878 224 120 224H144V240H120C117.878 240 115.843 240.843 114.343 242.343C112.843 243.843 112 245.878 112 248C112 250.122 112.843 252.157 114.343 253.657C115.843 255.157 117.878 256 120 256H144V288H64ZM64 368V336H184C186.122 336 188.157 335.157 189.657 333.657C191.157 332.157 192 330.122 192 328V313.63L235.852 352L192 390.37V376C192 373.878 191.157 371.843 189.657 370.343C188.157 368.843 186.122 368 184 368H64ZM192.621 292.914C193.108 291.741 193.868 290.701 194.836 289.88C195.805 289.059 196.955 288.481 198.192 288.192C199.428 287.904 200.716 287.914 201.948 288.222C203.18 288.53 204.321 289.126 205.277 289.962C206.232 290.799 206.975 291.85 207.444 293.03C207.913 294.211 208.094 295.485 207.972 296.749C207.85 298.013 207.43 299.23 206.745 300.3C206.059 301.369 205.13 302.259 204.032 302.898L192.621 292.914ZM464 456C463.998 458.121 463.154 460.154 461.654 461.654C460.154 463.154 458.121 463.998 456 464H168C165.879 463.998 163.846 463.154 162.346 461.654C160.846 460.154 160.002 458.121 160 456V384H176V440C176 442.122 176.843 444.157 178.343 445.657C179.843 447.157 181.878 448 184 448C186.122 448 188.157 447.157 189.657 445.657C191.157 444.157 192 442.122 192 440V411.63L241.491 368.325C243.258 373.124 246.511 377.233 250.775 380.056C255.039 382.878 260.093 384.266 265.201 384.018C270.309 383.77 275.204 381.898 279.174 378.675C283.144 375.452 285.983 371.046 287.276 366.099C288.569 361.151 288.25 355.92 286.365 351.166C284.479 346.413 281.126 342.385 276.793 339.669C272.46 336.953 267.374 335.69 262.274 336.065C257.174 336.439 252.326 338.432 248.437 341.752L216.271 313.607C219.198 310.902 221.405 307.51 222.692 303.739C223.979 299.967 224.307 295.934 223.645 292.004C222.982 288.074 221.351 284.371 218.899 281.229C216.447 278.087 213.251 275.606 209.599 274.01C205.947 272.413 201.955 271.752 197.984 272.085C194.013 272.418 190.187 273.735 186.852 275.918C183.517 278.1 180.779 281.079 178.884 284.585C176.99 288.092 175.998 292.015 176 296V320H160V256H464V456ZM256 360C256 358.418 256.469 356.871 257.348 355.555C258.227 354.24 259.477 353.214 260.939 352.609C262.4 352.003 264.009 351.845 265.561 352.154C267.113 352.462 268.538 353.224 269.657 354.343C270.776 355.462 271.538 356.887 271.846 358.439C272.155 359.991 271.997 361.6 271.391 363.061C270.786 364.523 269.76 365.773 268.445 366.652C267.129 367.531 265.582 368 264 368C261.879 367.998 259.846 367.154 258.346 365.654C256.846 364.154 256.002 362.121 256 360ZM456 192C458.121 192.002 460.154 192.846 461.654 194.346C463.154 195.846 463.998 197.879 464 200V240H160V200C160.002 197.879 160.846 195.846 162.346 194.346C163.846 192.846 165.879 192.002 168 192H456ZM16 24C16.0024 21.879 16.846 19.8456 18.3458 18.3458C19.8456 16.846 21.879 16.0024 24 16H312C314.121 16.0024 316.154 16.846 317.654 18.3458C319.154 19.8456 319.998 21.879 320 24V64H16V24ZM16 80H48V288H24C21.879 287.998 19.8456 287.154 18.3458 285.654C16.846 284.154 16.0024 282.121 16 280V80Z" fill="#044D45"/>
<path d="M184 224C188.418 224 192 220.418 192 216C192 211.582 188.418 208 184 208C179.582 208 176 211.582 176 216C176 220.418 179.582 224 184 224Z" fill="#044D45"/>
<path d="M216 224C220.418 224 224 220.418 224 216C224 211.582 220.418 208 216 208C211.582 208 208 211.582 208 216C208 220.418 211.582 224 216 224Z" fill="#044D45"/>
<path d="M248 224C252.418 224 256 220.418 256 216C256 211.582 252.418 208 248 208C243.582 208 240 211.582 240 216C240 220.418 243.582 224 248 224Z" fill="#044D45"/>
<path d="M328 320C332.747 320 337.387 318.592 341.334 315.955C345.28 313.318 348.357 309.57 350.173 305.184C351.99 300.799 352.465 295.973 351.539 291.318C350.613 286.662 348.327 282.386 344.971 279.029C341.614 275.673 337.338 273.387 332.682 272.461C328.027 271.535 323.201 272.01 318.816 273.827C314.43 275.643 310.682 278.72 308.045 282.666C305.408 286.613 304 291.253 304 296C304.007 302.363 306.538 308.463 311.038 312.962C315.537 317.462 321.637 319.993 328 320ZM328 288C329.582 288 331.129 288.469 332.445 289.348C333.76 290.227 334.786 291.477 335.391 292.939C335.997 294.4 336.155 296.009 335.846 297.561C335.538 299.113 334.776 300.538 333.657 301.657C332.538 302.776 331.113 303.538 329.561 303.846C328.009 304.155 326.4 303.997 324.939 303.391C323.477 302.786 322.227 301.76 321.348 300.445C320.469 299.129 320 297.582 320 296C320.002 293.879 320.846 291.846 322.346 290.346C323.846 288.846 325.879 288.002 328 288ZM248 320C250.122 320 252.157 319.157 253.657 317.657C255.157 316.157 256 314.122 256 312V280C256 277.878 255.157 275.843 253.657 274.343C252.157 272.843 250.122 272 248 272C245.878 272 243.843 272.843 242.343 274.343C240.843 275.843 240 277.878 240 280V312C240 314.122 240.843 316.157 242.343 317.657C243.843 319.157 245.878 320 248 320ZM280 320C282.122 320 284.157 319.157 285.657 317.657C287.157 316.157 288 314.122 288 312V280C288 277.878 287.157 275.843 285.657 274.343C284.157 272.843 282.122 272 280 272C277.878 272 275.843 272.843 274.343 274.343C272.843 275.843 272 277.878 272 280V312C272 314.122 272.843 316.157 274.343 317.657C275.843 319.157 277.878 320 280 320ZM312 384C314.122 384 316.157 383.157 317.657 381.657C319.157 380.157 320 378.122 320 376V344C320 341.878 319.157 339.843 317.657 338.343C316.157 336.843 314.122 336 312 336C309.878 336 307.843 336.843 306.343 338.343C304.843 339.843 304 341.878 304 344V376C304 378.122 304.843 380.157 306.343 381.657C307.843 383.157 309.878 384 312 384ZM344 336C341.878 336 339.843 336.843 338.343 338.343C336.843 339.843 336 341.878 336 344V376C336 378.122 336.843 380.157 338.343 381.657C339.843 383.157 341.878 384 344 384C346.122 384 348.157 383.157 349.657 381.657C351.157 380.157 352 378.122 352 376V344C352 341.878 351.157 339.843 349.657 338.343C348.157 336.843 346.122 336 344 336ZM392 320C396.747 320 401.387 318.592 405.334 315.955C409.28 313.318 412.357 309.57 414.173 305.184C415.99 300.799 416.465 295.973 415.539 291.318C414.613 286.662 412.327 282.386 408.971 279.029C405.614 275.673 401.338 273.387 396.682 272.461C392.027 271.535 387.201 272.01 382.816 273.827C378.43 275.643 374.682 278.72 372.045 282.666C369.408 286.613 368 291.253 368 296C368.007 302.363 370.538 308.463 375.038 312.962C379.537 317.462 385.637 319.993 392 320ZM392 288C393.582 288 395.129 288.469 396.445 289.348C397.76 290.227 398.786 291.477 399.391 292.939C399.997 294.4 400.155 296.009 399.846 297.561C399.538 299.113 398.776 300.538 397.657 301.657C396.538 302.776 395.113 303.538 393.561 303.846C392.009 304.155 390.4 303.997 388.939 303.391C387.477 302.786 386.227 301.76 385.348 300.445C384.469 299.129 384 297.582 384 296C384.002 293.879 384.846 291.846 386.346 290.346C387.846 288.846 389.879 288.002 392 288ZM400 360C400 364.747 401.408 369.387 404.045 373.334C406.682 377.28 410.43 380.357 414.816 382.173C419.201 383.99 424.027 384.465 428.682 383.539C433.338 382.613 437.614 380.327 440.971 376.971C444.327 373.614 446.613 369.338 447.539 364.682C448.465 360.027 447.99 355.201 446.173 350.816C444.357 346.43 441.28 342.682 437.334 340.045C433.387 337.408 428.747 336 424 336C417.637 336.007 411.537 338.538 407.038 343.038C402.538 347.537 400.007 353.637 400 360ZM424 352C425.582 352 427.129 352.469 428.445 353.348C429.76 354.227 430.786 355.477 431.391 356.939C431.997 358.4 432.155 360.009 431.846 361.561C431.538 363.113 430.776 364.538 429.657 365.657C428.538 366.776 427.113 367.538 425.561 367.846C424.009 368.155 422.4 367.997 420.939 367.391C419.477 366.786 418.227 365.76 417.348 364.445C416.469 363.129 416 361.582 416 360C416.002 357.879 416.846 355.846 418.346 354.346C419.846 352.846 421.879 352.002 424 352ZM376 384C378.122 384 380.157 383.157 381.657 381.657C383.157 380.157 384 378.122 384 376V344C384 341.878 383.157 339.843 381.657 338.343C380.157 336.843 378.122 336 376 336C373.878 336 371.843 336.843 370.343 338.343C368.843 339.843 368 341.878 368 344V376C368 378.122 368.843 380.157 370.343 381.657C371.843 383.157 373.878 384 376 384ZM440 320C442.122 320 444.157 319.157 445.657 317.657C447.157 316.157 448 314.122 448 312V280C448 277.878 447.157 275.843 445.657 274.343C444.157 272.843 442.122 272 440 272C437.878 272 435.843 272.843 434.343 274.343C432.843 275.843 432 277.878 432 280V312C432 314.122 432.843 316.157 434.343 317.657C435.843 319.157 437.878 320 440 320ZM440 400C437.878 400 435.843 400.843 434.343 402.343C432.843 403.843 432 405.878 432 408V440C432 442.122 432.843 444.157 434.343 445.657C435.843 447.157 437.878 448 440 448C442.122 448 444.157 447.157 445.657 445.657C447.157 444.157 448 442.122 448 440V408C448 405.878 447.157 403.843 445.657 402.343C444.157 400.843 442.122 400 440 400ZM264 400C259.253 400 254.613 401.408 250.666 404.045C246.72 406.682 243.643 410.43 241.827 414.816C240.01 419.201 239.535 424.027 240.461 428.682C241.387 433.338 243.673 437.614 247.029 440.971C250.386 444.327 254.662 446.613 259.318 447.539C263.973 448.465 268.799 447.99 273.184 446.173C277.57 444.357 281.318 441.28 283.955 437.334C286.592 433.387 288 428.747 288 424C287.993 417.637 285.462 411.537 280.962 407.038C276.463 402.538 270.363 400.007 264 400ZM264 432C262.418 432 260.871 431.531 259.555 430.652C258.24 429.773 257.214 428.523 256.609 427.061C256.003 425.6 255.845 423.991 256.154 422.439C256.462 420.887 257.224 419.462 258.343 418.343C259.462 417.224 260.887 416.462 262.439 416.154C263.991 415.845 265.6 416.003 267.061 416.609C268.523 417.214 269.773 418.24 270.652 419.555C271.531 420.871 272 422.418 272 424C271.998 426.121 271.154 428.154 269.654 429.654C268.154 431.154 266.121 431.998 264 432ZM392 448C396.747 448 401.387 446.592 405.334 443.955C409.28 441.318 412.357 437.57 414.173 433.184C415.99 428.799 416.465 423.973 415.539 419.318C414.613 414.662 412.327 410.386 408.971 407.029C405.614 403.673 401.338 401.387 396.682 400.461C392.027 399.535 387.201 400.01 382.816 401.827C378.43 403.643 374.682 406.72 372.045 410.666C369.408 414.613 368 419.253 368 424C368.007 430.363 370.538 436.463 375.038 440.962C379.537 445.462 385.637 447.993 392 448ZM392 416C393.582 416 395.129 416.469 396.445 417.348C397.76 418.227 398.786 419.477 399.391 420.939C399.997 422.4 400.155 424.009 399.846 425.561C399.538 427.113 398.776 428.538 397.657 429.657C396.538 430.776 395.113 431.538 393.561 431.846C392.009 432.155 390.4 431.997 388.939 431.391C387.477 430.786 386.227 429.76 385.348 428.445C384.469 427.129 384 425.582 384 424C384.002 421.879 384.846 419.846 386.346 418.346C387.846 416.846 389.879 416.002 392 416ZM312 448C314.122 448 316.157 447.157 317.657 445.657C319.157 444.157 320 442.122 320 440V408C320 405.878 319.157 403.843 317.657 402.343C316.157 400.843 314.122 400 312 400C309.878 400 307.843 400.843 306.343 402.343C304.843 403.843 304 405.878 304 408V440C304 442.122 304.843 444.157 306.343 445.657C307.843 447.157 309.878 448 312 448ZM344 400C341.878 400 339.843 400.843 338.343 402.343C336.843 403.843 336 405.878 336 408V440C336 442.122 336.843 444.157 338.343 445.657C339.843 447.157 341.878 448 344 448C346.122 448 348.157 447.157 349.657 445.657C351.157 444.157 352 442.122 352 440V408C352 405.878 351.157 403.843 349.657 402.343C348.157 400.843 346.122 400 344 400ZM216 400C213.878 400 211.843 400.843 210.343 402.343C208.843 403.843 208 405.878 208 408V440C208 442.122 208.843 444.157 210.343 445.657C211.843 447.157 213.878 448 216 448C218.122 448 220.157 447.157 221.657 445.657C223.157 444.157 224 442.122 224 440V408C224 405.878 223.157 403.843 221.657 402.343C220.157 400.843 218.122 400 216 400Z" fill="#044D45"/>
</svg>
