<svg width="101" height="101" viewBox="0 0 101 101" fill="none" xmlns="http://www.w3.org/2000/svg">
<path d="M94.6875 71.0156H86.7969V61.5469H77.3281V54.7909C89.8679 52.5453 99.4219 41.582 99.4219 28.4062C99.4219 13.6129 87.3871 1.57812 72.5938 1.57812C60.7168 1.57812 50.2885 9.46244 46.9113 20.6435C43.7847 18.5046 40.085 17.36 36.2969 17.3594C26.8944 17.3594 19.0922 24.0869 17.6166 33.2195C12.1453 33.8745 7.89062 38.5441 7.89062 44.1875C7.89062 50.2775 12.8459 55.2344 18.9375 55.2344H23.6719V61.5469H14.2031V71.0156H6.3125C3.70228 71.0156 1.57812 73.1398 1.57812 75.75V88.375C1.57812 90.9852 3.70228 93.1094 6.3125 93.1094H9.46875V96.2656H6.3125V99.4219H25.2484V96.2656H22.0938V93.1094H25.25C27.8602 93.1094 29.9844 90.9852 29.9844 88.375V80.4844H36.2969V88.375C36.2969 90.9852 38.421 93.1094 41.0312 93.1094H44.1875V96.2656H41.0312V99.4219H59.9672V96.2656H56.8125V93.1094H59.9688C62.579 93.1094 64.7031 90.9852 64.7031 88.375V80.4844H71.0156V88.375C71.0156 90.9852 73.1398 93.1094 75.75 93.1094H78.9062V96.2656H75.75V99.4219H94.6859V96.2656H91.5312V93.1094H94.6875C97.2977 93.1094 99.4219 90.9852 99.4219 88.375V75.75C99.4219 73.1398 97.2977 71.0156 94.6875 71.0156ZM96.2656 75.75V83.6406H74.1719V75.75C74.1719 74.8789 74.8805 74.1719 75.75 74.1719H94.6875C95.557 74.1719 96.2656 74.8789 96.2656 75.75ZM58.4459 29.9844C58.479 31.1048 58.5453 32.2111 58.651 33.3063C58.0439 33.1998 57.4289 33.1444 56.8125 33.1406C56.1986 33.1406 55.5847 33.1927 54.9756 33.2984C54.7958 32.1705 54.5138 31.0612 54.1328 29.9844H58.4459ZM72.5938 4.73438C76.1161 4.73438 79.3071 8.50136 81.346 14.2031H63.8415C65.8804 8.50136 69.0714 4.73438 72.5938 4.73438ZM82.3134 17.3594C83.0425 20.2331 83.4907 23.4478 83.6012 26.8281H61.5847C61.6952 23.4478 62.1434 20.2331 62.8725 17.3594H82.3134ZM96.1851 26.8281H86.7558C86.6564 23.4525 86.2477 20.2631 85.5691 17.3594H93.5134C95.0627 20.2915 95.9732 23.5186 96.1851 26.8281ZM96.1851 29.9844C95.9732 33.2939 95.0627 36.521 93.5134 39.4531H85.5691C86.2477 36.5494 86.6564 33.36 86.7558 29.9844H96.1851ZM61.9414 34.4126C61.7589 32.9427 61.6456 31.465 61.6021 29.9844H83.6028C83.4923 33.3647 83.0441 36.5794 82.315 39.4531H66.7784C65.75 37.2966 64.0538 35.529 61.9414 34.4126ZM67.7331 42.6094H81.346C79.3071 48.3111 76.1161 52.0781 72.5938 52.0781C70.1861 52.0818 67.7921 51.7161 65.4953 50.994C67.0264 49.0556 67.8592 46.6576 67.8594 44.1875C67.8594 43.6509 67.8073 43.127 67.7331 42.6094ZM80.639 50.6405C82.2771 48.5463 83.6501 45.8019 84.6885 42.6094H91.4871C88.724 46.2794 84.9557 49.0691 80.639 50.6405ZM91.4871 14.2031H84.6885C83.6501 11.0106 82.2771 8.26622 80.639 6.17205C84.9557 7.74341 88.724 10.5331 91.4871 14.2031ZM64.5674 6.14522C62.9214 8.24255 61.5421 10.9964 60.499 14.2031H53.6752C56.4514 10.5215 60.2346 7.72272 64.5674 6.14522ZM51.6741 17.3594H59.6184C58.9398 20.2631 58.5311 23.4525 58.4317 26.8281H52.6731C51.8298 25.3725 50.7965 24.0357 49.6005 22.8528C50.0572 20.9415 50.7539 19.0957 51.6741 17.3594ZM11.0469 44.1875C11.0469 39.8382 14.585 36.2985 18.9233 36.2985H18.9265L20.4509 36.3868L20.5882 34.8655C20.9248 30.9375 22.7279 27.2802 25.6386 24.6212C28.5494 21.9622 32.3545 20.4965 36.2969 20.5156C44.6388 20.5156 51.5495 27.0443 52.0292 35.3784L52.1507 37.4884L54.1392 36.7735C54.996 36.4612 55.9005 36.2999 56.8125 36.2969C61.1634 36.2969 64.7031 39.8366 64.7031 44.1875C64.7031 48.5384 61.1634 52.0781 56.8125 52.0781H18.9375C14.5866 52.0781 11.0469 48.5384 11.0469 44.1875ZM6.3125 74.1719H25.25C26.1195 74.1719 26.8281 74.8789 26.8281 75.75V83.6406H4.73438V75.75C4.73438 74.8789 5.44295 74.1719 6.3125 74.1719ZM18.9375 96.2656H12.625V93.1094H18.9375V96.2656ZM25.25 89.9531H6.3125C5.44295 89.9531 4.73438 89.2461 4.73438 88.375V86.7969H26.8281V88.375C26.8281 89.2461 26.1195 89.9531 25.25 89.9531ZM29.9844 77.3281V75.75C29.9844 73.1398 27.8602 71.0156 25.25 71.0156H17.3594V64.7031H26.8281V55.2344H48.9219V71.0156H41.0312C38.421 71.0156 36.2969 73.1398 36.2969 75.75V77.3281H29.9844ZM61.5469 83.6406H39.4531V75.75C39.4531 74.8789 40.1617 74.1719 41.0312 74.1719H59.9688C60.8383 74.1719 61.5469 74.8789 61.5469 75.75V83.6406ZM53.6562 96.2656H47.3438V93.1094H53.6562V96.2656ZM59.9688 89.9531H41.0312C40.1617 89.9531 39.4531 89.2461 39.4531 88.375V86.7969H61.5469V88.375C61.5469 89.2461 60.8383 89.9531 59.9688 89.9531ZM64.7031 77.3281V75.75C64.7031 73.1398 62.579 71.0156 59.9688 71.0156H52.0781V55.2344H56.8125C59.0613 55.2344 61.1539 54.5558 62.9009 53.3959C65.9892 54.607 69.2765 55.2305 72.5938 55.2344C73.1272 55.2344 73.6464 55.1855 74.1719 55.1539V64.7031H83.6406V71.0156H75.75C73.1398 71.0156 71.0156 73.1398 71.0156 75.75V77.3281H64.7031ZM88.375 96.2656H82.0625V93.1094H88.375V96.2656ZM94.6875 89.9531H75.75C74.8805 89.9531 74.1719 89.2461 74.1719 88.375V86.7969H96.2656V88.375C96.2656 89.2461 95.557 89.9531 94.6875 89.9531Z" fill="#044D45"/>
<path d="M25.25 39.4531C22.6398 39.4531 20.5156 41.5773 20.5156 44.1875C20.5156 46.7977 22.6398 48.9219 25.25 48.9219C27.8602 48.9219 29.9844 46.7977 29.9844 44.1875C29.9844 41.5773 27.8602 39.4531 25.25 39.4531ZM25.25 45.7656C24.8437 45.7474 24.46 45.5732 24.1789 45.2793C23.8978 44.9853 23.7409 44.5942 23.7409 44.1875C23.7409 43.7808 23.8978 43.3897 24.1789 43.0957C24.46 42.8018 24.8437 42.6276 25.25 42.6094C25.6563 42.6276 26.04 42.8018 26.3211 43.0957C26.6022 43.3897 26.7591 43.7808 26.7591 44.1875C26.7591 44.5942 26.6022 44.9853 26.3211 45.2793C26.04 45.5732 25.6563 45.7474 25.25 45.7656ZM37.875 39.4531C35.2648 39.4531 33.1406 41.5773 33.1406 44.1875C33.1406 46.7977 35.2648 48.9219 37.875 48.9219C40.4852 48.9219 42.6094 46.7977 42.6094 44.1875C42.6094 41.5773 40.4852 39.4531 37.875 39.4531ZM37.875 45.7656C37.4687 45.7474 37.085 45.5732 36.8039 45.2793C36.5228 44.9853 36.3659 44.5942 36.3659 44.1875C36.3659 43.7808 36.5228 43.3897 36.8039 43.0957C37.085 42.8018 37.4687 42.6276 37.875 42.6094C38.2813 42.6276 38.665 42.8018 38.9461 43.0957C39.2272 43.3897 39.3841 43.7808 39.3841 44.1875C39.3841 44.5942 39.2272 44.9853 38.9461 45.2793C38.665 45.5732 38.2813 45.7474 37.875 45.7656ZM50.5 39.4531C47.8898 39.4531 45.7656 41.5773 45.7656 44.1875C45.7656 46.7977 47.8898 48.9219 50.5 48.9219C53.1102 48.9219 55.2344 46.7977 55.2344 44.1875C55.2344 41.5773 53.1102 39.4531 50.5 39.4531ZM50.5 45.7656C50.0937 45.7474 49.71 45.5732 49.4289 45.2793C49.1478 44.9853 48.9909 44.5942 48.9909 44.1875C48.9909 43.7808 49.1478 43.3897 49.4289 43.0957C49.71 42.8018 50.0937 42.6276 50.5 42.6094C50.9063 42.6276 51.29 42.8018 51.5711 43.0957C51.8522 43.3897 52.0091 43.7808 52.0091 44.1875C52.0091 44.5942 51.8522 44.9853 51.5711 45.2793C51.29 45.5732 50.9063 45.7474 50.5 45.7656ZM36.2969 23.6719V26.8281C40.4568 26.8281 44.1891 29.6088 45.3727 33.5904L48.3979 32.6909C46.8182 27.3805 41.8424 23.6719 36.2969 23.6719Z" fill="#044D45"/>
</svg>
