<svg width="173" height="179" viewBox="0 0 173 179" fill="none" xmlns="http://www.w3.org/2000/svg">
<path d="M118.451 55.9655C117.903 54.3249 116.874 52.902 115.508 51.8945C114.141 50.8869 112.506 50.3449 110.828 50.3438H108.125V44.75H110.828C112.977 44.7434 115.036 43.8572 116.555 42.2851C118.075 40.713 118.931 38.5827 118.938 36.3594V13.9844C118.931 11.7611 118.075 9.63075 116.555 8.05864C115.036 6.48653 112.977 5.60039 110.828 5.59375H13.5156C11.3669 5.60039 9.30793 6.48653 7.78852 8.05864C6.26911 9.63075 5.41267 11.7611 5.40625 13.9844V36.3594C5.41267 38.5827 6.26911 40.713 7.78852 42.2851C9.30793 43.8572 11.3669 44.7434 13.5156 44.75H16.2188V50.3438H13.5156C11.3669 50.3504 9.30793 51.2365 7.78852 52.8086C6.26911 54.3808 5.41267 56.5111 5.40625 58.7344V81.1094C5.41267 83.3327 6.26911 85.463 7.78852 87.0351C9.30793 88.6072 11.3669 89.4934 13.5156 89.5H16.2188V95.0938H13.5156C11.3669 95.1004 9.30793 95.9865 7.78852 97.5586C6.26911 99.1308 5.41267 101.261 5.40625 103.484V125.859C5.41267 128.083 6.26911 130.213 7.78852 131.785C9.30793 133.357 11.3669 134.243 13.5156 134.25H64.875V156.625C64.875 167.645 90.7169 173.406 116.234 173.406C141.752 173.406 167.594 167.645 167.594 156.625V72.7188C167.594 62.0067 143.239 56.3011 118.451 55.9655ZM13.5156 39.1562C12.7987 39.1562 12.1112 38.8616 11.6042 38.3371C11.0973 37.8125 10.8125 37.1012 10.8125 36.3594V13.9844C10.8125 13.2426 11.0973 12.5312 11.6042 12.0067C12.1112 11.4822 12.7987 11.1875 13.5156 11.1875H110.828C111.545 11.1875 112.233 11.4822 112.74 12.0067C113.246 12.5312 113.531 13.2426 113.531 13.9844V36.3594C113.531 37.1012 113.246 37.8125 112.74 38.3371C112.233 38.8616 111.545 39.1562 110.828 39.1562H13.5156ZM102.719 44.75V50.3438H91.9062V44.75H102.719ZM86.5 44.75V50.3438H37.8438V44.75H86.5ZM32.4375 44.75V50.3438H21.625V44.75H32.4375ZM64.875 128.656H13.5156C12.7987 128.656 12.1112 128.362 11.6042 127.837C11.0973 127.313 10.8125 126.601 10.8125 125.859V103.484C10.8125 102.743 11.0973 102.031 11.6042 101.507C12.1112 100.982 12.7987 100.688 13.5156 100.688H64.875V128.656ZM21.625 95.0938V89.5H32.4375V95.0938H21.625ZM64.875 95.0938H37.8438V89.5H64.875V95.0938ZM64.875 72.7188V83.9062H13.5156C12.7987 83.9062 12.1112 83.6116 11.6042 83.0871C11.0973 82.5626 10.8125 81.8512 10.8125 81.1094V58.7344C10.8125 57.9926 11.0973 57.2812 11.6042 56.7567C12.1112 56.2322 12.7987 55.9375 13.5156 55.9375H110.828C110.957 55.952 111.084 55.9801 111.207 56.0214C87.4191 56.7206 64.875 62.4262 64.875 72.7188ZM162.188 156.625C162.188 160.429 145.969 167.812 116.234 167.812C86.5 167.812 70.2812 160.429 70.2812 156.625V136.543C79.1745 142.389 97.745 145.438 116.234 145.438C134.724 145.438 153.294 142.389 162.188 136.543V156.625ZM162.188 128.656C162.188 132.46 145.969 139.844 116.234 139.844C86.5 139.844 70.2812 132.46 70.2812 128.656V108.575C79.1745 114.42 97.745 117.469 116.234 117.469C134.724 117.469 153.294 114.42 162.188 108.575V128.656ZM162.188 100.688C162.188 104.491 145.969 111.875 116.234 111.875C86.5 111.875 70.2812 104.491 70.2812 100.688V80.6059C79.1745 86.4514 97.745 89.5 116.234 89.5C134.724 89.5 153.294 86.4514 162.188 80.6059V100.688ZM116.234 83.9062C86.5 83.9062 70.2812 76.5225 70.2812 72.7188C70.2812 68.915 86.5 61.5312 116.234 61.5312C145.969 61.5312 162.188 68.915 162.188 72.7188C162.188 76.5225 145.969 83.9062 116.234 83.9062Z" fill="#044D45"/>
<path d="M113.531 97.8906H118.938V103.484H113.531V97.8906ZM113.531 128.656H118.938V134.25H113.531V128.656ZM113.531 153.828H118.938V159.422H113.531V153.828ZM29.7344 61.5312H18.9219C18.205 61.5312 17.5174 61.8259 17.0105 62.3504C16.5035 62.8749 16.2188 63.5863 16.2188 64.3281V75.5156C16.2188 76.2574 16.5035 76.9688 17.0105 77.4933C17.5174 78.0178 18.205 78.3125 18.9219 78.3125H29.7344C30.4513 78.3125 31.1388 78.0178 31.6458 77.4933C32.1527 76.9688 32.4375 76.2574 32.4375 75.5156V64.3281C32.4375 63.5863 32.1527 62.8749 31.6458 62.3504C31.1388 61.8259 30.4513 61.5312 29.7344 61.5312ZM27.0312 72.7188H21.625V67.125H27.0312V72.7188ZM51.3594 61.5312H40.5469C39.83 61.5312 39.1424 61.8259 38.6355 62.3504C38.1285 62.8749 37.8438 63.5863 37.8438 64.3281V75.5156C37.8438 76.2574 38.1285 76.9688 38.6355 77.4933C39.1424 78.0178 39.83 78.3125 40.5469 78.3125H51.3594C52.0763 78.3125 52.7638 78.0178 53.2708 77.4933C53.7777 76.9688 54.0625 76.2574 54.0625 75.5156V64.3281C54.0625 63.5863 53.7777 62.8749 53.2708 62.3504C52.7638 61.8259 52.0763 61.5312 51.3594 61.5312ZM48.6562 72.7188H43.25V67.125H48.6562V72.7188ZM29.7344 16.7812H18.9219C18.205 16.7812 17.5174 17.0759 17.0105 17.6004C16.5035 18.125 16.2188 18.8363 16.2188 19.5781V30.7656C16.2188 31.5074 16.5035 32.2188 17.0105 32.7433C17.5174 33.2678 18.205 33.5625 18.9219 33.5625H29.7344C30.4513 33.5625 31.1388 33.2678 31.6458 32.7433C32.1527 32.2188 32.4375 31.5074 32.4375 30.7656V19.5781C32.4375 18.8363 32.1527 18.125 31.6458 17.6004C31.1388 17.0759 30.4513 16.7812 29.7344 16.7812ZM27.0312 27.9688H21.625V22.375H27.0312V27.9688ZM51.3594 16.7812H40.5469C39.83 16.7812 39.1424 17.0759 38.6355 17.6004C38.1285 18.125 37.8438 18.8363 37.8438 19.5781V30.7656C37.8438 31.5074 38.1285 32.2188 38.6355 32.7433C39.1424 33.2678 39.83 33.5625 40.5469 33.5625H51.3594C52.0763 33.5625 52.7638 33.2678 53.2708 32.7433C53.7777 32.2188 54.0625 31.5074 54.0625 30.7656V19.5781C54.0625 18.8363 53.7777 18.125 53.2708 17.6004C52.7638 17.0759 52.0763 16.7812 51.3594 16.7812ZM48.6562 27.9688H43.25V22.375H48.6562V27.9688ZM59.4688 16.7812H97.3125V22.375H59.4688V16.7812ZM102.719 16.7812H108.125V22.375H102.719V16.7812ZM59.4688 27.9688H97.3125V33.5625H59.4688V27.9688ZM102.719 27.9688H108.125V33.5625H102.719V27.9688ZM29.7344 106.281H18.9219C18.205 106.281 17.5174 106.576 17.0105 107.1C16.5035 107.625 16.2188 108.336 16.2188 109.078V120.266C16.2188 121.007 16.5035 121.719 17.0105 122.243C17.5174 122.768 18.205 123.062 18.9219 123.062H29.7344C30.4513 123.062 31.1388 122.768 31.6458 122.243C32.1527 121.719 32.4375 121.007 32.4375 120.266V109.078C32.4375 108.336 32.1527 107.625 31.6458 107.1C31.1388 106.576 30.4513 106.281 29.7344 106.281ZM27.0312 117.469H21.625V111.875H27.0312V117.469ZM51.3594 106.281H40.5469C39.83 106.281 39.1424 106.576 38.6355 107.1C38.1285 107.625 37.8438 108.336 37.8438 109.078V120.266C37.8438 121.007 38.1285 121.719 38.6355 122.243C39.1424 122.768 39.83 123.062 40.5469 123.062H51.3594C52.0763 123.062 52.7638 122.768 53.2708 122.243C53.7777 121.719 54.0625 121.007 54.0625 120.266V109.078C54.0625 108.336 53.7777 107.625 53.2708 107.1C52.7638 106.576 52.0763 106.281 51.3594 106.281ZM48.6562 117.469H43.25V111.875H48.6562V117.469Z" fill="#044D45"/>
</svg>
