<svg width="242" height="242" viewBox="0 0 242 242" fill="none" xmlns="http://www.w3.org/2000/svg">
<path d="M173.643 192.587H63.4191C58.7824 192.581 54.3373 190.736 51.0583 187.458C47.7793 184.18 45.9341 179.735 45.9271 175.098V64.8749C45.9331 60.2376 47.7779 55.7919 51.057 52.5128C54.3361 49.2337 58.7818 47.3888 63.4191 47.3828H173.643C178.28 47.3888 182.725 49.2338 186.003 52.513C189.282 55.7922 191.126 60.2379 191.131 64.8749V175.098C191.125 179.735 189.28 184.179 186.002 187.458C182.724 190.736 178.279 192.581 173.643 192.587ZM63.4191 54.9491C60.7866 54.9521 58.2627 55.9992 56.4012 57.8607C54.5397 59.7222 53.4926 62.2461 53.4896 64.8787V175.102C53.4936 177.734 54.5411 180.257 56.4025 182.118C58.2639 183.978 60.7872 185.025 63.4191 185.028H173.643C176.274 185.024 178.796 183.977 180.657 182.116C182.517 180.256 183.564 177.733 183.568 175.102V64.8749C183.565 62.243 182.519 59.7197 180.658 57.8583C178.797 55.9969 176.274 54.9493 173.643 54.9453L63.4191 54.9491Z" fill="#044D45"/>
<path d="M175.707 175.56H63.9031V63.7481H175.715L175.707 175.56ZM71.4581 167.997H168.145V71.3106H71.4656L71.4581 167.997Z" fill="#044D45"/>
<path d="M118.353 117.756H81.4519V80.8507H118.353V117.756ZM89.0182 110.193H110.791V88.4132H89.0144L89.0182 110.193ZM118.353 159.349H81.4519V122.448H118.353V159.349ZM89.0182 151.787H110.791V130.011H89.0144L89.0182 151.787ZM8.85571 68.3083H49.7083V75.8708H8.85571V68.3083ZM8.85571 116.727H49.7083V124.29H8.85571V116.727ZM8.85571 165.142H49.7083V172.705H8.85571V165.142ZM27.0813 91.4193H50.7633V98.9818H27.0813V91.4193ZM27.0813 139.831H50.7633V147.393H27.0813V139.831ZM189.679 69.0116H230.531V76.5741H189.679V69.0116ZM189.679 117.427H230.531V124.989H189.679V117.427ZM189.679 165.842H230.531V173.404H189.679V165.842ZM188.628 92.1188H212.31V99.6813H188.628V92.1188ZM188.628 140.534H212.31V148.096H188.628V140.534ZM162.647 189.717H170.209V230.573H162.647V189.717ZM114.232 189.717H121.794V230.573H114.232V189.717ZM65.8165 189.717H73.379V230.573H65.8165V189.717ZM139.539 188.665H147.102V212.347H139.539V188.665ZM91.1244 188.665H98.6869V212.347H91.1244V188.665ZM66.9471 11.0413H74.5096V51.8939H66.9471V11.0413ZM115.362 11.0413H122.925V51.8939H115.362V11.0413ZM163.777 11.0413H171.34V51.8939H163.777V11.0413ZM90.0543 29.2669H97.6168V52.9489H90.0543V29.2669ZM138.469 29.2669H146.032V52.9489H138.469V29.2669Z" fill="#044D45"/>
</svg>
