<svg width="512" height="512" viewBox="0 0 512 512" fill="none" xmlns="http://www.w3.org/2000/svg">
<path d="M469.332 76.8038H388.824C361.475 29.2873 310.824 0 256 0C201.179 0 150.53 29.2873 123.179 76.8038H42.668C19.1183 76.8326 0.0303867 95.9162 0.00158691 119.47V366.935C0.0303867 390.485 19.1183 409.573 42.668 409.602H175.9L164.517 443.735H136.534C112.984 443.764 93.8965 462.847 93.8677 486.401V512.001H418.132V486.401C418.108 462.847 399.02 443.764 375.466 443.735H347.487L336.104 409.602H469.332C492.886 409.573 511.974 390.485 511.998 366.935V119.47C511.974 95.9162 492.886 76.8326 469.332 76.8038ZM133.422 93.8703H177.155C173.414 110.694 171.32 127.841 170.901 145.07H119.905C120.993 127.28 125.587 109.88 133.422 93.8703ZM247.467 230.403V288.89C228.038 283.77 210.871 261.661 199.979 230.403H247.467ZM194.955 213.336C190.817 196.566 188.471 179.403 187.958 162.137H247.467V213.336H194.955ZM264.533 288.89V230.403H312.024C301.134 261.661 283.967 283.777 264.533 288.89ZM264.533 213.336V162.137H324.045C323.532 179.403 321.187 196.566 317.049 213.336H264.533ZM264.533 145.07V93.8703H317.049C321.187 110.641 323.532 127.804 324.045 145.07H264.533ZM264.533 76.8038V18.3167C283.967 23.4367 301.133 45.5453 312.024 76.8038H264.533ZM247.467 18.3167V76.8038H199.979C210.871 45.5453 228.038 23.4281 247.467 18.3167ZM247.467 93.8703V145.07H187.958C188.471 127.804 190.817 110.641 194.955 93.8703H247.467ZM170.901 162.137C171.32 179.366 173.415 196.513 177.155 213.336H133.422C125.587 197.327 120.993 179.927 119.905 162.137H170.901ZM181.83 230.403C187.217 248.844 196.068 266.09 207.91 281.219C181.65 271.301 159.067 253.564 143.209 230.403H181.83ZM330.174 230.403H368.795C352.938 253.564 330.355 271.301 304.096 281.219C315.937 266.09 324.788 248.844 330.176 230.403H330.174ZM378.583 213.336H334.85C338.588 196.513 340.682 179.365 341.103 162.137H392.099C391.011 179.927 386.417 197.327 378.583 213.336ZM341.103 145.07C340.682 127.841 338.588 110.694 334.85 93.8703H378.583C386.417 109.88 391.011 127.28 392.099 145.07H341.103ZM368.795 76.8038H330.176C324.788 58.3627 315.937 41.1168 304.096 25.9881C330.355 35.9053 352.939 53.6423 368.796 76.8038H368.795ZM207.909 25.9881C196.067 41.1168 187.216 58.3627 181.829 76.8038H143.209C159.066 53.6425 181.649 35.9055 207.909 25.9881ZM42.668 93.8693H114.493C87.3589 158.153 106.959 232.652 162.221 275.252C217.484 317.855 294.52 317.855 349.779 275.252C405.041 232.651 424.644 158.153 397.507 93.8693H469.332C483.474 93.8693 494.932 105.332 494.932 119.469V323.943H17.0681V119.47C17.0681 105.333 28.5305 93.8693 42.668 93.8693ZM375.466 460.8C389.608 460.8 401.066 472.263 401.066 486.4V494.933H110.934V486.4C110.934 472.263 122.397 460.8 136.534 460.8H375.466ZM329.499 443.734H182.505L193.888 409.601H318.116L329.499 443.734ZM469.332 392.534H42.668C28.5305 392.534 17.0681 381.072 17.0681 366.934V341.009H494.932V366.934C494.932 381.072 483.474 392.534 469.332 392.534Z" fill="#044D45"/>
<path d="M213.334 358.402H230.4V375.469H213.334V358.402ZM247.467 358.402H264.533V375.469H247.467V358.402ZM281.6 358.402H298.666V375.469H281.6V358.402ZM51.2013 128.003H93.8677V110.937H34.1347V307.202H51.2013V128.003ZM460.799 307.202H477.865V110.937H418.132V128.003H460.799V307.202Z" fill="#044D45"/>
</svg>
