<svg width="161" height="161" viewBox="0 0 161 161" fill="none" xmlns="http://www.w3.org/2000/svg">
<path d="M105.422 101.274L72.8198 82.9351C72.053 82.5142 71.1901 82.2992 70.3154 82.3112C69.4407 82.3231 68.5841 82.5615 67.829 83.0032C67.0739 83.4448 66.4462 84.0746 66.007 84.8312C65.5679 85.5877 65.3323 86.4451 65.3232 87.3199V123.998C65.3323 124.872 65.5679 125.73 66.007 126.486C66.4462 127.243 67.0739 127.873 67.829 128.314C68.5841 128.756 69.4407 128.994 70.3154 129.006C71.1901 129.018 72.053 128.803 72.8198 128.382L105.422 110.044C106.191 109.598 106.829 108.959 107.273 108.189C107.717 107.42 107.95 106.547 107.95 105.659C107.95 104.77 107.717 103.898 107.273 103.128C106.829 102.359 106.191 101.719 105.422 101.274ZM70.3545 123.998L70.3394 87.3148L102.957 105.656L70.3545 123.998Z" fill="#044D45"/>
<path d="M155.146 42.2474L132.506 19.6068C132.016 19.1624 131.387 18.9019 130.727 18.8697H103.055C101.054 18.8717 99.1357 19.6675 97.7209 21.0824C96.306 22.4972 95.5102 24.4156 95.5082 26.4166V69.1822H71.9368C83.2898 46.5667 65.5547 18.4194 40.1645 18.8697C-2.05527 20.0319 -8.01478 78.5403 32.6176 88.472V137.104C32.6189 138.438 33.1494 139.717 34.0927 140.66C35.0359 141.604 36.3149 142.134 37.6488 142.135H125.696C127.03 142.134 128.309 141.604 129.252 140.66C130.195 139.717 130.726 138.438 130.727 137.104V89.3072H148.336C150.337 89.3052 152.256 88.5095 153.671 87.0946C155.085 85.6797 155.881 83.7613 155.883 81.7603V44.026C155.846 43.3668 155.586 42.7397 155.146 42.2474ZM147.297 41.5103H135.758C135.091 41.5097 134.452 41.2444 133.98 40.7728C133.509 40.3012 133.243 39.6617 133.243 38.9947V27.4581L147.297 41.5103ZM9.97697 54.0885C9.98629 46.0851 13.1697 38.4122 18.829 32.753C24.4882 27.0937 32.1611 23.9103 40.1645 23.901C80.2132 25.5613 80.2006 82.6232 40.1645 84.276C32.1611 84.2666 24.4882 81.0832 18.829 75.424C13.1697 69.7647 9.98629 62.0918 9.97697 54.0885ZM125.696 137.104H37.6488V89.1814C43.7293 89.6278 49.8211 88.482 55.3237 85.8568C60.8264 83.2317 65.5499 79.2178 69.0288 74.211H125.698L125.696 137.104ZM148.336 84.276H130.727V74.2135C130.726 72.8795 130.195 71.6006 129.252 70.6573C128.309 69.7141 127.03 69.1835 125.696 69.1822H100.539V26.4166C100.54 25.7496 100.805 25.1101 101.277 24.6385C101.749 24.1669 102.388 23.9016 103.055 23.901H128.211V38.9947C128.213 40.9957 129.009 42.9141 130.424 44.329C131.839 45.7438 133.757 46.5396 135.758 46.5416H150.852V81.7603C150.851 82.4273 150.586 83.0668 150.114 83.5384C149.643 84.01 149.003 84.2753 148.336 84.276Z" fill="#044D45"/>
<path d="M110.602 38.9947H115.633C116.3 38.9947 116.94 38.7297 117.412 38.2579C117.884 37.7861 118.149 37.1463 118.149 36.4791C118.149 35.8119 117.884 35.172 117.412 34.7003C116.94 34.2285 116.3 33.9635 115.633 33.9635H110.602C109.935 33.9635 109.295 34.2285 108.823 34.7003C108.351 35.172 108.086 35.8119 108.086 36.4791C108.086 37.1463 108.351 37.7861 108.823 38.2579C109.295 38.7297 109.935 38.9947 110.602 38.9947ZM110.602 51.5728H125.696C126.363 51.5728 127.003 51.3078 127.475 50.836C127.946 50.3643 128.211 49.7244 128.211 49.0572C128.211 48.39 127.946 47.7502 127.475 47.2784C127.003 46.8066 126.363 46.5416 125.696 46.5416H110.602C109.935 46.5416 109.295 46.8066 108.823 47.2784C108.351 47.7502 108.086 48.39 108.086 49.0572C108.086 49.7244 108.351 50.3643 108.823 50.836C109.295 51.3078 109.935 51.5728 110.602 51.5728ZM138.274 59.1197H110.602C109.935 59.1197 109.295 59.3848 108.823 59.8565C108.351 60.3283 108.086 60.9682 108.086 61.6353C108.086 62.3025 108.351 62.9424 108.823 63.4142C109.295 63.8859 109.935 64.151 110.602 64.151H138.274C138.941 64.151 139.581 63.8859 140.053 63.4142C140.524 62.9424 140.789 62.3025 140.789 61.6353C140.789 60.9682 140.524 60.3283 140.053 59.8565C139.581 59.3848 138.941 59.1197 138.274 59.1197ZM45.2813 44.753C46.9139 47.6309 54.4834 51.9351 55.3438 46.5416C55.3438 45.8744 55.0787 45.2345 54.607 44.7628C54.1352 44.291 53.4953 44.026 52.8281 44.026C48.7528 44.026 45.9605 35.2716 45.246 31.0328C45.1294 30.4213 44.7906 29.8745 44.2949 29.4979C43.7992 29.1213 43.1817 28.9415 42.5613 28.993C41.9409 29.0445 41.3615 29.3238 40.9348 29.7771C40.5081 30.2303 40.2641 30.8255 40.25 31.4478V58.0053C38.3353 56.9046 36.1108 56.4667 33.9217 56.7596C31.7326 57.0524 29.7014 58.0596 28.1433 59.6248C26.5852 61.19 25.5872 63.2257 25.3043 65.4161C25.0215 67.6065 25.4694 69.829 26.5788 71.7387C27.6881 73.6484 29.3968 75.1386 31.4396 75.978C33.4824 76.8174 35.7452 76.959 37.8768 76.3809C40.0083 75.8029 41.8895 74.5374 43.2283 72.7809C44.5672 71.0244 45.2888 68.8751 45.2813 66.6666V44.753ZM35.2188 71.6978C33.8844 71.6978 32.6047 71.1678 31.6611 70.2242C30.7176 69.2807 30.1875 68.001 30.1875 66.6666C30.1875 65.3322 30.7176 64.0525 31.6611 63.109C32.6047 62.1654 33.8844 61.6353 35.2188 61.6353C36.5531 61.6353 37.8328 62.1654 38.7764 63.109C39.7199 64.0525 40.25 65.3322 40.25 66.6666C40.25 68.001 39.7199 69.2807 38.7764 70.2242C37.8328 71.1678 36.5531 71.6978 35.2188 71.6978Z" fill="#044D45"/>
</svg>
