<svg width="199" height="199" viewBox="0 0 199 199" fill="none" xmlns="http://www.w3.org/2000/svg">
<path d="M22.2632 103.853L68.5307 127.484C69.8988 128.168 72.8838 129.847 74.5628 127.111C76.1175 124.562 73.5057 122.509 72.2619 121.577L18.4075 80.3462C14.4897 77.2369 13.6191 71.2047 16.6041 67.1003C19.5891 62.8094 25.8078 61.5656 30.0366 64.4884L84.7616 103.729C85.7566 104.475 88.4928 106.465 90.4828 104.164C92.4728 101.987 90.2963 99.5 89.4257 98.5672L38.6185 44.9616C34.9494 40.9194 35.1982 34.2031 40.111 29.6634C44.0288 26.0566 50.9316 25.9322 54.6628 29.7878L104.599 81.7766C105.346 82.5228 107.647 84.8859 110.01 83.1447C112.435 81.2791 110.694 78.5428 110.258 77.4856L79.2269 25.9944C77.1125 22.6984 77.0503 15.92 82.7716 12.4997C88.6794 9.01718 94.3385 12.4997 96.515 16.1687L131.029 71.64C135.942 79.8487 143.653 86.7516 150.494 89.9853C155.78 92.4728 159.884 89.3012 160.568 83.7666C161.625 75.1847 163.304 64.5506 166.289 55.5956C169.399 46.2053 180.344 41.5412 189.672 46.2675L186.5 58.7672C183.329 71.4534 182.956 84.7616 185.132 97.6966C186.998 108.517 188.863 122.447 188.615 134.822C188.304 153.479 175.742 161.625 164.486 171.762C115.918 215.853 80.595 155.904 63.3691 147.384L13.3082 119.587C9.07941 117.161 8.1466 111.502 10.6341 107.398C13.0594 103.418 18.0344 101.677 22.2632 103.853Z" fill="#FFD700"/>
<path d="M175.12 46.0188C176.613 46.3297 178.043 46.765 179.473 47.4491L176.302 59.9488C173.13 72.635 172.757 85.9431 174.933 98.8781C176.799 109.699 178.665 123.629 178.416 136.004C178.105 154.66 165.543 162.807 154.287 172.943C145.083 181.277 136.377 185.878 128.168 187.806C139.238 187.993 151.364 183.702 164.424 171.824C175.68 161.688 188.179 153.541 188.553 134.885C188.801 122.447 186.936 108.517 185.07 97.7588C182.831 84.8238 183.267 71.5156 186.438 58.8294L189.61 46.3297C184.821 43.9044 179.535 44.0288 175.12 46.0188Z" fill="#FFD700"/>
<path d="M174.996 92.7216C176.861 103.542 178.727 117.472 178.478 129.847C178.167 148.504 165.605 156.65 154.349 166.787C134.947 184.386 117.659 185.381 102.796 179.722C119.711 189.983 140.482 193.652 164.486 171.824C175.742 161.687 188.242 153.541 188.615 134.885C188.863 122.447 186.998 108.517 185.132 97.7587C182.956 84.8237 172.757 79.7866 174.996 92.7216ZM44.4641 30.9072L99.8109 87.9331C100.557 88.6794 102.858 91.0425 105.221 89.3012C107.647 87.4356 105.905 84.6994 105.47 83.6422L103.045 79.6L54.6628 29.85C51.2425 26.3053 45.2725 26.1187 41.2925 28.7928C42.4741 29.2903 43.5313 29.9744 44.4641 30.9072ZM19.3403 65.9809L80.0353 109.45C81.1547 110.258 84.2019 112.435 86.3784 109.885C88.3063 107.833 86.7516 105.47 85.6944 104.226L30.5963 64.7372C26.9272 62.1875 21.7034 62.5606 18.0966 65.2969C18.5319 65.5456 18.9672 65.7322 19.3403 65.9809ZM86.3163 17.2881L120.83 72.7594C125.743 80.9681 133.454 87.8709 140.295 91.1047C143.964 92.8459 147.073 91.7266 148.877 89.0525C142.472 85.57 135.631 79.2269 131.029 71.64L96.515 16.1687C94.3385 12.4997 88.6794 9.01718 82.7716 12.4997C82.3984 12.6862 82.1497 12.935 81.8388 13.1837C83.7666 14.2409 85.3834 15.7334 86.3163 17.2881ZM65.0481 133.268C66.6028 134.076 70.1475 136.004 72.0753 132.832C72.8216 131.589 72.635 130.532 72.1997 129.599L22.8228 104.351C18.905 102.361 14.5519 103.231 11.5047 105.905L65.0481 133.268Z" fill="#FFD700"/>
<path d="M129.039 190.978C106.652 190.978 88.4306 173.69 75.7444 161.687C70.2719 156.464 65.4834 151.986 62.0009 150.245L11.8156 122.385C9.20376 120.892 7.33813 118.467 6.59188 115.482C5.72126 112.248 6.28094 108.766 7.96001 105.843C11.2559 100.246 17.9722 98.1941 23.6313 101.055L69.8988 124.686C70.3963 124.935 71.5778 125.494 71.9509 125.494C71.7644 125.308 71.2669 124.81 70.3341 124.064L16.4797 82.8337C13.9372 80.7581 12.2695 77.8011 11.8085 74.5515C11.3476 71.3018 12.1272 67.9977 13.9922 65.2969C15.92 62.5606 18.9672 60.5706 22.4497 60.0109C25.8078 59.3891 29.1038 60.1353 31.7156 62.0009L86.5028 101.241C87.6222 102.112 88.0575 102.174 88.1819 102.174C88.1197 102.112 87.9953 101.614 87.1869 100.744L36.3175 47.1381C31.3425 41.5412 32.0266 32.8972 37.9344 27.4247C43.2203 22.6362 52.0509 22.7606 56.8394 27.6734L106.776 79.6622C107.647 80.5328 108.02 80.6572 108.206 80.7194C108.144 80.4084 107.709 79.5378 107.584 79.2269L76.4906 27.6734C74.8116 25.1237 74.2519 21.3925 75.0603 18.0344C75.8688 14.6141 77.9831 11.8156 81.0925 9.95C88.1197 5.78344 95.7688 9.07937 99.1269 14.6762L133.579 70.1475C137.932 77.4234 145.083 84.1397 151.738 87.3734C152.67 87.8087 154.101 88.1819 155.22 87.56C156.339 86.9381 157.148 85.5078 157.397 83.5178C158.392 75.8066 160.008 64.3641 163.242 54.7872C164.983 49.4391 169.026 45.1481 174.312 42.9716C179.66 40.795 185.754 41.0437 191.04 43.6556C192.346 44.3397 193.03 45.77 192.657 47.2003L189.485 59.7C186.438 71.8888 186.003 84.575 188.179 97.3234C190.729 111.937 191.911 124.624 191.724 135.071C191.413 152.67 181.028 161.687 170.953 170.456C169.523 171.7 168.031 173.006 166.6 174.312C153.168 186.376 140.544 190.978 129.039 190.978ZM18.3453 106.03C16.3553 106.03 14.4897 107.087 13.3703 109.015V109.077C12.4997 110.507 12.2509 112.311 12.6241 113.927C12.8728 114.86 13.4947 116.166 14.8628 116.975L64.8616 144.773C69.0903 146.825 74.1275 151.613 79.9731 157.21C99.8109 175.991 126.925 201.736 162.372 169.585C163.864 168.217 165.357 166.973 166.849 165.667C176.675 157.086 185.194 149.748 185.505 134.885C185.692 124.873 184.51 112.559 182.085 98.3184C179.722 84.6994 180.219 71.1425 183.453 58.0831L185.941 48.1953C182.893 47.2625 179.66 47.3869 176.675 48.6306C173.068 50.1231 170.332 53.0459 169.15 56.6528C166.103 65.7944 164.486 76.7394 163.553 84.2019C163.056 88.1197 161.128 91.2912 158.267 92.9081C155.593 94.4006 152.297 94.4006 149.126 92.9081C141.29 89.1769 133.33 81.6522 128.355 73.3191L93.8409 17.8478C92.8459 16.2309 89.0525 12.3753 84.3263 15.2359C82.7997 16.1166 81.6783 17.5595 81.2019 19.2562C80.7254 20.9529 80.9317 22.7687 81.7766 24.3153L112.87 75.8687C115.607 81.2791 113.803 84.0775 111.875 85.57C110.196 86.8137 106.776 88.3062 102.423 84.0153L52.4241 31.9644C49.9366 29.4769 44.9616 29.4769 42.2253 31.9644C38.4319 35.5091 38.5563 40.2975 40.9194 42.9094L91.6644 96.3906C95.4578 100.371 94.7116 104.102 92.7216 106.278C91.8509 107.273 88.4306 110.445 82.8338 106.216L28.1088 67.0381C26.865 66.1675 25.2481 65.7944 23.5069 66.1053C21.7034 66.4162 20.0866 67.4112 19.0916 68.8416C17.1016 71.64 17.6613 75.8066 20.2731 77.9209L74.0653 119.089C79.0403 123.007 78.4806 126.489 77.1125 128.666C75.6822 131.029 72.7594 133.206 67.1003 130.221L20.7706 106.527C20.0244 106.216 19.2159 106.03 18.3453 106.03ZM48.9416 179.473C39.9756 179.455 31.19 176.952 23.5605 172.243C15.9309 167.534 9.75594 160.802 5.72126 152.795C5.36695 152.051 5.31829 151.198 5.5857 150.419C5.85312 149.64 6.41531 148.997 7.15157 148.628C8.70626 147.882 10.5719 148.504 11.3181 149.996C14.9325 157.148 20.5051 163.126 27.3864 167.233C34.2678 171.34 42.1745 173.407 50.1853 173.192C51.9266 173.254 53.3569 174.498 53.3569 176.239C53.3736 176.65 53.3072 177.06 53.1616 177.444C53.016 177.828 52.7942 178.179 52.5096 178.475C52.2249 178.771 51.8833 179.007 51.5053 179.168C51.1272 179.329 50.7205 179.411 50.3097 179.411C49.8744 179.473 49.4391 179.473 48.9416 179.473ZM48.6306 164.051H48.3197C42.4344 163.474 36.7777 161.474 31.8375 158.224C26.8972 154.974 22.8217 150.571 19.9622 145.394C19.7627 145.036 19.6365 144.641 19.5911 144.233C19.5457 143.826 19.582 143.413 19.6977 143.019C19.8135 142.626 20.0065 142.259 20.2654 141.941C20.5244 141.623 20.8441 141.359 21.2059 141.166C22.6984 140.357 24.6263 140.855 25.4347 142.409C30.2231 151.116 39.0538 156.899 48.9416 157.894C50.6206 158.081 51.9266 159.573 51.74 161.314C51.5534 162.869 50.1853 164.051 48.6306 164.051Z" fill="#455A64"/>
<path d="M153.168 50.8694C151.613 50.8694 150.245 49.6878 150.058 48.0709C149.168 40.1091 146.036 32.5635 141.028 26.3108C136.019 20.0581 129.339 15.3552 121.763 12.7484C121.379 12.6178 121.025 12.4128 120.72 12.1452C120.416 11.8776 120.167 11.5526 119.988 11.1888C119.809 10.825 119.703 10.4295 119.677 10.0249C119.651 9.62027 119.705 9.21446 119.835 8.83063C119.966 8.4468 120.171 8.09247 120.439 7.78786C120.706 7.48325 121.031 7.23433 121.395 7.05532C121.759 6.8763 122.154 6.7707 122.559 6.74453C122.964 6.71837 123.369 6.77215 123.753 6.90282C141.414 12.935 154.163 28.855 156.215 47.4491C156.402 49.1281 155.158 50.6828 153.479 50.8694H153.168ZM138.056 53.9788C136.564 53.9788 135.196 52.8594 135.009 51.3047C134.276 46.4547 132.376 41.8553 129.473 37.9016C126.57 33.9478 122.751 30.758 118.343 28.6063C117.601 28.2434 117.033 27.6006 116.765 26.8192C116.497 26.0378 116.55 25.1819 116.913 24.4397C117.275 23.6975 117.918 23.1299 118.7 22.8616C119.481 22.5934 120.337 22.6465 121.079 23.0094C126.387 25.6111 130.985 29.4586 134.483 34.2234C137.981 38.9882 140.274 44.5287 141.166 50.3719C141.414 52.0509 140.233 53.6678 138.554 53.9166C138.367 53.9166 138.243 53.9788 138.056 53.9788Z" fill="#455A64"/>
</svg>
