<svg width="834" height="555" viewBox="0 0 834 555" fill="none" xmlns="http://www.w3.org/2000/svg">
<g clip-path="url(#clip0_788_2466)">
<rect width="834" height="555" rx="15" fill="white"/>
<mask id="mask0_788_2466" style="mask-type:luminance" maskUnits="userSpaceOnUse" x="0" y="0" width="834" height="555">
<path d="M813.592 0H20.4078C9.1369 0 0 9.13537 0 20.4044V534.596C0 545.865 9.1369 555 20.4078 555H813.592C824.863 555 834 545.865 834 534.596V20.4044C834 9.13537 824.863 0 813.592 0Z" fill="white"/>
</mask>
<g mask="url(#mask0_788_2466)">
<path d="M813.592 0H20.4078C9.1369 0 0 9.13537 0 20.4044V534.596C0 545.865 9.1369 555 20.4078 555H813.592C824.863 555 834 545.865 834 534.596V20.4044C834 9.13537 824.863 0 813.592 0Z" fill="white"/>
<path d="M813.592 0H20.4078C9.1369 0 0 9.13535 0 20.4044V534.596C0 545.864 9.13687 555 20.4078 555H813.592C824.863 555 834 545.864 834 534.596V20.4044C834 9.13537 824.863 0 813.592 0Z" fill="#F3E8E2"/>
<path d="M333.022 52.2243C261.588 61.0266 191.153 94.6263 149.842 152.501C108.531 210.378 102.048 293.772 143.949 351.236C175.095 393.971 226.981 417.393 278.59 431.378C382.428 459.517 494.852 456.32 596.856 422.309C628.625 411.72 659.806 397.968 685.671 376.988C711.535 356.009 731.818 327.104 737.234 294.604C740.981 272.082 736.833 247.273 721.332 230.268C706.665 214.173 684.48 207.313 665.721 196.047C621.085 169.229 571.202 106.159 525.465 81.5061C451.239 41.4906 364.425 48.3504 333.022 52.2243Z" fill="#FFF9F5"/>
<path d="M80.064 463.335L579.041 461.104L773.952 502.663L188.284 505.804L80.064 463.335Z" fill="#CCCFD4"/>
<path d="M699.414 393.283H690.464V483.737H699.414V393.283Z" fill="#192C52"/>
<path d="M646.84 387.355H637.888V477.809H646.84V387.355Z" fill="#0C1A3B"/>
<path d="M632.694 394.937H623.744V485.39H632.694V394.937Z" fill="#192C52"/>
<path d="M714.705 345.641L704.941 391.895L696.057 391.063L705.652 346.13" fill="#0C1A3B"/>
<path d="M715.728 296.347L728.727 286.811L735.466 289.464L720.587 357.651L710.712 357.33L715.728 296.347Z" fill="#1F3A59"/>
<path d="M677.754 281.971L729.06 286.745L712.969 359.062L660.65 349.016L677.754 281.971Z" fill="#CCCFD4"/>
<path d="M693.421 385.158L708.522 386.733V394.081L602.87 401.84L603.104 387.666L693.421 385.158Z" fill="#1F3A59"/>
<path d="M655.98 372.858L708.522 386.711L596.155 393.315L655.98 372.858Z" fill="#CCCFD4"/>
<path d="M626.656 191.784C625.399 184.291 629.915 176.211 636.976 173.359C644.037 170.506 652.91 173.148 657.237 179.408C661.562 185.668 660.895 194.892 655.724 200.465C651.754 204.738 652.366 212.385 656.958 215.971C662.918 220.644 665.554 229.136 663.275 236.351C660.995 243.566 653.944 249.015 646.372 249.415C643.526 249.57 641.557 246.341 641.546 243.489C641.535 240.636 642.736 237.915 643.036 235.086C643.326 232.255 642.236 228.837 639.489 228.07C633.084 226.294 627.714 221.166 625.644 214.85C623.576 208.534 628.247 201.285 626.656 191.784Z" fill="#070F36"/>
<path d="M588.326 482.948C582.199 485.946 548.505 488.986 540.988 485.069C540.399 484.746 539.965 484.391 539.731 483.98C538.286 481.55 543.869 476.333 550.352 471.404C557.991 465.588 566.886 460.16 566.886 460.16L585.18 458.884C585.18 458.884 586.102 461.959 587.08 465.899C587.514 467.664 587.959 469.584 588.337 471.493C589.416 476.877 589.971 482.139 588.326 482.948Z" fill="#E57772"/>
<path d="M588.326 482.949C582.199 485.946 548.505 488.988 540.988 485.069C540.399 484.746 539.965 484.391 539.731 483.98C538.286 481.55 543.869 476.333 550.352 471.404C560.304 473.459 579.763 470.339 587.08 465.899C587.514 467.664 587.959 469.584 588.337 471.493C589.416 476.877 589.971 482.139 588.326 482.949Z" fill="#0C1B3C"/>
<path d="M558.202 369.65C557.602 387.955 563.896 414.25 567.221 461.315C569.132 461.382 585.257 461.315 585.257 461.315C585.257 461.315 592.129 407.99 586.914 390.364C585.045 384.07 603.083 386.356 618.061 377.943C621.964 375.734 626.212 373.969 630.826 372.715C635.42 371.483 640.79 370.483 643.115 367.043C647.973 359.871 634.607 351.546 629.481 337.139C625.044 338.26 620.997 339.325 617.216 340.358C600.035 345.032 558.668 355.299 558.202 369.65Z" fill="#E57772"/>
<path d="M603.616 463.124C610.8 463.69 612.878 465.888 621.564 462.903C621.564 396.225 614.491 390.663 616.582 390.385C638.511 387.434 662.474 390.185 680.411 377.82C704.452 359.262 693.91 330.968 682.601 308.058C663.576 309.5 644.527 310.932 625.5 312.375C619.473 321.744 616.827 331.289 617.216 340.381C617.427 345.486 618.583 350.438 620.629 355.155C616.259 357.785 611.434 359.206 606.585 360.271C595.82 362.635 583.6 363.945 581.876 372.259C580.352 379.485 603.661 462.924 603.616 463.124Z" fill="#FDAD91"/>
<path d="M587.024 488.288C588.716 494.17 615.081 495.57 619.54 491.595C621.852 489.532 622.286 481.472 622.186 474.203C622.086 467.431 621.508 461.326 621.508 461.326L603.526 462.769C603.526 462.769 599.023 467.631 594.72 473.237C590.35 478.908 586.18 485.335 587.024 488.288Z" fill="#FDAD91"/>
<path d="M587.024 488.288C588.716 494.17 615.081 495.57 619.54 491.595C621.852 489.53 622.286 481.472 622.186 474.203C619.228 479.74 613.546 483.371 607.842 483.083C602.315 482.793 597.122 478.864 594.72 473.237C590.35 478.908 586.18 485.335 587.024 488.288Z" fill="#0C1B3C"/>
<path d="M561.349 355.842C566.331 355.088 572.057 354.654 578.641 354.654C591.65 354.654 600.568 356.864 606.574 360.249C614.736 364.844 617.56 371.605 618.061 377.943C618.439 382.682 617.527 387.189 616.582 390.364C638.511 387.41 662.474 390.164 680.411 377.799C704.452 359.239 693.91 330.946 682.601 308.035C663.576 309.478 644.527 310.91 625.5 312.352C619.473 321.722 616.827 331.267 617.216 340.358C600.035 345.02 587.937 348.982 567.876 354.056C565.607 354.633 563.417 355.22 561.349 355.842Z" fill="#346E94"/>
<path d="M615.18 263.979L609.187 250.514C609.187 250.514 602.17 254.477 598.223 261.782C593.275 270.95 579.641 312.775 579.641 312.775L597.845 328.514L616.882 287.622L615.18 263.979Z" fill="#318691"/>
<path d="M664.887 250.138C662.574 248.938 655.58 245.431 650.131 242.955C644.66 248.727 628.569 265.144 622.798 264.878C617.093 264.611 613.346 252.902 612.167 248.628C608.298 251.003 600.613 255.677 602.26 260.971C607.975 279.419 620.429 307.724 618.361 337.683C619.629 338.949 684.525 342.023 693.387 334.197C693.855 327.416 687.128 261.681 664.887 250.138Z" fill="#40989E"/>
<path d="M650.131 242.955C647.773 245.43 643.437 249.904 638.822 254.144C632.718 259.771 626.078 265.033 622.798 264.889C619.295 264.721 616.537 260.271 614.658 255.865C613.468 253.066 612.623 250.304 612.178 248.639C614.58 247.172 616.704 246.352 616.971 246.262C616.949 246.129 616.904 245.997 616.893 245.864C615.825 240.99 614.302 238.359 611.934 233.209C619.295 228.392 624.388 224.484 631.304 220.622C631.282 222.93 632.172 225.583 633.562 228.203C636.286 233.398 640.946 238.449 644.304 240.235C645.404 240.813 647.584 241.8 650.131 242.955Z" fill="#FDAD91"/>
<path d="M633.562 228.192C631.06 233.099 625.178 242.822 616.882 245.853C615.814 240.991 614.302 238.349 611.934 233.21C619.295 228.381 624.388 224.474 631.304 220.611C631.293 222.909 632.183 225.572 633.562 228.192Z" fill="#E57873"/>
<path d="M638.811 254.144C632.705 259.771 626.067 265.033 622.787 264.889C619.284 264.723 616.526 260.272 614.647 255.865C618.972 258.962 627.613 258.173 638.811 254.144Z" fill="#D2F7F6"/>
<path d="M592.107 220.578C592.228 221.377 592.907 221.943 593.608 221.833L592.107 220.578Z" fill="#4D4E54"/>
<path d="M579.671 219.862C579.818 216.476 583.348 213.876 587.559 214.057C591.767 214.24 595.061 217.133 594.914 220.519C594.767 223.906 591.237 226.504 587.027 226.323C582.818 226.141 579.524 223.249 579.671 219.862Z" fill="#E57873"/>
<path d="M635.975 210.654C635.497 193.827 623.665 180.473 609.542 180.829C595.42 181.184 582.276 195.303 584.845 211.931C588.314 234.342 599.491 245.341 610.299 243.134C623.987 240.335 636.454 227.471 635.975 210.654Z" fill="#FDAD91"/>
<path d="M633.062 208.945C628.458 208.889 623.92 206.592 621.163 202.918C622.031 205.426 621.375 208.39 619.54 210.311C618.839 211.043 617.85 211.643 616.859 211.409C616.104 211.232 615.548 210.588 615.103 209.944C613.546 207.68 612.779 204.893 612.934 202.152C611.666 207.035 607.864 211.187 603.104 212.886C601.815 213.351 600.246 213.596 599.168 212.742C598.279 212.041 598.023 210.765 598.245 209.655C598.468 208.545 599.068 207.558 599.668 206.603C595.588 210.522 590.005 212.83 584.344 212.93C585.023 205.049 588.559 197.312 594.597 192.207C600.635 187.1 609.254 184.925 616.827 187.244C624.399 189.564 630.459 196.635 630.904 204.527" fill="#E57873"/>
<path d="M616.148 212.974C612.923 210.61 608.975 210.965 606.574 212.497" stroke="#0C1B3C" stroke-miterlimit="10" stroke-linecap="round"/>
<path d="M596.065 214.484C592.83 212.742 589.171 214.106 587.848 216.283" stroke="#0C1B3C" stroke-miterlimit="10" stroke-linecap="round"/>
<path d="M599.747 221.687C600.002 224.496 600.592 227.271 601.492 229.947" stroke="#91293F" stroke-miterlimit="10" stroke-linecap="round"/>
<path d="M603.427 234.131C606.918 234.652 609.944 233.265 611.444 230.257" stroke="#91293F" stroke-miterlimit="10" stroke-linecap="round"/>
<path d="M610.861 218.002C611.564 217.893 612.269 218.674 612.436 219.746C612.602 220.819 612.166 221.777 611.462 221.884C610.759 221.993 610.053 221.211 609.887 220.139C609.721 219.067 610.156 218.111 610.861 218.002Z" fill="#0F1D3D"/>
<path d="M592.79 220.789C593.495 220.681 594.2 221.461 594.366 222.533C594.532 223.606 594.096 224.564 593.392 224.672C592.688 224.78 591.982 224 591.816 222.926C591.65 221.854 592.086 220.898 592.79 220.789Z" fill="#0F1D3D"/>
<path d="M635.274 218.58C634.373 215.928 633.017 212.908 631.315 209.8C626.612 207.325 622.719 203.329 619.761 198.878C619.774 199.055 619.795 199.211 619.817 199.388C620.307 203.217 618.727 210.91 617.427 210.344C615.292 209.434 613.545 196.146 611.6 189.054C612.844 193.416 612.979 198.179 611.444 202.44C609.921 206.703 606.596 210.41 602.326 211.92C601.759 212.108 601.08 212.253 600.613 211.897C600.035 211.432 600.158 210.554 600.334 209.844C601.736 204.305 603.148 198.788 604.517 193.261C603.416 197.534 602.047 201.752 599.068 204.871C595.732 208.379 590.883 210.455 585.256 211.265C585.29 214.695 585.846 217.714 586.58 220.179C584.733 217.737 583.366 215.05 582.476 212.23C580.185 204.972 580.986 196.835 584.6 190.209C589.604 181.017 600.158 175.123 610.61 175.678C612.801 175.467 614.98 175.501 617.093 175.811C625.588 176.988 633.118 182.084 637.131 189.309C642.135 198.344 641.379 210.244 635.274 218.58Z" fill="#0C1B3C"/>
<path d="M617.082 175.822C608.319 176.588 599.779 179.741 593.23 185.556C585.769 192.173 581.354 202.417 582.465 212.241C580.176 204.981 580.976 196.845 584.589 190.219C589.593 181.028 600.147 175.134 610.6 175.689C612.79 175.478 614.97 175.523 617.082 175.822Z" fill="#1E3A5E"/>
<path d="M634.36 210.82C638.066 208.834 642.375 209.651 643.984 212.644C645.592 215.637 643.892 219.671 640.185 221.657C636.479 223.643 632.169 222.826 630.561 219.833C628.952 216.84 630.654 212.806 634.36 210.82Z" fill="#FDAD91"/>
<path d="M389.622 481.706C385.463 486.701 358.787 486.334 355.851 481.85C355.362 481.117 355.451 479.153 355.862 476.578C357.186 468.219 361.934 453.457 361.934 453.457L386.243 455.188C386.243 455.188 390.123 468.752 390.456 476.666C390.546 479.009 390.334 480.85 389.622 481.706Z" fill="#0C1B3C"/>
<path d="M389.622 481.706C385.463 486.701 358.787 486.335 355.851 481.85C355.362 481.117 355.451 479.153 355.862 476.578C366.648 481.506 379.614 481.439 390.456 476.677C390.546 479.009 390.334 480.85 389.622 481.706Z" fill="#466482"/>
<path d="M468.519 477.499C465.594 480.663 423.15 480.495 420.448 476C420.114 475.457 420.235 474.069 420.603 472.237C421.86 465.999 426.129 454.699 426.129 454.699L446.491 457.385C446.491 457.385 455.775 464.456 466.973 471.516C467.184 471.649 467.373 471.804 467.552 471.993C469.052 473.459 469.564 476.356 468.519 477.499Z" fill="#0C1B3C"/>
<path d="M468.519 477.499C465.594 480.663 423.15 480.495 420.448 476.001C420.114 475.457 420.235 474.069 420.603 472.237C435.826 476.156 452.228 476.122 467.552 471.993C469.052 473.459 469.564 476.356 468.519 477.499Z" fill="#466482"/>
<path d="M454.13 456.764L420.258 461.049L392.092 308.045L390.101 458.951L358.175 456.142L350.714 276.255L349.768 253.645L357.864 243.134L361.356 238.604L373.065 242.689L425.385 260.982L426.941 271.638L454.13 456.764Z" fill="#1F3A59"/>
<path d="M426.941 271.638C401.766 275.679 376.179 277.221 350.714 276.255L349.768 253.645L357.864 243.134C362.934 243.067 367.994 242.923 373.065 242.689L425.385 260.971L426.941 271.638Z" fill="#13274A"/>
<path d="M419.78 168.009C416.033 172.814 411.918 177.521 406.28 178.754C400.064 180.13 393.592 176.721 389.534 171.805C385.486 166.931 383.35 160.77 381.305 154.744C385.675 153.8 388.711 149.771 390.368 145.675C390.735 144.731 391.079 143.789 391.368 142.8C391.836 141.369 392.247 139.88 392.713 138.46C393.281 136.662 393.915 134.919 394.815 133.265C397.096 134.397 399.286 135.474 401.354 136.518C407.059 139.381 412.108 141.967 417.155 144.576C416.644 147.029 415.42 149.904 414.487 152.824C413.552 155.754 412.908 158.918 413.619 161.904C413.653 162.114 413.72 162.314 413.786 162.525C414.687 165.277 416.933 167.697 419.78 168.009Z" fill="#95405D"/>
<path d="M413.808 162.525C404.023 159.484 395.594 152.135 391.368 142.812C391.836 141.379 392.247 139.891 392.713 138.471C395.294 136.961 398.296 136.406 401.365 136.54C407.07 139.403 412.118 141.99 417.167 144.598C416.656 147.052 415.433 149.926 414.498 152.845C413.563 155.775 412.918 158.939 413.63 161.925C413.675 162.114 413.742 162.325 413.808 162.525Z" fill="#7D3455"/>
<path d="M433.858 132.344C436.094 131.545 438.394 130.724 440.763 130.768C443.142 130.812 445.644 131.9 446.702 134.02C447.757 136.152 447.069 138.871 445.412 140.581C443.755 142.279 441.308 143.055 438.929 143.1C436.549 143.145 434.213 142.534 431.945 141.801" fill="#7D3455"/>
<path d="M388.01 116.404C392.036 98.1116 407.259 85.3688 421.804 88.5546C436.349 91.7513 443.533 108.723 439.496 127.005C435.47 145.297 427.853 160.105 413.32 156.909C398.785 153.734 383.984 134.697 388.01 116.404Z" fill="#95405D"/>
<path d="M409.416 126.471C409.789 125.342 410.777 124.652 411.623 124.93C412.468 125.209 412.852 126.35 412.479 127.48C412.105 128.609 411.116 129.299 410.271 129.021C409.426 128.742 409.044 127.601 409.416 126.471Z" fill="#1A202B"/>
<path d="M428.143 131.213C428.517 130.084 429.505 129.394 430.351 129.672C431.196 129.951 431.579 131.092 431.205 132.222C430.832 133.351 429.845 134.041 428.998 133.763C428.152 133.484 427.77 132.342 428.143 131.213Z" fill="#1A202B"/>
<path d="M407.192 117.015C410.016 115.383 413.731 115.461 416.488 117.192" stroke="#0C1B3C" stroke-miterlimit="10" stroke-linecap="round"/>
<path d="M429.454 119.956C432.435 119.113 435.87 120.189 437.85 122.576" stroke="#0C1B3C" stroke-miterlimit="10" stroke-linecap="round"/>
<path d="M424.128 129.347C423.96 132.71 423.171 136.04 421.815 139.115" stroke="#4A1934" stroke-miterlimit="10" stroke-linecap="round"/>
<path d="M421.303 143.576C416.699 142.567 412.284 140.691 408.516 138.504C406.636 140.747 406.358 144.187 407.86 146.695C409.361 149.205 412.529 150.593 415.399 150.004C418.268 149.404 420.614 146.874 421.303 143.576Z" fill="#4A1934"/>
<path d="M409.595 101.542C403.3 109.4 397.685 122.398 396.662 122.543C393.07 123.042 389.756 125.251 387.632 129.058C386.52 119.346 387.866 109.367 391.535 100.62C398.908 101.186 409.595 101.542 409.595 101.542Z" fill="#5D7191"/>
<path d="M447.858 108.956C447.269 110.322 446.246 111.487 445.023 112.264C443.944 112.975 442.699 113.385 441.453 113.374C424.628 108.213 407.748 105.082 390.645 104.139C387.187 103.95 386.364 101.708 386.22 99.9431C386.108 98.1561 386.643 96.3356 387.477 94.7594C388.288 93.2166 389.411 91.7958 390.901 90.9966C392.38 90.2196 394.26 90.1751 395.55 91.1631C394.237 86.9673 396.172 82.1943 399.72 80.3183C403.245 78.4646 407.848 79.7744 409.816 83.2154C410.661 81.2729 412.018 79.6523 413.597 78.5201C415.699 77.0328 418.212 76.3668 420.558 76.8884C424.65 77.7653 427.698 82.0943 427.375 86.5676C428.231 84.0368 430.778 82.8158 433.013 83.0489C435.281 83.2709 437.238 84.6918 438.772 86.3789C440.352 88.1216 441.62 90.2639 441.908 92.6948C442.198 95.1258 441.298 97.8453 439.34 99.2328C441.975 98.4668 444.956 99.1328 446.757 101.131C448.503 103.14 448.97 106.348 447.858 108.956Z" fill="#0C1B3C"/>
<path d="M447.858 108.956C447.269 110.322 446.246 111.487 445.023 112.264C446.134 109.656 446.001 106.559 444.477 104.172C442.31 100.765 437.549 99.2883 433.835 100.853C435.247 98.9886 436.449 97.9784 437.317 96.7019C438.206 95.4588 438.751 93.8826 438.473 92.373C438.206 90.9744 437.272 89.7534 436.081 88.9543C434.336 87.7665 432.057 87.4446 430.032 88.0773C428.031 88.6878 426.352 90.2863 425.596 92.2398C424.984 88.932 424.45 86.2236 423.16 83.8704C421.892 81.5283 419.803 79.5193 417.222 78.7423C416.044 78.3759 414.776 78.3204 413.586 78.5424C415.688 77.055 418.201 76.389 420.547 76.9108C424.639 77.7876 427.687 82.1166 427.364 86.5899C428.22 84.0591 430.767 82.8381 433.001 83.0713C435.27 83.2933 437.227 84.714 438.762 86.4013C440.341 88.1439 441.609 90.2863 441.898 92.7171C442.187 95.148 441.287 97.8674 439.329 99.2549C441.964 98.4891 444.945 99.1551 446.746 101.153C448.503 103.14 448.97 106.348 447.858 108.956Z" fill="#1B3359"/>
<path d="M397.906 124.529C396.172 122.032 393.77 119.912 390.89 118.946C387.999 117.98 384.618 118.269 382.183 120.101C379.748 121.921 378.514 125.362 379.614 128.192C380.682 130.923 383.584 132.599 386.498 133.01C389.411 133.432 392.358 132.821 395.228 132.211" fill="#95405D"/>
<path d="M485.777 205.271C485.777 205.271 458.678 258.984 449.748 256.109C445.734 254.821 440.775 249.249 436.081 242.634C430.811 235.23 425.841 226.505 422.871 221.011C421.069 217.703 420.003 215.56 420.003 215.56L445.189 202.662L446.345 202.074L453.674 218.714L454.274 220.067L477.848 189.987L485.777 205.271Z" fill="#95405D"/>
<path d="M453.674 218.724L436.081 242.645C430.811 235.241 425.841 226.516 422.871 221.022L445.189 202.674L446.345 202.085L453.674 218.724Z" fill="#7D3455"/>
<path d="M416.467 184.725L427.096 169.495C427.096 169.495 436.27 174.202 441.031 183.437C447.069 195.148 454.697 215.816 454.697 215.816L424.728 241.035L416.467 184.725Z" fill="#F79234"/>
<path d="M490.95 155.71L475.177 220.891L523.688 232.589L539.462 167.409L490.95 155.71Z" fill="#FAC98F"/>
<path d="M496.57 161.056L483.426 215.371L520.74 224.37L533.884 170.053L496.57 161.056Z" fill="#F2AC79"/>
<path d="M495.937 159.59L482.793 213.906L520.106 222.903L533.251 168.587L495.937 159.59Z" fill="white"/>
<path d="M504.929 169.693L504.671 170.76L527.997 176.385L528.255 175.316L504.929 169.693Z" fill="#28598A"/>
<path d="M504.26 172.455L504.001 173.523L527.327 179.148L527.586 178.079L504.26 172.455Z" fill="#28598A"/>
<path d="M503.55 175.396L503.291 176.466L526.617 182.089L526.876 181.021L503.55 175.396Z" fill="#28598A"/>
<path d="M497.312 167.849L495.672 174.625L500.027 175.675L501.668 168.9L497.312 167.849Z" stroke="#28598A" stroke-width="0.5" stroke-miterlimit="10"/>
<path d="M502.324 180.481L502.065 181.55L525.391 187.174L525.65 186.106L502.324 180.481Z" fill="#28598A"/>
<path d="M501.646 183.244L501.388 184.312L524.714 189.937L524.972 188.869L501.646 183.244Z" fill="#28598A"/>
<path d="M500.936 186.186L500.678 187.254L524.004 192.879L524.262 191.81L500.936 186.186Z" fill="#28598A"/>
<path d="M494.709 178.646L493.068 185.422L497.425 186.472L499.064 179.696L494.709 178.646Z" stroke="#28598A" stroke-width="0.5" stroke-miterlimit="10"/>
<path d="M499.733 190.482L499.475 191.55L522.801 197.175L523.059 196.107L499.733 190.482Z" fill="#28598A"/>
<path d="M499.067 193.247L498.808 194.315L522.134 199.94L522.393 198.872L499.067 193.247Z" fill="#28598A"/>
<path d="M498.352 196.199L498.094 197.267L521.42 202.892L521.679 201.824L498.352 196.199Z" fill="#28598A"/>
<path d="M492.104 188.637L490.464 195.413L494.82 196.463L496.46 189.688L492.104 188.637Z" stroke="#28598A" stroke-width="0.5" stroke-miterlimit="10"/>
<path d="M497.151 200.496L496.893 201.564L520.219 207.189L520.477 206.121L497.151 200.496Z" fill="#28598A"/>
<path d="M496.483 203.261L496.225 204.328L519.551 209.953L519.809 208.885L496.483 203.261Z" fill="#28598A"/>
<path d="M495.762 206.2L495.503 207.268L518.83 212.893L519.088 211.825L495.762 206.2Z" fill="#28598A"/>
<path d="M489.525 198.653L487.885 205.429L492.241 206.479L493.88 199.703L489.525 198.653Z" stroke="#28598A" stroke-width="0.5" stroke-miterlimit="10"/>
<path d="M503.124 160.583L503.747 158.029L527.066 163.657L526.443 166.21C526.076 167.709 524.564 168.641 523.062 168.275L505.193 163.969C503.691 163.59 502.769 162.08 503.124 160.583Z" fill="#0C1B3C"/>
<path d="M506.782 162.725C507.434 162.725 507.962 162.197 507.962 161.549C507.962 160.898 507.434 160.372 506.782 160.372C506.132 160.372 505.604 160.898 505.604 161.549C505.604 162.197 506.132 162.725 506.782 162.725Z" fill="#466E9C"/>
<path d="M522.762 166.576C523.413 166.576 523.941 166.05 523.941 165.4C523.941 164.751 523.413 164.223 522.762 164.223C522.111 164.223 521.583 164.751 521.583 165.4C521.583 166.05 522.111 166.576 522.762 166.576Z" fill="#466E9C"/>
<path d="M477.026 181.273C480.106 176.489 483.686 172.836 486.022 167.63C486.422 166.731 487.09 165.655 488.045 165.844C488.791 165.989 489.147 166.854 489.302 167.609C490.181 171.805 488.902 176.4 486.578 179.552C487.101 183.482 485.921 188.544 482.897 190.686C481.863 194.459 481.263 196.447 480.251 199.977C477.671 197.4 475.681 194.959 474.957 192.351C474 188.843 474.957 184.491 477.026 181.273Z" fill="#95405D"/>
<path d="M317.042 128.903C315.508 120.223 313.984 111.543 312.449 102.851C312.172 101.253 311.415 99.3217 309.681 99.6214C308.78 99.7768 307.957 100.543 307.524 101.386C307.079 102.23 306.946 103.129 306.824 104.017C306.267 108.135 305.99 112.231 306.579 116.715C302.353 111.676 297.85 106.859 293.101 102.308C291.745 101.009 290.254 99.6769 288.242 99.4438C287.319 99.3328 286.14 99.5769 285.561 100.443C284.861 101.497 285.54 102.641 286.217 103.462C289.176 107.014 292.256 110.466 295.958 114.096C290.999 111.665 286.028 109.234 281.069 106.814C280.28 106.426 279.457 106.037 278.5 106.048C277.544 106.059 276.421 106.614 276.009 107.536C275.643 108.357 275.932 109.19 276.342 109.833C277.232 111.232 278.657 112.164 280.057 113.075C283.661 115.417 287.263 117.759 290.11 119.901C285.918 118.536 281.658 117.293 277.344 116.16C276.666 115.983 275.966 115.805 275.22 115.961C274.474 116.105 273.685 116.682 273.518 117.404C273.307 118.347 274.175 118.969 274.942 119.368C279.624 121.832 284.306 124.308 289.076 126.539C285.183 125.584 281.292 124.619 277.4 123.664C276.065 123.331 274.13 123.298 273.44 124.674C272.785 125.973 274.042 127.027 275.164 127.604C281.714 130.968 288.252 134.331 294.802 137.694C299.484 140.103 304.621 142.567 310.426 141.413" fill="#95405D"/>
<path d="M358.698 199.299C355.94 201.386 350.458 204.051 344.008 206.592C338.382 208.812 332.01 210.954 326.06 212.553C316.408 215.151 307.847 216.326 305.322 214.185C294.869 205.271 301.564 138.294 301.564 138.294L317.053 128.814L322.012 182.139C322.012 182.139 323.192 181.451 325.159 180.307C329.664 177.721 338.292 172.771 346.6 168.241C351.948 165.345 357.141 162.614 361.021 160.794C361.021 160.794 367.805 192.418 358.698 199.299Z" fill="#95405D"/>
<path d="M346.588 168.252L344.008 206.592C338.381 208.812 332.01 210.954 326.06 212.553L325.159 180.307C329.652 177.721 338.282 172.771 346.588 168.252Z" fill="#7D3455"/>
<path d="M370.408 157.352C365.114 156.287 325.26 178.065 325.26 178.065L333.533 218.869C333.533 218.869 361.623 212.198 363.435 208.379C365.27 204.561 373.587 157.997 370.408 157.352Z" fill="#FEAC40"/>
<path d="M383.685 153.4C383.685 153.4 391.391 174.791 401.421 177.366C413.909 180.574 414.031 162.136 414.031 162.136C414.031 162.136 432.412 170.973 435.236 176.389C437.405 180.552 431.034 225.651 427.887 250.514C426.541 261.148 427.309 268.464 427.309 268.464L348.578 264.889C348.578 264.889 347.522 180.806 357.831 165.133C363.568 156.409 383.685 153.4 383.685 153.4Z" fill="#FEAC40"/>
<path d="M413.831 161.336C413.32 164.489 412.974 166.976 411.751 169.928C410.528 172.881 408.438 175.045 406.192 177.554C411.74 176.644 417.989 179.296 421.77 183.437C423.906 177.022 423.139 170.106 420.003 164.257C418.09 163.158 416.132 162.158 413.831 161.336Z" fill="#FFD991"/>
<path d="M400.376 177.143C393.992 169.818 388.945 161.325 385.23 152.346C382.484 152.135 380.082 152.301 377.757 154.11C375.767 162.902 377.235 172.425 379.203 180.984C385.953 176.278 392.358 175.256 400.376 177.143Z" fill="#FFD991"/>
<path d="M413.894 193.434L413.657 195.798L427.213 197.147L427.45 194.785L413.894 193.434Z" fill="#FFD991"/>
<path d="M159.694 266.155L146.795 261.993L142.124 263.557L151.766 320.756L170.837 320.201L159.694 266.155Z" fill="#1F3A59"/>
<path d="M231.308 261.681L146.795 261.903L159.328 333.898L242.372 335.374L231.308 261.681Z" fill="#CCCFD4"/>
<path d="M209.501 383.682H201.673V474.412H209.501V383.682Z" fill="#192C52"/>
<path d="M177.053 373.636H169.224V464.368H177.053V373.636Z" fill="#192C52"/>
<path d="M258.207 378.231H250.378V468.963H258.207V378.231Z" fill="#192C52"/>
<path d="M164.754 332.633L172.56 371.394L182.979 369.663L175.385 330.035L164.754 332.633Z" fill="#192C52"/>
<path d="M174.54 370.594L165.065 368.763V374.679L196.568 389.42L256.494 388.243L260.619 374.258L174.54 370.594Z" fill="#1F3A59"/>
<path d="M208.99 367.043L164.62 368.762L196.912 381.062L270.85 379.84L208.99 367.043Z" fill="#CCCFD4"/>
<path d="M330.253 480.14C326.984 485.624 288.263 482.339 281.647 479.108C279.99 478.297 280.546 473.035 281.625 467.653C282.87 461.436 284.805 455.043 284.805 455.043L303.086 456.319C303.086 456.319 311.972 461.748 319.622 467.575C326.116 472.493 331.71 477.709 330.253 480.14Z" fill="#E57772"/>
<path d="M330.253 480.14C326.984 485.624 288.263 482.339 281.647 479.108C279.99 478.297 280.546 473.037 281.625 467.653C283.115 465.954 285.361 464.689 288.242 464.234C298.005 468.597 309.158 469.707 319.622 467.564C326.116 472.493 331.71 477.709 330.253 480.14Z" fill="#0C1B3C"/>
<path d="M303.576 360.781C303.576 390.385 303.398 410.699 303.398 458.65C301.485 458.717 289.865 459.705 284.727 458.917C275.676 441.235 279.59 425.606 272.707 407.291C267.236 392.76 257.45 378.13 242.472 369.706C238.569 367.497 234.32 365.733 229.706 364.479C225.113 363.246 219.742 362.246 217.418 358.806C212.558 351.636 225.926 343.311 231.052 328.903C235.489 330.024 239.536 331.089 243.317 332.121C260.475 336.783 303.576 346.407 303.576 360.781Z" fill="#E57772"/>
<path d="M290.331 458.65C283.148 459.216 277.888 460.915 269.204 457.928C256.548 415.15 250.177 411.109 250.177 383.149C248.12 382.738 246.041 382.415 243.95 382.127C222.021 379.174 198.058 381.927 180.121 369.562C156.079 351.002 166.622 322.708 177.93 299.798C196.957 301.241 216.005 302.674 235.032 304.116C241.059 313.484 243.705 323.03 243.316 332.121C243.105 337.228 241.948 342.178 239.902 346.895C244.272 349.526 249.098 350.946 253.947 352.013C264.711 354.377 271.261 353.355 277.955 361.48C283.76 406.646 290.276 458.45 290.331 458.65Z" fill="#FDAD91"/>
<path d="M308.292 483.382C306.356 489.264 276.232 490.664 271.128 486.689C268.492 484.625 267.981 476.565 268.103 469.296C268.215 462.524 268.87 456.419 268.87 456.419L289.42 457.863C289.42 457.863 294.569 462.724 299.494 468.33C304.488 473.99 309.259 480.429 308.292 483.382Z" fill="#FDAD91"/>
<path d="M308.292 483.382C306.356 489.264 276.232 490.664 271.128 486.689C268.492 484.625 267.981 476.565 268.103 469.296C271.495 474.834 277.978 478.464 284.495 478.176C290.81 477.886 296.749 473.958 299.494 468.33C304.488 473.99 309.259 480.429 308.292 483.382Z" fill="#0C1B3C"/>
<path d="M299.161 347.595C294.18 346.84 288.452 346.407 281.87 346.407C268.86 346.407 259.941 348.616 253.936 352.002C245.774 356.597 242.95 363.358 242.449 369.695C242.071 374.435 242.984 378.941 243.928 382.116C221.999 379.163 198.036 381.916 180.099 369.551C156.059 350.991 166.6 322.698 177.909 299.787C196.936 301.23 215.984 302.663 235.01 304.106C241.037 313.474 243.683 323.02 243.294 332.11C260.475 336.772 272.574 340.736 292.633 345.809C294.903 346.385 297.093 346.973 299.161 347.595Z" fill="#BA2F4A"/>
<path d="M220.365 246.974C214.36 248.805 208.266 250.57 201.972 251.125C195.668 251.669 189.073 250.914 183.613 247.972C178.164 245.031 174.05 239.659 173.984 233.854C173.906 228.048 178.498 222.209 184.748 221.299C187.906 220.844 190.352 217.836 189.941 214.928C189.374 210.976 191.031 206.814 194.244 204.127C197.447 201.442 202.118 200.298 207.255 201.84C211.658 200.943 216.128 200.044 220.632 200.298C225.135 200.565 229.739 202.141 232.519 205.404C235.289 208.668 235.666 213.773 232.608 216.815C230.451 218.957 232.808 222.62 235.532 224.074C244.463 228.848 240.57 235.719 239.091 238.305C234.399 246.518 226.102 245.231 220.365 246.974Z" fill="#0C1B3C"/>
<path d="M222.066 255.066C226.315 250.581 234.109 239.748 230.262 229.248C229.206 228.648 228.194 228.071 227.271 227.538C226.414 227.026 225.78 226.316 225.402 225.484C225.146 224.873 225.058 224.23 225.124 223.552C225.724 217.935 226.248 214.805 228.226 209.1C218.841 206.992 209.99 204.471 204.908 200.231C204.285 202.851 203.552 207.958 201.983 213.03C200.315 218.402 197.714 223.719 193.299 225.995C205.854 247.429 221.244 255.942 222.066 255.066Z" fill="#FDAD91"/>
<path d="M173.061 236.818C167.356 244.265 164.064 300.088 166.856 315.361C185.649 324.108 212.881 322.964 233.642 318.603C233.109 307.869 236.589 289.465 239.48 281.717C243.85 267.354 246.797 260.894 250.355 241.301C243.928 236.939 236.2 232.621 230.251 229.259C226.826 241.845 221.477 244.642 219.864 244.532C218.474 244.431 210.001 243.932 193.299 226.028C192.966 226.195 176.118 232.821 173.061 236.818Z" fill="#346E93"/>
<path d="M225.124 223.564C225.058 224.23 225.146 224.885 225.402 225.495C219.843 232.21 207.432 223.431 201.983 213.052C203.552 207.979 204.285 202.862 204.908 200.254C209.99 204.494 218.841 207.014 228.226 209.122C226.259 214.829 225.724 217.948 225.124 223.564Z" fill="#E57873"/>
<path d="M242.697 190.513C247.371 188.153 252.673 189.222 254.539 192.905C256.405 196.587 254.129 201.484 249.454 203.844C244.778 206.206 239.476 205.135 237.611 201.454C235.744 197.773 238.022 192.875 242.697 190.513Z" fill="#E57873"/>
<path d="M253.691 179.696C252.824 185.835 250.078 192.605 246.075 200.076C244.674 193.949 243.773 186.49 242.527 179.031C241.271 171.549 239.659 164.079 236.867 157.974C236.233 156.62 235.555 155.332 234.821 154.134C236.478 153.977 238.146 154.134 239.736 154.577C242.227 155.244 244.562 156.53 246.475 158.24C249.644 161.06 251.767 164.9 253.035 168.94C254.069 172.292 254.258 175.867 253.691 179.696Z" fill="#0C1B3C"/>
<path d="M248.999 186.035C248.955 187.244 248.876 188.477 248.766 189.697C247.064 209.567 238.702 223.197 225.913 223.197C207.855 223.197 196.157 202.984 196.157 183.183C196.157 163.646 208.144 149.515 222.177 151.148C230.262 152.08 236.177 154.755 240.37 158.684C243.15 161.293 245.151 164.457 246.52 168.052C248.076 172.083 248.833 176.633 248.999 181.539C248.999 181.55 249.01 181.572 249.01 181.583C249.054 183.049 249.044 184.525 248.999 186.035Z" fill="#FDAD91"/>
<path d="M248.999 186.035C248.465 184.114 247.653 182.239 246.576 180.563C235.934 186.124 223.234 188.255 211.202 186.234C208.911 188.144 206.677 190.009 204.418 191.884C204.463 182.849 204.597 176.721 208.122 172.348C211.436 168.241 216.973 166.699 222.2 166.021C228.093 165.255 234.087 165.277 239.97 166.133C242.227 166.443 244.562 166.931 246.52 168.064C248.076 172.094 248.833 176.644 248.999 181.55C248.999 181.561 249.01 181.583 249.01 181.595C249.054 183.049 249.044 184.525 248.999 186.035Z" fill="#E57873"/>
<path d="M251.601 173.802C249.121 175.901 246.019 177.631 242.538 179.031C232.619 183.026 219.72 184.347 209.678 183.859C204.741 194.692 202.74 198.577 201.482 208.024C196.657 203.505 192.732 195.225 191.564 188.72C190.408 182.239 190.518 175.434 192.332 169.063C195.189 159.017 202.372 153.634 207.354 151.025C208.599 150.348 209.723 149.87 210.59 149.526C216.962 147.074 224.134 147.295 230.662 149.294C234.221 150.393 237.222 152.269 239.747 154.566C244.84 159.161 247.997 165.378 250.033 170.039C250.645 171.472 251.167 172.77 251.601 173.802Z" fill="#0C1B3C"/>
<path d="M191.451 195.712C193.364 192.054 198.68 191.051 203.323 193.472C207.968 195.892 210.182 200.819 208.269 204.477C206.356 208.133 201.04 209.137 196.397 206.716C191.753 204.296 189.54 199.369 191.451 195.712Z" fill="#FDAD91"/>
<path d="M215.417 191.874C218.753 189.975 221.61 188.72 225.524 190.996" stroke="#0C1B3C" stroke-miterlimit="10" stroke-linecap="round"/>
<path d="M237.879 191.295C240.736 189.165 244.396 189.531 246.597 191.874" stroke="#0C1B3C" stroke-miterlimit="10" stroke-linecap="round"/>
<path d="M234.109 199.965C234.41 202.963 234.21 206.015 233.52 208.945" stroke="#91293F" stroke-miterlimit="10" stroke-linecap="round"/>
<path d="M231.429 213.23C226.781 213.906 223.613 212.486 221.098 209.089" stroke="#91293F" stroke-miterlimit="10" stroke-linecap="round"/>
<path d="M221.81 198.267C222.572 198.267 223.19 199.235 223.19 200.431C223.19 201.627 222.572 202.595 221.81 202.595C221.049 202.595 220.432 201.627 220.432 200.431C220.432 199.235 221.049 198.267 221.81 198.267Z" fill="#0F1D3D"/>
<path d="M240.336 198.267C241.098 198.267 241.716 199.235 241.716 200.431C241.716 201.627 241.098 202.595 240.336 202.595C239.574 202.595 238.958 201.627 238.958 200.431C238.958 199.235 239.574 198.267 240.336 198.267Z" fill="#0F1D3D"/>
<path d="M253.691 179.696C253.28 177.521 252.668 175.411 251.801 173.38C251.312 172.227 250.712 171.117 250.022 170.039C247.754 166.488 244.45 163.558 240.47 162.259C239.336 160.671 238.135 159.239 236.878 157.963C232.353 153.368 227.037 150.737 221.41 149.827C216.728 149.072 211.858 149.494 207.354 151.025C208.601 150.348 209.723 149.87 210.591 149.526C216.962 147.074 224.135 147.295 230.662 149.294C234.221 150.393 237.223 152.269 239.747 154.566C242.238 155.233 244.573 156.52 246.486 158.229C249.656 161.048 251.78 164.889 253.046 168.929C254.069 172.293 254.258 175.867 253.691 179.696Z" fill="#1E3A5E"/>
<path d="M207.21 287.699C207.176 289.265 207.144 290.851 207.077 292.417C206.765 301.951 206.032 311.487 204.863 320.978C204.263 325.906 203.462 331.034 200.549 335.053C196.802 340.214 190.285 342.522 184.058 343.91C176.552 345.553 168.824 346.263 160.618 345.531C159.283 345.419 157.938 345.264 156.57 345.064C155.803 344.953 155.036 344.832 154.256 344.699C154.402 344.288 154.557 343.888 154.69 343.477C154.957 342.733 155.212 341.99 155.468 341.235C162.252 321.41 165.121 302.463 164.242 281.272C163.82 271.239 164.12 262.159 165.031 252.068C165.054 251.758 165.087 251.469 165.121 251.169C165.154 250.936 165.188 250.693 165.22 250.47C167.234 236.495 178.454 230.379 195.823 224.251C202.806 229.28 204.597 238.748 205.497 247.307C206.91 260.726 207.477 274.214 207.21 287.699Z" fill="#FEAC40"/>
<path d="M207.077 266.41C207.956 257.785 207.399 247.55 205.442 239.092C204.753 236.117 203.885 233.165 202.417 230.49C200.949 227.815 198.825 225.439 196.291 223.763C193.277 224.363 190.352 225.384 187.762 227.183C187.528 231.689 189.963 242.024 190.786 243.732C191.775 245.763 198.002 248.228 203.029 252.324C200.983 254.755 197.625 258.762 197.57 260.105C197.525 261.481 203.085 263.324 207.077 266.41Z" fill="#FFD991"/>
<path d="M250.355 241.346C255.193 245.642 256.339 300.63 260.053 303.939C262.031 305.704 285.361 317.57 298.294 323.897C293.835 326.715 289.854 330.279 286.529 334.431C271.639 331.977 249.321 325.762 243.939 321.754C237.212 316.749 237.101 285.712 235.244 267.242C239.525 258.984 241.159 249.704 250.355 241.346Z" fill="#F79234"/>
<path d="M248.476 331.345C243.483 333.375 243.172 333.575 238.612 330.712C234.521 328.137 231.319 325.351 231.319 316.904C231.319 288.62 235.988 254.866 227.693 227.792C235.233 231.989 242.283 234.985 248.888 239.847C250.879 241.312 251.401 243.777 251.401 246.253C251.401 293.716 250.133 301.697 248.476 331.345Z" fill="#FEAC40"/>
<path d="M232.252 266.41C232.086 253.733 230.262 239.425 227.293 227.327C231.173 228.88 235.087 230.49 238.935 232.877C242.338 237.749 246.697 246.595 246.208 248.583C245.752 250.415 239.88 252.635 235.455 254.976C238.402 256.942 240.736 259.205 240.67 260.339C240.559 261.858 237.578 263.258 232.252 266.41Z" fill="#FFD991"/>
<path d="M681.767 358.618H671.492V502.674H681.767V358.618Z" fill="#390545"/>
<path d="M238.468 358.618H228.194V502.674H238.468V358.618Z" fill="#390545"/>
<path d="M540.131 329.991H530.435V474.424H540.131V329.991Z" fill="#390545"/>
<path d="M137.977 329.991H127.702V471.916H137.977V329.991Z" fill="#390545"/>
<path d="M102.582 318.913L102.549 328.791L214.583 363.978L715.271 362.369L715.594 353.977L102.582 318.913Z" fill="#4F0946"/>
<path d="M214.149 353.978L102.582 318.88H593.963L715.594 353.978H214.149Z" fill="#FAC98F"/>
<path d="M239.057 301.886C238.969 302.596 238.569 303.317 237.913 303.607C237.157 303.939 236.233 303.629 235.611 303.074C234.988 302.529 234.588 301.774 234.165 301.053C232.574 298.322 230.485 295.869 227.727 293.705C230.04 296.979 230.896 301.043 231.596 304.982C231.764 305.849 231.919 306.769 231.641 307.613C231.374 308.456 230.551 309.189 229.672 309.056C228.783 308.901 228.26 307.968 227.893 307.148C226.57 304.283 225.258 301.419 224.234 298.057C225.047 301.398 225.726 304.771 226.27 308.168C226.437 309.267 226.57 310.478 225.947 311.399C225.502 312.02 224.735 312.408 223.968 312.375C223.211 312.33 222.478 311.887 221.977 311.087C221.922 311.865 221.866 312.664 221.5 313.363C221.132 314.04 220.387 314.595 219.62 314.473C218.798 314.339 218.263 313.53 217.897 312.786C217.029 311.02 216.406 309.145 216.629 307.591C214.839 309.301 212.659 310.611 210.312 311.409C209.246 311.764 208.156 312.02 207.043 312.153C203.474 312.619 199.749 311.898 197.125 310.056C196.512 306.393 196.491 302.629 196.768 299.399C198.681 298.289 200.583 297.179 202.507 296.058C206.544 293.716 210.635 291.363 214.828 288.943C220.954 286.557 228.149 287.144 233.931 290.952C236.155 293.483 237.812 296.513 238.758 299.754C238.98 300.443 239.147 301.164 239.057 301.886Z" fill="#FDAD91"/>
<path d="M210.335 311.399C209.267 311.754 208.178 312.009 207.066 312.143C203.496 312.608 199.771 311.887 197.146 310.044C196.536 306.38 196.512 302.618 196.791 299.389C198.703 298.279 200.605 297.168 202.529 296.048C204.553 301.43 207.188 306.593 210.335 311.399Z" fill="#E57873"/>
<path d="M183.224 230.102C181.711 228.904 166.222 236.884 163.286 253.767C161.474 264.234 159.094 306.159 163.976 313.341C168.857 320.522 202.617 315.583 202.617 315.583L201.516 296.603C201.516 296.603 184.492 294.204 184.325 293.172C184.159 292.139 187.506 275.734 188.451 260.504C189.23 247.75 186.771 232.91 183.224 230.102Z" fill="#FCBC5B"/>
<path d="M303.787 325.695C303.787 327.16 302.598 328.348 301.13 328.348H226.158C224.402 328.348 222.656 328.07 220.943 327.537L195.979 319.668C194.922 319.334 194.155 318.125 194.1 316.715L194.066 315.738L214.16 318.913L214.138 319.068H274.341L303.787 320.389V325.695Z" fill="#0C1A3B"/>
<path d="M223.523 322.864L194.077 315.727H274.341L303.787 322.864H223.523Z" fill="#CCCFD4"/>
<path d="M313.829 272.738C314.652 273.703 315.007 274.99 314.796 276.255L306.957 323.931H226.747C225.236 322.821 224.479 320.933 224.791 319.057L231.974 275.401C232.308 273.347 234.053 271.826 236.1 271.815L310.615 271.249C311.849 271.239 313.028 271.783 313.829 272.738Z" fill="#1F3A59"/>
<path d="M314.674 277.044L306.968 323.942H226.77L234.61 276.255C234.799 275.113 235.777 274.269 236.912 274.269H312.361C313.807 274.269 314.908 275.59 314.674 277.044Z" fill="#11244A"/>
<path d="M273.419 306.404C279.658 306.404 284.716 303.759 284.716 300.498C284.716 297.237 279.658 294.593 273.419 294.593C267.179 294.593 262.121 297.237 262.121 300.498C262.121 303.759 267.179 306.404 273.419 306.404Z" fill="#1F3A59"/>
<path d="M603.349 337.318L550.918 321.866C550.051 321.61 549.451 320.812 549.451 319.902V317.581L598.734 320.39L652.633 333.454V334.175C652.633 335.907 651.232 337.305 649.497 337.305H603.349V337.318Z" fill="#0C1A3B"/>
<path d="M603.349 333.465L549.451 317.592H598.734L652.633 333.465H603.349Z" fill="#CCCFD4"/>
<path d="M596.888 319.457L631.171 330.146L603.494 330.49L596.888 319.457Z" fill="#E4E7EB"/>
<path d="M550.407 316.949L521.528 275.9C521.117 275.356 520.994 274.779 521.606 274.035C521.817 273.781 522.885 272.604 522.885 272.604C523.23 272.215 523.741 272.015 524.253 272.06L573.704 279.23C574.916 279.331 576.006 280.019 576.606 281.073L605.14 330.29C605.651 331.179 605.439 332.299 604.639 332.943L602.771 334.42L550.407 316.949Z" fill="#1F3A59"/>
<path d="M545.78 316.949L521.461 275.778C521.194 275.367 521.528 274.835 522.006 274.879L569.656 281.75C571.324 281.895 572.814 282.849 573.648 284.292L602.782 334.42L545.78 316.949Z" fill="#11244A"/>
<path d="M550.794 301.857C551.312 299.499 555.841 298.484 560.909 299.593C565.979 300.701 569.668 303.512 569.15 305.872C568.633 308.232 564.104 309.245 559.034 308.137C553.967 307.028 550.277 304.216 550.794 301.857Z" fill="#1F3A59"/>
<path d="M645.449 312.975L640.746 310.844C640.746 310.844 634.407 319.213 640.011 330.712C645.183 327.926 647.528 316.149 645.449 312.975Z" fill="#255E73"/>
<path d="M644.338 324.363C644.048 324.74 641.068 324.697 638.922 324.596C638.377 324.551 637.898 324.529 637.52 324.497C637.398 326.15 635.175 327.405 633.784 327.526C632.084 327.693 629.825 327.072 628.881 325.895C627.101 326.861 625.167 326.905 623.821 325.917C622.454 324.929 621.886 323.387 621.663 321.922C621.408 320.434 621.408 318.902 620.863 317.482C620.363 320.878 619.54 324.54 618.428 328.137C618.217 328.825 617.96 329.514 617.416 330.047C616.87 330.59 615.926 330.901 615.148 330.613C614.125 330.235 613.968 329.103 613.991 328.159C614.035 323.996 614.202 319.801 614.469 315.617C613.168 318.646 611.889 321.333 610.277 323.886C609.499 325.118 607.93 326.905 606.352 326.362C605.406 326.05 605.873 324.641 606.23 323.409C607.24 319.934 608.141 318.069 609.688 313.608C610.522 311.243 611.556 308.901 614.302 307.824C617.549 306.548 621.397 307.025 624.833 307.869C628.292 308.701 634.818 310.377 637.088 311.076C638.221 311.431 639.356 311.72 640.4 311.975C643.27 312.664 645.583 312.997 645.683 313.13C646.917 314.862 645.149 323.243 644.338 324.363Z" fill="#FDAD91"/>
<path d="M644.338 324.363C644.048 324.74 641.068 324.697 638.922 324.596C639.611 323.443 640.156 322.232 640.512 320.956C641.346 318.025 641.312 314.862 640.411 311.975C643.281 312.664 645.594 312.997 645.694 313.13C646.917 314.862 645.149 323.243 644.338 324.363Z" fill="#E57873"/>
<path d="M657.626 249.428C662.641 246.73 674.884 254.023 678.743 270.051C682.124 284.115 689.039 319.579 681.767 328.614C676.252 335.474 640.034 330.723 640.034 330.723C641.58 327.171 645.06 317.903 640.624 310.788C640.624 310.788 658.972 310.244 660.038 308.779C661.106 307.314 654.389 282.849 652.478 274.724C650.687 267.143 649.331 253.878 657.626 249.428Z" fill="#4FABAB"/>
<path d="M476.504 325.695C476.504 327.16 475.313 328.348 473.845 328.348H398.874C397.117 328.348 395.372 328.07 393.659 327.537L368.695 319.668C367.639 319.334 366.872 318.125 366.816 316.715L366.782 315.738L386.875 318.913L386.854 319.068H447.058L476.504 320.389V325.695Z" fill="#28598A"/>
<path d="M396.228 322.864L366.782 315.727H447.058L476.504 322.864H396.228Z" fill="#C1DEE6"/>
<path d="M486.544 272.738C487.368 273.703 487.723 274.99 487.512 276.255L479.672 323.931H399.464C397.951 322.821 397.195 320.933 397.506 319.057L404.69 275.401C405.023 273.347 406.77 271.826 408.815 271.815L483.331 271.249C484.554 271.239 485.732 271.783 486.544 272.738Z" fill="#5F9CBA"/>
<path d="M487.378 277.044L479.672 323.942H399.486L407.325 276.255C407.514 275.113 408.493 274.269 409.627 274.269H485.076C486.523 274.269 487.612 275.59 487.378 277.044Z" fill="#28598A"/>
<path d="M446.123 306.404C452.363 306.404 457.421 303.759 457.421 300.498C457.421 297.237 452.363 294.593 446.123 294.593C439.884 294.593 434.826 297.237 434.826 300.498C434.826 303.759 439.884 306.404 446.123 306.404Z" fill="#5F9CBA"/>
</g>
</g>
<defs>
<clipPath id="clip0_788_2466">
<rect width="834" height="555" rx="15" fill="white"/>
</clipPath>
</defs>
</svg>
