<svg width="270" height="202" viewBox="0 0 270 202" fill="none" xmlns="http://www.w3.org/2000/svg">
<path d="M65.5842 147.031C65.5842 148.208 65.1167 149.336 64.2845 150.168C63.4523 151.001 62.3236 151.468 61.1467 151.468H58.1591C56.9822 151.468 55.8535 151.001 55.0214 150.168C54.1892 149.336 53.7216 148.208 53.7216 147.031C53.7216 145.854 54.1892 144.725 55.0214 143.893C55.8535 143.061 56.9822 142.593 58.1591 142.593H61.1467C62.3236 142.593 63.4523 143.061 64.2845 143.893C65.1167 144.725 65.5842 145.854 65.5842 147.031ZM47.3411 142.593H24.9034C23.7265 142.593 22.5978 143.061 21.7656 143.893C20.9334 144.725 20.4659 145.854 20.4659 147.031C20.4659 148.208 20.9334 149.336 21.7656 150.168C22.5978 151.001 23.7265 151.468 24.9034 151.468H47.3411C48.518 151.468 49.6467 151.001 50.4789 150.168C51.311 149.336 51.7786 148.208 51.7786 147.031C51.7786 145.854 51.311 144.725 50.4789 143.893C49.6467 143.061 48.518 142.593 47.3411 142.593ZM249.894 139.694C245.041 152.096 247.018 171.825 255.468 195.276C255.672 195.826 255.766 196.411 255.743 196.997C255.72 197.584 255.581 198.159 255.334 198.692C255.087 199.224 254.738 199.702 254.305 200.098C253.872 200.494 253.365 200.8 252.813 200.999C252.261 201.198 251.675 201.285 251.089 201.256C250.503 201.227 249.929 201.082 249.399 200.83C248.87 200.577 248.395 200.222 248.004 199.786C247.612 199.349 247.311 198.838 247.118 198.284C240.601 180.194 234.369 154.755 241.697 136.29C241.732 136.2 241.771 136.113 241.812 136.026C243.469 132.529 245.332 128.923 247.133 125.435C250.717 118.496 254.424 111.321 257.009 104.142C264.191 84.2401 261.39 62.265 249.517 45.357C238.47 29.6255 221.528 20.9619 201.812 20.9619C178.567 20.9619 159.795 28.2177 148.953 41.3927C139.412 52.9879 136.469 68.5258 140.205 87.5737C142.841 100.913 136.462 109.928 130.611 116.291C126.335 120.938 126.137 122.94 126.134 123.236C126.714 123.979 129.663 124.795 130.787 125.106C133.472 125.848 136.517 126.69 137.241 129.93C137.802 132.42 136.842 135.244 134.73 139.84C135.117 140.383 136.077 141.211 136.575 141.641C137.193 142.173 137.776 142.676 138.271 143.258C139.249 144.416 139.668 145.836 139.46 147.268C139.337 148.13 138.991 148.945 138.456 149.632C144.405 154.873 144.338 160.012 144.278 164.593C144.273 164.927 144.269 165.262 144.267 165.597C144.255 167.539 144.233 171.156 145.066 172.621C145.238 172.922 145.76 173.84 149.265 173.916C159.82 174.124 178.03 167.717 187.227 158.153C189.543 155.745 192.254 152.057 192.021 148.162C191.95 146.987 192.35 145.832 193.13 144.952C193.911 144.071 195.01 143.537 196.185 143.466C196.767 143.431 197.35 143.51 197.901 143.7C198.452 143.89 198.96 144.187 199.397 144.574C199.833 144.961 200.188 145.43 200.443 145.954C200.698 146.479 200.846 147.048 200.88 147.63C201.217 153.253 198.708 159.019 193.624 164.305C190.786 167.257 187.164 170.034 183.104 172.495C183.878 175.933 184.273 181.041 184.726 187.784C184.951 191.139 185.164 194.309 185.431 196.138C185.516 196.715 185.486 197.302 185.343 197.867C185.2 198.432 184.948 198.964 184.6 199.431C184.252 199.899 183.815 200.293 183.314 200.591C182.814 200.89 182.26 201.087 181.683 201.172C181.106 201.256 180.519 201.226 179.954 201.084C179.389 200.941 178.857 200.689 178.39 200.341C177.922 199.993 177.528 199.556 177.229 199.055C176.931 198.555 176.734 198 176.65 197.423C176.331 195.25 176.118 192.066 175.87 188.378C175.646 185.04 175.319 180.169 174.861 176.791C166.272 180.618 156.869 182.954 149.076 182.789C135.289 182.491 135.353 171.881 135.392 165.542C135.393 165.324 135.396 165.111 135.399 164.896H124.312L127.505 179.796H134.42C140.658 179.796 148.112 184.35 149.267 191.129L150.179 196.474C150.288 197.111 150.256 197.764 150.086 198.387C149.916 199.01 149.613 199.589 149.196 200.082C148.779 200.576 148.26 200.973 147.674 201.245C147.089 201.517 146.451 201.658 145.805 201.658H58.7882C58.1423 201.658 57.5043 201.517 56.9186 201.245C56.3329 200.972 55.8136 200.576 55.3971 200.082C54.9806 199.589 54.6768 199.01 54.507 198.387C54.3372 197.764 54.3054 197.111 54.4139 196.474L55.3258 191.128C56.4807 184.35 63.9345 179.796 70.172 179.796H77.0856L80.2684 164.896H20.4226C9.2712 164.896 0.19873 155.824 0.19873 144.672V20.5658C0.19873 9.41439 9.2712 0.341919 20.4226 0.341919H184.169C192.153 0.341919 199.273 5.03347 202.531 12.0974C224.602 12.316 244.343 22.5477 256.779 40.2572C270.312 59.5293 273.519 84.5374 265.357 107.153C262.575 114.877 258.734 122.315 255.018 129.509C253.193 133.04 251.469 136.378 249.894 139.694ZM20.4226 156.021H132.271C131.962 155.764 131.645 155.516 131.321 155.278C128.987 153.567 127.831 151.598 127.887 149.429C127.91 148.388 128.228 147.376 128.804 146.509C126.994 144.578 125.074 141.653 125.953 138.056H9.07373V144.673C9.07373 150.931 14.1647 156.021 20.4226 156.021ZM134.419 188.671H70.1726C67.5866 188.671 64.3955 190.737 64.0749 192.62L64.0472 192.783H140.545L140.517 192.621C140.202 190.774 136.954 188.671 134.419 188.671ZM115.234 164.896H89.3442L86.1614 179.796H118.426L115.234 164.896ZM192.131 12.4951C190.058 10.4522 187.229 9.21692 184.169 9.21692H20.4226C14.1647 9.21692 9.07373 14.3078 9.07373 20.5658V129.181H119.551C118.692 128.237 117.998 127.099 117.598 125.7C115.96 119.975 120.512 114.16 124.078 110.284C130.84 102.93 132.99 96.847 131.497 89.2888C127.284 67.8124 130.951 49.3025 142.1 35.7537C153.058 22.4368 170.601 14.3422 192.132 12.4951H192.131ZM230.619 65.0323V73.366C230.619 74.2131 230.377 75.0424 229.921 75.7561C229.464 76.4698 228.813 77.038 228.044 77.3936L223.121 79.6706L221.923 82.5505L223.804 87.647C224.098 88.4426 224.158 89.3058 223.976 90.1342C223.795 90.9627 223.379 91.7217 222.779 92.3213L216.883 98.2176C216.283 98.8174 215.524 99.2328 214.696 99.4145C213.867 99.5961 213.004 99.5365 212.209 99.2427L207.112 97.3612L204.232 98.5593L201.955 103.483C201.6 104.252 201.031 104.903 200.318 105.359C199.604 105.815 198.775 106.058 197.928 106.058H189.578C188.731 106.058 187.902 105.815 187.188 105.359C186.475 104.903 185.906 104.252 185.551 103.483L183.274 98.5593L180.396 97.3618L175.316 99.2416C174.52 99.536 173.656 99.5961 172.827 99.4146C171.998 99.2331 171.238 98.8177 170.638 98.2176L164.742 92.3213C164.144 91.7227 163.729 90.9653 163.547 90.1385C163.364 89.3118 163.422 88.4501 163.714 87.6553L165.587 82.5505L164.396 79.6706L159.464 77.3952C158.695 77.0401 158.043 76.4719 157.586 75.7578C157.129 75.0438 156.886 74.2138 156.886 73.366V65.0323C156.886 64.1846 157.129 63.3545 157.586 62.6405C158.043 61.9264 158.695 61.3582 159.464 61.0031L164.394 58.7289L165.587 55.8362L163.715 50.7458C163.423 49.9508 163.364 49.0885 163.546 48.2612C163.728 47.4338 164.143 46.6759 164.742 46.077L170.639 40.1807C171.238 39.5818 171.996 39.1668 172.823 38.9848C173.65 38.8028 174.512 38.8613 175.307 39.1534L180.396 41.0244L183.274 39.8346L185.549 34.9028C185.904 34.133 186.473 33.481 187.187 33.024C187.901 32.567 188.731 32.3241 189.578 32.3241H197.928C198.775 32.3241 199.605 32.567 200.319 33.024C201.034 33.481 201.602 34.133 201.957 34.9028L204.232 39.8346L207.112 41.0249L212.217 39.1523C213.012 38.8609 213.874 38.8029 214.701 38.9851C215.527 39.1673 216.285 39.5821 216.884 40.1807L222.78 46.0765C223.38 46.6766 223.796 47.4364 223.977 48.2656C224.159 49.0948 224.098 49.9586 223.804 50.7547L221.923 55.8362L223.124 58.7294L228.046 61.0053C228.815 61.3609 229.466 61.9291 229.922 62.6428C230.378 63.3565 230.621 64.1858 230.621 65.0329L230.619 65.0323ZM221.744 67.869L217.825 66.0569C216.814 65.5895 216.016 64.7589 215.589 63.7299L213.058 57.6289C212.629 56.5954 212.606 55.438 212.995 54.3885L214.492 50.3414L212.611 48.4605L208.543 49.9526C207.499 50.3357 206.348 50.3123 205.32 49.8872L199.235 47.3717C198.202 46.9448 197.369 46.1442 196.901 45.1296L195.087 41.1985H192.417L190.604 45.1296C190.136 46.1442 189.302 46.9448 188.269 47.3717L182.184 49.8872C181.155 50.3128 180.003 50.3358 178.958 49.9515L174.906 48.4616L173.023 50.3453L174.512 54.3962C174.896 55.4405 174.874 56.5908 174.45 57.6195L171.934 63.7205C171.507 64.7547 170.706 65.5896 169.69 66.058L165.759 67.8718V70.526L169.69 72.3398C170.705 72.8078 171.505 73.6414 171.932 74.6739L174.448 80.7589C174.874 81.7872 174.897 82.9379 174.514 83.9827L173.021 88.0508L174.902 89.9317L178.949 88.4341C180 88.0453 181.159 88.0685 182.193 88.499L188.278 91.0305C189.305 91.4577 190.134 92.2552 190.601 93.2648L192.413 97.1837H195.089L196.901 93.2648C197.368 92.2552 198.197 91.4577 199.224 91.0305L205.309 88.499C206.343 88.069 207.5 88.0454 208.55 88.4329L212.615 89.9334L214.493 88.0552L212.992 83.991C212.605 82.9411 212.628 81.7833 213.058 80.75L215.59 74.6651C216.017 73.638 216.815 72.8089 217.824 72.342L221.743 70.5299V67.8701L221.744 67.869ZM211.374 69.1986C211.374 78.9112 203.472 86.8127 193.76 86.8127C184.047 86.8127 176.13 78.9112 176.13 69.1986C176.13 59.486 184.039 51.569 193.76 51.569C203.481 51.569 211.374 59.4777 211.374 69.1986ZM202.499 69.1986C202.499 64.3712 198.579 60.444 193.76 60.444C188.941 60.444 185.005 64.3712 185.005 69.1986C185.005 74.0261 188.932 77.9377 193.76 77.9377C198.587 77.9377 202.499 74.0177 202.499 69.1986ZM90.5179 87.6553C90.8095 88.4501 90.8676 89.3118 90.6854 90.1385C90.5031 90.9653 90.0882 91.7227 89.4896 92.3213L83.5932 98.2176C82.9936 98.8174 82.2346 99.2328 81.4061 99.4145C80.5777 99.5961 79.7145 99.5365 78.9189 99.2427L73.8224 97.3612L70.9425 98.5593L68.6655 103.483C68.3099 104.252 67.7417 104.903 67.028 105.359C66.3143 105.816 65.485 106.058 64.6379 106.058H56.3043C55.4572 106.058 54.6278 105.816 53.9141 105.359C53.2004 104.903 52.6322 104.252 52.2767 103.483L50.0008 98.5615L47.1081 97.3612L42.0266 99.2416C41.2306 99.536 40.3669 99.596 39.5378 99.4145C38.7088 99.233 37.9491 98.8177 37.3489 98.2176L31.4526 92.3213C30.8539 91.7227 30.439 90.9653 30.2568 90.1385C30.0746 89.3118 30.1327 88.4501 30.4242 87.6553L32.2968 82.5505L31.1065 79.6706L26.1747 77.3952C25.405 77.04 24.7532 76.4718 24.2963 75.7577C23.8394 75.0437 23.5965 74.2137 23.5966 73.366V65.0323C23.5965 64.1846 23.8394 63.3546 24.2963 62.6406C24.7532 61.9265 25.405 61.3583 26.1747 61.0031L31.1043 58.7289L32.2968 55.8362L30.4253 50.7458C30.1328 49.9507 30.0741 49.0884 30.2561 48.2609C30.4382 47.4335 30.8534 46.6754 31.4526 46.0765L37.3489 40.1807C37.948 39.5818 38.7059 39.1668 39.5332 38.9848C40.3605 38.8028 41.2226 38.8613 42.0177 39.1534L47.1081 41.0249L50.0008 39.8323L52.275 34.9028C52.6301 34.133 53.1983 33.481 53.9124 33.024C54.6265 32.567 55.4565 32.3241 56.3043 32.3241H64.6379C65.4856 32.3241 66.3156 32.5669 67.0297 33.0238C67.7437 33.4807 68.3119 34.1326 68.6671 34.9023L70.9425 39.834L73.8224 41.0244L78.9277 39.1517C79.7226 38.8603 80.5842 38.8023 81.4109 38.9845C82.2377 39.1667 82.9951 39.5816 83.5938 40.1801L89.4901 46.0765C90.0891 46.6755 90.5042 47.4334 90.6862 48.2607C90.8682 49.088 90.8097 49.9502 90.5174 50.7453L88.6459 55.8356L89.8385 58.7283L94.768 61.0025C95.5378 61.3577 96.1898 61.9259 96.6468 62.6399C97.1038 63.354 97.3467 64.184 97.3467 65.0318V73.3654C97.3467 74.2132 97.1038 75.0432 96.6468 75.7573C96.1898 76.4714 95.5378 77.0396 94.768 77.3947L89.8362 79.67L88.6459 82.5499L90.5179 87.6553ZM88.4711 67.8718L84.5401 66.058C83.5241 65.5894 82.7227 64.7543 82.2964 63.72L79.7809 57.619C79.3566 56.5906 79.3342 55.4403 79.7182 54.3962L81.2081 50.3453L79.3227 48.46L75.2546 49.9521C74.21 50.3351 73.0595 50.3118 72.0313 49.8866L65.9464 47.3711C64.9138 46.9443 64.0803 46.1436 63.6123 45.129L61.7984 41.198H59.1443L57.3304 45.129C56.8619 46.1448 56.0271 46.9462 54.993 47.3728L48.892 49.8883C47.8633 50.312 46.7131 50.3344 45.6687 49.951L41.6178 48.4611L39.7341 50.3448L41.2234 54.3957C41.6073 55.4399 41.5851 56.5903 41.1613 57.619L38.6452 63.72C38.2189 64.754 37.4177 65.5889 36.4021 66.0574L32.471 67.8712V70.5254L36.4021 72.3392C37.4166 72.8073 38.2173 73.6408 38.6441 74.6734L41.1602 80.7583C41.5856 81.7867 41.6089 82.9374 41.2256 83.9821L39.7335 88.0502L41.6145 89.9312L45.6615 88.4335C46.7111 88.0451 47.8688 88.0676 48.9025 88.4967L55.0035 91.0283C56.0322 91.4553 56.8628 92.2534 57.3304 93.2643L59.1426 97.1831H61.8023L63.615 93.2643C64.0821 92.2548 64.9111 91.4574 65.9381 91.03L72.023 88.4984C73.0564 88.0684 74.214 88.0448 75.264 88.4324L79.3282 89.9328L81.2108 88.0497L79.7187 83.9816C79.3354 82.937 79.3588 81.7865 79.7842 80.7583L82.2997 74.6734C82.7265 73.6408 83.5272 72.8073 84.5417 72.3392L88.4728 70.5254V67.8712L88.4711 67.8718ZM78.0846 69.1986C78.0846 78.9112 70.1831 86.8127 60.4711 86.8127C50.7591 86.8127 42.857 78.9112 42.857 69.1986C42.857 59.486 50.7585 51.569 60.4711 51.569C70.1837 51.569 78.0846 59.4777 78.0846 69.1986ZM69.2096 69.1986C69.2096 64.3712 65.2896 60.444 60.4711 60.444C55.6525 60.444 51.732 64.3712 51.732 69.1986C51.732 74.0261 55.652 77.9377 60.4711 77.9377C65.2902 77.9377 69.2096 74.0177 69.2096 69.1986ZM123.601 38.1722H108.055C108.376 37.2239 108.365 36.1953 108.027 35.2535C107.688 34.3117 107.041 33.5122 106.19 32.985C105.339 32.4578 104.335 32.2339 103.341 32.3496C102.347 32.4654 101.422 32.914 100.715 33.6226L94.8656 39.4718C94.4532 39.8842 94.1262 40.3739 93.9032 40.9128C93.6802 41.4517 93.5656 42.0293 93.5661 42.6125C93.5665 43.1957 93.6819 43.7732 93.9056 44.3118C94.1293 44.8504 94.4571 45.3396 94.87 45.7514L100.719 51.5851C101.586 52.4487 102.719 52.8803 103.853 52.8803C104.986 52.8803 106.128 52.4454 106.995 51.5762C107.575 50.9942 107.982 50.2624 108.17 49.4626C108.359 48.6627 108.321 47.8262 108.061 47.0466H123.602C124.779 47.0466 125.907 46.5791 126.74 45.7469C127.572 44.9147 128.039 43.786 128.039 42.6091C128.039 41.4322 127.572 40.3035 126.74 39.4713C125.907 38.6391 124.779 38.1716 123.602 38.1716L123.601 38.1722ZM118.126 86.8044C117.715 86.3918 117.226 86.0642 116.688 85.8405C116.15 85.6168 115.573 85.5012 114.99 85.5004C114.407 85.4997 113.83 85.6137 113.292 85.836C112.753 86.0583 112.263 86.3845 111.851 86.7961C111.266 87.3799 110.856 88.1157 110.667 88.9203C110.478 89.7249 110.517 90.5663 110.781 91.3495H98.0023C96.8254 91.3495 95.6967 91.817 94.8646 92.6492C94.0324 93.4814 93.5648 94.6101 93.5648 95.787C93.5648 96.9639 94.0324 98.0926 94.8646 98.9248C95.6967 99.757 96.8254 100.225 98.0023 100.225H110.776C110.554 100.891 110.494 101.601 110.6 102.295C110.706 102.989 110.976 103.649 111.387 104.218C111.798 104.788 112.338 105.252 112.964 105.572C113.589 105.891 114.282 106.058 114.984 106.058C115.567 106.058 116.144 105.944 116.683 105.721C117.221 105.498 117.71 105.171 118.122 104.758L123.956 98.9243C124.787 98.0929 125.255 96.9654 125.255 95.7896C125.256 94.6137 124.79 93.4856 123.96 92.653L118.126 86.8038V86.8044Z" fill="#044D45"/>
</svg>
