<svg width="497" height="496" viewBox="0 0 497 496" fill="none" xmlns="http://www.w3.org/2000/svg">
<path d="M184.48 446.48C183.52 450 184.08 453.6 185.92 456.72L194.96 471.68C198.72 477.92 206.96 480.08 213.36 476.48L215.44 475.36C218.56 477.52 221.92 479.44 225.36 480.88V482.64C225.36 490 231.44 496 238.96 496H256.96C264.48 496 270.56 490 270.56 482.64V480.88C274.08 479.36 277.36 477.52 280.48 475.36L282.56 476.48C288.96 480 297.2 477.84 300.96 471.68L310 456.72C311.84 453.6 312.4 450 311.44 446.48C310.48 442.96 308.16 440 304.96 438.24L303.2 437.28C303.527 433.821 303.527 430.339 303.2 426.88L304.96 425.92C308.16 424.16 310.56 421.12 311.44 417.68C312.4 414.16 311.84 410.56 310 407.44L300.96 392.48C297.2 386.32 288.96 384.16 282.56 387.68L280.48 388.8C277.36 386.64 274 384.72 270.56 383.28V381.52C270.56 374.16 264.48 368.16 256.96 368.16H238.96C231.44 368.16 225.36 374.16 225.36 381.52V383.28C221.84 384.8 218.56 386.64 215.44 388.8L213.36 387.68C206.96 384.16 198.72 386.32 194.96 392.48L185.92 407.44C184.08 410.56 183.52 414.16 184.48 417.68C185.44 421.2 187.76 424.16 190.96 425.92L192.72 426.88C192.393 430.339 192.393 433.821 192.72 437.28L190.96 438.24C187.76 440 185.36 443.04 184.48 446.48ZM208.4 432C208.4 430.32 208.56 428.64 208.72 426.96C209.52 421.6 206.72 416.24 201.92 413.6L201.04 413.12L207.44 402.56L208.88 403.36C213.52 405.92 219.44 405.52 223.92 402.32C226.64 400.32 229.6 398.72 232.72 397.44C235.259 396.476 237.448 394.77 239.004 392.544C240.559 390.318 241.408 387.675 241.44 384.96V384H254.72V384.96C254.72 390.4 258.16 395.28 263.44 397.44C266.56 398.72 269.52 400.32 272.24 402.32C276.64 405.52 282.56 406 287.28 403.36L288.72 402.56L295.12 413.12L294.24 413.6C289.36 416.24 286.64 421.68 287.44 426.96C287.68 428.64 287.76 430.24 287.76 432C287.76 433.76 287.6 435.36 287.44 437.04C286.64 442.4 289.44 447.76 294.24 450.4L295.12 450.88L288.72 461.44L287.28 460.64C282.64 458.08 276.72 458.48 272.24 461.68C269.52 463.68 266.56 465.28 263.44 466.56C258.16 468.64 254.72 473.6 254.72 479.04V480H241.44V479.04C241.44 473.6 238 468.72 232.72 466.56C229.6 465.28 226.64 463.68 223.92 461.68C219.52 458.48 213.6 458 208.88 460.64L207.44 461.44L201.04 450.88L201.92 450.4C206.8 447.76 209.52 442.32 208.72 437.04C208.491 435.37 208.384 433.686 208.4 432Z" fill="#044D45"/>
<path d="M248 460C263.44 460 276 447.44 276 432C276 416.56 263.44 404 248 404C232.56 404 220 416.56 220 432C220 447.44 232.56 460 248 460ZM248 420C254.64 420 260 425.36 260 432C260 438.64 254.64 444 248 444C241.36 444 236 438.64 236 432C236 425.36 241.36 420 248 420ZM16 252C16 238.8 26.8 228 40 228H72C85.2 228 96 238.8 96 252V304H112V252C112 232.08 97.36 215.68 78.32 212.64C83.1812 209.147 87.1395 204.545 89.8665 199.217C92.5934 193.888 94.0105 187.986 94 182C94 161.04 76.96 144 56 144C35.04 144 18 161.04 18 182C18 194.64 24.24 205.68 33.68 212.64C14.64 215.68 0 232.08 0 252V304H16V252ZM56 160C68.16 160 78 169.84 78 182C78 194.16 68.16 204 56 204C43.84 204 34 194.16 34 182C34 169.84 43.84 160 56 160ZM208 172C208 158.8 218.8 148 232 148H264C277.2 148 288 158.8 288 172V224H304V172C304 152.08 289.36 135.68 270.32 132.64C275.181 129.147 279.139 124.545 281.866 119.217C284.593 113.888 286.01 107.986 286 102C286 81.04 268.96 64 248 64C227.04 64 210 81.04 210 102C210 114.64 216.24 125.68 225.68 132.64C206.64 135.68 192 152.08 192 172V224H208V172ZM248 80C260.16 80 270 89.84 270 102C270 114.16 260.16 124 248 124C235.84 124 226 114.16 226 102C226 89.84 235.84 80 248 80ZM462.32 68.64C467.181 65.1472 471.139 60.5455 473.866 55.2168C476.593 49.8881 478.01 43.9859 478 38C478 17.04 460.96 0 440 0C419.04 0 402 17.04 402 38C402 50.64 408.24 61.68 417.68 68.64C398.64 71.68 384 88.08 384 108V160H400V108C400 94.8 410.8 84 424 84H456C469.2 84 480 94.8 480 108V160H496V108C496 88.08 481.36 71.68 462.32 68.64ZM440 60C427.84 60 418 50.16 418 38C418 25.84 427.84 16 440 16C452.16 16 462 25.84 462 38C462 50.16 452.16 60 440 60Z" fill="#044D45"/>
<path d="M487.84 200L344.24 202.4C341.36 202.4 338.8 204 337.36 206.56C335.92 209.12 336 212.08 337.52 214.56L358 248.64L248.24 314.48L187.92 276.8C186.519 275.925 184.879 275.509 183.23 275.609C181.582 275.71 180.005 276.322 178.72 277.36L3.03997 417.76C1.53199 418.998 0.528083 420.745 0.216852 422.671C-0.0943793 424.598 0.308479 426.571 1.34975 428.222C2.39102 429.872 3.99904 431.085 5.87175 431.634C7.74445 432.182 9.75296 432.028 11.52 431.2L183.84 349.52L211.92 367.04L220.4 353.44L188.64 333.6C186.32 332.16 183.44 332 180.96 333.12L66.8 387.2L184.48 293.2L244.16 330.48C246.72 332.08 249.92 332.08 252.48 330.48L373.28 258C375.12 256.88 376.4 255.12 376.96 253.04C377.44 250.96 377.12 248.8 376.08 246.96L358.56 217.92L474.4 216L418.16 317.28L400.72 288.24C399.6 286.4 397.84 285.12 395.84 284.56C393.84 284 391.6 284.4 389.76 285.44L276 353.68L284.24 367.36L391.12 303.2L411.6 337.28C413.04 339.76 415.52 340.96 418.56 341.2C421.44 341.2 424 339.6 425.44 337.12L495.12 211.6C496.48 209.12 496.48 206.08 494.96 203.6C493.52 201.12 490.72 199.76 488 199.68L487.84 200Z" fill="#044D45"/>
</svg>
