<svg width="460" height="460" viewBox="0 0 460 460" fill="none" xmlns="http://www.w3.org/2000/svg">
<path fill-rule="evenodd" clip-rule="evenodd" d="M121.284 289.479C119.958 289.479 118.686 288.952 117.748 288.015C116.81 287.078 116.283 285.806 116.282 284.48V274.573C116.326 273.277 116.872 272.049 117.805 271.148C118.738 270.247 119.984 269.743 121.281 269.743C122.578 269.743 123.824 270.247 124.756 271.148C125.689 272.049 126.235 273.277 126.28 274.573V284.48C126.28 287.241 124.045 289.479 121.284 289.479ZM148.396 296.752C147.552 296.752 146.686 296.533 145.907 296.072C144.758 295.409 143.92 294.317 143.576 293.036C143.232 291.754 143.411 290.389 144.073 289.24L149.022 280.668C149.35 280.099 149.787 279.6 150.308 279.2C150.829 278.8 151.424 278.506 152.059 278.336C152.693 278.166 153.355 278.122 154.006 278.208C154.657 278.293 155.286 278.506 155.855 278.834C156.424 279.163 156.923 279.6 157.323 280.121C157.723 280.642 158.016 281.236 158.187 281.871C158.357 282.505 158.4 283.167 158.315 283.818C158.23 284.47 158.017 285.098 157.688 285.667L152.74 294.242C151.812 295.845 150.12 296.752 148.396 296.752ZM168.262 316.594C167.162 316.594 166.093 316.232 165.221 315.563C164.348 314.893 163.72 313.955 163.435 312.893C163.15 311.831 163.224 310.704 163.644 309.688C164.065 308.672 164.809 307.823 165.761 307.272L174.333 302.312C175.483 301.652 176.847 301.474 178.128 301.818C179.408 302.162 180.501 302.998 181.166 304.145C181.827 305.295 182.005 306.66 181.662 307.941C181.319 309.222 180.482 310.315 179.335 310.981L170.76 315.927C170.001 316.367 169.139 316.597 168.262 316.594ZM185.427 343.718H175.526C174.221 343.687 172.98 343.146 172.068 342.211C171.156 341.277 170.645 340.023 170.645 338.718C170.645 337.412 171.156 336.158 172.068 335.224C172.98 334.29 174.221 333.749 175.526 333.717H185.43C186.756 333.717 188.028 334.244 188.965 335.182C189.903 336.12 190.43 337.392 190.43 338.718C190.43 340.044 189.903 341.316 188.965 342.254C188.028 343.191 186.753 343.718 185.427 343.718ZM176.825 375.791C175.981 375.791 175.113 375.573 174.333 375.112L165.761 370.166C164.612 369.503 163.774 368.41 163.43 367.129C163.086 365.848 163.265 364.483 163.928 363.333C164.592 362.186 165.685 361.349 166.966 361.006C168.247 360.664 169.612 360.845 170.76 361.509L179.335 366.457C180.481 367.123 181.318 368.215 181.661 369.496C182.004 370.776 181.826 372.141 181.166 373.29C180.725 374.051 180.092 374.683 179.33 375.122C178.569 375.561 177.705 375.792 176.825 375.791ZM153.365 399.271C152.485 399.271 151.62 399.038 150.858 398.598C150.096 398.157 149.462 397.524 149.022 396.762L144.073 388.187C143.46 387.041 143.316 385.701 143.673 384.451C144.03 383.201 144.859 382.139 145.985 381.49C147.111 380.84 148.445 380.654 149.706 380.971C150.967 381.288 152.055 382.083 152.74 383.188L157.688 391.76C159.061 394.157 158.249 397.219 155.855 398.595C155.063 399.053 154.207 399.271 153.365 399.271ZM121.284 407.855C120.627 407.856 119.976 407.727 119.369 407.476C118.762 407.225 118.211 406.857 117.746 406.393C117.282 405.929 116.913 405.377 116.662 404.77C116.411 404.163 116.281 403.513 116.282 402.856V392.958C116.326 391.662 116.872 390.434 117.805 389.533C118.738 388.632 119.984 388.128 121.281 388.128C122.578 388.128 123.824 388.632 124.756 389.533C125.689 390.434 126.235 391.662 126.28 392.958V402.856C126.28 405.626 124.045 407.855 121.284 407.855ZM89.2079 399.271C88.3634 399.271 87.4982 399.053 86.7187 398.592C86.149 398.265 85.6496 397.828 85.249 397.307C84.8484 396.786 84.5546 396.191 84.3842 395.556C84.2139 394.922 84.1705 394.26 84.2564 393.608C84.3423 392.957 84.556 392.329 84.885 391.76L89.8339 383.188C90.4987 382.041 91.5918 381.204 92.8731 380.863C94.1543 380.521 95.5188 380.702 96.6666 381.366C97.2342 381.694 97.7317 382.131 98.1305 382.651C98.5294 383.172 98.8217 383.765 98.9909 384.399C99.1601 385.032 99.2028 385.693 99.1166 386.343C99.0304 386.993 98.8169 387.619 98.4884 388.187L93.5425 396.762C92.6154 398.365 90.9382 399.271 89.2079 399.271ZM65.7423 375.791C64.8632 375.793 63.9992 375.562 63.2376 375.123C62.476 374.684 61.8437 374.052 61.4047 373.29C60.7424 372.141 60.5636 370.775 60.9074 369.494C61.2513 368.213 62.0896 367.121 63.2383 366.457L71.8132 361.512C72.9609 360.848 74.3254 360.667 75.6066 361.008C76.8879 361.35 77.981 362.186 78.6458 363.333C79.3057 364.483 79.4832 365.848 79.1396 367.128C78.7959 368.409 77.9591 369.501 76.8122 370.166L68.2403 375.115C67.4813 375.558 66.6211 375.791 65.7423 375.791ZM67.0415 343.718H57.1497C55.8446 343.687 54.6035 343.146 53.6916 342.211C52.7797 341.277 52.2693 340.023 52.2693 338.718C52.2693 337.412 52.7797 336.158 53.6916 335.224C54.6035 334.29 55.8446 333.749 57.1497 333.717H67.0444C68.3496 333.749 69.5907 334.29 70.5026 335.224C71.4145 336.158 71.9249 337.412 71.9249 338.718C71.9249 340.023 71.4145 341.277 70.5026 342.211C69.5907 343.146 68.3467 343.687 67.0415 343.718ZM74.3023 316.594C73.4579 316.594 72.5927 316.387 71.8132 315.927L63.2383 310.981C62.0899 310.317 61.2521 309.224 60.9089 307.942C60.5656 306.66 60.745 305.295 61.4076 304.145C62.0737 303 63.1662 302.164 64.4464 301.821C65.7266 301.478 67.0906 301.655 68.2403 302.315L76.8122 307.272C77.9578 307.936 78.7938 309.026 79.1369 310.304C79.4801 311.583 79.3024 312.945 78.6429 314.093C78.2025 314.854 77.5695 315.486 76.8076 315.925C76.0457 316.364 75.1817 316.595 74.3023 316.594ZM94.1656 296.752C93.2867 296.75 92.4238 296.518 91.6634 296.077C90.903 295.637 90.272 295.004 89.8339 294.242L84.885 285.667C84.5561 285.099 84.3425 284.472 84.2565 283.822C84.1705 283.171 84.2138 282.51 84.3839 281.876C84.554 281.243 84.8476 280.649 85.2477 280.129C85.6479 279.609 86.1467 279.173 86.7157 278.846C87.2834 278.517 87.9105 278.302 88.5611 278.216C89.2117 278.129 89.873 278.171 90.5071 278.341C91.1412 278.51 91.7358 278.803 92.2566 279.202C92.7775 279.601 93.2145 280.099 93.5425 280.668L98.4884 289.24C98.9292 290 99.1621 290.862 99.1637 291.741C99.1652 292.62 98.9353 293.483 98.4971 294.245C98.0588 295.006 97.4278 295.639 96.6674 296.079C95.907 296.519 95.0441 296.751 94.1656 296.752ZM98.9077 356.645C97.8051 356.649 96.7322 356.288 95.8563 355.618C94.9804 354.949 94.3507 354.008 94.0652 352.943C93.7797 351.878 93.8546 350.748 94.2781 349.73C94.7017 348.712 95.4501 347.863 96.4067 347.315L116.279 335.831V302.468C116.311 301.163 116.851 299.922 117.786 299.01C118.72 298.098 119.974 297.588 121.279 297.588C122.585 297.588 123.839 298.098 124.773 299.01C125.707 299.922 126.248 301.163 126.28 302.468V338.719C126.28 340.5 125.335 342.156 123.782 343.051L101.406 355.969C100.614 356.427 99.7522 356.645 98.9077 356.645Z" fill="#044D45"/>
<path fill-rule="evenodd" clip-rule="evenodd" d="M121.284 256.626C76.0209 256.626 39.197 293.459 39.197 338.719C39.197 383.979 76.0179 420.812 121.284 420.812C166.55 420.812 203.373 383.979 203.373 338.719C203.373 293.459 166.555 256.626 121.284 256.626ZM121.284 430.813C70.511 430.813 29.1989 389.501 29.1989 338.719C29.1989 287.938 70.5081 246.625 121.281 246.625C172.062 246.625 213.377 287.938 213.377 338.719C213.377 389.501 172.062 430.816 121.281 430.816L121.284 430.813Z" fill="#044D45"/>
<path fill-rule="evenodd" clip-rule="evenodd" d="M121.284 228.416C60.4687 228.416 10.9892 277.895 10.9892 338.719C10.9892 399.531 60.4687 449.011 121.281 449.011C182.105 449.011 231.584 399.531 231.584 338.719C231.584 277.895 182.108 228.416 121.284 228.416ZM121.284 459.012C54.947 459.012 0.98822 405.053 0.98822 338.719C0.98822 272.385 54.947 218.418 121.284 218.418C187.615 218.418 241.582 272.385 241.582 338.719C241.582 405.053 187.618 459.012 121.284 459.012ZM111.761 65.0336C99.2916 65.0336 89.1341 75.1882 89.1341 87.6577C89.1341 100.136 99.2916 110.294 111.761 110.294C124.239 110.294 134.385 100.136 134.385 87.6547C134.385 75.1882 124.239 65.0336 111.761 65.0336ZM111.761 120.28C93.7728 120.28 79.1331 105.646 79.1331 87.6577C79.136 69.6665 93.7699 55.0297 111.761 55.0297C129.749 55.0297 144.386 69.6665 144.386 87.6577C144.386 105.646 129.749 120.28 111.761 120.28Z" fill="#044D45"/>
<path fill-rule="evenodd" clip-rule="evenodd" d="M95.075 164.323H128.45V144.489C128.45 142.417 129.729 140.553 131.669 139.812C137.204 137.699 142.366 134.713 146.958 130.969C147.744 130.328 148.706 129.942 149.717 129.862C150.727 129.782 151.739 130.011 152.615 130.52L169.812 140.447L186.501 111.54L169.313 101.615C168.438 101.109 167.736 100.35 167.3 99.4367C166.865 98.5237 166.717 97.5003 166.874 96.5012C167.335 93.5839 167.574 90.6164 167.574 87.6577C167.574 84.699 167.332 81.7285 166.874 78.823C166.715 77.8239 166.863 76.8 167.299 75.8867C167.734 74.9735 168.437 74.2141 169.313 73.7088L186.498 63.7816L169.815 34.8741L152.615 44.8013C151.738 45.308 150.728 45.5367 149.717 45.4571C148.707 45.3775 147.745 44.9934 146.958 44.3554C142.365 40.6108 137.202 37.6253 131.666 35.5119C130.719 35.1493 129.905 34.5082 129.33 33.6731C128.755 32.8381 128.448 31.8484 128.447 30.8347V10.9892H95.078V30.8318C95.078 32.9076 93.7935 34.7708 91.8594 35.5119C86.322 37.6252 81.1583 40.6108 76.5641 44.3554C75.7774 44.9931 74.8157 45.3771 73.8061 45.4567C72.7966 45.5363 71.7866 45.3078 70.9096 44.8013L53.7127 34.8741L37.0237 63.7816L54.2117 73.7088C56.0041 74.7394 56.9814 76.7708 56.6478 78.823C56.1901 81.7285 55.9509 84.699 55.9509 87.6547C55.9509 90.6252 56.1901 93.5927 56.6478 96.5012C56.808 97.5001 56.6608 98.5241 56.2258 99.4375C55.7907 100.351 55.0883 101.11 54.2117 101.615L37.0267 111.543L53.7098 140.45L70.9096 130.52C71.7861 130.011 72.7967 129.782 73.8069 129.862C74.8171 129.942 75.7788 130.328 76.5641 130.969C81.1599 134.711 86.3232 137.696 91.8594 139.812C93.7935 140.55 95.078 142.408 95.078 144.478L95.075 164.323ZM133.449 174.324H90.073C89.4162 174.325 88.7657 174.195 88.1588 173.944C87.552 173.693 87.0006 173.324 86.5363 172.86C86.072 172.395 85.7038 171.844 85.4529 171.237C85.202 170.63 85.0732 169.979 85.074 169.322V147.823C80.8165 145.935 76.7721 143.599 73.009 140.855L54.386 151.603C51.9883 152.99 48.9381 152.167 47.5533 149.781L25.8652 112.21C25.536 111.641 25.3221 111.013 25.2359 110.361C25.1497 109.71 25.1929 109.047 25.3629 108.412C25.533 107.777 25.8266 107.182 26.2269 106.661C26.6272 106.14 27.1264 105.702 27.6959 105.374L46.3249 94.6262C45.8241 89.997 45.8241 85.3272 46.3249 80.698L27.6989 69.9382C27.1296 69.6117 26.6305 69.176 26.23 68.6561C25.8296 68.1362 25.5357 67.5423 25.3654 66.9086C25.195 66.2748 25.1515 65.6137 25.2372 64.9631C25.323 64.3125 25.5364 63.6852 25.8652 63.1173L47.5533 25.5404C48.2156 24.3934 49.3046 23.5549 50.5828 23.2078C51.8675 22.874 53.2318 23.0541 54.386 23.7097L73.012 34.4696C76.7762 31.7255 80.8192 29.3858 85.074 27.4893V5.9902C85.074 3.22936 87.3122 0.98822 90.073 0.98822H133.449C136.21 0.98822 138.448 3.22936 138.448 5.9902V27.4893C142.705 29.3808 146.749 31.7208 150.51 34.4696L169.148 23.7097C169.716 23.3812 170.343 23.1679 170.993 23.0821C171.644 22.9964 172.305 23.0397 172.938 23.2098C173.572 23.3798 174.166 23.6732 174.686 24.0732C175.206 24.4731 175.642 24.9717 175.969 25.5404L197.666 63.1143C197.995 63.6821 198.208 64.3092 198.294 64.9597C198.38 65.6102 198.337 66.2712 198.167 66.9049C197.997 67.5387 197.703 68.1326 197.303 68.6526C196.903 69.1726 196.404 69.6085 195.835 69.9352L177.209 80.698C177.69 85.3283 177.69 89.9959 177.209 94.6262L195.835 105.374C196.981 106.042 197.822 107.137 198.168 108.416C198.508 109.697 198.328 111.061 197.666 112.21L175.969 149.778C175.641 150.346 175.205 150.844 174.684 151.243C174.164 151.642 173.57 151.934 172.937 152.104C172.303 152.273 171.642 152.316 170.992 152.23C170.342 152.144 169.716 151.931 169.148 151.603L150.51 140.852C146.749 143.6 142.705 145.94 138.448 147.832V169.319C138.448 172.092 136.207 174.324 133.449 174.324ZM397.701 429.543H291.242C289.916 429.543 288.644 429.017 287.706 428.079C286.768 427.142 286.241 425.87 286.24 424.544V353.397C286.24 350.628 288.481 348.398 291.242 348.398C294.003 348.398 296.241 350.628 296.241 353.397V419.542H397.701C399.006 419.574 400.247 420.115 401.159 421.049C402.071 421.983 402.581 423.237 402.581 424.543C402.581 425.848 402.071 427.102 401.159 428.036C400.247 428.971 399.006 429.511 397.701 429.543Z" fill="#044D45"/>
<path fill-rule="evenodd" clip-rule="evenodd" d="M324.375 429.543C323.049 429.543 321.777 429.017 320.839 428.079C319.901 427.142 319.373 425.87 319.373 424.544V394.668C319.404 393.363 319.945 392.122 320.879 391.21C321.814 390.298 323.068 389.788 324.373 389.788C325.679 389.788 326.933 390.298 327.867 391.21C328.801 392.122 329.342 393.363 329.374 394.668V424.544C329.374 427.305 327.135 429.543 324.375 429.543ZM353.158 429.543C351.832 429.543 350.56 429.017 349.622 428.079C348.684 427.142 348.157 425.87 348.156 424.544V384.897C348.188 383.592 348.729 382.351 349.663 381.439C350.597 380.527 351.851 380.017 353.157 380.017C354.462 380.017 355.716 380.527 356.65 381.439C357.585 382.351 358.125 383.592 358.157 384.897V424.544C358.157 427.305 355.919 429.543 353.158 429.543ZM381.951 429.543C380.624 429.543 379.353 429.017 378.415 428.079C377.477 427.142 376.949 425.87 376.949 424.544V371.914C376.98 370.609 377.521 369.368 378.455 368.456C379.39 367.544 380.643 367.034 381.949 367.034C383.255 367.034 384.508 367.544 385.443 368.456C386.377 369.368 386.918 370.609 386.95 371.914V424.541C386.95 427.299 384.708 429.543 381.951 429.543ZM323.698 369.012C322.82 369.013 321.956 368.782 321.195 368.343C320.434 367.904 319.803 367.272 319.364 366.511C319.035 365.942 318.821 365.314 318.735 364.662C318.649 364.011 318.693 363.348 318.863 362.714C319.033 362.079 319.327 361.484 319.728 360.963C320.128 360.442 320.628 360.005 321.197 359.678L373.875 329.264C375.024 328.603 376.389 328.424 377.67 328.767C378.95 329.11 380.043 329.947 380.707 331.095C381.366 332.245 381.543 333.609 381.2 334.889C380.857 336.169 380.022 337.261 378.877 337.928L326.199 368.335C325.408 368.793 324.552 369.012 323.698 369.012Z" fill="#044D45"/>
<path fill-rule="evenodd" clip-rule="evenodd" d="M370.833 359.262C370.068 359.259 369.312 359.082 368.626 358.742C367.939 358.403 367.34 357.91 366.873 357.303C366.406 356.696 366.085 355.99 365.934 355.239C365.782 354.488 365.805 353.713 366 352.972L370.252 337.128L354.407 332.887C353.141 332.529 352.067 331.687 351.418 330.543C350.768 329.399 350.595 328.046 350.935 326.775C351.276 325.504 352.103 324.419 353.238 323.754C354.373 323.088 355.725 322.897 357 323.22L377.669 328.762C378.948 329.105 380.043 329.949 380.71 331.095C381.366 332.241 381.543 333.605 381.198 334.886L375.667 355.565C375.378 356.626 374.749 357.562 373.875 358.23C373.002 358.898 371.933 359.261 370.833 359.262Z" fill="#044D45"/>
<path fill-rule="evenodd" clip-rule="evenodd" d="M167.084 237.876C165.757 237.876 164.485 237.349 163.547 236.411C162.609 235.473 162.082 234.201 162.082 232.874V144.646C162.082 141.876 164.323 139.647 167.084 139.647C169.845 139.647 172.083 141.876 172.083 144.646V232.874C172.083 235.635 169.845 237.876 167.084 237.876ZM454.01 459.009H121.284C119.979 458.977 118.737 458.436 117.826 457.502C116.914 456.568 116.403 455.314 116.403 454.008C116.403 452.703 116.914 451.449 117.826 450.515C118.737 449.58 119.979 449.039 121.284 449.008H449.011V122.784H188.666C187.37 122.739 186.142 122.193 185.24 121.26C184.339 120.328 183.836 119.082 183.836 117.785C183.836 116.488 184.339 115.242 185.24 114.309C186.142 113.376 187.37 112.83 188.666 112.786H454.013C456.774 112.786 459.012 115.024 459.012 117.785V454.016C459.012 456.785 456.774 459.015 454.013 459.015L454.01 459.009Z" fill="#044D45"/>
<path fill-rule="evenodd" clip-rule="evenodd" d="M401.834 122.781C400.508 122.781 399.237 122.254 398.299 121.317C397.361 120.379 396.833 119.108 396.833 117.782V70.6143H193.334C192.029 70.5826 190.788 70.0419 189.876 69.1075C188.964 68.1732 188.454 66.9194 188.454 65.6138C188.454 64.3083 188.964 63.0545 189.876 62.1201C190.788 61.1858 192.029 60.6451 193.334 60.6133H401.834C403.166 60.6133 404.439 61.136 405.378 62.072C406.314 63.011 406.833 64.2807 406.833 65.6153V117.782C406.833 120.543 404.592 122.781 401.834 122.781ZM114.906 228.593C113.58 228.592 112.309 228.065 111.372 227.128C110.434 226.191 109.908 224.92 109.907 223.594V169.322C109.951 168.026 110.497 166.798 111.43 165.897C112.363 164.996 113.609 164.492 114.906 164.492C116.203 164.492 117.449 164.996 118.381 165.897C119.314 166.798 119.86 168.026 119.905 169.322V223.594C119.905 226.355 117.667 228.593 114.906 228.593ZM417.638 217.656H217.928C216.632 217.611 215.403 217.065 214.502 216.133C213.601 215.2 213.097 213.954 213.097 212.657C213.097 211.36 213.601 210.114 214.502 209.181C215.403 208.249 216.632 207.702 217.928 207.658H417.638C418.963 207.658 420.235 208.185 421.173 209.122C422.11 210.06 422.637 211.331 422.637 212.657C422.637 213.983 422.11 215.254 421.173 216.192C420.235 217.129 418.963 217.656 417.638 217.656ZM417.638 246.354H217.928C216.632 246.309 215.403 245.763 214.502 244.83C213.601 243.898 213.097 242.652 213.097 241.355C213.097 240.058 213.601 238.812 214.502 237.879C215.403 236.947 216.632 236.4 217.928 236.356H417.638C418.934 236.4 420.162 236.947 421.063 237.879C421.964 238.812 422.468 240.058 422.468 241.355C422.468 242.652 421.964 243.898 421.063 244.83C420.162 245.763 418.934 246.309 417.638 246.354ZM417.638 275.043H250.626C249.321 275.011 248.08 274.47 247.168 273.536C246.256 272.602 245.746 271.348 245.746 270.042C245.746 268.737 246.256 267.483 247.168 266.549C248.08 265.614 249.321 265.074 250.626 265.042H417.638C418.943 265.074 420.184 265.614 421.096 266.549C422.008 267.483 422.518 268.737 422.518 270.042C422.518 271.348 422.008 272.602 421.096 273.536C420.184 274.47 418.943 275.011 417.638 275.043ZM417.638 303.729H250.626C249.321 303.697 248.08 303.156 247.168 302.222C246.256 301.288 245.746 300.034 245.746 298.728C245.746 297.423 246.256 296.169 247.168 295.235C248.08 294.3 249.321 293.76 250.626 293.728H417.638C418.943 293.76 420.184 294.3 421.096 295.235C422.008 296.169 422.518 297.423 422.518 298.728C422.518 300.034 422.008 301.288 421.096 302.222C420.184 303.156 418.943 303.697 417.638 303.729ZM337.219 156.658H283.875C282.569 156.626 281.328 156.085 280.416 155.151C279.505 154.217 278.994 152.963 278.994 151.657C278.994 150.352 279.505 149.098 280.416 148.164C281.328 147.229 282.569 146.689 283.875 146.657H337.219C338.524 146.689 339.765 147.229 340.677 148.164C341.589 149.098 342.1 150.352 342.1 151.657C342.1 152.963 341.589 154.217 340.677 155.151C339.765 156.085 338.524 156.626 337.219 156.658ZM368.888 179.385H252.212C250.916 179.341 249.688 178.794 248.787 177.862C247.886 176.929 247.382 175.683 247.382 174.386C247.382 173.089 247.886 171.843 248.787 170.911C249.688 169.978 250.916 169.432 252.212 169.387H368.888C370.184 169.432 371.412 169.978 372.313 170.911C373.214 171.843 373.718 173.089 373.718 174.386C373.718 175.683 373.214 176.929 372.313 177.862C371.412 178.794 370.184 179.341 368.888 179.385Z" fill="#044D45"/>
</svg>
