<svg width="153" height="157" viewBox="0 0 153 157" fill="none" xmlns="http://www.w3.org/2000/svg">
<path d="M138.017 105.74H124.397C134.158 94.617 140.06 79.862 140.06 63.972C140.06 29.014 111.458 0.412003 76.5 0.412003C41.542 0.412003 12.94 29.014 12.94 63.972C12.94 79.862 18.842 94.617 28.603 105.74H14.983C6.81103 105.74 0.228027 112.323 0.228027 120.495V141.833C0.228027 150.005 6.81103 156.588 14.983 156.588H138.017C146.189 156.588 152.772 150.005 152.772 141.833V120.495C152.772 112.323 146.189 105.74 138.017 105.74ZM121.446 98.022C115.544 95.525 108.507 93.709 100.789 92.347C102.378 84.856 103.286 76.684 103.286 67.604H132.569C131.888 78.954 127.802 89.396 121.446 98.022ZM116.452 103.697C115.771 104.378 114.863 105.059 114.182 105.74H97.157C97.838 103.697 98.519 101.654 99.2 99.384C105.556 100.292 111.231 101.881 116.452 103.697ZM132.569 60.34H103.513C103.286 51.487 102.378 43.088 101.016 35.597C108.734 34.235 115.544 32.419 121.446 29.922C127.802 38.548 131.888 48.99 132.569 60.34ZM116.452 24.247C111.458 26.063 105.556 27.652 99.2 28.56C97.157 20.842 94.206 14.259 90.801 9.492C100.562 11.989 109.415 17.21 116.452 24.247ZM76.5 90.304C70.598 90.304 64.923 90.758 59.475 91.212C58.113 84.175 57.205 76.23 56.978 67.604H96.249C96.022 76.457 95.114 84.402 93.752 91.212C88.077 90.758 82.402 90.304 76.5 90.304ZM91.936 98.476C91.255 101.2 90.347 103.697 89.439 105.74H63.561C62.653 103.47 61.745 100.973 61.064 98.476C66.058 98.022 71.052 97.568 76.5 97.568C81.721 97.568 86.942 97.795 91.936 98.476ZM56.751 60.34C56.978 51.487 57.886 43.542 59.248 36.732C64.696 37.413 70.371 37.64 76.273 37.64C82.175 37.64 87.85 37.186 93.298 36.732C94.66 43.769 95.568 51.714 95.795 60.34H56.751ZM76.5 7.676C81.948 7.676 88.077 15.848 91.936 29.468C86.942 29.922 81.948 30.376 76.5 30.376C71.279 30.376 66.058 30.149 61.064 29.468C64.923 15.848 71.052 7.676 76.5 7.676ZM62.199 9.492C58.794 14.259 56.07 20.842 53.8 28.56C47.444 27.425 41.542 26.063 36.548 24.247C43.585 17.21 52.438 11.989 62.199 9.492ZM55.843 105.74H38.818C38.137 105.059 37.229 104.378 36.548 103.697C41.542 101.881 47.444 100.292 53.8 99.384C54.481 101.654 55.162 103.697 55.843 105.74ZM31.554 29.922C37.456 32.419 44.493 34.235 52.211 35.597C50.622 43.088 49.714 51.26 49.714 60.34H20.431C21.112 48.99 25.198 38.548 31.554 29.922ZM20.431 67.604H49.714C49.941 76.457 50.849 84.856 52.211 92.347C44.493 93.709 37.456 95.525 31.554 98.022C25.198 89.396 21.112 78.954 20.431 67.604ZM145.508 141.833C145.508 145.919 142.103 149.324 138.017 149.324H14.983C10.897 149.324 7.49203 145.919 7.49203 141.833V120.495C7.49203 116.409 10.897 113.004 14.983 113.004H138.017C142.103 113.004 145.508 116.409 145.508 120.495V141.833Z" fill="#044D45"/>
<path d="M52.892 134.342L50.622 117.09H45.174L42.677 134.115L40.407 117.09H34.278L38.591 145.238H44.72L47.671 128.44L50.395 145.238H56.751L61.064 117.09H55.389L52.892 134.342ZM81.721 134.342L79.451 117.09H74.23L71.506 134.115L69.463 117.09H63.334L67.42 145.238H73.776L76.727 128.44L79.451 145.238H85.807L90.12 117.09H84.218L81.721 134.342ZM110.777 134.342L108.507 117.09H103.059L100.562 134.115L98.292 117.09H92.163L96.476 145.238H102.605L105.556 128.44L108.28 145.238H114.636L118.949 117.09H113.274L110.777 134.342Z" fill="#044D45"/>
</svg>
