<svg width="77" height="69" viewBox="0 0 77 69" fill="none" xmlns="http://www.w3.org/2000/svg">
<path d="M73.0056 9.45575C72.9553 9.18858 72.8114 8.94811 72.5997 8.77757C72.388 8.60702 72.1224 8.51758 71.8506 8.52533H68.8348C68.5519 7.85768 68.1968 7.22294 67.776 6.63241L69.0915 4.32241C69.1752 4.18429 69.2298 4.03049 69.2518 3.87048C69.2739 3.71047 69.263 3.54763 69.2198 3.392C69.1832 3.23433 69.1125 3.08659 69.0127 2.95912C68.913 2.83165 68.7865 2.72754 68.6423 2.65408L64.9527 0.504497C64.6654 0.348768 64.3295 0.308534 64.0135 0.392002C63.6975 0.47547 63.4252 0.67635 63.2523 0.953663L61.9369 3.26366C61.2128 3.16741 60.4793 3.16741 59.7552 3.26366L58.4077 0.953663C58.2418 0.677434 57.9753 0.476289 57.6642 0.392522C57.353 0.308755 57.0215 0.348894 56.7394 0.504497L53.0177 2.65408C52.8775 2.73291 52.7544 2.8387 52.6552 2.96534C52.5561 3.09199 52.483 3.23699 52.4402 3.392C52.3694 3.70747 52.415 4.03788 52.5685 4.32241L53.916 6.63241C53.4733 7.21312 53.1075 7.85158 52.8252 8.52533H49.8415C49.6462 8.52194 49.4531 8.56706 49.2795 8.65665C49.1059 8.74624 48.9573 8.8775 48.8469 9.03866H6.19209C4.54464 9.0446 2.9666 9.70278 1.80317 10.8692C0.639749 12.0356 -0.014351 13.6154 -0.016037 15.2628V54.982C-0.0143383 56.6322 0.641966 58.2144 1.80886 59.3813C2.97575 60.5482 4.5579 61.2045 6.20813 61.2062H22.346V66.147H18.1913C17.8594 66.147 17.5411 66.2788 17.3065 66.5135C17.0718 66.7481 16.94 67.0664 16.94 67.3982C16.9481 67.7275 17.0826 68.0411 17.3155 68.274C17.5484 68.5069 17.862 68.6414 18.1913 68.6495H58.7767C59.106 68.6414 59.4195 68.5069 59.6524 68.274C59.8853 68.0411 60.0198 67.7275 60.0279 67.3982C60.0279 67.0664 59.8961 66.7481 59.6614 66.5135C59.4268 66.2788 59.1085 66.147 58.7767 66.147H54.6379V61.2062H70.7438C72.3945 61.2087 73.9789 60.5561 75.1489 59.3915C76.3189 58.2269 76.9789 56.6456 76.984 54.9948V51.1769C77.0257 51.074 77.0257 50.959 76.984 50.8561V15.2628C76.9787 14.0078 76.5966 12.7832 75.8873 11.7478C75.178 10.7124 74.1741 9.91393 73.0056 9.45575ZM51.0606 11.0086H53.6915C53.9556 11.0088 54.2131 10.925 54.4265 10.7693C54.6399 10.6136 54.7982 10.394 54.8785 10.1423C54.9946 9.76576 55.145 9.40062 55.3277 9.0515C55.5812 8.53175 55.918 8.0537 56.3223 7.63983C56.4932 7.4375 56.5985 7.18798 56.6243 6.92439C56.6501 6.66081 56.5951 6.39561 56.4667 6.164H56.4827L55.3277 4.17483L56.8998 3.2765L58.0548 5.26566C58.1823 5.49889 58.3844 5.68257 58.6287 5.78728C58.8731 5.89199 59.1455 5.91167 59.4023 5.84316C60.3488 5.5865 61.3433 5.5865 62.2898 5.84316C62.5466 5.90499 62.8166 5.88217 63.0594 5.77811C63.3022 5.67404 63.5049 5.4943 63.6373 5.26566L64.7923 3.2765L66.3644 4.17483L65.2094 6.164C65.0751 6.3949 65.0182 6.66272 65.0471 6.92827C65.0759 7.19383 65.189 7.44317 65.3698 7.63983C65.774 8.0537 66.1109 8.53175 66.3644 9.0515C66.5344 9.40762 66.682 9.77016 66.8135 10.1423C66.8821 10.3947 67.033 10.617 67.2422 10.7739C67.4514 10.9309 67.7071 11.0134 67.9685 11.0086H70.6315V12.8373H67.9685C67.7071 12.8325 67.4514 12.9151 67.2422 13.072C67.033 13.2289 66.8821 13.4512 66.8135 13.7036C66.5145 14.6304 66.0225 15.4833 65.3698 16.2061C65.1829 16.3926 65.0652 16.6373 65.036 16.8998C65.0069 17.1622 65.068 17.4268 65.2094 17.6498L66.3644 19.6711L64.7923 20.5694L63.6373 18.5802C63.503 18.352 63.3014 18.171 63.0602 18.0618C62.8189 17.9527 62.5499 17.9208 62.2898 17.9707C61.3433 18.2273 60.3488 18.2273 59.4023 17.9707C59.1419 17.9083 58.8681 17.9344 58.6242 18.0447C58.3802 18.1551 58.1799 18.3435 58.0548 18.5802L56.8998 20.5694L55.3277 19.6711L56.4827 17.6498C56.6081 17.422 56.66 17.161 56.6313 16.9025C56.6026 16.6441 56.4947 16.4008 56.3223 16.2061C56.0715 15.9502 55.8459 15.6709 55.6485 15.3719C55.3206 14.8515 55.0618 14.2907 54.8785 13.7036C54.8009 13.4503 54.6432 13.229 54.4292 13.0728C54.2152 12.9166 53.9564 12.834 53.6915 12.8373H51.0606V11.0086ZM52.1354 66.147H24.8004V61.2062H52.1354V66.147ZM74.4975 54.982C74.4899 55.9722 74.0909 56.9193 73.3877 57.6165C72.6845 58.3137 71.734 58.7045 70.7438 58.7037H6.19209C5.20181 58.7045 4.25137 58.3137 3.54814 57.6165C2.84491 56.9193 2.44596 55.9722 2.43834 54.982V52.2549H74.4975V54.982ZM74.5135 49.7652H2.43834V15.2628C2.44003 14.2678 2.83606 13.314 3.53966 12.6104C4.24326 11.9068 5.19705 11.5108 6.19209 11.5091H48.5742V14.0437C48.575 14.2046 48.6075 14.3638 48.6699 14.5122C48.7323 14.6606 48.8233 14.7952 48.9377 14.9084C49.0521 15.0216 49.1877 15.1112 49.3367 15.172C49.4857 15.2328 49.6452 15.2637 49.8062 15.2628H52.1033L41.8046 25.1766H34.634V18.792C34.6374 18.1753 34.3961 17.5825 33.9631 17.1435C33.5301 16.7044 32.9406 16.455 32.324 16.4499H7.25084C6.6342 16.455 6.04473 16.7044 5.6117 17.1435C5.17867 17.5825 4.93742 18.1753 4.94084 18.792V41.4749C4.93442 42.7582 5.96751 43.8074 7.25084 43.817H32.3079C33.5913 43.8074 34.6243 42.7582 34.6179 41.4749V36.1491H41.9008L48.7667 44.972C48.7667 44.9912 48.7795 45.0041 48.7988 45.0041C48.897 45.135 49.0306 45.2352 49.1838 45.2928C49.357 45.3987 49.5591 45.4532 49.7613 45.4532H71.6742C71.836 45.4558 71.9967 45.4264 72.1471 45.3669C72.2976 45.3073 72.4348 45.2187 72.551 45.1061C72.6672 44.9934 72.7601 44.859 72.8243 44.7105C72.8886 44.562 72.9229 44.4023 72.9254 44.2405V44.202C72.9254 43.8701 72.7936 43.5519 72.5589 43.3172C72.3243 43.0826 72.006 42.9507 71.6742 42.9507H70.5673V30.1495C70.5673 29.9852 70.5349 29.8225 70.4721 29.6707C70.4092 29.5189 70.317 29.3809 70.2008 29.2647C70.0846 29.1485 69.9467 29.0564 69.7949 28.9935C69.6431 28.9306 69.4804 28.8982 69.316 28.8982C69.1543 28.8957 68.9935 28.925 68.8431 28.9846C68.6926 29.0442 68.5554 29.1328 68.4392 29.2454C68.323 29.3581 68.2301 29.4925 68.1659 29.641C68.1017 29.7895 68.0673 29.9492 68.0648 30.111V42.9507H65.466V33.3578C65.4686 33.196 65.4392 33.0353 65.3797 32.8849C65.3201 32.7344 65.2315 32.5972 65.1189 32.481C65.0062 32.3648 64.8718 32.2719 64.7233 32.2077C64.5748 32.1434 64.4151 32.1091 64.2533 32.1066H64.2148C64.0505 32.1066 63.8878 32.1389 63.736 32.2018C63.5842 32.2647 63.4462 32.3569 63.33 32.4731C63.2138 32.5893 63.1217 32.7272 63.0588 32.879C62.9959 33.0308 62.9635 33.1935 62.9635 33.3578V42.9507H60.6215V36.5662C60.624 36.4044 60.5947 36.2437 60.5351 36.0932C60.4755 35.9428 60.3869 35.8055 60.2743 35.6893C60.1617 35.5731 60.0273 35.4803 59.8787 35.416C59.7302 35.3518 59.5705 35.3174 59.4087 35.3149H59.3702C59.0384 35.3149 58.7201 35.4467 58.4854 35.6814C58.2508 35.916 58.119 36.2343 58.119 36.5662V42.9507H55.809V39.7745C55.809 39.4469 55.6788 39.1327 55.4472 38.9011C55.2155 38.6694 54.9014 38.5393 54.5738 38.5393C54.2462 38.5393 53.932 38.6694 53.7003 38.9011C53.4687 39.1327 53.3385 39.4469 53.3385 39.7745V42.9507H50.3869L43.521 34.1278C43.4037 33.9763 43.2528 33.854 43.0802 33.7705C42.9077 33.687 42.7181 33.6446 42.5265 33.6466H34.634V27.6598H41.9169C42.3793 27.6604 42.8253 27.4889 43.1681 27.1786L53.8198 17.0402C53.8519 17.0723 53.884 17.1365 53.916 17.1686L52.5685 19.4786C52.4146 19.7746 52.3692 20.1151 52.4402 20.4411C52.5365 20.7491 52.7418 21.0122 53.0177 21.179L56.7394 23.3286C57.0245 23.4857 57.3603 23.5233 57.6731 23.4331C57.9859 23.3428 58.2501 23.1322 58.4077 22.8473L59.7552 20.5694C60.4803 20.6657 61.2118 20.6657 61.9369 20.5694L63.2523 22.8473C63.4769 23.2387 63.8908 23.4826 64.3431 23.489C64.5556 23.481 64.7638 23.4262 64.9527 23.3286L68.6423 21.179C68.7835 21.1015 68.9075 20.9961 69.0067 20.8693C69.106 20.7424 69.1785 20.5968 69.2198 20.4411C69.2629 20.2801 69.2738 20.1122 69.2517 19.947C69.2297 19.7818 69.1752 19.6226 69.0915 19.4786L67.776 17.1686C68.1963 16.5782 68.5525 15.943 68.8348 15.2757H71.8506C72.5244 15.2757 73.0698 14.7302 73.0698 14.0565V12.3561C73.9874 13.0459 74.5232 14.1271 74.5135 15.2757V49.7652ZM32.1154 18.792V41.3145L7.44334 41.4749L7.25084 18.9845L32.1154 18.792Z" fill="#044D45"/>
<path d="M60.83 16.3344C62.0032 16.331 63.1274 15.8635 63.957 15.0339C64.7866 14.2043 65.2541 13.0801 65.2575 11.9069C65.2629 11.7777 65.2521 11.6484 65.2254 11.5219C65.1586 10.6032 64.7859 9.73345 64.1667 9.0515C63.7634 8.55674 63.2543 8.15869 62.6768 7.88663C62.0994 7.61456 61.4683 7.47542 60.83 7.47942C60.1876 7.47832 59.5527 7.61858 58.9705 7.89027C58.3884 8.16195 57.8731 8.5584 57.4613 9.0515C56.8421 9.73345 56.4693 10.6032 56.4025 11.5219C56.3758 11.6484 56.365 11.7777 56.3704 11.9069C56.3789 13.0841 56.8525 14.2102 57.6879 15.0396C58.5233 15.869 59.6528 16.3344 60.83 16.3344ZM58.8729 11.5219C58.9629 11.0692 59.2071 10.6618 59.5641 10.3692C59.921 10.0767 60.3685 9.91708 60.83 9.91775C61.0897 9.91771 61.3469 9.96938 61.5864 10.0697C61.826 10.1701 62.0432 10.3171 62.2253 10.5023C62.4075 10.6874 62.551 10.907 62.6474 11.1481C62.7439 11.3893 62.7914 11.6472 62.7871 11.9069C62.7892 12.166 62.7403 12.423 62.6431 12.6632C62.5458 12.9034 62.4023 13.1221 62.2205 13.3068C62.0388 13.4916 61.8225 13.6387 61.5839 13.7398C61.3453 13.8409 61.0891 13.894 60.83 13.8961C60.5362 13.8952 60.2463 13.8295 59.9807 13.7038C59.7152 13.5781 59.4807 13.3954 59.2938 13.1687C59.107 12.942 58.9724 12.6769 58.8996 12.3923C58.8269 12.1076 58.8178 11.8105 58.8729 11.5219ZM11.165 28.8148H27.5756C27.74 28.8148 27.9027 28.7825 28.0545 28.7196C28.2063 28.6567 28.3442 28.5645 28.4604 28.4484C28.5766 28.3322 28.6688 28.1942 28.7316 28.0424C28.7945 27.8906 28.8269 27.7279 28.8269 27.5636C28.8294 27.4018 28.8001 27.2411 28.7405 27.0906C28.6809 26.9402 28.5923 26.8029 28.4797 26.6867C28.3671 26.5706 28.2327 26.4777 28.0842 26.4134C27.9356 26.3492 27.7759 26.3148 27.6141 26.3123H11.165C11.0032 26.3098 10.8425 26.3391 10.6921 26.3987C10.5416 26.4583 10.4044 26.5469 10.2882 26.6595C10.172 26.7721 10.0791 26.9065 10.0149 27.0551C9.95062 27.2036 9.91627 27.3633 9.91376 27.5251V27.5636C9.91376 28.2534 10.4752 28.8148 11.165 28.8148ZM11.1265 33.6594H27.5756C27.7374 33.662 27.8981 33.6326 28.0486 33.573C28.199 33.5135 28.3363 33.4248 28.4525 33.3122C28.5687 33.1996 28.6615 33.0652 28.7258 32.9167C28.79 32.7682 28.8244 32.6085 28.8269 32.4467V32.4082C28.8269 32.0763 28.6951 31.7581 28.4604 31.5234C28.2257 31.2887 27.9075 31.1569 27.5756 31.1569H11.165C10.8332 31.1569 10.5149 31.2887 10.2802 31.5234C10.0456 31.7581 9.91376 32.0763 9.91376 32.4082C9.91121 32.57 9.94056 32.7307 10.0001 32.8811C10.0597 33.0316 10.1483 33.1688 10.2609 33.285C10.3736 33.4012 10.508 33.4941 10.6565 33.5583C10.805 33.6225 10.9647 33.6569 11.1265 33.6594ZM11.1265 23.9253H17.9506C18.1124 23.9279 18.2731 23.8985 18.4236 23.839C18.574 23.7794 18.7113 23.6908 18.8275 23.5781C18.9437 23.4655 19.0365 23.3311 19.1008 23.1826C19.165 23.0341 19.1994 22.8744 19.2019 22.7126V22.6741C19.2019 22.3422 19.0701 22.024 18.8354 21.7893C18.6007 21.5547 18.2825 21.4228 17.9506 21.4228H11.165C10.8332 21.4228 10.5149 21.5547 10.2802 21.7893C10.0456 22.024 9.91376 22.3422 9.91376 22.6741C9.91121 22.8359 9.94056 22.9966 10.0001 23.147C10.0597 23.2975 10.1483 23.4347 10.2609 23.5509C10.3736 23.6671 10.508 23.76 10.6565 23.8242C10.805 23.8885 10.9647 23.9228 11.1265 23.9253Z" fill="#044D45"/>
<path d="M16.1379 56.6311C16.8201 56.6311 17.3731 56.0781 17.3731 55.3959C17.3731 54.7137 16.8201 54.1607 16.1379 54.1607C15.4557 54.1607 14.9027 54.7137 14.9027 55.3959C14.9027 56.0781 15.4557 56.6311 16.1379 56.6311Z" fill="#044D45"/>
<path d="M11.165 56.6311C11.8472 56.6311 12.4002 56.0781 12.4002 55.3959C12.4002 54.7137 11.8472 54.1607 11.165 54.1607C10.4828 54.1607 9.92979 54.7137 9.92979 55.3959C9.92979 56.0781 10.4828 56.6311 11.165 56.6311Z" fill="#044D45"/>
<path d="M11.165 38.5361H27.5756C27.9075 38.5361 28.2257 38.4043 28.4604 38.1696C28.6951 37.9349 28.8269 37.6167 28.8269 37.2848C28.8269 36.953 28.6951 36.6347 28.4604 36.4001C28.2257 36.1654 27.9075 36.0336 27.5756 36.0336H11.165C10.8332 36.0336 10.5149 36.1654 10.2802 36.4001C10.0456 36.6347 9.91376 36.953 9.91376 37.2848C9.91376 37.6167 10.0456 37.9349 10.2802 38.1696C10.5149 38.4043 10.8332 38.5361 11.165 38.5361Z" fill="#044D45"/>
<path d="M6.19209 56.6311C6.87427 56.6311 7.4273 56.0781 7.4273 55.3959C7.4273 54.7137 6.87427 54.1607 6.19209 54.1607C5.5099 54.1607 4.95688 54.7137 4.95688 55.3959C4.95688 56.0781 5.5099 56.6311 6.19209 56.6311Z" fill="#044D45"/>
</svg>
