<svg width="285" height="285" viewBox="0 0 285 285" fill="none" xmlns="http://www.w3.org/2000/svg">
<path d="M131.558 121.21C131.558 120.029 132.027 118.896 132.862 118.061C133.697 117.226 134.83 116.757 136.011 116.757H148.989C150.17 116.757 151.303 117.226 152.138 118.061C152.973 118.896 153.442 120.029 153.442 121.21C153.442 122.391 152.973 123.524 152.138 124.359C151.303 125.194 150.17 125.663 148.989 125.663H136.011C134.83 125.663 133.697 125.194 132.862 124.359C132.027 123.524 131.558 122.391 131.558 121.21ZM136.011 167.578H148.989C150.17 167.578 151.303 167.109 152.138 166.273C152.973 165.438 153.442 164.306 153.442 163.125C153.442 161.944 152.973 160.811 152.138 159.976C151.303 159.141 150.17 158.672 148.989 158.672H136.011C134.83 158.672 133.697 159.141 132.862 159.976C132.027 160.811 131.558 161.944 131.558 163.125C131.558 164.306 132.027 165.438 132.862 166.273C133.697 167.109 134.83 167.578 136.011 167.578ZM280.547 203.417V220.743C280.547 221.643 280.274 222.522 279.765 223.264C279.256 224.006 278.533 224.576 277.694 224.899L269.221 228.16C267.953 232.674 266.15 237.021 263.852 241.108L267.54 249.412C267.905 250.234 268.013 251.148 267.848 252.032C267.684 252.917 267.255 253.731 266.619 254.368L254.368 266.619C253.732 267.256 252.918 267.684 252.033 267.849C251.148 268.013 250.234 267.906 249.412 267.54L241.112 263.854C237.023 266.153 232.675 267.955 228.159 269.224L224.9 277.694C224.576 278.534 224.006 279.256 223.264 279.765C222.522 280.275 221.644 280.547 220.744 280.547H203.417C202.517 280.547 201.638 280.275 200.897 279.765C200.155 279.256 199.584 278.534 199.261 277.694L196 269.221C191.486 267.953 187.139 266.151 183.052 263.853L174.749 267.54C173.927 267.906 173.013 268.013 172.128 267.849C171.244 267.684 170.43 267.256 169.793 266.62L157.541 254.368C156.905 253.732 156.476 252.918 156.311 252.033C156.147 251.148 156.255 250.234 156.62 249.412L160.306 241.112C158.33 237.595 156.72 233.884 155.501 230.038C151.235 230.308 146.879 230.449 142.5 230.449C108.086 230.449 73.2472 221.835 73.2472 205.371V141.387H64.2569C63.357 141.387 62.4782 141.114 61.7364 140.605C60.9945 140.095 60.4243 139.373 60.101 138.533L56.8402 130.061C52.3261 128.793 47.9794 126.991 43.8922 124.693L35.5888 128.38C34.7663 128.745 33.8525 128.853 32.9677 128.689C32.083 128.524 31.2688 128.095 30.6325 127.459L18.3808 115.208C17.7445 114.572 17.316 113.757 17.1516 112.873C16.9873 111.988 17.0948 111.074 17.4601 110.252L21.1462 101.951C18.8479 97.8624 17.0454 93.5144 15.7769 88.999L7.30647 85.7388C6.46664 85.4155 5.74447 84.8454 5.23511 84.1035C4.72575 83.3616 4.45312 82.4828 4.45313 81.5829V64.2569C4.45312 63.357 4.72575 62.4782 5.23511 61.7364C5.74447 60.9945 6.46664 60.4243 7.30647 60.101L15.7785 56.8402C17.0466 52.3257 18.849 47.9786 21.1473 43.8911L17.4601 35.5894C17.0948 34.767 16.9873 33.8532 17.1516 32.9684C17.316 32.0836 17.7445 31.2694 18.3808 30.633L30.6325 18.3808C31.2688 17.7444 32.083 17.3158 32.9678 17.1514C33.8526 16.987 34.7664 17.0947 35.5888 17.4601L43.8922 21.1479C47.9792 18.85 52.3257 17.0478 56.8397 15.7796L60.101 7.30647C60.4243 6.46664 60.9945 5.74447 61.7364 5.23511C62.4782 4.72575 63.357 4.45312 64.2569 4.45313H81.5829C82.4828 4.45312 83.3616 4.72575 84.1035 5.23511C84.8454 5.74447 85.4155 6.46664 85.7388 7.30647L89.0002 15.7796C93.5141 17.0478 97.8606 18.85 101.948 21.1479L110.251 17.4601C111.073 17.0948 111.987 16.9872 112.872 17.1516C113.756 17.3159 114.571 17.7445 115.207 18.3808L127.459 30.6325C128.095 31.2688 128.524 32.0829 128.689 32.9677C128.853 33.8525 128.746 34.7664 128.38 35.5888L124.694 43.8889C126.67 47.4057 128.28 51.116 129.499 54.9616C133.827 54.688 138.163 54.551 142.5 54.5508C176.914 54.5508 211.753 63.1648 211.753 79.628V143.613H220.743C221.643 143.613 222.522 143.886 223.264 144.395C224.006 144.905 224.576 145.627 224.899 146.467L228.16 154.94C232.674 156.208 237.021 158.01 241.108 160.308L249.411 156.62C250.234 156.255 251.147 156.148 252.032 156.312C252.917 156.477 253.731 156.905 254.368 157.541L266.619 169.793C267.255 170.429 267.684 171.243 267.848 172.128C268.013 173.013 267.905 173.927 267.54 174.749L263.854 183.049C266.152 187.137 267.955 191.485 269.223 196.001L277.694 199.261C278.533 199.584 279.256 200.155 279.765 200.897C280.274 201.638 280.547 202.517 280.547 203.417ZM127.459 115.207L115.207 127.459C114.571 128.095 113.757 128.524 112.872 128.689C111.987 128.853 111.074 128.745 110.251 128.38L101.951 124.694C98.5679 126.593 95.0056 128.155 91.3158 129.354C102.652 134.509 121.838 137.714 142.5 137.714C182.121 137.714 202.847 127.186 202.847 121.542V92.5949C190.305 100.584 166.303 104.706 142.5 104.706C136.763 104.706 131.102 104.471 125.609 104.011L128.38 110.25C128.745 111.073 128.853 111.987 128.688 112.872C128.524 113.757 128.095 114.571 127.459 115.207ZM142.5 63.457C142.103 63.457 141.707 63.4665 141.31 63.4687C141.356 63.7264 141.387 63.9881 141.387 64.2564V81.5824C141.387 82.4823 141.114 83.3611 140.605 84.1029C140.095 84.8448 139.373 85.415 138.533 85.7382L130.06 88.9996C129.462 91.1239 128.745 93.2129 127.912 95.2568C132.67 95.6142 137.551 95.799 142.5 95.799C182.121 95.799 202.847 85.2712 202.847 79.6274C202.847 73.9837 182.121 63.457 142.5 63.457ZM67.3146 132.48H78.5258L81.5094 124.729C81.7693 124.054 82.1896 123.452 82.7341 122.976C83.2785 122.5 83.9308 122.164 84.6344 121.996C89.8267 120.761 94.7882 118.704 99.3314 115.904C99.9474 115.524 100.646 115.301 101.368 115.252C102.09 115.204 102.813 115.332 103.474 115.625L111.072 119L118.999 111.072L115.623 103.472C115.33 102.811 115.202 102.088 115.25 101.366C115.298 100.645 115.522 99.9457 115.901 99.3297C118.701 94.7877 120.757 89.8275 121.993 84.6366C122.16 83.933 122.496 83.2807 122.972 82.7362C123.448 82.1917 124.05 81.7714 124.725 81.5117L132.48 78.5253V67.314L124.728 64.3304C124.053 64.0707 123.452 63.6504 122.976 63.1059C122.5 62.5614 122.163 61.9091 121.996 61.2054C120.761 56.0132 118.704 51.0517 115.903 46.5084C115.524 45.8924 115.3 45.1932 115.252 44.4713C115.203 43.7494 115.331 43.0266 115.625 42.3654L118.999 34.7683L111.072 26.8407L103.471 30.2161C102.81 30.5099 102.087 30.6381 101.365 30.5897C100.644 30.5413 99.9445 30.3177 99.3286 29.9384C94.7866 27.1383 89.8264 25.0818 84.6355 23.8465C83.932 23.679 83.2799 23.3426 82.7355 22.8665C82.1911 22.3904 81.7709 21.7889 81.5111 21.1139L78.5247 13.3594H67.314L64.3287 21.1139C64.0689 21.7888 63.6486 22.3903 63.1043 22.8664C62.5599 23.3425 61.9078 23.6789 61.2043 23.8465C56.0134 25.0819 51.0532 27.1386 46.5112 29.9389C45.8953 30.318 45.1962 30.5414 44.4746 30.5898C43.7529 30.6382 43.0303 30.5101 42.3693 30.2167L34.7678 26.8407L26.8407 34.7683L30.2156 42.3676C30.509 43.0287 30.6371 43.7512 30.5887 44.4729C30.5403 45.1946 30.3169 45.8936 29.9378 46.5096C27.1373 51.052 25.0805 56.0128 23.8454 61.2043C23.6782 61.908 23.342 62.5603 22.866 63.1048C22.3899 63.6493 21.7884 64.0696 21.1134 64.3293L13.3594 67.3146V78.5258L21.1117 81.5094C21.7867 81.7692 22.3883 82.1895 22.8643 82.734C23.3403 83.2785 23.6765 83.9308 23.8437 84.6344C25.0792 89.8267 27.1359 94.7883 29.9361 99.332C30.3155 99.9479 30.539 100.647 30.5875 101.369C30.636 102.091 30.508 102.813 30.2145 103.474L26.8401 111.072L34.7672 118.999L42.3681 115.624C43.0292 115.33 43.7519 115.202 44.4735 115.251C45.1952 115.299 45.8942 115.523 46.5101 115.902C51.0523 118.702 56.0127 120.759 61.2038 121.994C61.9073 122.161 62.5594 122.498 63.1038 122.974C63.6482 123.45 64.0684 124.052 64.3282 124.726L67.3146 132.48ZM82.1535 163.457C82.1535 169.101 102.879 179.628 142.5 179.628C147.945 179.628 153.301 179.407 158.497 178.976L156.62 174.749C156.254 173.927 156.147 173.013 156.311 172.128C156.476 171.244 156.904 170.429 157.54 169.793L169.792 157.541C170.428 156.904 171.242 156.475 172.127 156.311C173.012 156.146 173.926 156.254 174.748 156.62L183.052 160.307C187.139 158.01 191.486 156.208 196 154.939L199.261 146.466C199.55 145.718 200.036 145.062 200.667 144.568C201.298 144.073 202.051 143.758 202.846 143.657V134.509C190.305 142.498 166.303 146.62 142.499 146.62C119.712 146.62 98.9551 142.949 86.38 136.865L85.7382 138.532C85.4494 139.28 84.9637 139.936 84.3326 140.431C83.7014 140.926 82.9483 141.24 82.1529 141.342L82.1535 163.457ZM142.5 221.543C142.897 221.543 143.293 221.534 143.691 221.531C143.642 221.272 143.616 221.008 143.613 220.744V209.492H136.011C134.83 209.492 133.697 209.023 132.862 208.188C132.027 207.353 131.558 206.22 131.558 205.039C131.558 203.858 132.027 202.725 132.862 201.89C133.697 201.055 134.83 200.586 136.011 200.586H144.644C145.127 199.995 145.755 199.539 146.467 199.261L154.939 196C155.711 193.254 156.682 190.568 157.843 187.962C152.839 188.34 147.706 188.535 142.5 188.535C118.697 188.535 94.6946 184.413 82.1535 176.424V205.371C82.1535 211.015 102.879 221.543 142.5 221.543ZM271.641 206.475L263.888 203.491C263.213 203.231 262.612 202.81 262.136 202.266C261.659 201.721 261.323 201.069 261.156 200.366C259.921 195.173 257.864 190.212 255.064 185.669C254.685 185.053 254.461 184.354 254.412 183.632C254.364 182.91 254.492 182.188 254.786 181.527L258.16 173.929L250.233 166.002L242.632 169.377C241.971 169.671 241.248 169.799 240.527 169.751C239.805 169.702 239.106 169.479 238.49 169.1C233.948 166.3 228.988 164.243 223.797 163.008C223.093 162.841 222.441 162.504 221.896 162.028C221.352 161.552 220.932 160.951 220.672 160.276L217.685 152.52H206.475L203.489 160.275C203.23 160.95 202.809 161.551 202.265 162.027C201.72 162.503 201.068 162.839 200.364 163.007C195.174 164.242 190.214 166.299 185.671 169.099C185.056 169.478 184.356 169.701 183.635 169.75C182.913 169.798 182.19 169.67 181.529 169.376L173.929 166.001L166.001 173.928L169.376 181.528C169.67 182.189 169.798 182.911 169.749 183.633C169.701 184.355 169.478 185.054 169.099 185.67C166.298 190.212 164.241 195.173 163.006 200.364C162.839 201.068 162.503 201.72 162.027 202.264C161.551 202.809 160.949 203.229 160.274 203.489L153.29 206.177C153.14 206.746 152.878 207.279 152.52 207.746V217.685L160.272 220.669C160.947 220.929 161.548 221.349 162.025 221.893C162.501 222.438 162.837 223.09 163.004 223.793C164.24 228.986 166.296 233.948 169.097 238.491C169.477 239.107 169.7 239.806 169.749 240.528C169.797 241.25 169.669 241.972 169.376 242.634L166.001 250.231L173.929 258.158L181.53 254.783C182.191 254.489 182.914 254.361 183.635 254.409C184.357 254.458 185.056 254.681 185.672 255.061C190.214 257.861 195.174 259.917 200.365 261.152C201.069 261.32 201.721 261.656 202.265 262.132C202.81 262.608 203.23 263.209 203.49 263.884L206.475 271.641H217.687L220.67 263.889C220.93 263.214 221.35 262.612 221.894 262.136C222.439 261.66 223.091 261.324 223.795 261.156C228.987 259.921 233.949 257.864 238.493 255.063C239.109 254.684 239.808 254.461 240.529 254.412C241.251 254.364 241.974 254.492 242.635 254.786L250.232 258.16L258.159 250.233L254.783 242.632C254.49 241.971 254.362 241.248 254.41 240.527C254.459 239.805 254.682 239.106 255.061 238.49C257.862 233.948 259.918 228.987 261.154 223.796C261.321 223.093 261.657 222.441 262.133 221.896C262.609 221.352 263.211 220.932 263.886 220.672L271.641 217.685V206.475ZM249.391 212.08C249.391 232.654 232.654 249.391 212.08 249.391C191.507 249.391 174.769 232.654 174.769 212.08C174.769 191.507 191.507 174.769 212.08 174.769C232.654 174.769 249.391 191.507 249.391 212.08ZM240.485 212.08C240.485 196.417 227.742 183.675 212.08 183.675C196.418 183.675 183.675 196.417 183.675 212.08C183.675 227.743 196.418 240.485 212.08 240.485C227.742 240.485 240.485 227.743 240.485 212.08ZM72.9199 110.231C52.3465 110.231 35.6089 93.4934 35.6089 72.9199C35.6089 52.3465 52.3465 35.6089 72.9199 35.6089C93.4934 35.6089 110.231 52.3465 110.231 72.9199C110.231 93.4934 93.4934 110.231 72.9199 110.231ZM101.325 72.9199C101.325 57.2572 88.5821 44.5151 72.9199 44.5151C57.2577 44.5151 44.5151 57.2572 44.5151 72.9199C44.5151 88.5827 57.2577 101.325 72.9199 101.325C88.5821 101.325 101.325 88.5827 101.325 72.9199ZM153.847 37.4931H245.277V115.695L242.735 111.949C242.072 110.971 241.048 110.298 239.888 110.075C238.728 109.853 237.527 110.101 236.55 110.764C235.573 111.427 234.899 112.452 234.677 113.612C234.455 114.772 234.702 115.972 235.365 116.95L246.046 132.69C246.454 133.292 247.003 133.784 247.646 134.124C248.288 134.464 249.004 134.642 249.731 134.642C250.458 134.642 251.173 134.464 251.816 134.124C252.458 133.784 253.007 133.292 253.416 132.69L264.096 116.95C264.739 115.972 264.971 114.781 264.743 113.633C264.514 112.486 263.843 111.474 262.875 110.817C261.907 110.161 260.719 109.911 259.569 110.123C258.418 110.334 257.397 110.99 256.726 111.949L254.184 115.695V33.04C254.184 31.8589 253.715 30.7262 252.88 29.8911C252.045 29.056 250.912 28.5868 249.731 28.5868H153.847C152.666 28.5868 151.533 29.056 150.698 29.8911C149.863 30.7262 149.393 31.8589 149.393 33.04C149.393 34.221 149.863 35.3537 150.698 36.1888C151.533 37.0239 152.666 37.4931 153.847 37.4931ZM130.597 247.507H39.1663V169.305L41.708 173.051C42.1162 173.654 42.666 174.147 43.3091 174.487C43.9523 174.828 44.6691 175.005 45.3968 175.004C46.2056 175.003 46.9987 174.782 47.6913 174.365C48.3839 173.947 48.9497 173.349 49.328 172.634C49.7064 171.919 49.883 171.115 49.8389 170.308C49.7949 169.5 49.5318 168.72 49.0779 168.05L38.3976 152.31C37.9893 151.709 37.44 151.217 36.7977 150.876C36.1554 150.536 35.4395 150.358 34.7127 150.358C33.9858 150.358 33.27 150.536 32.6277 150.876C31.9853 151.217 31.436 151.709 31.0277 152.31L20.3474 168.05C19.6846 169.028 19.437 170.228 19.6591 171.388C19.8812 172.548 20.5549 173.572 21.532 174.236C22.5094 174.899 23.71 175.146 24.8699 174.924C26.0298 174.702 27.054 174.028 27.7174 173.051L30.259 169.305V251.959C30.259 253.141 30.7282 254.273 31.5633 255.108C32.3984 255.943 33.5311 256.413 34.7121 256.413H130.596C131.768 256.4 132.888 255.925 133.712 255.091C134.537 254.258 134.999 253.133 135 251.96C135 250.788 134.538 249.663 133.713 248.829C132.889 247.995 131.769 247.52 130.597 247.507Z" fill="#044D45"/>
</svg>
