<svg width="141" height="141" viewBox="0 0 141 141" fill="none" xmlns="http://www.w3.org/2000/svg">
<g clip-path="url(#clip0_724_118)">
<path d="M79.7594 1.26819C81.8488 9.24598 81.2791 13.235 70.2621 22.3526C59.2451 31.4703 57.5354 31.66 57.5354 37.3584C57.5354 43.0568 65.9883 52.0794 70.072 54.6439C70.072 54.6439 69.4072 53.0292 67.8876 50.5601C66.368 48.0909 61.7145 43.9119 62.569 37.5487C63.4236 31.1855 76.8626 23.0651 80.3292 16.9393C83.7956 10.813 82.9887 5.63699 79.7594 1.26819Z" fill="#044D45"/>
<path d="M91.9163 21.4025C82.4189 24.5367 70.6421 29.4753 70.6421 39.0677C70.6421 48.6601 76.7202 46.8555 76.7202 51.9841C76.7202 57.1127 73.396 58.6323 73.396 58.6323C73.396 58.6323 82.1336 55.3081 81.7538 48.6599C81.3741 42.0117 76.1505 42.9615 76.1505 36.7881C76.1505 28.9741 91.9163 21.4025 91.9163 21.4025Z" fill="#044D45"/>
<path d="M58.2952 55.4037C48.7978 55.4037 42.2446 58.9176 42.2446 60.912C42.2446 62.9064 53.9264 64.806 66.5581 63.9512C79.1897 63.0964 85.8379 62.0519 90.8715 59.0124C90.8715 59.0124 81.9439 61.1018 75.1056 61.1018C68.2674 61.1018 48.7249 62.3239 49.1779 59.3921C49.6309 56.4606 60.955 55.4034 60.955 55.4034L58.2952 55.4037ZM54.781 66.5154C49.7474 68.32 48.4175 70.1244 51.362 72.024C54.3062 73.9234 60.0996 74.4932 68.0774 74.4932C76.0552 74.4932 87.1675 71.7387 87.1675 71.7387L83.5585 68.8893C83.5585 68.8893 78.6196 70.6939 69.2172 70.6939C59.8148 70.6939 50.3648 70.9318 54.781 66.5154ZM57.0604 77.2476C52.1215 78.9573 51.077 81.2364 55.4458 83.3258C59.8146 85.4152 68.1724 85.7949 74.3455 84.9404C80.5187 84.0859 85.7423 82.1859 85.7423 82.1859C85.7423 82.1859 82.3707 80.9037 80.8035 79.3365C80.8035 79.3365 73.5855 80.8561 66.7472 80.8561C59.909 80.8561 54.4012 79.9068 57.0604 77.2476ZM93.9107 55.9732C93.9107 55.9732 96.2848 52.7439 102.269 55.2134C108.252 57.6825 108.062 64.331 102.648 68.3197C97.2346 72.3085 90.6814 73.6384 90.6814 73.6384C90.6814 73.6384 102.838 68.3197 102.553 61.7666C102.269 55.2136 96.6646 55.4037 93.9107 55.9732Z" fill="#044D45"/>
<path d="M45.2838 90.5429C63.9947 93.9619 92.4869 90.4488 97.5188 89.2153C102.554 87.9788 100.71 85.3003 100.71 85.3003C101.941 86.1695 102.488 87.1267 101.984 88.1696C99.2285 93.868 73.0157 94.8167 65.3227 94.8167C57.6296 94.8167 34.266 94.3436 34.266 90.164C34.266 86.0356 45.2896 83.4825 49.404 84.4315C41.6652 86.6453 37.0723 89.0415 45.2838 90.5429Z" fill="#044D45"/>
<path d="M47.4206 96.6459C47.4206 96.6459 54.0451 101.703 87.0248 98.7826C100.203 97.7141 105.687 94.4375 106.4 90.8048C106.4 90.8048 100.345 94.2238 92.8656 95.6487C85.3868 97.0735 73.0636 99.2816 47.4206 96.6459ZM46.7834 103.957H41.3075C41.4284 108.553 41.5493 112.59 41.5493 116.785C41.5493 119.982 41.4284 123.738 41.4284 127.493C41.4284 129.973 40.8616 132.065 39.7133 133.939C41.0026 134.567 42.3115 135.154 43.6381 135.7C45.6063 133.317 46.7258 130.362 46.6625 126.656C46.5818 123.617 46.5818 119.703 46.5818 116.786C46.5818 112.429 46.6625 108.193 46.7834 103.957ZM83.6532 111.709L80.3353 121.539C79.7369 123.338 79.2965 125.056 78.8967 126.774H78.537C78.2578 125.015 77.8579 123.418 77.1788 121.539L76.0998 118.382C75.2998 116.147 74.6207 113.787 74.0222 111.511L68.5089 112.19L76.1805 132.088L80.137 131.688L84.8101 119.583C85.731 117.226 86.9279 114.426 88.0473 111.948L83.6532 111.709ZM99.0481 111.508C96.8122 111.508 94.2541 111.988 90.8585 113.867L91.7362 116.984L92.0557 117.182C94.2541 115.585 96.2138 114.825 97.7301 114.825C99.7674 114.825 101.287 116.184 101.287 118.345V120.1C92.5362 121.421 90.378 124.137 90.378 127.294C90.378 130.612 92.7375 132.407 95.3733 132.407C97.5717 132.407 99.4882 131.089 101.209 129.651L101.566 129.731C101.923 131.527 103.108 132.206 104.42 132.315C104.993 132.002 105.561 131.68 106.124 131.348V117.743C106.124 113.548 103.606 111.508 99.0481 111.508ZM101.287 127.214C99.8511 128.454 98.6513 129.093 97.572 129.093C96.2138 129.093 95.0943 128.215 95.0943 126.494C95.0943 124.656 96.3316 123.297 101.287 122.578V127.214H101.287ZM59.2115 111.511C56.9756 111.511 54.4175 111.989 51.0191 113.868L51.8996 116.984L52.219 117.185C54.4175 115.585 56.3741 114.826 57.8934 114.826C59.9308 114.826 61.4501 116.184 61.4501 118.342V120.1C52.6996 121.421 50.5413 124.138 50.5413 127.294C50.5413 130.612 52.8981 132.408 55.5366 132.408C57.7323 132.408 59.6515 131.09 61.3694 129.651L61.7291 129.732C62.129 131.769 63.6081 132.37 65.1247 132.33C65.4986 132.33 65.89 132.284 66.2843 132.2V117.744C66.2843 113.548 63.7664 111.511 59.2115 111.511ZM61.4501 127.214C60.0115 128.454 58.8113 129.093 57.7323 129.093C56.3741 129.093 55.2547 128.212 55.2547 126.494C55.2547 124.656 56.495 123.297 61.4501 122.578V127.214Z" fill="#044D45"/>
</g>
<defs>
<clipPath id="clip0_724_118">
<rect width="141" height="141" fill="white"/>
</clipPath>
</defs>
</svg>
