<svg width="496" height="496" viewBox="0 0 496 496" fill="none" xmlns="http://www.w3.org/2000/svg">
<path d="M288.465 97.72C288.478 97.642 288.482 97.565 288.493 97.487C288.54 97.1459 288.567 96.8023 288.572 96.458C288.573 96.382 288.577 96.306 288.576 96.23C288.572 95.9069 288.548 95.5843 288.505 95.264L288.498 95.227C288.442 94.8481 288.358 94.4738 288.248 94.107C288.175 93.8579 288.089 93.6126 287.991 93.372C287.966 93.309 287.944 93.246 287.917 93.184C287.791 92.8908 287.646 92.6056 287.485 92.33C287.476 92.316 287.471 92.3 287.463 92.286L248.559 26.65C248.543 26.624 248.523 26.601 248.507 26.574C248.175 26.0261 247.778 25.5207 247.324 25.069C247.271 25.016 247.216 24.967 247.161 24.916C246.984 24.7491 246.799 24.5902 246.608 24.44C246.541 24.388 246.475 24.335 246.407 24.284C246.168 24.1069 245.919 23.9433 245.662 23.794L245.631 23.775C245.359 23.6222 245.079 23.4853 244.791 23.365C244.719 23.334 244.645 23.308 244.572 23.279C244.342 23.1896 244.108 23.1108 243.871 23.043C243.799 23.022 243.728 23.001 243.655 22.982C243.032 22.822 242.391 22.7384 241.748 22.733C241.724 22.733 241.7 22.728 241.676 22.728C241.632 22.728 241.59 22.736 241.546 22.737C241.291 22.7413 241.036 22.758 240.782 22.787C240.696 22.797 240.609 22.805 240.523 22.818C240.268 22.855 240.013 22.907 239.758 22.97C239.699 22.985 239.638 22.994 239.579 23.01L239.54 23.019C220.226 28.371 213.551 25.84 205.1 22.638C197.158 19.628 188.279 16.267 171.016 18.314C166.854 7.61 156.448 0 144.291 0C132.134 0 121.727 7.61 117.565 18.314C100.302 16.267 91.423 19.629 83.481 22.638C75.03 25.842 68.354 28.371 49.041 23.019L49.002 23.01C48.942 22.994 48.88 22.984 48.82 22.969C48.5698 22.9072 48.3168 22.8568 48.062 22.818C47.972 22.805 47.883 22.796 47.792 22.786C47.5452 22.7583 47.2973 22.7419 47.049 22.737C47.001 22.736 46.954 22.728 46.905 22.728C46.878 22.728 46.852 22.733 46.824 22.733C45.8691 22.7421 44.9238 22.9244 44.034 23.271C43.948 23.304 43.861 23.336 43.775 23.372C43.4959 23.4895 43.2234 23.6224 42.959 23.77C42.927 23.789 42.896 23.811 42.864 23.83C42.6306 23.9671 42.4043 24.116 42.186 24.276C42.108 24.333 42.034 24.393 41.958 24.452C41.7769 24.5947 41.6021 24.7452 41.434 24.903C41.373 24.96 41.31 25.016 41.251 25.075C40.805 25.52 40.411 26.021 40.076 26.57C40.059 26.597 40.039 26.621 40.022 26.649L1.118 92.285C1.109 92.299 1.104 92.315 1.096 92.329C0.934973 92.6047 0.790711 92.8899 0.664003 93.183C0.637003 93.245 0.615004 93.308 0.590004 93.371C0.492578 93.6124 0.406813 93.8584 0.333004 94.108C0.311004 94.183 0.289004 94.257 0.269004 94.332C0.190093 94.6268 0.128323 94.926 0.0840033 95.228L0.0770033 95.263C0.0330033 95.581 0.0110032 95.903 0.00600324 96.229C0.00500324 96.305 0.00900391 96.381 0.0100039 96.457C0.0136936 96.8017 0.0400836 97.1458 0.0890034 97.487C0.100003 97.565 0.104003 97.642 0.117003 97.72C4.041 120.542 23.719 137.106 46.905 137.106C70.092 137.106 89.769 120.542 93.693 97.72C93.706 97.642 93.71 97.565 93.721 97.487C93.7683 97.1456 93.7947 96.8016 93.8 96.457C93.801 96.381 93.805 96.305 93.804 96.229C93.8001 95.9058 93.7764 95.5832 93.733 95.263L93.727 95.229C93.6709 94.8498 93.5873 94.4751 93.477 94.108C93.4032 93.858 93.3174 93.6117 93.22 93.37C93.195 93.308 93.173 93.246 93.147 93.184C93.0202 92.8905 92.8756 92.6049 92.714 92.329L92.692 92.285L62.824 41.899C64.659 42.055 66.388 42.133 68.011 42.133C77.186 42.133 83.23 39.843 89.15 37.599C95.972 35.014 102.465 32.557 116.173 34.26C118.261 44.776 126.119 53.234 136.298 56.194L136.313 142.404C111.308 145.174 88.88 160.754 77.77 183.668C77.1784 184.888 76.9065 186.237 76.9797 187.591C77.0528 188.944 77.4687 190.257 78.1883 191.406C78.9079 192.554 79.9075 193.501 81.0934 194.158C82.2793 194.814 83.6126 195.158 84.968 195.158H203.673C205.028 195.158 206.361 194.813 207.547 194.157C208.733 193.501 209.732 192.554 210.452 191.405C211.171 190.257 211.587 188.944 211.661 187.591C211.734 186.237 211.462 184.888 210.871 183.668C199.758 160.749 177.323 145.168 152.313 142.402L152.298 56.19C162.469 53.226 170.321 44.771 172.408 34.26C186.116 32.556 192.609 35.013 199.431 37.599C205.352 39.843 211.393 42.133 220.57 42.133C222.192 42.133 223.922 42.055 225.756 41.899L195.891 92.286C195.882 92.3 195.877 92.316 195.869 92.331C195.708 92.606 195.564 92.891 195.437 93.185C195.41 93.247 195.388 93.31 195.363 93.373C195.266 93.6144 195.18 93.8604 195.106 94.11C195.084 94.185 195.062 94.259 195.042 94.334C194.963 94.6288 194.901 94.928 194.857 95.23L194.85 95.265C194.807 95.5856 194.783 95.9085 194.779 96.232C194.778 96.307 194.782 96.382 194.783 96.457C194.787 96.8017 194.813 97.1457 194.861 97.487C194.872 97.565 194.876 97.643 194.889 97.722C198.813 120.544 218.491 137.108 241.677 137.108C264.863 137.106 284.541 120.542 288.465 97.72ZM46.904 121.106C34.933 121.106 24.375 114.45 19.06 104.364H74.749C69.433 114.45 58.875 121.106 46.904 121.106ZM22.042 88.364L46.904 46.418L71.766 88.364H22.042ZM189.165 179.159H99.476C110.315 165.838 126.559 157.959 144.321 157.959C162.081 157.959 178.326 165.838 189.165 179.159ZM144.291 41.337C137.305 41.337 131.622 35.654 131.622 28.669C131.622 21.684 137.305 16 144.291 16C151.276 16 156.959 21.683 156.959 28.668C156.959 35.653 151.276 41.337 144.291 41.337ZM241.676 46.418L266.539 88.364H216.814L241.676 46.418ZM241.676 121.106C229.705 121.106 219.147 114.45 213.832 104.364H269.521C264.206 114.45 253.648 121.106 241.676 121.106ZM490.874 356.349L476.583 350.849C474.429 343.233 471.387 335.897 467.522 328.991L473.741 314.989C474.397 313.512 474.591 311.87 474.295 310.28C474 308.691 473.23 307.228 472.087 306.085L451.152 285.15C450.009 284.006 448.546 283.236 446.957 282.941C445.367 282.646 443.725 282.839 442.248 283.496L428.238 289.718C421.334 285.854 414.001 282.813 406.388 280.658L400.886 266.363C400.305 264.854 399.281 263.557 397.948 262.641C396.616 261.726 395.037 261.237 393.42 261.237H363.814C362.197 261.237 360.619 261.727 359.286 262.642C357.953 263.557 356.929 264.854 356.348 266.363L350.845 280.658C343.233 282.812 335.899 285.853 328.996 289.717L314.987 283.495C313.51 282.838 311.868 282.645 310.278 282.94C308.689 283.235 307.226 284.006 306.083 285.149L285.147 306.084C284.004 307.227 283.234 308.69 282.939 310.279C282.643 311.869 282.837 313.511 283.493 314.988L289.714 328.996C285.849 335.9 282.809 343.235 280.654 350.848L266.361 356.35C264.852 356.931 263.555 357.955 262.64 359.288C261.725 360.621 261.235 362.199 261.235 363.816V393.422C261.235 395.039 261.725 396.617 262.64 397.95C263.555 399.283 264.852 400.307 266.361 400.888L280.652 406.388C282.806 414.004 285.847 421.34 289.713 428.246L283.493 442.249C282.837 443.726 282.643 445.368 282.939 446.958C283.234 448.547 284.004 450.01 285.147 451.153L306.083 472.088C307.226 473.231 308.689 474.001 310.278 474.296C311.868 474.592 313.509 474.399 314.987 473.743L328.996 467.521C335.9 471.385 343.233 474.425 350.846 476.58L356.348 490.875C356.929 492.384 357.953 493.681 359.286 494.596C360.619 495.511 362.197 496.001 363.814 496.001H393.42C395.037 496.001 396.615 495.511 397.948 494.596C399.281 493.681 400.305 492.384 400.886 490.875L406.386 476.585C414.002 474.431 421.338 471.389 428.244 467.523L442.247 473.742C443.724 474.399 445.366 474.593 446.956 474.297C448.545 474.002 450.008 473.232 451.151 472.088L472.086 451.153C473.229 450.01 473.999 448.547 474.295 446.958C474.59 445.368 474.397 443.727 473.741 442.249L467.519 428.239C471.383 421.335 474.424 414.002 476.578 406.389L490.873 400.887C492.382 400.306 493.679 399.282 494.595 397.949C495.51 396.617 495.999 395.038 495.999 393.421V363.815C496 362.198 495.51 360.62 494.595 359.287C493.68 357.954 492.383 356.93 490.874 356.349ZM480 387.928L467 392.932C465.787 393.399 464.706 394.154 463.851 395.132C462.996 396.11 462.392 397.282 462.091 398.546C459.99 407.376 456.492 415.813 451.729 423.539C451.048 424.645 450.646 425.901 450.559 427.198C450.472 428.494 450.703 429.792 451.23 430.98L456.89 443.723L443.723 456.89L430.986 451.233C429.798 450.705 428.5 450.475 427.203 450.562C425.906 450.649 424.65 451.051 423.544 451.733C415.816 456.497 407.377 459.996 398.545 462.096C397.281 462.397 396.109 463.001 395.131 463.856C394.153 464.711 393.398 465.792 392.931 467.005L387.928 480H369.308L364.305 467C363.838 465.787 363.083 464.707 362.105 463.852C361.127 462.996 359.955 462.392 358.691 462.091C349.861 459.99 341.424 456.492 333.698 451.73C332.591 451.049 331.336 450.648 330.039 450.561C328.743 450.474 327.445 450.704 326.257 451.231L313.515 456.891L300.348 443.724L306.005 430.988C306.533 429.8 306.763 428.502 306.676 427.205C306.589 425.908 306.187 424.652 305.505 423.545C300.741 415.817 297.243 407.378 295.142 398.546C294.841 397.282 294.237 396.11 293.382 395.132C292.526 394.154 291.446 393.399 290.233 392.932L277.237 387.93V369.31L290.236 364.307C291.449 363.84 292.529 363.085 293.384 362.107C294.24 361.129 294.844 359.958 295.145 358.694C297.246 349.864 300.744 341.426 305.507 333.699C306.188 332.592 306.59 331.336 306.677 330.04C306.764 328.743 306.533 327.445 306.006 326.257L300.348 313.516L313.515 300.349L326.257 306.008C327.445 306.536 328.743 306.766 330.04 306.679C331.336 306.592 332.592 306.19 333.699 305.509C341.425 300.746 349.862 297.248 358.691 295.147C359.955 294.846 361.127 294.242 362.105 293.387C363.083 292.531 363.838 291.451 364.305 290.238L369.309 277.238H387.93L392.934 290.238C393.401 291.451 394.156 292.532 395.134 293.387C396.112 294.242 397.284 294.846 398.548 295.147C407.378 297.248 415.815 300.746 423.54 305.509C424.647 306.19 425.903 306.591 427.199 306.678C428.496 306.765 429.794 306.535 430.982 306.008L443.725 300.349L456.892 313.516L451.235 326.252C450.707 327.44 450.477 328.738 450.564 330.035C450.651 331.331 451.053 332.587 451.734 333.694C456.499 341.422 459.997 349.862 462.098 358.694C462.399 359.958 463.003 361.13 463.858 362.108C464.713 363.086 465.794 363.841 467.007 364.308L480 369.308V387.928ZM378.617 311.406C341.556 311.406 311.406 341.557 311.406 378.617C311.406 415.677 341.557 445.829 378.617 445.829C415.678 445.829 445.829 415.678 445.829 378.617C445.829 341.556 415.678 311.406 378.617 311.406ZM378.617 429.83C350.379 429.83 327.406 406.856 327.406 378.618C327.406 350.38 350.379 327.407 378.617 327.407C406.856 327.407 429.829 350.38 429.829 378.618C429.829 406.856 406.856 429.83 378.617 429.83ZM236.798 414.039C236.798 416.161 235.955 418.196 234.455 419.696C232.955 421.196 230.92 422.039 228.798 422.039H81.961C79.8393 422.039 77.8044 421.196 76.3041 419.696C74.8039 418.196 73.961 416.161 73.961 414.039V289.8L66.308 303.055C65.2396 304.877 63.4937 306.203 61.4514 306.743C59.409 307.283 57.2359 306.993 55.4064 305.937C53.5769 304.881 52.2395 303.144 51.686 301.105C51.1325 299.066 51.4079 296.891 52.452 295.055L75.033 255.944C75.7352 254.728 76.7451 253.718 77.9612 253.016C79.1773 252.314 80.5568 251.944 81.961 251.944C83.3652 251.944 84.7447 252.314 85.9608 253.016C87.1769 253.718 88.1868 254.728 88.889 255.944L111.47 295.055C112.514 296.891 112.789 299.066 112.236 301.105C111.682 303.144 110.345 304.881 108.516 305.937C106.686 306.993 104.513 307.283 102.471 306.743C100.428 306.203 98.6824 304.877 97.614 303.055L89.962 289.8V406.038H228.799C230.921 406.039 232.955 406.882 234.455 408.382C235.955 409.883 236.798 411.917 236.798 414.039ZM304.873 81.961C304.873 79.8393 305.716 77.8044 307.216 76.3041C308.716 74.8039 310.751 73.961 312.873 73.961H414.04C416.162 73.961 418.197 74.8039 419.697 76.3041C421.197 77.8044 422.04 79.8393 422.04 81.961V192.191L429.692 178.937C430.217 178.027 430.916 177.229 431.75 176.589C432.583 175.95 433.534 175.481 434.549 175.209C435.564 174.937 436.623 174.867 437.664 175.005C438.706 175.142 439.71 175.483 440.62 176.009C442.457 177.07 443.798 178.817 444.347 180.867C444.896 182.916 444.609 185.1 443.548 186.937L420.967 226.048C420.265 227.264 419.255 228.274 418.039 228.976C416.823 229.678 415.443 230.048 414.039 230.048C412.635 230.048 411.255 229.678 410.039 228.976C408.823 228.274 407.813 227.264 407.111 226.048L384.53 186.937C383.486 185.101 383.211 182.926 383.764 180.887C384.318 178.848 385.655 177.111 387.484 176.055C389.314 174.999 391.487 174.709 393.529 175.249C395.572 175.789 397.318 177.115 398.386 178.937L406.039 192.192V89.961H312.872C310.75 89.9607 308.716 89.1178 307.216 87.6175C305.716 86.1172 304.873 84.0826 304.873 81.961ZM413.263 354.778C413.969 355.556 414.515 356.465 414.87 357.454C415.224 358.443 415.381 359.493 415.33 360.542C415.279 361.591 415.022 362.621 414.573 363.571C414.124 364.521 413.493 365.373 412.715 366.079L372.026 403.005C370.556 404.342 368.639 405.083 366.651 405.081C365.6 405.082 364.559 404.876 363.588 404.474C362.617 404.072 361.735 403.482 360.993 402.738L344.24 385.986C343.483 385.246 342.881 384.364 342.468 383.39C342.055 382.415 341.839 381.369 341.833 380.311C341.827 379.253 342.031 378.204 342.434 377.225C342.836 376.247 343.428 375.358 344.176 374.609C344.925 373.861 345.814 373.269 346.792 372.867C347.771 372.464 348.82 372.26 349.878 372.266C350.936 372.272 351.982 372.488 352.957 372.901C353.931 373.314 354.813 373.916 355.553 374.673L366.917 386.036L401.962 354.232C402.74 353.526 403.649 352.98 404.638 352.625C405.627 352.27 406.676 352.114 407.726 352.164C408.775 352.215 409.804 352.472 410.754 352.92C411.704 353.369 412.557 354 413.263 354.778Z" fill="#044D45"/>
</svg>
