<svg width="242" height="232" viewBox="0 0 242 232" fill="none" xmlns="http://www.w3.org/2000/svg">
<path d="M231.12 0.420044H10.88C5.155 0.420044 0.5 5.07504 0.5 10.8V178.92C0.5 184.645 5.155 189.3 10.88 189.3H93.69V205.615L82.025 211.675C81.68 211.855 81.34 212.025 80.995 212.2C77.74 213.845 73.285 216.095 73.285 221.455C73.285 227.035 77.825 231.575 83.405 231.575H158.59C164.17 231.575 168.71 227.035 168.71 221.455C168.71 216.09 164.255 213.84 161 212.2C160.66 212.025 160.315 211.855 159.97 211.675L148.305 205.615V189.3H231.115C236.84 189.3 241.495 184.645 241.495 178.92V10.8C241.5 5.07504 236.845 0.420044 231.12 0.420044ZM10.88 6.42004H231.12C233.535 6.42004 235.5 8.38504 235.5 10.8V152.745H6.5V10.8C6.5 8.38504 8.465 6.42004 10.88 6.42004ZM143.925 210.1L157.21 217.005C157.575 217.195 157.935 217.38 158.3 217.56C161.665 219.26 162.715 220.02 162.715 221.46C162.715 223.73 160.865 225.58 158.595 225.58H83.41C81.14 225.58 79.29 223.73 79.29 221.46C79.29 220.02 80.34 219.26 83.705 217.56C84.07 217.375 84.43 217.195 84.795 217.005L98.08 210.1C98.5674 209.848 98.9759 209.466 99.2608 208.997C99.5457 208.528 99.6959 207.989 99.695 207.44V189.3H142.31V207.44C142.309 207.989 142.459 208.528 142.744 208.997C143.029 209.466 143.438 209.848 143.925 210.1ZM231.12 183.3H10.88C8.465 183.3 6.5 181.335 6.5 178.92V158.745H235.5V178.92C235.5 181.335 233.535 183.3 231.12 183.3ZM92.845 66.82H95.305C96.78 72.905 100.365 78.155 105.445 81.925V92.23L73.8 108.05C65.855 110.845 60.535 118.335 60.535 126.745V146.395C60.535 148.05 61.88 149.395 63.535 149.395H178.455C180.11 149.395 181.455 148.05 181.455 146.395V126.745C181.455 118.335 176.135 110.85 168.19 108.05L136.545 92.23V82.19C141.78 78.45 145.405 73.13 146.855 66.82H149.15C153.405 66.82 156.865 63.36 156.865 59.11V56.615C156.865 52.865 154.17 49.73 150.615 49.045C152.265 39.71 149.395 28.29 143.34 21.48C140.383 18.1574 136.756 15.4979 132.698 13.6762C128.64 11.8545 124.243 10.9118 119.795 10.91C110.81 10.91 102.23 14.765 96.26 21.48C89.895 28.64 86.455 40.765 89.85 49.51C87.085 50.68 85.135 53.425 85.135 56.615V59.11C85.135 63.36 88.595 66.82 92.845 66.82ZM92.845 60.82C91.915 60.82 91.13 60.035 91.13 59.11V56.615C91.13 55.685 91.915 54.905 92.845 54.905H94.13C94.27 54.93 94.41 54.945 94.555 54.955V60.49C94.555 60.605 94.56 60.715 94.565 60.83H92.845V60.82ZM134.07 97.7L138.52 99.925L131.245 112.635L124.875 106.265L134.07 97.7ZM116.755 106.635L110.755 112.635L103.48 99.925L107.86 97.735L116.755 106.635ZM166.06 113.66C171.68 115.575 175.46 120.83 175.46 126.745V143.395H157.025V130.185C157.025 128.53 155.68 127.185 154.025 127.185C152.37 127.185 151.025 128.53 151.025 130.185V143.395H90.975V130.185C90.975 128.53 89.63 127.185 87.975 127.185C86.32 127.185 84.975 128.53 84.975 130.185V143.395H66.54V126.745C66.54 120.83 70.315 115.575 75.94 113.66C76.07 113.615 76.195 113.565 76.315 113.505L98.105 102.61L107.5 119.02C107.729 119.42 108.047 119.762 108.43 120.019C108.812 120.277 109.248 120.443 109.705 120.505C109.84 120.525 109.97 120.53 110.1 120.53C110.89 120.53 111.655 120.22 112.22 119.65L121 110.875L129.775 119.65C130.101 119.976 130.497 120.223 130.933 120.371C131.369 120.519 131.833 120.565 132.29 120.505C132.747 120.444 133.184 120.278 133.566 120.021C133.949 119.763 134.267 119.421 134.495 119.02L143.89 102.61L165.68 113.505C165.81 113.565 165.935 113.62 166.06 113.66ZM130.55 92.78L120.63 102.02L111.45 92.84V85.365C114.21 86.56 117.235 87.4 120.465 87.825L120.825 87.87L121.185 87.83C124.56 87.45 127.695 86.65 130.545 85.48V92.78H130.55ZM120.885 81.825C108.9 80.105 100.56 71.37 100.56 60.48V53.03C102.775 51.575 104.33 49.355 105.195 46.36C112.28 49.11 118.99 47.16 124.545 45.54C131.91 43.395 136.795 41.98 141.57 48.795V60.48C141.57 71.755 133.27 80.295 120.885 81.825ZM150.865 59.11C150.865 60.04 150.08 60.82 149.15 60.82H147.555C147.555 60.705 147.565 60.595 147.565 60.48V54.9H149.15C150.08 54.9 150.865 55.685 150.865 56.61V59.11ZM100.745 25.465C103.137 22.7754 106.071 20.6225 109.354 19.148C112.637 17.6735 116.196 16.9108 119.795 16.91C127.075 16.91 134.025 20.03 138.855 25.465C142.805 29.91 145.1 37.03 145.09 43.59C138.1 35.345 130.085 37.68 122.865 39.785C116.64 41.6 110.76 43.31 104.555 39.33C104.118 39.0493 103.615 38.8869 103.096 38.8588C102.577 38.8307 102.06 38.9378 101.594 39.1696C101.129 39.4014 100.732 39.75 100.442 40.1813C100.152 40.6126 99.9792 41.1118 99.94 41.63C99.6 46.11 98.16 47.89 96.02 48.615C92.535 42.315 95.41 31.465 100.745 25.465ZM41.89 85.09C59.03 85.09 72.97 71.145 72.97 54C72.97 52.345 71.625 51.005 69.97 51.005C69.91 51.005 69.855 51.005 69.8 51.01H44.89V26.175C44.895 26.095 44.9 26.015 44.9 25.93C44.9 24.275 43.555 22.93 41.9 22.93H41.89C24.75 22.93 10.81 36.875 10.81 54.01C10.81 71.145 24.75 85.09 41.89 85.09ZM38.89 29.105V54.01C38.89 55.665 40.235 57.01 41.89 57.01H66.795C65.31 69.43 54.705 79.09 41.89 79.09C28.06 79.09 16.81 67.84 16.81 54.01C16.81 41.195 26.47 30.595 38.89 29.105ZM52.175 46.725H80.255C81.05 46.725 81.815 46.405 82.375 45.84C82.654 45.561 82.8754 45.2297 83.0264 44.8651C83.1773 44.5005 83.255 44.1097 83.255 43.715C83.25 26.59 69.31 12.65 52.185 12.645H52.175C50.52 12.645 49.175 13.99 49.175 15.645V43.725C49.175 45.38 50.52 46.725 52.175 46.725ZM55.175 18.82C66.605 20.19 75.705 29.285 77.075 40.725H55.175V18.82ZM196.745 69.515C210.38 69.515 221.475 58.42 221.475 44.785C221.475 31.15 210.38 20.05 196.745 20.05C183.11 20.05 172.015 31.145 172.015 44.78C172.015 58.415 183.11 69.515 196.745 69.515ZM196.745 26.05C207.075 26.05 215.475 34.455 215.475 44.78C215.475 55.105 207.07 63.51 196.745 63.51C186.42 63.51 178.015 55.105 178.015 44.78C178.015 34.455 186.415 26.05 196.745 26.05ZM196.745 80.935C216.68 80.935 232.9 64.715 232.9 44.78C232.9 24.845 216.68 8.62504 196.745 8.62504C176.81 8.62504 160.59 24.845 160.59 44.78C160.59 64.715 176.81 80.935 196.745 80.935ZM196.745 14.63C213.37 14.63 226.9 28.155 226.9 44.785C226.9 61.415 213.375 74.94 196.745 74.94C180.12 74.94 166.59 61.415 166.59 44.785C166.59 28.155 180.12 14.63 196.745 14.63ZM193.745 44.78V31.965C193.745 30.31 195.09 28.965 196.745 28.965C198.4 28.965 199.745 30.31 199.745 31.965V41.78H205.52C207.175 41.78 208.52 43.125 208.52 44.78C208.52 46.435 207.175 47.78 205.52 47.78H196.745C195.09 47.78 193.745 46.44 193.745 44.78ZM10.66 98.925C10.66 97.27 12.005 95.925 13.66 95.925H63.005C64.66 95.925 66.005 97.27 66.005 98.925C66.005 100.58 64.66 101.925 63.005 101.925H13.66C12.005 101.925 10.66 100.58 10.66 98.925ZM10.66 113.995C10.66 112.34 12.005 110.995 13.66 110.995H46.16C47.815 110.995 49.16 112.34 49.16 113.995C49.16 115.65 47.815 116.995 46.16 116.995H13.66C12.005 116.995 10.66 115.65 10.66 113.995ZM10.66 129.06C10.66 127.405 12.005 126.06 13.66 126.06H53.55C55.205 126.06 56.55 127.405 56.55 129.06C56.55 130.715 55.205 132.06 53.55 132.06H13.66C12.005 132.06 10.66 130.72 10.66 129.06ZM10.66 144.13C10.66 142.475 12.005 141.13 13.66 141.13H38.33C39.985 141.13 41.33 142.475 41.33 144.13C41.33 145.785 39.985 147.13 38.33 147.13H13.66C12.005 147.13 10.66 145.79 10.66 144.13ZM227.925 101.63C227.925 103.285 226.58 104.63 224.925 104.63H181.49C179.835 104.63 178.49 103.285 178.49 101.63C178.49 99.975 179.835 98.63 181.49 98.63H224.925C226.585 98.63 227.925 99.975 227.925 101.63ZM227.925 114.895C227.925 116.55 226.58 117.895 224.925 117.895H196.315C194.66 117.895 193.315 116.55 193.315 114.895C193.315 113.24 194.66 111.895 196.315 111.895H224.925C226.585 111.895 227.925 113.24 227.925 114.895ZM227.925 128.16C227.925 129.815 226.58 131.16 224.925 131.16H189.81C188.155 131.16 186.81 129.815 186.81 128.16C186.81 126.505 188.155 125.16 189.81 125.16H224.925C226.585 125.16 227.925 126.505 227.925 128.16ZM227.925 141.425C227.925 143.08 226.58 144.425 224.925 144.425H203.205C201.55 144.425 200.205 143.08 200.205 141.425C200.205 139.77 201.55 138.425 203.205 138.425H224.925C226.585 138.425 227.925 139.77 227.925 141.425Z" fill="#044D45"/>
</svg>
