<?xml version="1.0" encoding="iso-8859-1"?>
<!-- Uploaded to: SVG Repo, www.svgrepo.com, Generator: SVG Repo Mixer Tools -->
<svg fill="#000000" height="800px" width="800px" version="1.1" id="Layer_1" xmlns="http://www.w3.org/2000/svg" xmlns:xlink="http://www.w3.org/1999/xlink" 
	 viewBox="0 0 512 512" xml:space="preserve">
<g>
	<g>
		<path d="M328.098,128H0v224.653h133.515l-19.37,41.969c-2.627,5.691-2.179,12.239,1.2,17.519c3.377,5.279,9.136,8.43,15.403,8.43
			h66.604c6.267,0,12.026-3.152,15.403-8.43c3.377-5.28,3.825-11.827,1.198-17.518l-19.37-41.97h133.516V128z M197.735,396.884
			l1.988,4.308c0.52,1.129,0.115,2.052-0.172,2.503c-0.287,0.45-0.956,1.204-2.2,1.204h-66.604c-1.243,0-1.912-0.754-2.2-1.204
			c-0.287-0.45-0.693-1.373-0.171-2.504l1.987-4.307H197.735z M137.597,381.21l13.18-28.557h26.544l13.179,28.557H137.597z
			 M312.424,336.98H15.673V143.673h296.751V336.98z"/>
	</g>
</g>
<g>
	<g>
		<path d="M26.122,154.122v172.408h275.853V154.122H26.122z M286.302,310.857H41.796V169.796h244.506V310.857z"/>
	</g>
</g>
<g>
	<g>
		<path d="M343.771,91.429v329.143H512V91.429H343.771z M467.069,404.898h-78.367v-6.269h78.367V404.898z M496.327,404.898h-13.584
			v-21.943H373.029v21.943h-13.584V107.102h136.882V404.898z"/>
	</g>
</g>
<g>
	<g>
		<path d="M373.029,130.43v47.02h109.714v-47.02H373.029z M467.069,161.777h-78.367v-15.673h78.367V161.777z"/>
	</g>
</g>
<g>
	<g>
		<path d="M373.029,186.776v31.347v15.673v31.347h109.714v-31.347v-15.673v-31.347H373.029z M467.069,249.469h-78.367v-15.674
			h78.367V249.469z M467.069,218.122h-78.367v-15.673h78.367V218.122z"/>
	</g>
</g>
<g>
	<g>
		<path d="M427.886,273.894c-14.404,0-26.122,11.719-26.122,26.122c0,14.404,11.719,26.122,26.122,26.122
			c14.404,0,26.122-11.719,26.122-26.122C454.008,285.612,442.29,273.894,427.886,273.894z M427.886,310.465
			c-5.762,0-10.449-4.687-10.449-10.449c0-5.762,4.687-10.449,10.449-10.449c5.762,0,10.449,4.687,10.449,10.449
			C438.335,305.778,433.647,310.465,427.886,310.465z"/>
	</g>
</g>
<g>
	<g>
		<path d="M427.886,332.408c-11.523,0-20.898,9.375-20.898,20.898c0,11.523,9.375,20.898,20.898,20.898
			c11.523,0,20.898-9.375,20.898-20.898C448.784,341.783,439.409,332.408,427.886,332.408z M427.886,358.531
			c-2.881,0-5.224-2.344-5.224-5.224c0-2.881,2.344-5.225,5.224-5.225c2.881,0,5.225,2.344,5.225,5.225
			C433.11,356.187,430.766,358.531,427.886,358.531z"/>
	</g>
</g>
</svg>