<?xml version="1.0"?>
<svg xmlns="http://www.w3.org/2000/svg" viewBox="0 0 50 50">
    <path style="line-height:normal;text-indent:0;text-align:start;text-decoration-line:none;text-decoration-style:solid;text-decoration-color:#000;text-transform:none;block-progression:tb;isolation:auto;mix-blend-mode:normal" d="M 25 2 A 2 2 0 0 0 23 4 A 2 2 0 0 0 24 5.7285156 L 24 11.144531 C 22.783594 11.463472 21.783675 12.330757 21.306641 13.476562 C 17.942909 13.008071 14.568781 12.474808 11.175781 12.015625 A 1.0001 1.0001 0 0 0 11.035156 12 A 1.0001 1.0001 0 0 0 10.054688 12.671875 L 2.0546875 35.671875 A 1.0001 1.0001 0 0 0 2 36 C 2 37.828571 3.1772981 39.379376 4.8222656 40.400391 C 6.4672331 41.421405 8.6333333 42 11 42 C 13.366667 42 15.532767 41.421405 17.177734 40.400391 C 18.822702 39.379376 20 37.828571 20 36 A 1.0001 1.0001 0 0 0 19.945312 35.671875 L 12.484375 14.224609 C 15.328252 14.628431 18.182262 15.060022 21.046875 15.458984 C 21.279464 17.440183 22.95975 19 25 19 C 26.658763 19 28.090139 17.972334 28.693359 16.523438 C 31.669314 16.937921 34.65744 17.395541 37.65625 17.816406 L 30.054688 39.671875 A 1.0001 1.0001 0 0 0 30 40 C 30 41.828571 31.177298 43.379376 32.822266 44.400391 C 34.467233 45.421405 36.633333 46 39 46 C 41.366667 46 43.532767 45.421405 45.177734 44.400391 C 46.822702 43.379376 48 41.828571 48 40 A 1.0001 1.0001 0 0 0 47.945312 39.671875 L 39.945312 16.671875 A 1.0001 1.0001 0 0 0 39.103516 16.005859 C 35.735715 15.55023 32.350466 15.014173 28.953125 14.541016 C 28.760094 12.896766 27.570159 11.556225 26 11.144531 L 26 5.7304688 A 2 2 0 0 0 27 4 A 2 2 0 0 0 25 2 z M 25 13 C 26.116414 13 27 13.883586 27 15 C 27 16.116414 26.116414 17 25 17 C 23.883586 17 23 16.116414 23 15 C 23 13.883586 23.883586 13 25 13 z M 11 16.046875 L 17.591797 35 L 4.4082031 35 L 11 16.046875 z M 39 20.046875 L 45.591797 39 L 32.408203 39 L 39 20.046875 z"/>
</svg>
