<svg width="256" height="256" viewBox="0 0 256 256" fill="none" xmlns="http://www.w3.org/2000/svg">
<path d="M98.0853 153.65C74.532 153.65 55.4395 172.743 55.4395 196.296C55.4395 219.849 74.532 238.942 98.0853 238.942C121.639 238.942 140.731 219.849 140.731 196.296C140.706 172.753 121.628 153.675 98.0853 153.65ZM98.0853 230.413C79.2423 230.413 63.9687 215.139 63.9687 196.296C63.9687 177.453 79.2423 162.179 98.0853 162.179C116.928 162.179 132.202 177.453 132.202 196.296C132.181 215.128 116.918 230.391 98.0853 230.413Z" fill="#044D45"/>
<path d="M98.0853 183.502C103.293 183.502 106.614 186.026 106.614 187.767H115.144C115.144 181.707 109.776 176.799 102.35 175.399V170.708H93.8207V175.399C86.395 176.789 81.027 181.699 81.027 187.767C81.027 194.945 88.5193 200.56 98.0853 200.56C103.293 200.56 106.614 203.084 106.614 204.825C106.614 206.566 103.293 209.09 98.0853 209.09C92.8772 209.09 89.5562 206.566 89.5562 204.825H81.027C81.027 210.885 86.395 215.793 93.8207 217.192V221.883H102.35V217.192C109.776 215.803 115.144 210.893 115.144 204.825C115.144 197.647 107.651 192.031 98.0853 192.031C92.8772 192.031 89.5562 189.508 89.5562 187.767C89.5562 186.026 92.8772 183.502 98.0853 183.502Z" fill="#044D45"/>
<path d="M217.494 247.471H38.3812V145.121H106.614C113.68 145.121 119.408 139.393 119.408 132.327V25.7127H166.319V76.8877H217.494V136.592H226.023V70.857L172.349 17.1836H119.408V12.919C119.408 5.85364 113.68 0.125244 106.614 0.125244H12.7937C5.7284 0.125244 0 5.85364 0 12.919V132.327C0 139.393 5.7284 145.121 12.7937 145.121H29.8521V256H226.023V196.296H217.494V247.471ZM174.848 31.7428L211.463 68.3585H174.848V31.7428ZM8.52916 132.327V12.919C8.52916 11.7879 8.97846 10.7032 9.77822 9.90347C10.578 9.1037 11.6627 8.6544 12.7937 8.6544H106.614C107.746 8.6544 108.83 9.1037 109.63 9.90347C110.43 10.7032 110.879 11.7879 110.879 12.919V132.327C110.879 133.458 110.43 134.543 109.63 135.343C108.83 136.142 107.746 136.592 106.614 136.592H12.7937C11.6627 136.592 10.578 136.142 9.77822 135.343C8.97846 134.543 8.52916 133.458 8.52916 132.327Z" fill="#044D45"/>
<path d="M136.467 106.74H144.996V115.269H136.467V106.74ZM153.525 106.74H204.7V115.269H153.525V106.74ZM136.467 89.6814H144.996V98.2105H136.467V89.6814ZM153.525 89.6814H204.7V98.2105H153.525V89.6814ZM136.467 123.798H144.996V132.327H136.467V123.798ZM153.525 123.798H204.7V132.327H153.525V123.798ZM136.467 140.856H144.996V149.385H136.467V140.856ZM153.525 140.856H204.7V149.385H153.525V140.856ZM106.614 12.9189H12.7937V42.771H106.614V12.9189ZM98.0853 34.2418H21.3229V21.4481H98.0853V34.2418ZM34.1166 47.0356H25.5875C20.8772 47.0356 17.0583 50.8545 17.0583 55.5647V64.0939C17.0583 68.8041 20.8772 72.6231 25.5875 72.6231H34.1166C38.8269 72.6231 42.6458 68.8041 42.6458 64.0939V55.5647C42.6458 50.8545 38.8269 47.0356 34.1166 47.0356ZM25.5875 64.0939V55.5647H34.1166V64.0939H25.5875ZM63.9687 47.0356H55.4395C50.7293 47.0356 46.9104 50.8545 46.9104 55.5647V64.0939C46.9104 68.8041 50.7293 72.6231 55.4395 72.6231H63.9687C68.6789 72.6231 72.4978 68.8041 72.4978 64.0939V55.5647C72.4978 50.8545 68.6789 47.0356 63.9687 47.0356ZM55.4395 64.0939V55.5647H63.9687V64.0939H55.4395ZM93.8207 47.0356H85.2916C80.5813 47.0356 76.7624 50.8545 76.7624 55.5647V64.0939C76.7624 68.8041 80.5813 72.6231 85.2916 72.6231H93.8207C98.531 72.6231 102.35 68.8041 102.35 64.0939V55.5647C102.35 50.8545 98.531 47.0356 93.8207 47.0356ZM85.2916 64.0939V55.5647H93.8207V64.0939H85.2916ZM34.1166 76.8876H25.5875C20.8772 76.8876 17.0583 80.7066 17.0583 85.4168V93.946C17.0583 98.6562 20.8772 102.475 25.5875 102.475H34.1166C38.8269 102.475 42.6458 98.6562 42.6458 93.946V85.4168C42.6458 80.7066 38.8269 76.8876 34.1166 76.8876ZM25.5875 93.946V85.4168H34.1166V93.946H25.5875ZM63.9687 76.8876H55.4395C50.7293 76.8876 46.9104 80.7066 46.9104 85.4168V93.946C46.9104 98.6562 50.7293 102.475 55.4395 102.475H63.9687C68.6789 102.475 72.4978 98.6562 72.4978 93.946V85.4168C72.4978 80.7066 68.6789 76.8876 63.9687 76.8876ZM55.4395 93.946V85.4168H63.9687V93.946H55.4395ZM93.8207 76.8876H85.2916C80.5813 76.8876 76.7624 80.7066 76.7624 85.4168V93.946C76.7624 98.6562 80.5813 102.475 85.2916 102.475H93.8207C98.531 102.475 102.35 98.6562 102.35 93.946V85.4168C102.35 80.7066 98.531 76.8876 93.8207 76.8876ZM85.2916 93.946V85.4168H93.8207V93.946H85.2916ZM34.1166 106.74H25.5875C20.8772 106.74 17.0583 110.559 17.0583 115.269V123.798C17.0583 128.508 20.8772 132.327 25.5875 132.327H34.1166C38.8269 132.327 42.6458 128.508 42.6458 123.798V115.269C42.6458 110.559 38.8269 106.74 34.1166 106.74ZM25.5875 123.798V115.269H34.1166V123.798H25.5875ZM63.9687 106.74H55.4395C50.7293 106.74 46.9104 110.559 46.9104 115.269V123.798C46.9104 128.508 50.7293 132.327 55.4395 132.327H63.9687C68.6789 132.327 72.4978 128.508 72.4978 123.798V115.269C72.4978 110.559 68.6789 106.74 63.9687 106.74ZM55.4395 123.798V115.269H63.9687V123.798H55.4395ZM93.8207 106.74H85.2916C80.5813 106.74 76.7624 110.559 76.7624 115.269V123.798C76.7624 128.508 80.5813 132.327 85.2916 132.327H93.8207C98.531 132.327 102.35 128.508 102.35 123.798V115.269C102.35 110.559 98.531 106.74 93.8207 106.74ZM85.2916 123.798V115.269H93.8207V123.798H85.2916ZM252.001 136.2C246.939 131.367 238.975 131.367 233.913 136.2L160.804 209.306C160.45 209.664 160.161 210.081 159.951 210.539L149.656 232.894C149.293 233.686 149.181 234.569 149.335 235.426C149.489 236.283 149.902 237.073 150.518 237.688C151.133 238.304 151.922 238.717 152.779 238.871C153.636 239.025 154.52 238.913 155.312 238.55L177.667 228.255C178.125 228.046 178.543 227.757 178.9 227.402L252.001 154.293C256.999 149.298 256.999 141.196 252.001 136.2ZM173.403 220.826L162.23 225.973L167.377 214.799L221.886 160.286L227.916 166.317L173.403 220.826ZM233.959 160.268L227.928 154.239L230.915 151.253L236.945 157.283L233.959 160.268ZM245.986 148.242L242.971 151.258L236.941 145.227L239.96 142.212C240.772 141.436 241.851 141.003 242.973 141.003C244.096 141.003 245.175 141.436 245.986 142.212C246.785 143.012 247.234 144.096 247.234 145.227C247.234 146.358 246.785 147.442 245.986 148.242Z" fill="#044D45"/>
</svg>
