<svg width="233" height="233" viewBox="0 0 233 233" fill="none" xmlns="http://www.w3.org/2000/svg">
<path d="M113.484 83.3686C136.267 83.3686 154.802 64.834 154.802 42.0515C154.802 19.269 136.267 0.734375 113.484 0.734375C90.7015 0.734375 72.1669 19.2695 72.1669 42.052C72.1669 64.8345 90.7015 83.3686 113.484 83.3686ZM113.484 8.20312C132.148 8.20312 147.333 23.3876 147.333 42.052C147.333 60.7164 132.148 75.9003 113.484 75.9003C94.8196 75.9003 79.6356 60.7164 79.6356 42.052C79.6356 23.3876 94.8201 8.20312 113.484 8.20312ZM97.8039 53.0646C97.5803 52.1093 97.7417 51.1043 98.2531 50.267C98.7645 49.4296 99.5849 48.8271 100.537 48.5898C101.489 48.3524 102.496 48.4992 103.341 48.9984C104.185 49.4976 104.8 50.3092 105.051 51.2577C106.1 55.4682 110.462 56.8648 113.886 56.7845C116.841 56.7145 119.691 55.6684 120.976 54.1826C121.66 53.3928 121.911 52.4765 121.768 51.2992C121.524 49.2831 120.296 46.8133 112.914 45.6015C101.774 43.7721 99.172 37.9526 98.9512 33.3924C98.6455 27.1042 102.982 21.8429 109.75 20.2834V18.2696C109.75 17.2792 110.144 16.3293 110.844 15.629C111.544 14.9287 112.494 14.5352 113.484 14.5352C114.475 14.5352 115.425 14.9287 116.125 15.629C116.825 16.3293 117.219 17.2792 117.219 18.2696V20.2502C121.615 21.2104 125.807 23.9855 127.992 29.1894C128.375 30.1025 128.38 31.1306 128.006 32.0474C127.631 32.9642 126.908 33.6947 125.995 34.0781C125.081 34.4614 124.053 34.4663 123.137 34.0917C122.22 33.7171 121.489 32.9938 121.106 32.0807C119.327 27.8459 114.98 26.756 111.461 27.5537C110.583 27.753 106.213 28.9527 106.411 33.0302C106.464 34.1155 106.604 36.997 114.124 38.2317C123.319 39.7413 128.385 43.8351 129.182 50.3992C129.581 53.6766 128.696 56.6739 126.625 59.0686C124.487 61.5403 121.1 63.2693 117.219 63.9433V65.8339C117.219 66.8243 116.826 67.7741 116.126 68.4745C115.425 69.1748 114.475 69.5682 113.485 69.5682C112.495 69.5682 111.545 69.1748 110.844 68.4745C110.144 67.7741 109.751 66.8243 109.751 65.8339V63.8827C103.78 62.6797 99.1996 58.662 97.8039 53.0646ZM229.873 95.0964L225.046 93.2386C224.166 89.7819 222.793 86.47 220.969 83.4046L223.07 78.6736C223.377 77.9839 223.467 77.2176 223.329 76.4756C223.191 75.7337 222.832 75.0509 222.298 74.5172L216.655 68.8736C216.121 68.3403 215.438 67.9811 214.696 67.8432C213.954 67.7054 213.188 67.7955 212.498 68.1016L207.765 70.204C204.7 68.3805 201.389 67.0077 197.933 66.1279L196.074 61.2989C195.803 60.5947 195.325 59.9891 194.703 59.5619C194.081 59.1348 193.344 58.9061 192.589 58.9061H184.608C183.854 58.9061 183.117 59.1348 182.495 59.5619C181.873 59.9891 181.394 60.5947 181.123 61.2989L179.265 66.1279C175.809 67.0077 172.498 68.3804 169.433 70.204L164.7 68.1016C164.01 67.795 163.244 67.7047 162.502 67.8426C161.76 67.9804 161.077 68.3399 160.543 68.8736L154.9 74.5172C154.366 75.0509 154.007 75.7337 153.869 76.4756C153.731 77.2176 153.821 77.9839 154.128 78.6736L156.23 83.4064C154.406 86.471 153.033 89.7822 152.153 93.2381L147.325 95.0964C146.621 95.3674 146.015 95.8455 145.588 96.4676C145.161 97.0898 144.932 97.8268 144.932 98.5815V106.563C144.932 107.317 145.161 108.054 145.588 108.677C146.015 109.299 146.621 109.777 147.325 110.048L152.153 111.906C153.032 115.363 154.405 118.675 156.229 121.74L154.128 126.471C153.821 127.161 153.731 127.927 153.869 128.669C154.007 129.411 154.366 130.094 154.9 130.628L160.544 136.271C161.078 136.805 161.76 137.165 162.502 137.302C163.244 137.44 164.01 137.35 164.7 137.043L169.433 134.941C172.498 136.765 175.809 138.137 179.265 139.017L181.123 143.846C181.394 144.55 181.873 145.156 182.495 145.583C183.117 146.01 183.854 146.239 184.608 146.239H192.59C193.344 146.239 194.081 146.01 194.703 145.583C195.326 145.156 195.804 144.55 196.075 143.846L197.933 139.019C201.389 138.139 204.701 136.766 207.767 134.942L212.498 137.043C213.187 137.35 213.954 137.44 214.696 137.302C215.438 137.164 216.121 136.805 216.654 136.271L222.298 130.627C222.831 130.093 223.191 129.41 223.328 128.669C223.466 127.927 223.376 127.16 223.07 126.471L220.967 121.737C222.791 118.673 224.164 115.362 225.043 111.906L229.872 110.047C230.577 109.776 231.182 109.298 231.609 108.676C232.037 108.054 232.265 107.317 232.265 106.562V98.5811C232.265 97.8265 232.037 97.0897 231.61 96.4676C231.183 95.8455 230.577 95.3675 229.873 95.0964ZM224.797 103.999L220.5 105.653C219.911 105.88 219.388 106.253 218.982 106.736C218.576 107.22 218.299 107.799 218.177 108.418C217.412 112.328 215.871 116.045 213.645 119.35C213.293 119.874 213.08 120.479 213.025 121.108C212.97 121.737 213.076 122.37 213.332 122.947L215.203 127.159L213.186 129.177L208.975 127.307C208.398 127.051 207.765 126.945 207.136 127C206.507 127.054 205.902 127.268 205.378 127.62C202.072 129.846 198.355 131.387 194.444 132.152C193.824 132.274 193.245 132.551 192.762 132.957C192.278 133.363 191.905 133.885 191.679 134.475L190.025 138.77H187.173L185.518 134.473C185.291 133.884 184.918 133.361 184.435 132.955C183.951 132.549 183.372 132.272 182.752 132.15C178.832 131.381 175.154 129.856 171.821 127.619C171.297 127.267 170.692 127.054 170.063 126.999C169.434 126.944 168.802 127.05 168.224 127.306L164.012 129.177L161.994 127.16L163.865 122.949C164.121 122.372 164.227 121.739 164.172 121.11C164.118 120.481 163.904 119.876 163.552 119.351C161.326 116.046 159.785 112.328 159.019 108.417C158.897 107.798 158.621 107.219 158.214 106.735C157.808 106.252 157.286 105.879 156.696 105.652L152.401 103.999V101.146L156.697 99.4918C157.287 99.2648 157.809 98.892 158.216 98.4084C158.622 97.9247 158.899 97.3459 159.021 96.726C159.786 92.8159 161.327 89.0988 163.553 85.7946C163.905 85.2703 164.118 84.6652 164.173 84.0361C164.227 83.4069 164.122 82.7742 163.865 82.197L161.994 77.9851L164.012 75.968L168.224 77.8389C168.802 78.095 169.434 78.2006 170.063 78.146C170.692 78.0913 171.297 77.878 171.821 77.5262C175.126 75.3009 178.843 73.7599 182.753 72.9941C183.373 72.8724 183.952 72.5955 184.435 72.1893C184.919 71.783 185.291 71.2608 185.518 70.6713L187.173 66.3744H190.025L191.679 70.6713C191.906 71.2607 192.279 71.7829 192.762 72.1891C193.246 72.5953 193.825 72.8722 194.444 72.9941C198.354 73.7599 202.071 75.3011 205.376 77.5267C205.901 77.8786 206.506 78.0918 207.135 78.1464C207.764 78.2011 208.396 78.0953 208.973 77.8389L213.186 75.968L215.203 77.9851L213.333 82.196C213.076 82.7732 212.971 83.406 213.025 84.0352C213.08 84.6643 213.293 85.2693 213.646 85.7936C215.872 89.0987 217.413 92.8165 218.178 96.7274C218.3 97.3472 218.577 97.926 218.983 98.4097C219.389 98.8933 219.911 99.2659 220.501 99.4927L224.796 101.146V103.999H224.797ZM188.599 79.6011C175.933 79.6011 165.628 89.9056 165.628 102.572C165.628 115.239 175.933 125.543 188.599 125.543C201.266 125.543 211.57 115.239 211.57 102.572C211.57 89.9056 201.266 79.6011 188.599 79.6011ZM188.599 118.074C180.051 118.074 173.096 111.121 173.096 102.572C173.096 94.0237 180.051 87.0699 188.599 87.0699C197.148 87.0699 204.101 94.0237 204.101 102.572C204.101 111.121 197.148 118.074 188.599 118.074ZM66.887 114.087C69.7293 109.229 72.6687 104.206 72.6687 94.8728C72.6687 75.0405 56.5343 58.9057 36.7015 58.9057C16.8687 58.9057 0.734375 75.0405 0.734375 94.8728C0.734375 104.206 3.67379 109.229 6.51612 114.087C9.67167 119.479 12.9332 125.056 13.7211 138.214V143.33C13.7211 147.013 15.9529 150.181 19.1341 151.562V153.805C19.1341 157.472 21.3472 160.627 24.506 162.018V164.282C24.506 169.229 28.5307 173.254 33.4783 173.254H40.2758C45.2234 173.254 49.2481 169.229 49.2481 164.282V162.018C52.4065 160.627 54.6195 157.472 54.6195 153.805V151.393C57.6108 149.937 59.6824 146.874 59.6824 143.33V138.22C60.4685 125.058 63.7309 119.48 66.887 114.087ZM47.1503 153.805C47.1503 154.62 46.4618 155.309 45.6472 155.309H28.1064C27.2914 155.309 26.6024 154.62 26.6024 153.805V152.302H47.1503V153.805ZM52.2127 143.33C52.2127 144.145 51.5242 144.834 50.7096 144.834H22.6925C21.8775 144.834 21.1889 144.145 21.1889 143.33V141.826H52.2123L52.2127 143.33ZM27.4011 98.8658H23.6452C21.5736 98.8658 19.8889 97.1811 19.8889 95.11C19.8889 93.0388 21.5736 91.3541 23.6452 91.3541C25.7164 91.3541 27.4011 93.0388 27.4011 95.11V98.8658ZM38.5333 134.357H34.8698V106.335H38.5333V134.357ZM8.20312 94.8728C8.20312 79.1591 20.9878 66.3744 36.7015 66.3744C52.4153 66.3744 65.2 79.1591 65.2 94.8728C65.2 102.181 63.0998 105.771 60.441 110.315C57.4381 115.446 53.7606 121.732 52.497 134.357H46.002V106.335H49.7583C55.9476 106.335 60.9829 101.299 60.9829 95.11C60.9829 88.9207 55.9476 83.8854 49.7583 83.8854C43.5686 83.8854 38.5333 88.9207 38.5333 95.11V98.8658H34.8698V95.11C34.8698 88.9207 29.8345 83.8854 23.6452 83.8854C17.4555 83.8854 12.4202 88.9207 12.4202 95.11C12.4202 101.299 17.4555 106.335 23.6452 106.335H27.4011V134.357H20.9061C19.6424 121.732 15.965 115.446 12.9621 110.315C10.3032 105.771 8.20312 102.181 8.20312 94.8728ZM46.002 98.8658V95.11C46.002 93.0388 47.6867 91.3541 49.7583 91.3541C51.8295 91.3541 53.5142 93.0388 53.5142 95.11C53.5142 97.1811 51.8295 98.8658 49.7583 98.8658H46.002ZM40.2753 165.785H33.4778C32.6628 165.785 31.9743 165.096 31.9743 164.281V162.777H41.7789V164.281C41.7789 165.096 41.0904 165.785 40.2753 165.785ZM133.403 182.83C130.727 182.165 128.021 181.627 125.294 181.217V178.597C129.763 174.646 132.917 168.488 133.739 161.265C139.083 153.816 138.697 143.851 137.954 138.438C137.176 132.771 135.03 125.273 131.541 122.792C130.966 122.384 130.287 122.146 129.583 122.107C128.879 122.068 128.178 122.229 127.561 122.572C126.945 122.915 126.438 123.426 126.1 124.045C125.762 124.663 125.606 125.365 125.65 126.069C125.696 126.798 125.484 127.128 125.272 127.354C124.64 128.027 123.267 128.429 122.304 128.429H107.62C104.523 128.429 102.153 130.053 101.053 132.707C97.3501 133.132 94.1493 134.801 92.0879 137.431C89.8272 140.314 89.1163 144.072 90.0854 148.013L93.1546 160.498C93.8351 168.05 97.0486 174.507 101.675 178.597V181.184C98.9347 181.595 96.2178 182.147 93.5345 182.837C82.865 185.58 76.7448 191.769 76.7448 199.816V228.531C76.7448 229.522 77.1382 230.472 77.8385 231.172C78.5389 231.872 79.4887 232.266 80.4792 232.266H146.49C147.481 232.266 148.431 231.872 149.131 231.172C149.831 230.472 150.225 229.522 150.225 228.531V199.816C150.224 191.673 144.093 185.481 133.403 182.83ZM100.645 160.39L103.784 152.448C106.151 153.253 108.769 153.852 111.529 154.211C116.022 154.797 120.322 154.673 123.863 153.891L126.326 160.365C125.342 169.086 119.812 175.804 113.484 175.804C107.162 175.805 101.637 169.099 100.645 160.39ZM97.9654 142.039C98.947 140.787 100.764 140.069 102.952 140.069H104.113C105.103 140.069 106.053 139.676 106.753 138.975C107.454 138.275 107.847 137.325 107.847 136.335C107.847 136.173 107.861 136.023 107.881 135.897H122.304C124.356 135.897 127.09 135.295 129.316 133.691C129.901 135.62 130.437 138.045 130.721 140.855C130.957 143.184 131.09 146.652 130.42 150.122L129.592 147.945C129.411 147.469 129.135 147.036 128.78 146.671C128.426 146.306 128.001 146.018 127.531 145.823C127.061 145.628 126.556 145.532 126.048 145.539C125.539 145.546 125.037 145.658 124.573 145.866C122.474 146.808 118.197 147.549 112.494 146.805C109.045 146.355 105.809 145.435 103.383 144.214C102.92 143.981 102.413 143.847 101.895 143.82C101.377 143.793 100.859 143.875 100.374 144.06C99.8895 144.244 99.4485 144.528 99.0795 144.893C98.7105 145.257 98.4215 145.695 98.231 146.177L97.6722 147.591L97.3375 146.23C97.0481 145.053 96.9221 143.37 97.9654 142.039ZM113.484 183.273C114.973 183.273 116.424 183.069 117.825 182.693V184.499C117.825 185.166 118.004 185.794 118.313 186.339C116.802 187.25 115.155 187.742 113.484 187.742C111.808 187.742 110.157 187.247 108.642 186.331C108.97 185.766 109.143 185.123 109.143 184.469V182.693C110.558 183.076 112.018 183.271 113.484 183.273ZM84.2131 199.816C84.2131 194.137 90.2931 191.382 95.3938 190.07C97.0196 189.654 98.6592 189.293 100.31 188.988C102.946 191.947 106.217 193.938 109.75 194.768V224.797H99.2108V206.356C99.2108 205.366 98.8173 204.416 98.117 203.715C97.4167 203.015 96.4668 202.622 95.4764 202.622C94.486 202.622 93.5361 203.015 92.8358 203.715C92.1355 204.416 91.742 205.366 91.742 206.356V224.797H84.2131V199.816ZM142.755 224.797H135.226V206.356C135.226 205.366 134.832 204.416 134.132 203.715C133.431 203.015 132.482 202.622 131.491 202.622C130.501 202.622 129.551 203.015 128.851 203.715C128.15 204.416 127.757 205.366 127.757 206.356V224.797H117.218V194.768C120.741 193.941 124.004 191.958 126.636 189.014C128.303 189.316 129.96 189.671 131.605 190.078C135.769 191.111 142.755 193.75 142.755 199.816V224.797ZM109.75 120.636V101.843L108.458 103.747C107.897 104.556 107.04 105.11 106.073 105.291C105.106 105.471 104.106 105.262 103.292 104.71C102.478 104.158 101.914 103.306 101.724 102.341C101.534 101.375 101.733 100.374 102.277 99.5543L110.394 87.5913C110.736 87.0869 111.197 86.674 111.735 86.3886C112.274 86.1032 112.874 85.954 113.484 85.954C114.094 85.954 114.694 86.1032 115.233 86.3886C115.771 86.674 116.232 87.0869 116.574 87.5913L124.691 99.5543C125.247 100.374 125.455 101.381 125.269 102.353C125.082 103.326 124.517 104.185 123.698 104.741C123.081 105.161 122.351 105.386 121.604 105.386C120.994 105.386 120.393 105.237 119.854 104.952C119.314 104.666 118.853 104.252 118.511 103.747L117.218 101.843V120.636C117.218 121.626 116.825 122.576 116.125 123.276C115.424 123.977 114.474 124.37 113.484 124.37C112.494 124.37 111.544 123.977 110.843 123.276C110.143 122.576 109.75 121.626 109.75 120.636ZM70.7782 164.939C70.8818 165.48 70.8646 166.036 70.728 166.569C70.5913 167.103 70.3384 167.599 69.9875 168.023C69.6366 168.447 69.1963 168.788 68.6982 169.022C68.2 169.256 67.6563 169.377 67.1059 169.376C66.238 169.375 65.3977 169.072 64.7291 168.519C64.0605 167.965 63.6054 167.196 63.442 166.344L60.7224 152.146C60.6078 151.547 60.6414 150.929 60.8205 150.346C60.9995 149.764 61.3185 149.234 61.7496 148.803C62.1806 148.371 62.7107 148.052 63.2934 147.873C63.8761 147.694 64.4939 147.661 65.0926 147.775L79.2912 150.495C79.7728 150.587 80.2316 150.773 80.6413 151.043C81.051 151.312 81.4036 151.66 81.679 152.066C81.9544 152.472 82.1472 152.928 82.2463 153.408C82.3454 153.888 82.3489 154.383 82.2567 154.865C82.1645 155.347 81.9783 155.806 81.7088 156.215C81.4392 156.625 81.0916 156.978 80.6858 157.253C80.28 157.528 79.8239 157.721 79.3436 157.82C78.8634 157.919 78.3682 157.923 77.8866 157.831L75.6268 157.398L88.9146 170.686C89.615 171.387 90.0084 172.336 90.0084 173.327C90.0084 174.317 89.615 175.267 88.9146 175.968C88.2143 176.668 87.2644 177.061 86.274 177.061C85.2835 177.061 84.3336 176.668 83.6333 175.968L70.3455 162.679L70.7782 164.939ZM165.218 148.802C165.649 149.233 165.968 149.763 166.147 150.346C166.326 150.929 166.36 151.546 166.245 152.145L163.526 166.344C163.339 167.316 162.774 168.175 161.954 168.731C161.135 169.287 160.128 169.495 159.155 169.309C158.673 169.217 158.214 169.03 157.805 168.761C157.395 168.491 157.042 168.144 156.767 167.738C156.492 167.332 156.299 166.876 156.2 166.396C156.101 165.915 156.097 165.42 156.189 164.939L156.622 162.678L143.334 175.967C142.605 176.696 141.65 177.06 140.694 177.06C139.738 177.06 138.782 176.696 138.053 175.967C137.706 175.62 137.431 175.208 137.243 174.755C137.056 174.302 136.959 173.816 136.959 173.326C136.959 172.836 137.056 172.35 137.243 171.897C137.431 171.444 137.706 171.032 138.053 170.685L151.341 157.397L149.081 157.83C147.056 158.214 145.099 156.89 144.711 154.864C144.619 154.382 144.622 153.887 144.721 153.407C144.82 152.927 145.013 152.471 145.289 152.065C145.564 151.659 145.917 151.311 146.326 151.042C146.736 150.772 147.195 150.586 147.676 150.494L161.875 147.774C162.474 147.66 163.091 147.694 163.674 147.873C164.257 148.052 164.787 148.371 165.218 148.802Z" fill="#044D45"/>
</svg>
