<svg width="136" height="136" viewBox="0 0 136 136" fill="none" xmlns="http://www.w3.org/2000/svg">
<path d="M8.024 107.321C7.50873 107.321 7.01455 107.526 6.6502 107.891C6.28584 108.255 6.08115 108.749 6.08115 109.264C6.08115 109.78 6.28584 110.274 6.6502 110.638C7.01455 111.002 7.50873 111.207 8.024 111.207H11.3269V123.07C11.3269 124.139 12.2011 125.013 13.2697 125.013H25.1347V127.636C25.1347 128.151 25.3394 128.645 25.7038 129.01C26.0682 129.374 26.5623 129.579 27.0776 129.579C27.5929 129.579 28.0871 129.374 28.4514 129.01C28.8158 128.645 29.0205 128.151 29.0205 127.636V125.013H42.5486V127.636C42.5486 128.151 42.7533 128.645 43.1176 129.01C43.482 129.374 43.9762 129.579 44.4914 129.579C45.0067 129.579 45.5009 129.374 45.8652 129.01C46.2296 128.645 46.4343 128.151 46.4343 127.636V125.013H59.9663V127.636C59.9663 128.151 60.171 128.645 60.5353 129.01C60.8997 129.374 61.3939 129.579 61.9091 129.579C62.4244 129.579 62.9186 129.374 63.2829 129.01C63.6473 128.645 63.852 128.151 63.852 127.636V125.013H77.3859V127.636C77.3859 128.151 77.5906 128.645 77.955 129.01C78.3194 129.374 78.8135 129.579 79.3288 129.579C79.8441 129.579 80.3382 129.374 80.7026 129.01C81.067 128.645 81.2717 128.151 81.2717 127.636V125.013H94.8017V127.636C94.8017 128.151 95.0064 128.645 95.3708 129.01C95.7351 129.374 96.2293 129.579 96.7446 129.579C97.2598 129.579 97.754 129.374 98.1184 129.01C98.4827 128.645 98.6874 128.151 98.6874 127.636V125.013H112.219V127.636C112.219 128.151 112.424 128.645 112.788 129.01C113.153 129.374 113.647 129.579 114.162 129.579C114.678 129.579 115.172 129.374 115.536 129.01C115.9 128.645 116.105 128.151 116.105 127.636V125.013H127.976C129.043 125.013 129.919 124.139 129.919 123.07C129.919 122.002 129.043 121.127 127.976 121.127H122.691V106.226C122.691 105.157 121.815 104.283 120.749 104.283H111.695V94.4908C111.695 93.4223 110.821 92.548 109.752 92.548H100.698V82.4063C100.698 81.3183 99.824 80.4634 98.7554 80.4634H89.7017V69.0006C89.7017 67.932 88.8274 67.0577 87.7589 67.0577H78.7051V55.1286C78.7051 54.06 77.8309 53.1857 76.7623 53.1857H65.7657C64.6971 53.1857 63.8229 54.06 63.8229 55.1286V67.0577H54.7691C53.7006 67.0577 52.8263 67.932 52.8263 69.0006V80.4634H43.792C42.704 80.4634 41.8491 81.3183 41.8491 82.4063V92.548H32.7954C31.7074 92.548 30.8526 93.4223 30.8526 94.4908V104.283H21.7989C20.7303 104.283 19.856 105.157 19.856 106.226V121.127H15.2126V8.364C15.2126 7.29543 14.3383 6.42114 13.2697 6.42114C12.2011 6.42114 11.3269 7.29543 11.3269 8.364V20.2349H8.024C7.50873 20.2349 7.01455 20.4395 6.6502 20.8039C6.28584 21.1683 6.08115 21.6624 6.08115 22.1777C6.08115 22.693 6.28584 23.1872 6.6502 23.5515C7.01455 23.9159 7.50873 24.1206 8.024 24.1206H11.3269V37.6526H8.024C7.50873 37.6526 7.01455 37.8573 6.6502 38.2216C6.28584 38.586 6.08115 39.0801 6.08115 39.5954C6.08115 40.1107 6.28584 40.6049 6.6502 40.9692C7.01455 41.3336 7.50873 41.5383 8.024 41.5383H11.3269V55.0683H8.024C7.50873 55.0683 7.01455 55.273 6.6502 55.6374C6.28584 56.0017 6.08115 56.4959 6.08115 57.0112C6.08115 57.5265 6.28584 58.0206 6.6502 58.385C7.01455 58.7494 7.50873 58.9541 8.024 58.9541H11.3269V72.486H8.024C7.50873 72.486 7.01455 72.6907 6.6502 73.0551C6.28584 73.4195 6.08115 73.9136 6.08115 74.4289C6.08115 74.9442 6.28584 75.4384 6.6502 75.8027C7.01455 76.1671 7.50873 76.3718 8.024 76.3718H11.3269V89.9038H8.024C7.50873 89.9038 7.01455 90.1085 6.6502 90.4728C6.28584 90.8372 6.08115 91.3313 6.08115 91.8466C6.08115 92.3619 6.28584 92.8561 6.6502 93.2204C7.01455 93.5848 7.50873 93.7895 8.024 93.7895H11.3269V107.321H8.024ZM100.698 96.4337H107.809V121.127H100.698V96.4337ZM78.7051 70.9434H85.816V121.127H78.7051V70.9434ZM56.712 70.9434H63.8229V121.127H56.712V70.9434ZM34.7383 96.4337H41.8491V121.127H34.7383V96.4337Z" fill="#044D45"/>
<path d="M22.1933 76.807C53.6054 70.3217 59.5855 48.7113 62.7077 44.4701C66.1485 39.8169 75.344 40.1297 78.5322 44.4701C81.9361 49.0843 87.4169 70.277 119.049 76.807C119.542 76.8832 120.045 76.7671 120.455 76.4828C120.864 76.1984 121.149 75.7674 121.25 75.279C121.351 74.7905 121.261 74.2819 120.998 73.8583C120.734 73.4347 120.318 73.1284 119.835 73.0029C90.0359 66.8459 85.3497 47.1629 81.6583 42.16C76.9371 35.7563 64.5942 35.3833 59.5816 42.16C56.0592 46.9394 51.0855 66.8693 21.4045 72.999C20.8997 73.1036 20.4572 73.4044 20.1743 73.8352C19.8914 74.2661 19.7912 74.7917 19.8958 75.2964C20.0004 75.8011 20.3012 76.2436 20.7321 76.5265C21.1629 76.8094 21.6885 76.9116 22.1933 76.807ZM46.8423 23.1491H55.0217C57.392 23.1491 59.296 21.2451 59.296 18.8749V10.6954C59.296 9.56182 58.8457 8.47464 58.0441 7.67305C57.2425 6.87147 56.1553 6.42114 55.0217 6.42114H46.8423C44.4914 6.42114 42.568 8.34457 42.568 10.6954V18.8749C42.568 21.2451 44.4914 23.1491 46.8423 23.1491ZM46.4537 10.6954C46.4537 10.4817 46.6286 10.3069 46.8423 10.3069H55.0217C55.2354 10.3069 55.4103 10.4817 55.4103 10.6954V18.8749C55.4103 18.9779 55.3693 19.0767 55.2965 19.1496C55.2236 19.2225 55.1248 19.2634 55.0217 19.2634H46.8423C46.7392 19.2634 46.6404 19.2225 46.5675 19.1496C46.4946 19.0767 46.4537 18.9779 46.4537 18.8749V10.6954ZM25.16 22.6634H33.3394C35.4377 22.6634 37.128 20.9731 37.128 18.8749V10.6954C37.128 8.61657 35.4377 6.90686 33.3394 6.90686H25.16C23.0811 6.90686 21.3714 8.61657 21.3714 10.6954V18.8749C21.3714 20.9731 23.0811 22.6634 25.16 22.6634ZM68.5246 22.6634H76.704C78.8023 22.6634 80.4926 20.9731 80.4926 18.8749V10.6954C80.4926 8.61657 78.8023 6.90686 76.704 6.90686H68.5246C66.4457 6.90686 64.736 8.61657 64.736 10.6954V18.8749C64.736 20.9731 66.4457 22.6634 68.5246 22.6634Z" fill="#044D45"/>
</svg>
