<svg width="164" height="158" viewBox="0 0 164 158" fill="none" xmlns="http://www.w3.org/2000/svg">
<path d="M163.562 138.812V8.3125C163.562 7.59144 163.276 6.89992 162.766 6.39005C162.256 5.88019 161.565 5.59375 160.844 5.59375H152.688V2.875C152.688 2.15394 152.401 1.46242 151.891 0.952553C151.381 0.442689 150.69 0.15625 149.969 0.15625H103.75C100.102 0.165186 96.5022 0.985407 93.2106 2.55749C89.919 4.12958 87.0184 6.41415 84.7188 9.24571C82.4191 6.41415 79.5185 4.12958 76.2269 2.55749C72.9353 0.985407 69.3352 0.165186 65.6875 0.15625H14.0312C13.3102 0.15625 12.6187 0.442689 12.1088 0.952553C11.5989 1.46242 11.3125 2.15394 11.3125 2.875V5.59375H3.15625C2.43519 5.59375 1.74367 5.88019 1.2338 6.39005C0.723939 6.89992 0.4375 7.59144 0.4375 8.3125V138.812C0.4375 139.534 0.723939 140.225 1.2338 140.735C1.74367 141.245 2.43519 141.531 3.15625 141.531H129.811L142.279 153.999C143.495 155.222 144.942 156.191 146.535 156.851C148.129 157.511 149.837 157.848 151.562 157.844C154.744 157.844 157.797 156.579 160.048 154.329C162.298 152.078 163.562 149.026 163.562 145.843C163.565 144.144 163.237 142.462 162.598 140.888C162.9 140.634 163.143 140.316 163.31 139.957C163.476 139.599 163.563 139.208 163.562 138.812ZM158.125 11.0312V134.968L152.688 129.53V11.0312H158.125ZM130.938 129.53L122.18 120.773C123.722 119.445 125.163 118.003 126.492 116.462L135.249 125.219L130.938 129.53ZM16.75 119.781H67.8995C70.1443 121.863 72.6151 123.687 75.2657 125.219H16.75V119.781ZM60.25 89.875C60.25 82.8847 62.3229 76.0513 66.2065 70.2391C70.0901 64.4268 75.6101 59.8967 82.0683 57.2216C88.5265 54.5465 95.633 53.8466 102.489 55.2104C109.345 56.5741 115.643 59.9403 120.586 64.8832C125.528 69.8261 128.895 76.1238 130.258 82.9798C131.622 89.8358 130.922 96.9422 128.247 103.4C125.572 109.859 121.042 115.379 115.23 119.262C109.417 123.146 102.584 125.219 95.5938 125.219C86.2233 125.208 77.2396 121.481 70.6137 114.855C63.9877 108.229 60.2606 99.2455 60.25 89.875ZM44.7134 59.2891C43.7355 58.9972 42.7873 58.6137 41.8814 58.1438C41.3688 57.8779 40.7848 57.7822 40.2141 57.8705C39.6434 57.9588 39.1156 58.2265 38.7073 58.6349L35.7812 61.5616L31.4697 57.25L34.3964 54.3239C34.8047 53.9156 35.0723 53.3878 35.1606 52.8171C35.2488 52.2464 35.153 51.6624 34.8871 51.1498C34.4173 50.2439 34.0338 49.2957 33.7418 48.3179C33.5747 47.7566 33.2308 47.2643 32.7613 46.9142C32.2919 46.5641 31.7219 46.375 31.1363 46.375H27.625V40.9375H31.1363C31.722 40.9375 32.292 40.7485 32.7616 40.3984C33.2311 40.0483 33.575 39.5559 33.7422 38.9946C34.0342 38.0168 34.4176 37.0686 34.8875 36.1627C35.1534 35.6501 35.2491 35.0661 35.1609 34.4954C35.0727 33.9247 34.805 33.3969 34.3967 32.9886L31.4697 30.0625L35.7812 25.7509L38.7073 28.6773C39.1156 29.0857 39.6434 29.3534 40.2141 29.4417C40.7848 29.53 41.3688 29.4342 41.8814 29.1684C42.7873 28.6985 43.7355 28.315 44.7134 28.0231C45.2746 27.856 45.767 27.5121 46.117 27.0426C46.4671 26.5731 46.6562 26.0031 46.6562 25.4175V21.9062H52.0938V25.4175C52.0937 26.0032 52.2828 26.5733 52.6329 27.0428C52.983 27.5124 53.4753 27.8563 54.0366 28.0234C55.0145 28.3153 55.9627 28.6988 56.8686 29.1687C57.3812 29.4346 57.9652 29.5303 58.5359 29.442C59.1066 29.3537 59.6344 29.086 60.0427 28.6776L62.9688 25.7509L67.2803 30.0625L64.3536 32.9886C63.9453 33.3969 63.6777 33.9247 63.5894 34.4954C63.5012 35.0661 63.597 35.6501 63.8629 36.1627C64.3327 37.0686 64.7162 38.0168 65.0082 38.9946C65.1753 39.5559 65.5192 40.0482 65.9886 40.3983C66.4581 40.7484 67.0281 40.9375 67.6137 40.9375H71.125V46.375H67.6137C67.028 46.375 66.458 46.564 65.9884 46.9141C65.5189 47.2642 65.175 47.7566 65.0078 48.3179C64.7158 49.2957 64.3324 50.2439 63.8625 51.1498C63.5966 51.6624 63.5009 52.2464 63.5891 52.8171C63.6773 53.3878 63.945 53.9156 64.3533 54.3239L67.28 57.25L62.9688 61.5616L60.0427 58.6352C59.6344 58.2269 59.1066 57.9591 58.5359 57.8708C57.9652 57.7825 57.3812 57.8783 56.8686 58.1441C55.9627 58.614 55.0145 58.9975 54.0366 59.2894C53.4754 59.4565 52.983 59.8004 52.633 60.2699C52.2829 60.7394 52.0938 61.3094 52.0938 61.895V65.4062H46.6562V61.895C46.6563 61.3093 46.4672 60.7392 46.1171 60.2697C45.767 59.8001 45.2747 59.4562 44.7134 59.2891ZM117.789 124.071L118.936 125.219H115.922C116.555 124.853 117.178 124.471 117.789 124.071ZM139.89 120.577L139.094 121.374L137.501 119.781H147.25V124.093L143.735 120.577C143.483 120.325 143.183 120.125 142.853 119.988C142.523 119.851 142.17 119.781 141.812 119.781C141.455 119.781 141.102 119.851 140.772 119.988C140.442 120.125 140.142 120.325 139.89 120.577ZM103.75 5.59375H147.25V114.344H132.064L129.79 112.07C134.345 105.068 136.636 96.8349 136.351 88.4869C136.067 80.1389 133.22 72.0808 128.198 65.4062H133.656C134.377 65.4062 135.069 65.1198 135.579 64.6099C136.089 64.1001 136.375 63.4086 136.375 62.6875C136.375 61.9664 136.089 61.2749 135.579 60.7651C135.069 60.2552 134.377 59.9688 133.656 59.9688H123.288C121.043 57.8871 118.572 56.0632 115.922 54.5312H133.656C134.377 54.5312 135.069 54.2448 135.579 53.7349C136.089 53.2251 136.375 52.5336 136.375 51.8125C136.375 51.0914 136.089 50.3999 135.579 49.8901C135.069 49.3802 134.377 49.0938 133.656 49.0938H95.5938C92.8544 49.0926 90.1218 49.3674 87.4375 49.9138V14.6564L88.525 13.2063C90.3026 10.8479 92.6023 8.93324 95.2437 7.61249C97.8852 6.29175 100.797 5.60078 103.75 5.59375ZM65.6875 5.59375C68.6408 5.60078 71.5523 6.29175 74.1938 7.61249C76.8352 8.93324 79.1349 10.8479 80.9125 13.2063L82 14.6564V51.4275C78.9604 52.5058 76.06 53.942 73.3598 55.7057C73.2673 55.5709 73.1627 55.4446 73.0475 55.3285L69.5362 51.8173V51.8135H73.8438C74.5648 51.8135 75.2563 51.5271 75.7662 51.0172C76.2761 50.5074 76.5625 49.8158 76.5625 49.0948V38.2188C76.5625 37.4977 76.2761 36.8062 75.7662 36.2963C75.2563 35.7864 74.5648 35.5 73.8438 35.5H69.5376V35.4963L73.0489 31.985C73.3013 31.7325 73.5016 31.4328 73.6382 31.103C73.7749 30.7731 73.8452 30.4195 73.8452 30.0625C73.8452 29.7055 73.7749 29.3519 73.6382 29.022C73.5016 28.6922 73.3013 28.3925 73.0489 28.14L64.8926 19.9838C64.6401 19.7313 64.3404 19.531 64.0106 19.3944C63.6807 19.2577 63.3272 19.1874 62.9701 19.1874C62.6131 19.1874 62.2595 19.2577 61.9297 19.3944C61.5998 19.531 61.3001 19.7313 61.0476 19.9838L57.535 23.495H57.5312V19.1875C57.5312 18.4664 57.2448 17.7749 56.7349 17.2651C56.2251 16.7552 55.5336 16.4688 54.8125 16.4688H43.9375C43.2164 16.4688 42.5249 16.7552 42.0151 17.2651C41.5052 17.7749 41.2188 18.4664 41.2188 19.1875V23.4937H41.215L37.7037 19.9838C37.4513 19.7313 37.1516 19.531 36.8217 19.3944C36.4918 19.2577 36.1383 19.1874 35.7812 19.1874C35.4242 19.1874 35.0707 19.2577 34.7408 19.3944C34.4109 19.531 34.1112 19.7313 33.8588 19.9838L25.7025 28.14C25.45 28.3925 25.2498 28.6922 25.1131 29.022C24.9765 29.3519 24.9062 29.7055 24.9062 30.0625C24.9062 30.4195 24.9765 30.7731 25.1131 31.103C25.2498 31.4328 25.45 31.7325 25.7025 31.985L29.2138 35.4963V35.5H24.9062C24.1852 35.5 23.4937 35.7864 22.9838 36.2963C22.4739 36.8062 22.1875 37.4977 22.1875 38.2188V49.0938C22.1875 49.8148 22.4739 50.5063 22.9838 51.0162C23.4937 51.5261 24.1852 51.8125 24.9062 51.8125H29.2124V51.8162L25.7025 55.3275C25.45 55.58 25.2498 55.8797 25.1131 56.2095C24.9765 56.5394 24.9062 56.893 24.9062 57.25C24.9062 57.607 24.9765 57.9606 25.1131 58.2905C25.2498 58.6203 25.45 58.92 25.7025 59.1725L33.8588 67.3287C34.1112 67.5812 34.4109 67.7815 34.7408 67.9181C35.0707 68.0548 35.4242 68.1251 35.7812 68.1251C36.1383 68.1251 36.4918 68.0548 36.8217 67.9181C37.1516 67.7815 37.4513 67.5812 37.7037 67.3287L41.215 63.8175H41.2188V68.125C41.2188 68.8461 41.5052 69.5376 42.0151 70.0474C42.5249 70.5573 43.2164 70.8438 43.9375 70.8438H54.8125C55.5336 70.8438 56.2251 70.5573 56.7349 70.0474C57.2448 69.5376 57.5312 68.8461 57.5312 68.125V63.8188H57.535L61.0463 67.3301C61.1624 67.4453 61.2887 67.5498 61.4235 67.6424C59.6598 70.3422 58.2236 73.2421 57.1452 76.2812H52.0938C51.3727 76.2812 50.6812 76.5677 50.1713 77.0776C49.6614 77.5874 49.375 78.2789 49.375 79C49.375 79.7211 49.6614 80.4126 50.1713 80.9224C50.6812 81.4323 51.3727 81.7188 52.0938 81.7188H55.6325C55.268 83.5128 55.025 85.3294 54.9053 87.1562H46.6562C45.9352 87.1562 45.2437 87.4427 44.7338 87.9526C44.2239 88.4624 43.9375 89.1539 43.9375 89.875C43.9375 90.5961 44.2239 91.2876 44.7338 91.7974C45.2437 92.3073 45.9352 92.5938 46.6562 92.5938H54.9053C55.025 94.4206 55.268 96.2372 55.6325 98.0312H46.6562C45.9352 98.0312 45.2437 98.3177 44.7338 98.8276C44.2239 99.3374 43.9375 100.029 43.9375 100.75C43.9375 101.471 44.2239 102.163 44.7338 102.672C45.2437 103.182 45.9352 103.469 46.6562 103.469H57.1452C58.5298 107.37 60.5009 111.037 62.9905 114.344H16.75V5.59375H65.6875ZM5.875 136.094V11.0312H11.3125V127.938C11.3125 128.659 11.5989 129.35 12.1088 129.86C12.6187 130.37 13.3102 130.656 14.0312 130.656H124.374L127.093 133.375L126.296 134.171C126.043 134.423 125.843 134.723 125.706 135.053C125.57 135.383 125.5 135.737 125.5 136.094H5.875ZM156.202 150.484C155.594 151.095 154.871 151.58 154.075 151.91C153.278 152.24 152.424 152.409 151.562 152.406C150.551 152.409 149.551 152.211 148.617 151.825C147.684 151.438 146.837 150.87 146.124 150.154L132.063 136.094L141.812 126.345L155.873 140.405C156.589 141.118 157.157 141.965 157.544 142.899C157.93 143.832 158.128 144.833 158.125 145.843C158.127 146.705 157.959 147.559 157.629 148.356C157.299 149.152 156.814 149.876 156.202 150.484Z" fill="#044D45"/>
<path d="M24.9062 103.469H35.7812C36.5023 103.469 37.1938 103.182 37.7037 102.672C38.2136 102.163 38.5 101.471 38.5 100.75V79C38.5 78.2789 38.2136 77.5874 37.7037 77.0776C37.1938 76.5677 36.5023 76.2812 35.7812 76.2812H24.9062C24.1852 76.2812 23.4937 76.5677 22.9838 77.0776C22.4739 77.5874 22.1875 78.2789 22.1875 79V100.75C22.1875 101.471 22.4739 102.163 22.9838 102.672C23.4937 103.182 24.1852 103.469 24.9062 103.469ZM27.625 81.7188H33.0625V98.0312H27.625V81.7188ZM101.031 21.9062H106.469C107.19 21.9062 107.881 21.6198 108.391 21.1099C108.901 20.6001 109.188 19.9086 109.188 19.1875C109.188 18.4664 108.901 17.7749 108.391 17.2651C107.881 16.7552 107.19 16.4688 106.469 16.4688H101.031C100.31 16.4688 99.6187 16.7552 99.1088 17.2651C98.5989 17.7749 98.3125 18.4664 98.3125 19.1875C98.3125 19.9086 98.5989 20.6001 99.1088 21.1099C99.6187 21.6198 100.31 21.9062 101.031 21.9062ZM117.344 21.9062H133.656C134.377 21.9062 135.069 21.6198 135.579 21.1099C136.089 20.6001 136.375 19.9086 136.375 19.1875C136.375 18.4664 136.089 17.7749 135.579 17.2651C135.069 16.7552 134.377 16.4688 133.656 16.4688H117.344C116.623 16.4688 115.931 16.7552 115.421 17.2651C114.911 17.7749 114.625 18.4664 114.625 19.1875C114.625 19.9086 114.911 20.6001 115.421 21.1099C115.931 21.6198 116.623 21.9062 117.344 21.9062ZM95.5938 32.7812H106.469C107.19 32.7812 107.881 32.4948 108.391 31.9849C108.901 31.4751 109.188 30.7836 109.188 30.0625C109.188 29.3414 108.901 28.6499 108.391 28.1401C107.881 27.6302 107.19 27.3438 106.469 27.3438H95.5938C94.8727 27.3438 94.1812 27.6302 93.6713 28.1401C93.1614 28.6499 92.875 29.3414 92.875 30.0625C92.875 30.7836 93.1614 31.4751 93.6713 31.9849C94.1812 32.4948 94.8727 32.7812 95.5938 32.7812ZM95.5938 43.6562H106.469C107.19 43.6562 107.881 43.3698 108.391 42.8599C108.901 42.3501 109.188 41.6586 109.188 40.9375C109.188 40.2164 108.901 39.5249 108.391 39.0151C107.881 38.5052 107.19 38.2188 106.469 38.2188H95.5938C94.8727 38.2188 94.1812 38.5052 93.6713 39.0151C93.1614 39.5249 92.875 40.2164 92.875 40.9375C92.875 41.6586 93.1614 42.3501 93.6713 42.8599C94.1812 43.3698 94.8727 43.6562 95.5938 43.6562ZM117.344 43.6562H133.656C134.377 43.6562 135.069 43.3698 135.579 42.8599C136.089 42.3501 136.375 41.6586 136.375 40.9375V30.0625C136.375 29.3414 136.089 28.6499 135.579 28.1401C135.069 27.6302 134.377 27.3438 133.656 27.3438H117.344C116.623 27.3438 115.931 27.6302 115.421 28.1401C114.911 28.6499 114.625 29.3414 114.625 30.0625V40.9375C114.625 41.6586 114.911 42.3501 115.421 42.8599C115.931 43.3698 116.623 43.6562 117.344 43.6562ZM120.062 32.7812H130.938V38.2188H120.062V32.7812ZM95.5938 59.9688C89.6789 59.9687 83.8968 61.7227 78.9787 65.0089C74.0607 68.295 70.2275 72.9657 67.964 78.4304C65.7004 83.895 65.1082 89.9082 66.2621 95.7094C67.4161 101.511 70.2644 106.839 74.4468 111.022C78.6293 115.204 83.9581 118.053 89.7593 119.207C95.5606 120.361 101.574 119.768 107.038 117.505C112.503 115.241 117.174 111.408 120.46 106.49C123.746 101.572 125.5 95.7899 125.5 89.875C125.491 81.9461 122.337 74.3446 116.731 68.738C111.124 63.1315 103.523 59.9777 95.5938 59.9688ZM95.5938 114.344C90.7543 114.344 86.0235 112.909 81.9996 110.22C77.9758 107.531 74.8396 103.71 72.9876 99.2388C71.1356 94.7677 70.651 89.8479 71.5952 85.1014C72.5393 80.3549 74.8697 75.995 78.2917 72.573C81.7137 69.151 86.0737 66.8205 90.8201 65.8764C95.5666 64.9323 100.486 65.4168 104.958 67.2688C109.429 69.1208 113.25 72.257 115.939 76.2809C118.627 80.3048 120.062 85.0355 120.062 89.875C120.055 96.3623 117.475 102.582 112.888 107.169C108.301 111.756 102.081 114.336 95.5938 114.344ZM60.25 43.6562C60.25 41.5054 59.6122 39.4028 58.4172 37.6144C57.2223 35.826 55.5238 34.4322 53.5367 33.6091C51.5495 32.786 49.3629 32.5706 47.2534 32.9902C45.1438 33.4098 43.2061 34.4456 41.6852 35.9665C40.1643 37.4874 39.1286 39.4251 38.709 41.5346C38.2893 43.6442 38.5047 45.8308 39.3278 47.8179C40.1509 49.8051 41.5448 51.5035 43.3332 52.6985C45.1216 53.8934 47.2241 54.5312 49.375 54.5312C52.2582 54.528 55.0225 53.3812 57.0612 51.3425C59.1 49.3037 60.2468 46.5395 60.25 43.6562ZM43.9375 43.6562C43.9375 42.5808 44.2564 41.5295 44.8539 40.6353C45.4514 39.7411 46.3006 39.0442 47.2942 38.6327C48.2877 38.2211 49.381 38.1134 50.4358 38.3232C51.4906 38.533 52.4594 39.0509 53.2199 39.8114C53.9803 40.5718 54.4982 41.5407 54.708 42.5954C54.9178 43.6502 54.8101 44.7435 54.3986 45.7371C53.987 46.7307 53.2901 47.5799 52.3959 48.1774C51.5017 48.7748 50.4504 49.0938 49.375 49.0938C47.9334 49.092 46.5514 48.5186 45.532 47.4993C44.5126 46.4799 43.9392 45.0978 43.9375 43.6562Z" fill="#044D45"/>
</svg>
