<svg width="1686" height="2266" viewBox="0 0 1686 2266" fill="none" xmlns="http://www.w3.org/2000/svg">
<path fill-rule="evenodd" clip-rule="evenodd" d="M843 0C1151.92 0 1404.6 252.681 1404.6 561.601V1413.03H1166.11V561.601C1166.11 384.375 1020.23 238.497 843.004 238.497C665.783 238.497 520.029 384.379 520.029 561.601V1413.03H281.408V561.601C281.399 252.681 534.08 0 843 0Z" fill="#0B2840"/>
<path fill-rule="evenodd" clip-rule="evenodd" d="M843 0C1151.92 0 1404.6 252.681 1404.6 561.601V1413.03H1282.58V561.601C1282.58 273.319 1062.4 34.052 781.995 3.35474C802.11 1.15955 822.363 0 843 0ZM781.991 244.427C633.528 273.319 520.024 405.269 520.024 561.601V1413.03H398.005V561.601C398.005 384.375 543.76 238.497 720.981 238.497C741.462 238.492 761.894 240.479 781.991 244.427Z" fill="#185586"/>
<path fill-rule="evenodd" clip-rule="evenodd" d="M148.546 877.093H1537.45C1618.84 877.093 1685.39 943.647 1685.39 1025.04V2118.05C1685.39 2199.44 1618.84 2266 1537.45 2266H148.546C67.1561 2266 0.601196 2199.44 0.601196 2118.05V1025.04C0.601196 943.652 67.1561 877.093 148.546 877.093Z" fill="#0B2840"/>
<path fill-rule="evenodd" clip-rule="evenodd" d="M843 1249.22C948.382 1249.22 1033.9 1334.6 1033.9 1440.11C1033.9 1524.73 978.823 1596.44 902.46 1621.46V1834.42C902.46 1867.18 875.76 1894.01 843 1894.01C810.236 1894.01 783.54 1867.18 783.54 1834.42V1621.46C707.31 1596.44 652.103 1524.73 652.103 1440.11C652.103 1334.6 737.618 1249.22 843 1249.22Z" fill="white"/>
<path fill-rule="evenodd" clip-rule="evenodd" d="M1525.07 1025.04V2118.06C1525.07 2199.45 1458.39 2266 1377.13 2266H1537.45C1618.84 2266 1685.4 2199.45 1685.4 2118.06V1025.04C1685.4 943.652 1618.84 877.097 1537.45 877.097H1377.13C1386.41 877.097 1395.7 878 1404.6 879.677C1472.96 892.702 1525.07 953.065 1525.07 1025.04Z" fill="#185586"/>
<path fill-rule="evenodd" clip-rule="evenodd" d="M816.171 1251.15C899.88 1271.27 962.182 1346.73 962.182 1436.63C962.182 1521.38 907.108 1593.09 830.878 1618.11V1831.07C830.878 1851.32 820.557 1869.37 804.952 1880.08C815.273 1888.72 828.554 1894.01 843 1894.01C875.764 1894.01 902.46 1867.18 902.46 1834.42V1621.47C978.818 1596.45 1033.9 1524.73 1033.9 1440.12C1033.9 1334.61 948.382 1249.22 843 1249.22C834.022 1249.2 825.055 1249.85 816.171 1251.15Z" fill="white"/>
</svg>
