<svg width="512" height="454" viewBox="0 0 512 454" fill="none" xmlns="http://www.w3.org/2000/svg">
<path d="M443.515 216.463C440.799 216.463 438.194 217.542 436.274 219.462C434.354 221.383 433.275 223.987 433.275 226.703V313.641H20.48V75.0077H301.343C304.059 75.0077 306.663 73.9289 308.583 72.0085C310.504 70.0881 311.583 67.4835 311.583 64.7677C311.583 62.0519 310.504 59.4473 308.583 57.5269C306.663 55.6066 304.059 54.5277 301.343 54.5277H10.24C7.52418 54.5277 4.9196 55.6066 2.99923 57.5269C1.07885 59.4473 0 62.0519 0 64.7677L0 383.344C0 386.06 1.07885 388.665 2.99923 390.585C4.9196 392.505 7.52418 393.584 10.24 393.584H216.637V432.568H107.94C105.224 432.568 102.619 433.647 100.699 435.567C98.7787 437.488 97.6998 440.092 97.6998 442.808C97.6998 445.524 98.7787 448.128 100.699 450.049C102.619 451.969 105.224 453.048 107.94 453.048H345.805C348.521 453.048 351.125 451.969 353.046 450.049C354.966 448.128 356.045 445.524 356.045 442.808C356.045 440.092 354.966 437.488 353.046 435.567C351.125 433.647 348.521 432.568 345.805 432.568H237.117V393.584H443.515C446.231 393.584 448.835 392.505 450.756 390.585C452.676 388.665 453.755 386.06 453.755 383.344V226.703C453.755 223.987 452.676 221.383 450.756 219.462C448.835 217.542 446.231 216.463 443.515 216.463ZM433.275 373.104H20.48V334.121H433.275V373.104Z" fill="#044D45"/>
<path d="M210.196 363.837H243.548C246.264 363.837 248.869 362.758 250.789 360.838C252.709 358.918 253.788 356.313 253.788 353.597C253.788 350.881 252.709 348.277 250.789 346.356C248.869 344.436 246.264 343.357 243.548 343.357H210.196C207.481 343.357 204.876 344.436 202.956 346.356C201.035 348.277 199.956 350.881 199.956 353.597C199.956 356.313 201.035 358.918 202.956 360.838C204.876 362.758 207.481 363.837 210.196 363.837ZM60.0576 122.429H129.352C132.067 122.429 134.672 121.35 136.592 119.43C138.513 117.51 139.592 114.905 139.592 112.189C139.592 109.473 138.513 106.869 136.592 104.948C134.672 103.028 132.067 101.949 129.352 101.949H60.0576C57.3418 101.949 54.7372 103.028 52.8168 104.948C50.8965 106.869 49.8176 109.473 49.8176 112.189C49.8176 114.905 50.8965 117.51 52.8168 119.43C54.7372 121.35 57.3418 122.429 60.0576 122.429ZM60.0576 163.492H210.196C212.912 163.492 215.517 162.413 217.437 160.492C219.358 158.572 220.436 155.967 220.436 153.252C220.436 150.536 219.358 147.931 217.437 146.011C215.517 144.09 212.912 143.012 210.196 143.012H60.0576C57.3418 143.012 54.7372 144.09 52.8168 146.011C50.8965 147.931 49.8176 150.536 49.8176 153.252C49.8176 155.967 50.8965 158.572 52.8168 160.492C54.7372 162.413 57.3418 163.492 60.0576 163.492ZM60.0576 245.616H174.254C176.97 245.616 179.574 244.537 181.495 242.617C183.415 240.697 184.494 238.092 184.494 235.376C184.494 232.661 183.415 230.056 181.495 228.136C179.574 226.215 176.97 225.136 174.254 225.136H60.0576C57.3418 225.136 54.7372 226.215 52.8168 228.136C50.8965 230.056 49.8176 232.661 49.8176 235.376C49.8176 238.092 50.8965 240.697 52.8168 242.617C54.7372 244.537 57.3418 245.616 60.0576 245.616ZM60.0576 286.658H285.901C288.617 286.658 291.221 285.579 293.142 283.659C295.062 281.739 296.141 279.134 296.141 276.418C296.141 273.702 295.062 271.098 293.142 269.177C291.221 267.257 288.617 266.178 285.901 266.178H60.0576C57.3418 266.178 54.7372 267.257 52.8168 269.177C50.8965 271.098 49.8176 273.702 49.8176 276.418C49.8176 279.134 50.8965 281.739 52.8168 283.659C54.7372 285.579 57.3418 286.658 60.0576 286.658ZM60.0576 204.564H101.12C103.836 204.564 106.44 203.485 108.361 201.565C110.281 199.645 111.36 197.04 111.36 194.324C111.36 191.608 110.281 189.004 108.361 187.083C106.44 185.163 103.836 184.084 101.12 184.084H60.0576C57.3418 184.084 54.7372 185.163 52.8168 187.083C50.8965 189.004 49.8176 191.608 49.8176 194.324C49.8176 197.04 50.8965 199.645 52.8168 201.565C54.7372 203.485 57.3418 204.564 60.0576 204.564ZM210.196 184.084H143.462C140.747 184.084 138.142 185.163 136.222 187.083C134.301 189.004 133.222 191.608 133.222 194.324C133.222 197.04 134.301 199.645 136.222 201.565C138.142 203.485 140.747 204.564 143.462 204.564H210.196C212.912 204.564 215.517 203.485 217.437 201.565C219.358 199.645 220.436 197.04 220.436 194.324C220.436 191.608 219.358 189.004 217.437 187.083C215.517 185.163 212.912 184.084 210.196 184.084ZM429.619 91.7808L443.187 78.5507C444.549 77.2134 445.51 75.5227 445.964 73.6688C446.418 71.8149 446.345 69.8713 445.755 68.0563C445.164 66.2414 444.079 64.6271 442.622 63.395C441.164 62.1628 439.392 61.3615 437.504 61.0813L418.755 58.3677L410.378 41.3795C406.938 34.3856 395.459 34.3856 392.018 41.3795L383.642 58.3677L364.882 61.0813C362.994 61.3615 361.222 62.1628 359.764 63.395C358.307 64.6271 357.222 66.2414 356.631 68.0563C356.041 69.8713 355.968 71.8149 356.422 73.6688C356.875 75.5227 357.837 77.2134 359.199 78.5507L372.777 91.7808L369.572 110.448C369.255 112.33 369.469 114.264 370.191 116.03C370.912 117.797 372.112 119.328 373.656 120.45C375.2 121.573 377.026 122.242 378.929 122.384C380.832 122.525 382.737 122.133 384.43 121.252L401.203 112.435L417.966 121.252C419.657 122.141 421.563 122.539 423.469 122.401C425.375 122.264 427.204 121.596 428.75 120.473C430.295 119.35 431.496 117.817 432.216 116.047C432.936 114.278 433.147 112.342 432.824 110.459L429.619 91.7808ZM411.474 80.8752C410.286 82.0345 409.398 83.4651 408.886 85.0438C408.374 86.6225 408.254 88.302 408.535 89.9376L409.139 93.4602L405.975 91.791C404.503 91.0196 402.865 90.6166 401.203 90.6166C399.541 90.6166 397.904 91.0196 396.431 91.791L393.267 93.4602L393.871 89.9376C394.152 88.3004 394.032 86.6194 393.52 85.0391C393.008 83.4588 392.12 82.0264 390.932 80.865L388.372 78.3664L391.915 77.8544C393.559 77.6158 395.119 76.9813 396.462 76.0055C397.805 75.0297 398.891 73.7419 399.626 72.2531L401.203 69.0583L402.78 72.2531C403.515 73.7419 404.601 75.0297 405.944 76.0055C407.287 76.9813 408.848 77.6158 410.491 77.8544L414.034 78.3664L411.474 80.8752Z" fill="#044D45"/>
<path d="M510.269 166.84L473.999 112.711C478.501 102.597 480.828 91.6494 480.829 80.5783C480.829 36.6691 445.112 0.941772 401.203 0.941772C357.294 0.941772 321.577 36.6691 321.577 80.5783C321.577 92.0163 324.045 102.871 328.407 112.711L292.137 166.84C289.976 170.066 289.823 174.254 291.758 177.623C293.693 180.992 297.431 183.111 301.251 182.753L322.775 181.493L329.8 201.871C330.414 203.678 331.523 205.277 333 206.487C334.477 207.696 336.264 208.468 338.157 208.714C340.05 208.96 341.974 208.671 343.711 207.88C345.448 207.089 346.929 205.826 347.986 204.236L379.546 157.122C386.447 159.078 393.697 160.194 401.213 160.194C408.73 160.194 415.98 159.078 422.881 157.122L454.441 204.226C455.507 205.802 456.99 207.051 458.725 207.833C460.459 208.614 462.377 208.898 464.264 208.653C466.15 208.408 467.932 207.642 469.409 206.443C470.886 205.244 472 203.657 472.627 201.861L479.652 181.483L501.176 182.743C503.08 182.855 504.978 182.433 506.655 181.525C508.332 180.617 509.722 179.258 510.669 177.602C511.608 175.948 512.069 174.065 511.998 172.164C511.928 170.263 511.329 168.42 510.269 166.84ZM342.426 175.728L339.589 167.506C338.872 165.387 337.476 163.564 335.617 162.319C333.758 161.075 331.54 160.479 329.308 160.624L320.614 161.126L340.285 131.778C346.004 138.547 352.807 144.319 360.417 148.859L342.426 175.728ZM342.047 80.5885C342.047 47.9638 368.579 21.432 401.193 21.432C433.807 21.432 460.339 47.9638 460.339 80.5885C460.339 113.203 433.807 139.735 401.193 139.735C368.579 139.735 342.047 113.203 342.047 80.5885ZM473.078 160.614C470.847 160.484 468.634 161.087 466.778 162.331C464.922 163.575 463.524 165.392 462.797 167.506L459.971 175.728L441.979 148.869C449.587 144.326 456.39 138.555 462.111 131.788L481.782 161.136L473.078 160.614Z" fill="#044D45"/>
</svg>
