<svg width="157" height="147" viewBox="0 0 157 147" fill="none" xmlns="http://www.w3.org/2000/svg">
<path d="M154.872 23.5287L151.752 22.3275C151.261 20.672 150.598 19.0725 149.773 17.5553L151.131 14.497C151.337 14.0324 151.398 13.5161 151.305 13.0163C151.213 12.5165 150.97 12.0566 150.611 11.6971L145.626 6.71173C145.266 6.3522 144.806 6.11006 144.306 6.01721C143.807 5.92436 143.29 5.98517 142.826 6.19162L139.767 7.55006C138.25 6.72566 136.651 6.06262 134.995 5.57183L133.794 2.45057C133.611 1.97609 133.289 1.56808 132.87 1.28033C132.451 0.992574 131.954 0.838592 131.446 0.838684H124.396C123.888 0.83868 123.391 0.992696 122.972 1.28044C122.553 1.56818 122.231 1.97614 122.048 2.45057L120.847 5.57183C119.191 6.06257 117.592 6.7256 116.075 7.55006L113.016 6.19162C112.552 5.98517 112.035 5.92436 111.536 6.01721C111.036 6.11006 110.576 6.3522 110.216 6.71173L105.231 11.6971C104.872 12.0565 104.629 12.5165 104.536 13.0163C104.444 13.5161 104.504 14.0323 104.711 14.497L106.069 17.5547C105.244 19.0723 104.581 20.6722 104.09 22.3281L100.97 23.529C100.495 23.7115 100.087 24.0336 99.7993 24.4527C99.5116 24.8718 99.3576 25.3683 99.3577 25.8767V26.8864H27.1353C20.4237 26.8864 14.9635 32.3466 14.9635 39.0583V81.2582L14.1742 80.9076C13.7096 80.7012 13.1933 80.6405 12.6935 80.7334C12.1937 80.8263 11.7338 81.0685 11.3743 81.428L6.38898 86.4133C6.02948 86.7728 5.78733 87.2327 5.69442 87.7325C5.60152 88.2324 5.66224 88.7486 5.86856 89.2132L7.22668 92.271C6.40191 93.7885 5.73866 95.3884 5.24783 97.0444L2.12751 98.2453C1.65308 98.4277 1.24509 98.7496 0.957336 99.1687C0.669579 99.5877 0.515573 100.084 0.515625 100.592V107.643C0.515621 108.151 0.669637 108.647 0.957378 109.067C1.24512 109.486 1.65308 109.808 2.12751 109.99L5.24877 111.192C5.73956 112.847 6.4027 114.447 7.22731 115.963L5.86856 119.023C5.66224 119.487 5.60152 120.004 5.69442 120.503C5.78733 121.003 6.02948 121.463 6.38898 121.823L11.3743 126.808C11.7338 127.167 12.1938 127.409 12.6936 127.502C13.1934 127.595 13.7096 127.535 14.1742 127.328L17.232 125.97C18.7496 126.795 20.3495 127.458 22.0054 127.949L23.2062 131.069C23.3888 131.544 23.7109 131.952 24.13 132.24C24.5491 132.527 25.0456 132.681 25.554 132.681H32.6043C33.1127 132.681 33.6091 132.527 34.0282 132.24C34.4473 131.952 34.7694 131.544 34.952 131.069L36.1535 127.948C37.8088 127.457 39.4081 126.794 40.9251 125.97L43.9841 127.328C44.4486 127.535 44.9649 127.596 45.4647 127.503C45.9645 127.41 46.4245 127.168 46.7839 126.808L51.7693 121.823C52.1288 121.463 52.3709 121.004 52.4637 120.504C52.5566 120.004 52.4958 119.488 52.2894 119.023L51.6847 117.661H58.0297V127.972H45.8469C39.9191 127.972 35.0963 132.052 35.0963 137.067V143.646C35.0963 144.313 35.3614 144.953 35.8332 145.425C36.3049 145.897 36.9448 146.162 37.612 146.162H122.955C123.623 146.162 124.263 145.897 124.734 145.425C125.206 144.953 125.471 144.313 125.471 143.646V137.067C125.471 132.052 120.648 127.972 114.721 127.972H102.538V117.661H133.432C140.144 117.661 145.604 112.201 145.604 105.489V52.1103C145.611 52.1037 145.618 52.0986 145.625 52.0917L150.61 47.1064C150.97 46.7469 151.212 46.287 151.305 45.7872C151.398 45.2873 151.337 44.7711 151.131 44.3065L149.773 41.2487C150.597 39.7312 151.261 38.1313 151.751 36.4753L154.872 35.2744C155.346 35.0919 155.754 34.7698 156.042 34.3507C156.33 33.9316 156.484 33.4351 156.483 32.9267V25.8764C156.484 25.3681 156.33 24.8716 156.042 24.4525C155.755 24.0333 155.347 23.7112 154.872 23.5287ZM52.6884 96.3636C52.2272 94.9493 51.639 93.5796 50.9309 92.2713L52.2891 89.2129C52.4954 88.7483 52.5562 88.2321 52.4634 87.7323C52.3705 87.2325 52.1284 86.7725 51.769 86.413L46.7836 81.4277C46.4241 81.0683 45.9641 80.8263 45.4644 80.7334C44.9646 80.6405 44.4484 80.7011 43.9837 80.9073L40.9244 82.266C39.4074 81.4416 37.8082 80.7785 36.1529 80.2875L34.9514 77.1659C34.7687 76.6915 34.4466 76.2836 34.0275 75.9958C33.6085 75.7081 33.112 75.554 32.6037 75.554H28.0693V39.9919H105.435C105.634 40.4162 105.846 40.8348 106.069 41.2472L104.71 44.3062C104.504 44.7708 104.443 45.287 104.536 45.7868C104.629 46.2867 104.871 46.7466 105.23 47.1061L110.216 52.0914C110.575 52.4509 111.035 52.6931 111.535 52.786C112.035 52.8789 112.551 52.8181 113.016 52.6118L116.073 51.2537C117.591 52.0785 119.191 52.7417 120.847 53.2326L122.048 56.3529C122.23 56.8273 122.552 57.2354 122.971 57.5231C123.391 57.8109 123.887 57.9648 124.395 57.9648H131.445C131.809 57.9639 132.168 57.8839 132.497 57.7305V96.3636H52.6884ZM27.1353 31.9173H99.3577V32.9264C99.3584 33.3241 99.4537 33.7159 99.6355 34.0695C99.8173 34.4232 100.081 34.7286 100.404 34.9606H26.8932C24.7678 34.9606 23.0386 36.6901 23.0386 38.8155V77.6024L22.005 80.2875C21.3252 80.4916 20.6545 80.7251 19.9947 80.9871V39.0579C19.9947 35.1207 23.1981 31.9173 27.1353 31.9173ZM45.8129 116.836L46.9899 119.486L44.4476 122.029L41.7961 120.851C41.4227 120.685 41.0144 120.613 40.6068 120.64C40.1991 120.667 39.8042 120.794 39.4562 121.008C37.6716 122.108 35.7229 122.916 33.6835 123.402C33.286 123.496 32.9176 123.686 32.61 123.955C32.3024 124.224 32.0649 124.564 31.9182 124.945L30.877 127.65H27.2812L26.2404 124.946C26.0936 124.565 25.8562 124.225 25.5486 123.956C25.241 123.687 24.8726 123.497 24.4751 123.402C22.4351 122.917 20.4857 122.109 18.7008 121.009C18.3528 120.795 17.9579 120.668 17.5501 120.641C17.1424 120.613 16.7341 120.686 16.3606 120.852L13.7104 122.029L11.1677 119.486L12.3454 116.834C12.5112 116.461 12.5836 116.053 12.5562 115.645C12.5288 115.237 12.4025 114.843 12.1881 114.495C11.0881 112.71 10.2801 110.761 9.79482 108.722C9.70023 108.324 9.51024 107.956 9.24128 107.648C8.97232 107.341 8.63249 107.103 8.25117 106.957L5.54688 105.915V102.32L8.25054 101.279C8.63186 101.132 8.9717 100.895 9.24065 100.587C9.50961 100.279 9.6996 99.9109 9.79419 99.5134C10.2793 97.4733 11.0874 95.5239 12.1878 93.7388C12.402 93.3908 12.5283 92.9959 12.5557 92.5882C12.5831 92.1805 12.5108 91.7722 12.345 91.3987L11.168 88.7488L13.7107 86.2064L16.3619 87.384C16.7353 87.5498 17.1435 87.6221 17.5512 87.5947C17.9588 87.5674 18.3537 87.4412 18.7017 87.2271C20.4864 86.1271 22.4353 85.319 24.4748 84.8335C24.8722 84.7389 25.2407 84.5489 25.5482 84.2799C25.8558 84.011 26.0933 83.6712 26.2401 83.2899L27.2812 80.5853H30.877L31.9182 83.2899C32.0649 83.6711 32.3023 84.011 32.6098 84.2799C32.9174 84.5489 33.2858 84.7389 33.6832 84.8335C35.7228 85.3187 37.6717 86.1268 39.4562 87.2271C39.8042 87.4412 40.1991 87.5674 40.6068 87.5947C41.0144 87.6221 41.4226 87.5498 41.7961 87.384L44.4476 86.2064L46.9899 88.7491L45.8126 91.3999C45.6467 91.7734 45.5743 92.1817 45.6017 92.5894C45.629 92.9971 45.7553 93.3921 45.9695 93.7401C47.0696 95.5247 47.8776 97.4736 48.3631 99.5131C48.4577 99.9106 48.6476 100.279 48.9166 100.587C49.1856 100.894 49.5254 101.132 49.9068 101.278L52.6111 102.319V105.915L49.9074 106.956C49.5261 107.103 49.1863 107.34 48.9173 107.648C48.6483 107.955 48.4583 108.324 48.3638 108.721C47.8787 110.761 47.0706 112.711 45.9701 114.496C45.7558 114.844 45.6294 115.239 45.602 115.646C45.5746 116.054 45.647 116.462 45.8129 116.836ZM120.44 137.066V141.13H40.1276V137.066C40.1276 134.864 42.7467 133.003 45.8469 133.003H114.721C117.821 133.003 120.44 134.864 120.44 137.066ZM97.5065 127.971H63.0607V117.661H97.5065V127.971ZM133.432 112.63H52.4303C52.6048 112.155 52.7648 111.676 52.9098 111.192L56.0301 109.991C56.5046 109.808 56.9126 109.486 57.2004 109.067C57.4881 108.648 57.6421 108.151 57.642 107.643V101.395H135.014C135.681 101.395 136.321 101.13 136.792 100.658C137.264 100.187 137.529 99.5467 137.529 98.8795V52.3247C138.292 52.0052 139.039 51.6476 139.767 51.2534L140.573 51.6115V105.489C140.573 109.426 137.369 112.63 133.432 112.63ZM151.453 31.1994L148.749 32.2403C148.368 32.3871 148.028 32.6245 147.759 32.9321C147.49 33.2397 147.3 33.6081 147.206 34.0056C146.721 36.0457 145.912 37.995 144.812 39.7799C144.598 40.1279 144.471 40.5229 144.444 40.9306C144.417 41.3383 144.489 41.7466 144.655 42.1201L145.832 44.7703L143.289 47.313L140.638 46.1353C140.264 45.9695 139.856 45.8972 139.448 45.9246C139.04 45.952 138.645 46.0783 138.297 46.2926C136.513 47.3926 134.564 48.2006 132.525 48.6859C132.127 48.7805 131.759 48.9705 131.451 49.2394C131.144 49.5084 130.906 49.8482 130.76 50.2295L129.718 52.9341H126.123L125.082 50.2305C124.935 49.8491 124.698 49.5093 124.39 49.2403C124.082 48.9713 123.714 48.7814 123.316 48.6868C121.277 48.2015 119.327 47.3935 117.542 46.2932C117.194 46.0791 116.799 45.9528 116.392 45.9255C115.984 45.8981 115.576 45.9703 115.202 46.136L112.552 47.313L110.01 44.7703L111.187 42.1191C111.353 41.7457 111.426 41.3375 111.398 40.9298C111.371 40.5222 111.245 40.1273 111.03 39.7793C109.93 37.9946 109.122 36.0457 108.637 34.0063C108.542 33.6088 108.352 33.2404 108.083 32.9328C107.814 32.6253 107.475 32.3879 107.093 32.2412L104.389 31.1998V27.604L107.092 26.5635C107.473 26.4168 107.813 26.1794 108.082 25.8719C108.351 25.5643 108.541 25.1959 108.636 24.7984C109.121 22.7584 109.929 20.8089 111.03 19.0238C111.244 18.6758 111.37 18.2809 111.397 17.8732C111.425 17.4655 111.353 17.0572 111.187 16.6837L110.01 14.0335L112.552 11.4911L115.204 12.6687C115.577 12.8346 115.986 12.907 116.393 12.8796C116.801 12.8523 117.196 12.7261 117.544 12.5118C119.328 11.4118 121.277 10.6038 123.316 10.1185C123.714 10.0239 124.082 9.83393 124.39 9.56497C124.698 9.29601 124.935 8.95618 125.082 8.57486L126.123 5.87025H129.719L130.76 8.57486C130.907 8.95618 131.144 9.29601 131.452 9.56497C131.759 9.83393 132.128 10.0239 132.525 10.1185C134.565 10.6038 136.513 11.4117 138.298 12.5118C138.646 12.7261 139.041 12.8523 139.449 12.8797C139.856 12.907 140.265 12.8346 140.638 12.6687L143.289 11.4911L145.832 14.0338L144.655 16.6846C144.489 17.0581 144.416 17.4664 144.444 17.8741C144.471 18.2818 144.597 18.6768 144.812 19.0248C145.912 20.8094 146.72 22.7583 147.205 24.7978C147.3 25.1953 147.49 25.5638 147.759 25.8714C148.028 26.179 148.367 26.4164 148.749 26.5632L151.453 27.604V31.1994ZM127.921 13.5155C119.162 13.5155 112.035 20.642 112.035 29.4017C112.035 38.1614 119.162 45.2876 127.921 45.2876C136.68 45.2876 143.807 38.1611 143.807 29.4017C143.807 20.6423 136.68 13.5155 127.921 13.5155ZM127.921 40.2563C121.936 40.2563 117.066 35.387 117.066 29.4017C117.066 23.4164 121.936 18.5468 127.921 18.5468C133.906 18.5468 138.776 23.4161 138.776 29.4017C138.776 35.3867 133.906 40.2563 127.921 40.2563ZM29.079 88.2318C20.3196 88.2318 13.1931 95.3583 13.1931 104.118C13.1931 112.878 20.3196 120.004 29.079 120.004C37.8384 120.004 44.9651 112.877 44.9651 104.118C44.9651 95.3586 37.8384 88.2318 29.079 88.2318ZM29.079 114.972C23.0937 114.972 18.2244 110.103 18.2244 104.118C18.2244 98.1324 23.0937 93.2627 29.079 93.2627C35.0643 93.2627 39.9339 98.1321 39.9339 104.118C39.9336 110.103 35.0643 114.972 29.079 114.972ZM86.8626 53.3451L78.5648 84.3125C78.4215 84.8472 78.1059 85.3197 77.6668 85.657C77.2278 85.9942 76.6898 86.1772 76.1363 86.1778C75.7502 86.178 75.3693 86.0894 75.023 85.9188C74.6767 85.7482 74.3743 85.5002 74.1392 85.194C73.9042 84.8878 73.7427 84.5316 73.6674 84.153C73.5921 83.7744 73.6049 83.3835 73.7049 83.0106L82.0027 52.0433C82.0872 51.7231 82.2341 51.4228 82.4349 51.1595C82.6358 50.8963 82.8866 50.6753 83.1731 50.5092C83.4595 50.3431 83.776 50.2351 84.1042 50.1916C84.4324 50.1481 84.7661 50.1698 85.0859 50.2554C85.4058 50.3411 85.7055 50.4891 85.9681 50.6909C86.2306 50.8927 86.4507 51.1443 86.6158 51.4314C86.7808 51.7184 86.8876 52.0352 86.93 52.3636C86.9723 52.6921 86.9494 53.0256 86.8626 53.3451ZM69.6337 58.7081L58.3961 68.1779L69.6337 77.6476C70.1439 78.0776 70.4624 78.6926 70.5192 79.3574C70.576 80.0223 70.3663 80.6824 69.9363 81.1926C69.5064 81.7029 68.8913 82.0214 68.2265 82.0781C67.5617 82.1349 66.9016 81.9252 66.3914 81.4953L52.8708 70.1017C52.5905 69.8656 52.3652 69.571 52.2107 69.2387C52.0561 68.9064 51.9761 68.5444 51.9761 68.1779C51.9761 67.8114 52.0561 67.4493 52.2107 67.117C52.3652 66.7847 52.5905 66.4902 52.8708 66.2541L66.3914 54.8608C66.9029 54.442 67.5586 54.2414 68.2169 54.3023C68.8751 54.3632 69.4829 54.6808 69.9089 55.1862C70.3349 55.6917 70.5449 56.3446 70.4934 57.0036C70.4419 57.6627 70.133 58.275 69.6337 58.7081ZM108.591 68.1779C108.591 68.5444 108.511 68.9064 108.356 69.2387C108.202 69.571 107.976 69.8656 107.696 70.1017L94.1755 81.4953C93.7226 81.878 93.1487 82.0877 92.5557 82.0871C92.0398 82.0874 91.5362 81.9291 91.1132 81.6336C90.6903 81.3381 90.3684 80.9196 90.1913 80.435C90.0142 79.9504 89.9903 79.4231 90.123 78.9244C90.2558 78.4258 90.5386 77.9801 90.9332 77.6476L102.171 68.1779L90.9332 58.7081C90.6805 58.4952 90.4723 58.2347 90.3204 57.9413C90.1685 57.6479 90.0758 57.3275 90.0478 56.9984C90.0197 56.6692 90.0567 56.3377 90.1567 56.0229C90.2567 55.708 90.4178 55.4159 90.6307 55.1633C90.8436 54.9107 91.1041 54.7025 91.3975 54.5505C91.6908 54.3986 92.0113 54.306 92.3404 54.2779C92.6696 54.2498 93.0011 54.2868 93.3159 54.3868C93.6308 54.4868 93.9229 54.6479 94.1755 54.8608L107.696 66.2541C107.976 66.4902 108.201 66.7848 108.356 67.1171C108.511 67.4494 108.591 67.8114 108.591 68.1779Z" fill="#044D45"/>
</svg>
