<svg width="135" height="136" viewBox="0 0 135 136" fill="none" xmlns="http://www.w3.org/2000/svg">
<path d="M54.5 32H81.5C82.0967 32 82.669 31.7629 83.091 31.341C83.5129 30.919 83.75 30.3467 83.75 29.75C83.75 29.1533 83.5129 28.581 83.091 28.159C82.669 27.7371 82.0967 27.5 81.5 27.5H54.5C53.9033 27.5 53.331 27.7371 52.909 28.159C52.4871 28.581 52.25 29.1533 52.25 29.75C52.25 30.3467 52.4871 30.919 52.909 31.341C53.331 31.7629 53.9033 32 54.5 32ZM47.75 45.5H59C59.5967 45.5 60.169 45.2629 60.591 44.841C61.0129 44.419 61.25 43.8467 61.25 43.25C61.25 42.6533 61.0129 42.081 60.591 41.659C60.169 41.2371 59.5967 41 59 41H47.75C47.1533 41 46.581 41.2371 46.159 41.659C45.7371 42.081 45.5 42.6533 45.5 43.25C45.5 43.8467 45.7371 44.419 46.159 44.841C46.581 45.2629 47.1533 45.5 47.75 45.5ZM65.75 43.25C65.75 43.8467 65.9871 44.419 66.409 44.841C66.831 45.2629 67.4033 45.5 68 45.5H97.25C97.8467 45.5 98.419 45.2629 98.841 44.841C99.2629 44.419 99.5 43.8467 99.5 43.25C99.5 42.6533 99.2629 42.081 98.841 41.659C98.419 41.2371 97.8467 41 97.25 41H68C67.4033 41 66.831 41.2371 66.409 41.659C65.9871 42.081 65.75 42.6533 65.75 43.25ZM29.75 86H54.5C55.0967 86 55.669 85.7629 56.091 85.341C56.5129 84.919 56.75 84.3467 56.75 83.75C56.75 83.1533 56.5129 82.581 56.091 82.159C55.669 81.7371 55.0967 81.5 54.5 81.5H29.75C29.1533 81.5 28.581 81.7371 28.159 82.159C27.7371 82.581 27.5 83.1533 27.5 83.75C27.5 84.3467 27.7371 84.919 28.159 85.341C28.581 85.7629 29.1533 86 29.75 86ZM47.75 59H74.75C75.3467 59 75.919 58.7629 76.341 58.341C76.7629 57.919 77 57.3467 77 56.75C77 56.1533 76.7629 55.581 76.341 55.159C75.919 54.7371 75.3467 54.5 74.75 54.5H47.75C47.1533 54.5 46.581 54.7371 46.159 55.159C45.7371 55.581 45.5 56.1533 45.5 56.75C45.5 57.3467 45.7371 57.919 46.159 58.341C46.581 58.7629 47.1533 59 47.75 59ZM92.75 54.5H83.75C83.1533 54.5 82.581 54.7371 82.159 55.159C81.7371 55.581 81.5 56.1533 81.5 56.75C81.5 57.3467 81.7371 57.919 82.159 58.341C82.581 58.7629 83.1533 59 83.75 59H92.75C93.3467 59 93.919 58.7629 94.341 58.341C94.7629 57.919 95 57.3467 95 56.75C95 56.1533 94.7629 55.581 94.341 55.159C93.919 54.7371 93.3467 54.5 92.75 54.5Z" fill="#044D45"/>
<path d="M132.318 41.3859L130.614 39.6818C128.925 37.9965 126.636 37.0501 124.25 37.0501C121.864 37.0501 119.575 37.9965 117.886 39.6818L113 44.5679V16.25C113 15.6533 112.763 15.081 112.341 14.659C111.919 14.2371 111.347 14 110.75 14H99.5V2.75C99.5 2.15326 99.2629 1.58097 98.841 1.15901C98.419 0.737053 97.8467 0.5 97.25 0.5H2.75C2.15326 0.5 1.58097 0.737053 1.15901 1.15901C0.737053 1.58097 0.5 2.15326 0.5 2.75V119.75C0.5 120.347 0.737053 120.919 1.15901 121.341C1.58097 121.763 2.15326 122 2.75 122H14V133.25C14 133.847 14.2371 134.419 14.659 134.841C15.081 135.263 15.6533 135.5 16.25 135.5H92.75C93.0455 135.5 93.3381 135.442 93.6111 135.329C93.884 135.216 94.1321 135.05 94.341 134.841L112.341 116.841C112.55 116.632 112.716 116.384 112.829 116.111C112.942 115.838 113 115.545 113 115.25V81.5014C113 81.9463 113.132 82.3811 113.38 82.751C113.627 83.1208 113.979 83.4089 114.39 83.5791C114.801 83.7492 115.253 83.7936 115.689 83.7068C116.126 83.6199 116.526 83.4056 116.841 83.091L129.409 70.5231C130.036 69.8963 130.533 69.1522 130.873 68.3332C131.212 67.5142 131.386 66.6365 131.386 65.75C131.386 64.8635 131.212 63.9858 130.873 63.1668C130.533 62.3478 130.036 61.6037 129.409 60.9769L127.432 59L132.318 54.1141C134.003 52.4249 134.95 50.1361 134.95 47.75C134.95 45.3639 134.003 43.0751 132.318 41.3859ZM97.25 82.8179L89.1821 74.75L106.25 57.6821L114.318 65.75L97.25 82.8179ZM69.1129 97.045L74.955 102.887L66.776 105.224L69.1129 97.045ZM71.1818 92.75L86 77.9321L94.0679 86L79.25 100.818L71.1818 92.75ZM117.5 62.5679L109.432 54.5L113 50.9321L121.068 59L117.5 62.5679ZM14 16.25V117.5H5V5H95V14H16.25C15.6533 14 15.081 14.2371 14.659 14.659C14.2371 15.081 14 15.6533 14 16.25ZM18.5 18.5H108.5V49.0679L89.5679 68H29.75C29.1533 68 28.581 68.2371 28.159 68.659C27.7371 69.081 27.5 69.6533 27.5 70.25C27.5 70.8467 27.7371 71.419 28.159 71.841C28.581 72.2629 29.1533 72.5 29.75 72.5H85.0679L76.0679 81.5H63.5C62.9033 81.5 62.331 81.7371 61.909 82.159C61.4871 82.581 61.25 83.1533 61.25 83.75C61.25 84.3467 61.4871 84.919 61.909 85.341C62.331 85.7629 62.9033 86 63.5 86H71.5679L66.409 91.159C66.1384 91.4291 65.9415 91.764 65.8372 92.1318L65.0171 95H29.75C29.1533 95 28.581 95.2371 28.159 95.659C27.7371 96.081 27.5 96.6533 27.5 97.25C27.5 97.8467 27.7371 98.419 28.159 98.841C28.581 99.2629 29.1533 99.5 29.75 99.5H63.7312L61.3366 107.881C61.2264 108.267 61.2213 108.675 61.322 109.064C61.4226 109.452 61.6253 109.807 61.9091 110.09C62.1928 110.374 62.5472 110.577 62.9357 110.677C63.3241 110.778 63.7324 110.773 64.1182 110.663L79.8682 106.163C80.236 106.058 80.5709 105.862 80.841 105.591L108.5 77.9321V113H92.75C92.1533 113 91.581 113.237 91.159 113.659C90.7371 114.081 90.5 114.653 90.5 115.25V131H18.5V18.5ZM105.318 117.5L95 127.818V117.5H105.318ZM126.227 64.1592C126.648 64.5814 126.885 65.1535 126.885 65.75C126.885 66.3465 126.648 66.9186 126.227 67.3408L113.659 79.909C113.45 80.1177 113.284 80.3657 113.171 80.6387C113.058 80.9118 113 81.2045 113 81.5V73.4321L124.25 62.1821L126.227 64.1592ZM129.136 50.9318L124.25 55.8179L116.182 47.75L121.068 42.8641C121.913 42.0215 123.057 41.5483 124.25 41.5483C125.443 41.5483 126.587 42.0215 127.432 42.8641L129.136 44.5682C129.979 45.4127 130.452 46.557 130.452 47.75C130.452 48.943 129.979 50.0873 129.136 50.9318Z" fill="#044D45"/>
<path d="M29.75 59H38.75C39.3467 59 39.919 58.7629 40.341 58.341C40.7629 57.919 41 57.3467 41 56.75C41 56.1533 40.7629 55.581 40.341 55.159C39.919 54.7371 39.3467 54.5 38.75 54.5H32V50H38.75C39.3467 50 39.919 49.7629 40.341 49.341C40.7629 48.919 41 48.3467 41 47.75C41 47.1533 40.7629 46.581 40.341 46.159C39.919 45.7371 39.3467 45.5 38.75 45.5H32V41H38.75C39.3467 41 39.919 40.7629 40.341 40.341C40.7629 39.919 41 39.3467 41 38.75C41 38.1533 40.7629 37.581 40.341 37.159C39.919 36.7371 39.3467 36.5 38.75 36.5H29.75C29.1533 36.5 28.581 36.7371 28.159 37.159C27.7371 37.581 27.5 38.1533 27.5 38.75V56.75C27.5 57.3467 27.7371 57.919 28.159 58.341C28.581 58.7629 29.1533 59 29.75 59Z" fill="#044D45"/>
</svg>
