<svg width="242" height="242" viewBox="0 0 242 242" fill="none" xmlns="http://www.w3.org/2000/svg">
<path d="M241.125 73.663V44.337L230.298 41.6749C229.813 40.3685 229.275 39.0823 228.686 37.8193L234.468 28.2674L213.729 7.52838L204.181 13.3138C202.918 12.7248 201.631 12.187 200.325 11.7017L197.663 0.875H168.337L165.675 11.7017C164.369 12.187 163.082 12.7248 161.819 13.3138L152.267 7.53225L131.528 28.2712L137.31 37.8231C136.721 39.0861 136.183 40.3724 135.698 41.6787L124.875 44.337V70.625H20.25C9.56663 70.625 0.875 79.3166 0.875 90V183C0.875 193.683 9.56663 202.375 20.25 202.375H51.25V217.875H35.75C31.4759 217.875 28 221.351 28 225.625V233.375C28 237.649 31.4759 241.125 35.75 241.125H241.125V225.625C241.125 197.43 222.188 173.611 196.373 166.117C200.603 163.285 204.07 159.456 206.469 154.966C208.868 150.477 210.123 145.465 210.125 140.375C210.125 130.265 205.239 121.298 197.729 115.637L198.124 115.253L200.325 106.298C201.612 105.822 202.898 105.283 204.181 104.686L213.733 110.468L234.472 89.7288L228.69 80.1769C229.287 78.8943 229.826 77.6077 230.302 76.3212L241.125 73.663ZM20.25 78.375H152C158.409 78.375 163.625 83.5907 163.625 90V113.568C160.715 115.259 158.098 117.41 155.875 119.938V93.875C155.875 89.6009 152.399 86.125 148.125 86.125H24.125C19.8509 86.125 16.375 89.6009 16.375 93.875V171.375H8.625V90C8.625 83.5907 13.8407 78.375 20.25 78.375ZM155.875 59C155.875 44.0464 168.046 31.875 183 31.875C197.954 31.875 210.125 44.0464 210.125 59C210.125 73.9536 197.954 86.125 183 86.125C178.422 86.1115 173.923 84.9341 169.926 82.7034C168.947 80.3148 167.503 78.1449 165.678 76.32C163.852 74.4952 161.682 73.0519 159.293 72.0743C157.066 68.0752 155.891 63.577 155.875 59ZM197.981 210.005L184.627 233.375H184.225L200.255 175.661C201.91 176.362 203.522 177.153 205.091 178.009L202.635 192.761L193.788 201.608L197.981 210.005ZM173.623 233.375L160.269 210.005L164.466 201.612L155.619 192.765L153.162 178.013C154.728 177.157 156.34 176.366 157.999 175.665L174.025 233.375H173.623ZM132.625 171.375H124.875V109.375H132.625V171.375ZM155.875 168.19V160.812C157.642 162.823 159.645 164.621 161.877 166.117C159.842 166.703 157.838 167.395 155.875 168.19ZM148.125 171.375H140.375V101.625H117.125V171.375H109.375V117.125H86.125V171.375H78.375V132.625H55.125V171.375H24.125V93.875H148.125V171.375ZM101.625 171.375H93.875V124.875H101.625V171.375ZM70.625 171.375H62.875V140.375H70.625V171.375ZM8.625 183V179.125H138.255C133.2 183.57 128.897 188.804 125.514 194.625H20.25C13.8407 194.625 8.625 189.409 8.625 183ZM59 202.375H121.69C119.676 207.344 118.323 212.555 117.664 217.875H59V202.375ZM35.75 233.375V225.625H117.125V233.375H35.75ZM124.875 233.375V225.625C124.875 208.149 133.214 192.622 146.087 182.694L148.385 196.485L155.038 203.138L151.485 210.245L164.698 233.375H144.25V202.375H136.5V233.375H125.03H124.875ZM233.375 225.625V233.375H221.75V202.375H214V233.375H193.552L206.769 210.245L203.216 203.138L209.869 196.485L212.167 182.694C225.036 192.622 233.375 208.149 233.375 225.625ZM192.889 173.212L179.125 222.765L165.361 173.212C169.767 172.053 174.363 171.375 179.125 171.375C183.887 171.375 188.483 172.053 192.889 173.212ZM202.375 140.375C202.375 153.197 191.947 163.625 179.125 163.625C166.303 163.625 155.875 153.197 155.875 140.375C155.875 127.553 166.303 117.125 179.125 117.125C191.947 117.125 202.375 127.553 202.375 140.375ZM224.691 88.5507L212.551 100.691L204.514 95.828L202.584 96.8316C200.364 97.9864 198.112 98.928 195.9 99.6294L193.823 100.284L191.13 111.25L190.719 111.65C187.038 110.148 183.1 109.376 179.125 109.375C176.444 109.375 173.859 109.751 171.375 110.394V91.798C175.095 93.1155 179.005 93.875 183 93.875C202.232 93.875 217.875 78.2316 217.875 59C217.875 39.7684 202.232 24.125 183 24.125C163.768 24.125 148.125 39.7684 148.125 59C148.125 62.9951 148.884 66.905 150.202 70.625H132.625V50.413L141.72 48.1771L142.374 46.1001C143.076 43.8914 144.017 41.64 145.172 39.4158L146.176 37.486L141.313 29.4492L153.453 17.3089L161.49 22.172L163.42 21.1684C165.563 20.0459 167.8 19.1099 170.104 18.3706L172.181 17.7158L174.413 8.625H191.587L193.823 17.7196L195.9 18.3745C198.109 19.0759 200.36 20.0175 202.584 21.1722L204.514 22.1759L212.551 17.3128L224.691 29.4531L219.828 37.4899L220.832 39.4196C221.986 41.64 222.928 43.8914 223.629 46.104L224.284 48.181L233.375 50.413V67.587L224.28 69.8229L223.626 71.896C222.886 74.2012 221.95 76.4388 220.828 78.5843L219.824 80.514L224.691 88.5507Z" fill="#044D45"/>
<path d="M183 78.375C193.683 78.375 202.375 69.6834 202.375 59C202.375 48.3166 193.683 39.625 183 39.625C172.317 39.625 163.625 48.3166 163.625 59C163.625 69.6834 172.317 78.375 183 78.375ZM183 47.375C189.409 47.375 194.625 52.5907 194.625 59C194.625 65.4093 189.409 70.625 183 70.625C176.591 70.625 171.375 65.4093 171.375 59C171.375 52.5907 176.591 47.375 183 47.375ZM31.875 101.625H39.625V109.375H31.875V101.625ZM47.375 101.625H55.125V109.375H47.375V101.625ZM62.875 101.625H70.625V109.375H62.875V101.625ZM31.875 117.125H70.625V124.875H31.875V117.125Z" fill="#044D45"/>
</svg>
