<svg width="158" height="158" viewBox="0 0 158 158" fill="none" xmlns="http://www.w3.org/2000/svg">
<path d="M158 19.4865C158 14.9492 154.308 11.2572 149.771 11.2572H8.22927C3.69202 11.2575 0 14.9492 0 19.4865V114.199C0 118.736 3.69202 122.428 8.22927 122.428H60.0891V134.627H52.5365C50.3458 134.627 48.2854 135.479 46.7344 137.024L42.618 141.118C40.5412 143.184 42.0067 146.743 44.939 146.743H113.061C115.992 146.743 117.46 143.186 115.382 141.118L111.266 137.024C109.715 135.478 107.654 134.627 105.463 134.627H97.9109V122.428H149.771C154.308 122.428 158 118.736 158 114.199V19.4865ZM3.29177 19.4865C3.29177 16.7637 5.50655 14.549 8.22927 14.549H149.771C152.493 14.549 154.708 16.7637 154.708 19.4865V97.8452H3.29177V19.4865ZM108.943 139.356L108.945 139.357L113.061 143.451H44.939L49.0568 139.356C49.5136 138.899 50.0561 138.537 50.6533 138.29C51.2505 138.043 51.8905 137.917 52.5365 137.919H105.464C106.777 137.919 108.013 138.43 108.943 139.356ZM94.6192 134.627H63.3808V122.428H94.6195L94.6192 134.627ZM154.708 114.199C154.708 116.922 152.493 119.137 149.771 119.137H8.22927C5.50655 119.137 3.29177 116.922 3.29177 114.199V101.139H154.708V114.199Z" fill="#044D45"/>
<path d="M79 115.059C81.7132 115.059 83.9214 112.851 83.9214 110.137C83.9214 107.424 81.7132 105.216 79 105.216C76.2868 105.216 74.0785 107.424 74.0785 110.137C74.0785 112.851 76.2868 115.059 79 115.059ZM79 108.508C79.8986 108.508 80.6297 109.239 80.6297 110.138C80.6297 111.036 79.8983 111.767 79 111.767C78.568 111.767 78.1538 111.595 77.8483 111.289C77.5428 110.984 77.3709 110.57 77.3703 110.138C77.3708 109.706 77.5426 109.291 77.8482 108.986C78.1537 108.68 78.5679 108.508 79 108.508ZM25.4219 59.5697C29.1396 59.5697 32.1629 56.5464 32.1629 52.8288C32.1629 51.567 31.7941 50.3989 31.1908 49.3871L43.646 36.9307C44.6652 37.5463 45.8468 37.9216 47.1229 37.9216C48.4705 37.9216 49.7215 37.5145 50.7757 36.8307L63.1772 45.1297C62.7806 45.9888 62.5442 46.9362 62.5442 47.9428C62.5442 51.6605 65.5756 54.6853 69.3012 54.6853C73.0188 54.6853 76.0421 51.6605 76.0421 47.9428C76.0421 44.2172 73.0188 41.1859 69.3012 41.1859C67.7795 41.1859 66.389 41.7102 65.258 42.5628L53.022 34.3749C53.5413 33.4198 53.8635 32.3425 53.8635 31.1809C53.8635 27.4553 50.8402 24.424 47.1226 24.424C43.3969 24.424 40.3656 27.4553 40.3656 31.1809C40.3656 32.4314 40.7313 33.5886 41.3284 34.5934L28.8693 47.0538C27.8571 46.4443 26.6866 46.0718 25.4216 46.0718C21.696 46.0718 18.6647 49.1031 18.6647 52.8288C18.665 56.5467 21.6963 59.5697 25.4219 59.5697ZM72.751 47.9428C72.751 49.8459 71.2031 51.3935 69.3018 51.3935C67.3907 51.3935 65.8366 49.8456 65.8366 47.9428C65.8366 46.0317 67.391 44.4776 69.3018 44.4776C71.2031 44.4776 72.751 46.0317 72.751 47.9428ZM47.1232 27.7154C49.0244 27.7154 50.5723 29.2698 50.5723 31.1806C50.5723 33.0819 49.0244 34.6298 47.1232 34.6298C45.2121 34.6298 43.658 33.0819 43.658 31.1806C43.658 29.2698 45.2121 27.7154 47.1232 27.7154ZM25.4219 49.3639C26.3212 49.3639 27.1346 49.7197 27.7494 50.2885C27.7827 50.3286 27.7966 50.3789 27.8345 50.4168C27.8703 50.4526 27.9182 50.4659 27.9561 50.4977C28.5187 51.1143 28.8708 51.9283 28.8708 52.8291C28.8708 54.7304 27.3229 56.2783 25.4216 56.2783C23.5105 56.2783 21.9564 54.7304 21.9564 52.8291C21.9568 50.918 23.5108 49.3639 25.4219 49.3639Z" fill="#044D45"/>
<path d="M80.3211 84.6784H77.5968V63.8338C77.5968 61.4987 75.6971 59.5987 73.3617 59.5987H66.0326C63.699 59.5987 61.7993 61.4919 61.7993 63.8178V84.6784H55.433V54.2258C55.433 51.9082 53.5475 50.0227 51.2315 50.0227H43.9024C41.5673 50.0227 39.6673 51.9224 39.6673 54.2579V84.6784H33.3025V67.5465C33.3025 65.221 31.4028 63.3274 29.0674 63.3274H21.7559C19.4303 63.3274 17.5368 65.2207 17.5368 67.5465V84.6784H14.8125C13.9028 84.6784 13.1668 85.4144 13.1668 86.3242C13.1668 87.2339 13.9028 87.9699 14.8125 87.9699H80.3211C80.5372 87.97 80.7513 87.9275 80.951 87.8449C81.1507 87.7622 81.3322 87.641 81.4851 87.4881C81.6379 87.3353 81.7591 87.1538 81.8418 86.9541C81.9244 86.7544 81.9669 86.5403 81.9668 86.3242C81.9669 86.108 81.9244 85.8939 81.8418 85.6942C81.7591 85.4945 81.6379 85.313 81.4851 85.1602C81.3322 85.0073 81.1507 84.8861 80.951 84.8035C80.7513 84.7208 80.5372 84.6783 80.3211 84.6784ZM20.8285 84.6784V67.5465C20.8285 67.0435 21.2528 66.6192 21.7559 66.6192H29.0674C29.588 66.6192 30.0107 67.0355 30.0107 67.5465V84.6784H20.8285ZM42.9587 84.6784V54.2579C42.9587 53.7468 43.391 53.3145 43.9021 53.3145H51.2312C51.4726 53.3149 51.704 53.4111 51.8746 53.582C52.0451 53.7528 52.1409 53.9844 52.1409 54.2258V84.6784H42.9587ZM65.0907 84.6784V63.8178C65.0907 63.3068 65.5135 62.8905 66.0326 62.8905H73.3617C73.8727 62.8905 74.305 63.3228 74.305 63.8338V84.6784H65.0907ZM122.269 57.3404C131.344 57.3404 138.726 49.9564 138.726 40.8819C138.726 31.8074 131.344 24.4233 122.269 24.4233C113.194 24.4233 105.811 31.8074 105.811 40.8819C105.811 49.9564 113.195 57.3404 122.269 57.3404ZM135.331 39.2365H123.915V27.8185C129.86 28.5625 134.587 33.2895 135.331 39.2365ZM120.623 27.8185V40.8822C120.623 41.0983 120.665 41.3124 120.748 41.5121C120.831 41.7119 120.952 41.8933 121.105 42.0462C121.258 42.199 121.439 42.3202 121.639 42.4029C121.839 42.4856 122.053 42.528 122.269 42.5279H135.331C134.519 49.0133 128.971 54.049 122.269 54.049C115.009 54.049 109.102 48.1422 109.102 40.8822C109.102 34.1798 114.138 28.6301 120.623 27.8185ZM143.187 65.2321H101.349C100.439 65.2321 99.7032 65.9681 99.7032 66.8778C99.7032 67.7876 100.439 68.5235 101.349 68.5235H143.187C143.404 68.5237 143.618 68.4812 143.817 68.3985C144.017 68.3159 144.199 68.1946 144.351 68.0418C144.504 67.889 144.626 67.7075 144.708 67.5078C144.791 67.308 144.833 67.094 144.833 66.8778C144.833 66.6617 144.791 66.4476 144.708 66.2479C144.626 66.0482 144.504 65.8667 144.351 65.7138C144.199 65.561 144.017 65.4398 143.817 65.3571C143.618 65.2744 143.404 65.232 143.187 65.2321ZM143.187 74.9562H101.349C100.439 74.9562 99.7032 75.6922 99.7032 76.6019C99.7032 77.5117 100.439 78.2476 101.349 78.2476H143.187C144.097 78.2476 144.833 77.5117 144.833 76.6019C144.833 75.6922 144.097 74.9562 143.187 74.9562ZM143.187 84.6784H101.349C100.439 84.6784 99.7032 85.4144 99.7032 86.3242C99.7032 87.2339 100.439 87.9699 101.349 87.9699H143.187C143.404 87.97 143.618 87.9275 143.817 87.8449C144.017 87.7622 144.199 87.641 144.351 87.4881C144.504 87.3353 144.626 87.1538 144.708 86.9541C144.791 86.7544 144.833 86.5403 144.833 86.3242C144.833 86.108 144.791 85.8939 144.708 85.6942C144.626 85.4945 144.504 85.313 144.351 85.1602C144.199 85.0073 144.017 84.8861 143.817 84.8035C143.618 84.7208 143.404 84.6783 143.187 84.6784Z" fill="#044D45"/>
</svg>
