<svg width="168" height="168" viewBox="0 0 168 168" fill="none" xmlns="http://www.w3.org/2000/svg">
<path d="M69.0319 136.36C64.7348 132.47 59.6368 129.57 54.0973 127.865C59.9238 124.042 63.7819 117.456 63.7819 109.982C63.7819 98.1937 54.1915 88.6033 42.4039 88.6033C30.6157 88.6033 21.0256 98.1937 21.0256 109.982C21.0256 117.456 24.8837 124.042 30.7102 127.865C25.1705 129.57 20.0722 132.47 15.7749 136.36C8.51944 142.921 3.95259 151.869 2.91637 161.556C2.87741 161.922 2.91587 162.292 3.02925 162.642C3.14263 162.993 3.32841 163.315 3.57451 163.589C3.82062 163.863 4.12156 164.082 4.45781 164.232C4.79405 164.382 5.15808 164.46 5.52628 164.46H79.2802C79.6486 164.46 80.0128 164.383 80.3492 164.233C80.6856 164.083 80.9867 163.864 81.2329 163.59C81.479 163.316 81.6648 162.993 81.778 162.643C81.8913 162.292 81.9295 161.922 81.8902 161.556C80.8539 151.869 76.2871 142.921 69.0319 136.36ZM26.2753 109.982C26.2753 101.088 33.5104 93.8533 42.4036 93.8533C51.2968 93.8533 58.5316 101.088 58.5316 109.982C58.5316 118.875 51.2964 126.11 42.4036 126.11C33.5104 126.11 26.2753 118.875 26.2753 109.982ZM8.57095 159.21C11.6724 143.142 25.7335 131.36 42.4033 131.36C59.073 131.36 73.1338 143.142 76.2352 159.21L8.57095 159.21ZM165.36 161.556C164.324 151.869 159.757 142.921 152.501 136.36C148.204 132.47 143.106 129.57 137.566 127.865C143.393 124.042 147.251 117.456 147.251 109.982C147.251 98.1937 137.66 88.6033 125.873 88.6033C114.084 88.6033 104.494 98.1937 104.494 109.982C104.494 117.456 108.353 124.042 114.179 127.865C108.64 129.57 103.542 132.47 99.2444 136.36C91.9892 142.921 87.4223 151.869 86.3858 161.555C86.3468 161.921 86.3853 162.292 86.4987 162.642C86.6121 162.992 86.7978 163.315 87.0439 163.589C87.29 163.863 87.591 164.082 87.9272 164.232C88.2635 164.382 88.6275 164.459 88.9957 164.46H162.75C163.495 164.46 164.204 164.143 164.702 163.589C164.948 163.315 165.134 162.993 165.248 162.642C165.361 162.292 165.399 161.922 165.36 161.556ZM109.744 109.982C109.744 101.088 116.98 93.8533 125.873 93.8533C134.766 93.8533 142.001 101.088 142.001 109.982C142.001 118.875 134.766 126.11 125.873 126.11C116.98 126.11 109.744 118.875 109.744 109.982ZM92.0407 159.21C95.1421 143.142 109.203 131.36 125.873 131.36C142.543 131.36 156.604 143.142 159.705 159.21L92.0407 159.21ZM103.971 90.6511C104.337 91.0218 104.804 91.2753 105.315 91.3795C105.825 91.4836 106.354 91.4336 106.836 91.2359C107.318 91.0381 107.73 90.7016 108.02 90.269C108.309 89.8364 108.464 89.3274 108.464 88.8067V76.3553H142.437C148.472 76.3553 153.382 71.4456 153.382 65.4107V55.4984L157.931 50.9493C158.306 50.5742 158.559 50.0942 158.656 49.5727C158.753 49.0511 158.689 48.5125 158.474 48.0277L157.095 44.9226C157.93 43.3823 158.603 41.7593 159.103 40.0798L162.271 38.8602C162.766 38.6696 163.192 38.3335 163.492 37.8962C163.792 37.4589 163.953 36.9409 163.953 36.4104V29.1998C163.953 28.6694 163.792 28.1514 163.492 27.714C163.192 27.2767 162.766 26.9406 162.271 26.7501L159.104 25.5311C158.604 23.8509 157.931 22.2272 157.095 20.6863L158.474 17.5829C158.689 17.0981 158.753 16.5595 158.656 16.0379C158.559 15.5164 158.306 15.0364 157.931 14.6613L152.832 9.56255C152.457 9.18751 151.977 8.9349 151.456 8.83802C150.934 8.74113 150.396 8.80452 149.911 9.01983L146.806 10.3989C145.265 9.56368 143.642 8.8908 141.963 8.39115L140.743 5.22277C140.553 4.72766 140.217 4.30191 139.779 4.00165C139.342 3.70138 138.824 3.54071 138.294 3.5408H131.083C130.553 3.5408 130.034 3.70151 129.597 4.00176C129.16 4.30201 128.824 4.72772 128.633 5.22277L127.414 8.39115C125.734 8.89062 124.111 9.56351 122.571 10.3989L119.465 9.01983C118.981 8.80463 118.442 8.74133 117.92 8.83826C117.399 8.9352 116.919 9.18783 116.544 9.56288L112.241 13.8666H85.2702C81.0397 13.8666 77.2426 16.3186 75.4333 20.0255H12.1528C6.89916 20.0255 2.625 24.2996 2.625 29.5532V63.2366C2.625 68.4902 6.89916 72.7643 12.1528 72.7643H61.2957V82.6478C61.2954 83.1685 61.45 83.6775 61.7399 84.1101C62.0297 84.5427 62.4417 84.8792 62.9234 85.077C63.4051 85.2747 63.9347 85.3247 64.4449 85.2206C64.9551 85.1164 65.4227 84.8629 65.7884 84.4922L77.2734 72.8618C79.3328 75.0701 82.2222 76.3553 85.2702 76.3553H89.8537L103.971 90.6511ZM142.437 71.105H105.839C105.143 71.105 104.475 71.3816 103.983 71.8739C103.491 72.3661 103.214 73.0338 103.214 73.73V82.4125L92.8184 71.8856C92.5742 71.6384 92.2834 71.4421 91.9628 71.3081C91.6422 71.1741 91.2982 71.1051 90.9507 71.105H86.3507C88.8408 69.4017 90.4844 66.549 90.5113 63.317H124.83C125.526 63.317 126.194 63.0404 126.686 62.5481C127.178 62.0558 127.455 61.3882 127.455 60.692C127.455 59.9958 127.178 59.3281 126.686 58.8358C126.194 58.3435 125.526 58.067 124.83 58.067H90.5133V52.8143H113.312L116.545 56.0474C116.92 56.4225 117.4 56.6752 117.921 56.7721C118.443 56.8691 118.982 56.8057 119.466 56.5904L122.572 55.2113C124.112 56.0464 125.735 56.7193 127.415 57.2191L128.634 60.3875C128.825 60.8826 129.161 61.3083 129.598 61.6086C130.035 61.9089 130.553 62.0695 131.084 62.0694H138.295C138.825 62.0694 139.343 61.9087 139.78 61.6085C140.218 61.3082 140.554 60.8825 140.744 60.3875L141.964 57.2204C143.644 56.7206 145.267 56.0475 146.808 55.212L148.133 55.8003V65.4104C148.132 68.5506 145.577 71.105 142.437 71.105ZM90.5133 47.5643V42.3114H111.059C111.417 43.2047 111.825 44.0769 112.282 44.9236L111.109 47.5643H90.5133ZM105.513 37.0614H90.5133V31.8088H105.424V36.4104C105.424 36.6342 105.459 36.8514 105.513 37.0614ZM115.017 28.1082C115.512 26.0278 116.336 24.0398 117.458 22.2193C117.682 21.8562 117.814 21.4441 117.842 21.0187C117.871 20.5932 117.795 20.1672 117.622 19.7774L116.433 17.0989L118.983 14.5491L121.662 15.7388C122.051 15.9119 122.477 15.9874 122.903 15.9589C123.328 15.9303 123.74 15.7984 124.103 15.5748C125.924 14.4525 127.911 13.6283 129.992 13.1335C130.406 13.0348 130.791 12.8366 131.112 12.5559C131.433 12.2753 131.681 11.9207 131.834 11.5228L132.886 8.79015H136.491L137.543 11.5228C137.696 11.9207 137.944 12.2753 138.265 12.5559C138.586 12.8366 138.97 13.0348 139.385 13.1335C141.466 13.6285 143.453 14.4526 145.274 15.5748C145.637 15.7983 146.049 15.93 146.474 15.9586C146.9 15.9871 147.326 15.9116 147.715 15.7385L150.394 14.5491L152.944 17.0986L151.755 19.7761C151.582 20.1659 151.506 20.592 151.535 21.0175C151.563 21.443 151.695 21.8552 151.919 22.2183C153.041 24.039 153.866 26.0275 154.361 28.1085C154.459 28.5233 154.657 28.9078 154.938 29.2288C155.218 29.5497 155.573 29.7975 155.971 29.9506L158.703 31.0022V34.608L155.97 35.66C155.572 35.813 155.217 36.0608 154.937 36.3817C154.656 36.7027 154.458 37.0873 154.36 37.5021C153.864 39.5824 153.04 41.5704 151.918 43.3909C151.694 43.754 151.563 44.1661 151.534 44.5915C151.506 45.0169 151.581 45.4428 151.754 45.8325L152.944 48.5113L150.394 51.0612L147.717 49.8721C147.327 49.6989 146.901 49.6233 146.475 49.6519C146.05 49.6805 145.638 49.8124 145.275 50.0361C143.454 51.1586 141.466 51.983 139.385 52.478C138.97 52.5767 138.586 52.775 138.265 53.0556C137.944 53.3363 137.696 53.6909 137.543 54.0888L136.491 56.8204H132.886L131.834 54.0878C131.681 53.6899 131.433 53.3354 131.112 53.0547C130.791 52.7741 130.407 52.5758 129.992 52.477C127.912 51.982 125.924 51.1579 124.103 50.0358C123.74 49.8123 123.328 49.6806 122.903 49.652C122.477 49.6234 122.051 49.6988 121.662 49.8717L118.983 51.0615L116.433 48.5116L117.622 45.8341C117.795 45.4444 117.87 45.0184 117.842 44.5929C117.813 44.1674 117.682 43.7553 117.458 43.3922C116.335 41.5714 115.511 39.5828 115.016 37.5017C114.917 37.087 114.719 36.7026 114.439 36.3817C114.158 36.0608 113.803 35.8131 113.406 35.66L110.674 34.6087V31.0022L113.406 29.9503C113.804 29.7971 114.159 29.5494 114.439 29.2284C114.72 28.9074 114.918 28.5229 115.017 28.1082ZM111.584 19.1166L112.282 20.6873C111.447 22.2278 110.774 23.851 110.274 25.5308L107.603 26.5588H90.0989C90.0756 26.5588 90.0526 26.5617 90.0293 26.5624C88.8841 23.1092 85.8149 20.5272 82.0969 20.0927C83.0334 19.458 84.1385 19.1181 85.2698 19.1169H111.584V19.1166ZM74.405 68.295L66.5457 76.2536V70.1393C66.5457 69.4432 66.2692 68.7755 65.7769 68.2832C65.2846 67.7909 64.6169 67.5143 63.9207 67.5143H12.1528C9.7942 67.5143 7.875 65.5951 7.875 63.2366V29.5532C7.875 27.1947 9.7942 25.2755 12.1528 25.2755H80.9852C83.3437 25.2755 85.263 27.1943 85.263 29.5532V63.2366C85.263 65.5951 83.3437 67.5143 80.9852 67.5143H76.2727C75.9252 67.5144 75.5812 67.5834 75.2606 67.7174C74.94 67.8514 74.6491 68.0477 74.405 68.295ZM79.3387 46.1593C79.3387 46.8555 79.0621 47.5232 78.5698 48.0155C78.0775 48.5078 77.4099 48.7843 76.7137 48.7843H16.4246C15.7284 48.7843 15.0608 48.5078 14.5685 48.0155C14.0762 47.5232 13.7996 46.8555 13.7996 46.1593C13.7996 45.4631 14.0762 44.7954 14.5685 44.3032C15.0608 43.8109 15.7284 43.5343 16.4246 43.5343H76.7137C77.4099 43.5343 78.0775 43.8109 78.5698 44.3032C79.0621 44.7954 79.3387 45.4631 79.3387 46.1593ZM79.3387 56.4887C79.3387 57.1849 79.0621 57.8526 78.5698 58.3448C78.0775 58.8371 77.4099 59.1137 76.7137 59.1137H16.4246C15.7284 59.1137 15.0608 58.8371 14.5685 58.3448C14.0762 57.8526 13.7996 57.1849 13.7996 56.4887C13.7996 55.7925 14.0762 55.1248 14.5685 54.6325C15.0608 54.1403 15.7284 53.8637 16.4246 53.8637H76.7137C77.4099 53.8637 78.0775 54.1403 78.5698 54.6325C79.0621 55.1248 79.3387 55.7925 79.3387 56.4887ZM79.3387 35.8299C79.3387 36.5261 79.0621 37.1938 78.5698 37.6861C78.0775 38.1784 77.4099 38.4549 76.7137 38.4549H16.4246C15.7284 38.4549 15.0608 38.1784 14.5685 37.6861C14.0762 37.1938 13.7996 36.5261 13.7996 35.8299C13.7996 35.1337 14.0762 34.4661 14.5685 33.9738C15.0608 33.4815 15.7284 33.2049 16.4246 33.2049H76.7137C77.4099 33.2049 78.0775 33.4815 78.5698 33.9738C79.0621 34.4661 79.3387 35.1337 79.3387 35.8299ZM134.689 47.8994C143.012 47.8994 149.783 41.1282 149.783 32.805C149.783 24.4817 143.012 17.7106 134.689 17.7106C126.366 17.7106 119.594 24.4817 119.594 32.805C119.594 41.1282 126.366 47.8994 134.689 47.8994ZM134.689 22.9606C140.117 22.9606 144.533 27.3768 144.533 32.805C144.533 38.2331 140.117 42.6494 134.689 42.6494C129.261 42.6494 124.844 38.2331 124.844 32.805C124.844 27.3768 129.261 22.9606 134.689 22.9606ZM128.619 34.9122C128.371 34.6695 128.173 34.3799 128.037 34.0603C127.902 33.7407 127.831 33.3973 127.829 33.0501C127.827 32.7029 127.894 32.3588 128.026 32.0377C128.158 31.7165 128.352 31.4247 128.598 31.1792C128.843 30.9337 129.135 30.7393 129.456 30.6073C129.777 30.4753 130.121 30.4083 130.468 30.4102C130.816 30.4122 131.159 30.4829 131.479 30.6184C131.798 30.754 132.088 30.9516 132.331 31.1998L133.021 31.8895L137.139 28.1525C137.394 27.9208 137.692 27.7417 138.017 27.6254C138.341 27.5091 138.685 27.4578 139.03 27.4745C139.374 27.4912 139.712 27.5756 140.023 27.7228C140.335 27.87 140.615 28.0772 140.847 28.3324C141.078 28.5877 141.257 28.8862 141.374 29.2107C141.49 29.5352 141.541 29.8794 141.524 30.2237C141.508 30.568 141.423 30.9057 141.276 31.2174C141.129 31.5291 140.922 31.8088 140.667 32.0404L134.697 37.4581C134.215 37.897 133.586 38.14 132.933 38.1393C132.26 38.1393 131.588 37.8817 131.077 37.3705L128.619 34.9122Z" fill="#044D45"/>
</svg>
