<svg width="197" height="196" viewBox="0 0 197 196" fill="none" xmlns="http://www.w3.org/2000/svg">
<path d="M196.931 30.4642C196.705 28.3858 195.954 26.3993 194.747 24.6921C193.541 22.9848 191.919 21.6132 190.035 20.7066L149.507 1.20299C147.276 0.135455 144.776 -0.233634 142.332 0.144057C139.888 0.521747 137.616 1.62861 135.812 3.31969C135.719 3.40036 135.627 3.49256 135.535 3.58091L70.1977 75.8176L32.0702 44.555L28.7281 41.7891C27.5752 40.8052 26.1722 40.1602 24.6749 39.9256C23.1775 39.6909 21.6445 39.8759 20.2459 40.4599L5.35217 46.6064C2.3135 47.8703 0.33125 50.8321 0.312042 54.1243V141.528C0.33125 144.82 2.3135 147.782 5.35217 149.046L20.2459 155.296C23.1002 156.487 26.3809 155.972 28.7281 153.963L32.0702 151.097L70.1977 119.834L135.535 192.071C135.623 192.159 135.712 192.244 135.804 192.325C139.488 195.782 144.928 196.639 149.507 194.449L190.035 174.945C191.919 174.039 193.541 172.667 194.747 170.96C195.954 169.253 196.705 167.266 196.931 165.188C196.977 164.757 197 164.32 197 163.882V31.7703C197 31.3324 196.977 30.8944 196.931 30.4642ZM24.898 125.904V69.748L50.2946 97.826L24.898 125.904ZM97.0387 97.826L147.828 56.1834V139.468L97.0387 97.826Z" fill="#044D45"/>
<path d="M32.0702 44.555L28.7281 41.7891C27.5752 40.8053 26.1722 40.1602 24.6749 39.9256C23.1775 39.6909 21.6445 39.8759 20.2459 40.4599C21.6353 39.8611 23.1634 39.6589 24.6607 39.8759C26.158 40.0929 27.5659 40.7206 28.7281 41.6892L32.0702 44.555ZM196.931 165.188C196.71 167.27 195.96 169.261 194.753 170.972C193.546 172.683 191.922 174.057 190.035 174.965L149.507 194.449L190.035 174.945C191.919 174.039 193.541 172.667 194.747 170.96C195.954 169.253 196.705 167.266 196.931 165.188ZM190.035 20.7066L149.507 1.203L190.035 20.6874C191.922 21.5946 193.546 22.9689 194.753 24.68C195.96 26.391 196.71 28.3821 196.931 30.4642C196.705 28.3859 195.954 26.3993 194.747 24.6921C193.541 22.9848 191.919 21.6132 190.035 20.7066Z" fill="#044D45"/>
</svg>
